/* XPM */
static char * dino1_xpm[] = {
"64 64 152 2",
"  	c #657381",
". 	c #576168",
"+ 	c #4D4E55",
"@ 	c #434046",
"# 	c #39383B",
"$ 	c #4E5057",
"% 	c #382121",
"& 	c #5B6970",
"* 	c #5B6971",
"= 	c #505B62",
"- 	c #636D7B",
"; 	c #525960",
"> 	c #49494F",
", 	c #3F3D42",
"' 	c #383738",
") 	c #3F3D41",
"! 	c #494A50",
"~ 	c #5A676F",
"{ 	c #505C62",
"] 	c #5E6371",
"^ 	c #3F3F42",
"/ 	c #383839",
"( 	c #353536",
"_ 	c #403F43",
": 	c #57636A",
"< 	c #515D63",
"[ 	c #5B5C6B",
"} 	c #444046",
"| 	c #3A383B",
"1 	c #3C3B3E",
"2 	c #413E42",
"3 	c #545A62",
"4 	c #576169",
"5 	c #50575E",
"6 	c #5A5C6A",
"7 	c #434045",
"8 	c #A04345",
"9 	c #BC4D4F",
"0 	c #575B68",
"a 	c #3B3A3C",
"b 	c #3F3F43",
"c 	c #525763",
"d 	c #403D41",
"e 	c #4E5460",
"f 	c #433F44",
"g 	c #4E4F57",
"h 	c #4B9A27",
"i 	c #FFFFFF",
"j 	c #555D69",
"k 	c #3C4143",
"l 	c #353838",
"m 	c #39383A",
"n 	c #606C79",
"o 	c #4B545A",
"p 	c #3C4042",
"q 	c #657481",
"r 	c #546168",
"s 	c #475054",
"t 	c #414448",
"u 	c #667481",
"v 	c #59666E",
"w 	c #546067",
"x 	c #4D555B",
"y 	c #636E7B",
"z 	c #566067",
"A 	c #4F575D",
"B 	c #4D4F55",
"C 	c #48494F",
"D 	c #525966",
"E 	c #403D42",
"F 	c #3F535D",
"G 	c #393738",
"H 	c #35515A",
"I 	c #3A3739",
"J 	c #3D5660",
"K 	c #443F44",
"L 	c #4C606C",
"M 	c #4E4E55",
"N 	c #5E6C7A",
"O 	c #4D4D54",
"P 	c #454247",
"Q 	c #3E3B3F",
"R 	c #413F43",
"S 	c #494950",
"T 	c #57626A",
"U 	c #4D4F56",
"V 	c #4A474E",
"W 	c #576269",
"X 	c #433F45",
"Y 	c #50565D",
"Z 	c #353636",
"` 	c #D8B78F",
" .	c #FFD7A8",
"..	c #3C3A3D",
"+.	c #3B3C3F",
"@.	c #3F4246",
"#.	c #404649",
"$.	c #3F3E41",
"%.	c #525E64",
"&.	c #4B4C52",
"*.	c #4A474F",
"=.	c #454147",
"-.	c #333434",
";.	c #343434",
">.	c #3E3C3F",
",.	c #49444B",
"'.	c #535A62",
").	c #4A464E",
"!.	c #51575E",
"~.	c #556067",
"{.	c #4A4D53",
"].	c #545E65",
"^.	c #44484D",
"/.	c #3A393B",
"(.	c #525E65",
"_.	c #57636B",
":.	c #3F4649",
"<.	c #313131",
"[.	c #4F575E",
"}.	c #313130",
"|.	c #3D3B3F",
"1.	c #403E42",
"2.	c #51585F",
"3.	c #515662",
"4.	c #48494E",
"5.	c #423F44",
"6.	c #576068",
"7.	c #423F43",
"8.	c #3E4245",
"9.	c #4E545F",
"0.	c #48434A",
"a.	c #47494E",
"b.	c #3F4245",
"c.	c #4E575D",
"d.	c #5A606A",
"e.	c #424045",
"f.	c #6C747A",
"g.	c #6C7A80",
"h.	c #3F4447",
"i.	c #5B747D",
"j.	c #3F4548",
"k.	c #56707C",
"l.	c #404548",
"m.	c #424246",
"n.	c #52575E",
"o.	c #60727F",
"p.	c #535E65",
"q.	c #414447",
"r.	c #343435",
"s.	c #58636B",
"t.	c #63707D",
"u.	c #5B656B",
"  . + @ # # @ $ . % % % % % % % % % % % % % % % % % % % % % % % % % % % % % % % % % % % % % % % % % % % % % % % % % % % & * & = ",
"- ; > , ' ' ) ! ; % % % % % % % % % % % % % % % % % % % % % % % % % % % % % % % % % % % % % % % % % % % % % % % % % % % ~ * * { ",
"] ! ^ / ( ( / _ ! % % % % % % % % % % % % % % % % % % % % % % % % % % % % % % % % % % % % % % % % % % % % % % % % % % % : * & < ",
"[ } / ( ' # | 1 2 % % % % % % % % % % % % % % % % % % % % % % % % % % % % % % % % % % % % % % % % % % % % % % % % % % % 3 4 4 5 ",
"6 7 / / % % % % % % % % % 8 8 8 8 8 8 8 8 8 8 8 8 8 8 8 8 8 9 9 9 9 9 9 9 9 9 9 9 9 9 9 9 9 9 9 9 9 9 9 9 9 9 9 9 9 9 9 % % % % ",
"0 2 a b % % % % % % % % % 8 8 8 8 8 8 8 8 8 8 8 8 8 8 8 8 8 9 9 9 9 9 9 9 9 9 9 9 9 9 9 9 9 9 9 9 9 9 9 9 9 9 9 9 9 9 9 % % % % ",
"c 1 d ! % % % % % % % % % 8 8 8 8 8 8 8 8 8 8 8 8 8 8 8 8 8 9 9 9 9 9 9 9 9 9 9 9 9 9 9 9 9 9 9 9 9 9 9 9 9 9 9 9 9 9 9 % % % % ",
"e | f g % % % % % % % % % 8 8 8 8 8 8 8 8 8 8 8 8 8 8 8 8 8 9 9 9 9 9 9 9 9 9 9 9 9 9 9 9 9 9 9 9 9 9 9 9 9 9 9 9 9 9 9 % % % % ",
"% % % % h h h h h % % % % 8 8 8 8 8 8 8 8 8 8 8 8 8 8 8 8 8 8 8 8 8 9 9 9 9 9 9 9 9 9 8 8 8 8 8 8 8 8 8 8 8 8 9 9 9 9 9 % % % % ",
"% % % % h h h h h % % % % 8 8 8 8 8 8 8 8 8 8 8 8 8 8 8 8 8 8 8 8 8 9 9 9 9 9 9 9 9 9 8 8 8 8 8 8 8 8 8 8 8 8 9 9 9 9 9 % % % % ",
"% % % % h h h h h % % % % 8 8 8 8 8 8 8 8 8 8 8 8 8 8 8 8 8 8 8 8 8 9 9 9 9 9 9 9 9 9 8 8 8 8 8 8 8 8 8 8 8 8 9 9 9 9 9 % % % % ",
"% % % % h h h h h % % % % 8 8 8 8 i i i i % % % % % i i i i 8 8 8 8 9 9 9 9 % % % % % 9 9 9 9 9 9 9 9 9 9 9 9 % % % % % % % % % ",
"% % % % h h h h h % % % % 8 8 8 8 i i i i % % % % % i i i i 8 8 8 8 9 9 9 9 % % % % % 9 9 9 9 9 9 9 9 9 9 9 9 % % % % % % % % % ",
"% % % % h h h h h % % % % 8 8 8 8 i i i i % % % % % i i i i 8 8 8 8 9 9 9 9 % % % % % 9 9 9 9 9 9 9 9 9 9 9 9 % % % % % % % % % ",
"% % % % h h h h h % % % % 8 8 8 8 i i i i % % % % % i i i i 8 8 8 8 9 9 9 9 % % % % % 9 9 9 9 9 9 9 9 9 9 9 9 % % % % % % % % % ",
"% % % % % % % % % % % % % 8 8 8 8 i i i i % % % % % i i i i 8 8 8 8 9 9 9 9 9 9 9 9 9 9 9 9 9 9 9 9 9 9 9 9 9 9 9 9 9 9 % % % % ",
"% % % % % % % % % % % % % 8 8 8 8 i i i i % % % % % i i i i 8 8 8 8 9 9 9 9 9 9 9 9 9 9 9 9 9 9 9 9 9 9 9 9 9 9 9 9 9 9 % % % % ",
"% % % % % % % % % % % % % 8 8 8 8 i i i i % % % % % i i i i 8 8 8 8 9 9 9 9 9 9 9 9 9 9 9 9 9 9 9 9 9 9 9 9 9 9 9 9 9 9 % % % % ",
"% % % % % % % % % % % % % 8 8 8 8 i i i i % % % % % i i i i 8 8 8 8 9 9 9 9 9 9 9 9 9 9 9 9 9 9 9 9 9 9 9 9 9 9 9 9 9 9 % % % % ",
"j k l m % % % % % h h h h % % % % i i i i % % % % % i i i i 8 8 8 8 9 9 9 9 9 9 9 9 9 9 9 9 9 9 9 9 9 9 9 9 9 9 9 9 9 9 % % % % ",
"n o p # % % % % % h h h h % % % % i i i i % % % % % i i i i 8 8 8 8 9 9 9 9 9 9 9 9 9 9 9 9 9 9 9 9 9 9 9 9 9 9 9 9 9 9 % % % % ",
"q r s t % % % % % h h h h % % % % i i i i % % % % % i i i i 8 8 8 8 9 9 9 9 9 9 9 9 9 9 9 9 9 9 9 9 9 9 9 9 9 9 9 9 9 9 % % % % ",
"u v w x % % % % % h h h h % % % % i i i i % % % % % i i i i 8 8 8 8 9 9 9 9 9 9 9 9 9 9 9 9 9 9 9 9 9 9 9 9 9 9 9 9 9 9 % % % % ",
"y 4 z A % % % % % h h h h % % % % 8 8 8 8 8 8 8 8 8 8 8 8 8 8 8 8 8 9 9 9 9 9 9 9 9 9 9 9 9 9 9 9 9 9 9 9 9 9 9 9 9 9 9 % % % % ",
"] $ B C % % % % % h h h h % % % % 8 8 8 8 8 8 8 8 8 8 8 8 8 8 8 8 8 9 9 9 9 9 9 9 9 9 9 9 9 9 9 9 9 9 9 9 9 9 9 9 9 9 9 % % % % ",
"D } f E % % % % % h h h h % % % % 8 8 8 8 8 8 8 8 8 8 8 8 8 8 8 8 8 9 9 9 9 9 9 9 9 9 9 9 9 9 9 9 9 9 9 9 9 9 9 9 9 9 9 % % % % ",
"F | G / % % % % % % % % % % % % % 8 8 8 8 8 8 8 8 8 8 8 8 8 8 8 8 8 8 8 8 8 9 9 9 9 9 % % % % % % % % % % % % % % % % % % % % % ",
"H | I / % % % % % % % % % % % % % 8 8 8 8 8 8 8 8 8 8 8 8 8 8 8 8 8 8 8 8 8 9 9 9 9 9 % % % % % % % % % % % % % % % % % % % % % ",
"J } K E % % % % % % % % % % % % % 8 8 8 8 8 8 8 8 8 8 8 8 8 8 8 8 8 8 8 8 8 9 9 9 9 9 % % % % % % % % % % % % % % % % % % % % % ",
"L g M ! % % % % % % % % % % % % % 8 8 8 8 8 8 8 8 8 8 8 8 8 8 8 8 8 8 8 8 8 9 9 9 9 9 % % % % % % % % % % % % % % % % % % % % % ",
"N 4 z ; % % % % % % % % % 8 8 8 8 8 8 8 8 9 9 9 9 9 9 9 9 9 9 9 9 9 9 9 9 9 % % % % % 4 g } # # } O 3 3 O P Q 1 R S ; T ~ * * { ",
"  * & 4 % % % % % % % % % 8 8 8 8 8 8 8 8 9 9 9 9 9 9 9 9 9 9 9 9 9 9 9 9 9 % % % % % . U @ # | } O 3 3 O } | # @ U . & & * & = ",
"u * & 4 % % % % % % % % % 8 8 8 8 8 8 8 8 9 9 9 9 9 9 9 9 9 9 9 9 9 9 9 9 9 % % % % % . U @ # | @ V O O V @ | # } g 4 & * * & = ",
"q ~ W ; % % % % % % % % % 8 8 8 8 8 8 8 8 9 9 9 9 9 9 9 9 9 9 9 9 9 9 9 9 9 % % % % % 4 g } # / ) X X X X ) / # } g 4 & * * & { ",
"  T Y ! ^ / ( Z / % % % % 8 8 8 8 ` ` ` `  . . . . . . . . . . . . . . . . .% % % % % . U } # Z / | | | | / Z # } U . & & * & < ",
"y ; C 2 ..| | / Z % % % % 8 8 8 8 ` ` ` `  . . . . . . . . . . . . . . . . .% % % % % ; ! R 1 +.@.#.#.#.#.@.+.1 R ! ; . 4 4 . 5 ",
"] S $.1 2 } } , / % % % % 8 8 8 8 ` ` ` `  . . . . . . . . . . . . . . . . .% % % % % S b 1 2 C A %.%.%.%.A C 2 1 b S U g g U &.",
"0 2 a b ! O *.} | % % % % 8 8 8 8 ` ` ` `  . . . . . . . . . . . . . . . . .% % % % % , / | } O 3 . 4 4 . 3 O } | / ) @ } @ @ =.",
"% % % % % % % % % % % % % 8 8 8 8 ` ` ` `  . . . . . . . . . . . . . . . . .% % % % % ' ( | } V O $ $ $ $ O V } | ( ' # | m # Q ",
"% % % % % % % % % % % % % 8 8 8 8 ` ` ` `  . . . . . . . . . . . . . . . . .% % % % % -.;./ , @ } @ @ @ } } @ , / ( ' # | # | >.",
"% % % % % % % % % % % % % 8 8 8 8 ` ` ` `  . . . . . . . . . . . . . . . . .% % % % % ;.;.Z / | | # # # # | | / Z / , @ } @ @ =.",
"% % % % 9 9 9 9 9 9 9 9 9 8 8 8 8 ` ` ` `  . . . . . . . . . . . . . . . . .% % % % % # | # # # # | | / Z Z / # | ^ S g g O V ,.",
"% % % % 9 9 9 9 9 9 9 9 9 8 8 8 8 ` ` ` `  . . . . . . . . . . . . . . . . .% % % % % } } } @ @ @ } @ ) / / ) 7 } ! ; 4 4 '.O ,.",
"% % % % 9 9 9 9 9 9 9 9 9 8 8 8 8 ` ` ` `  . . . . . . . . . . . . . . . . .% % % % % $ $ U U g U O ).X # | } V O !.T & & ~.{.} ",
"% % % % 9 9 9 9 9 9 9 9 9 8 8 8 8 ` ` ` `  . . . . . . . . . . . . . . . . .% % % % % . 4 . . 4 . 3 O } | | } O 3 T ~ * * ].^./.",
"% % % % % % % % % 8 8 8 8 8 8 8 8 8 8 8 8 % % % % % ` ` ` ` ` ` ` ` 9 9 9 9 % % % % % T ~ & & & & : !.! b 1 2 S ; T ~ * * (.#.-.",
"% % % % % % % % % 8 8 8 8 8 8 8 8 8 8 8 8 % % % % % ` ` ` ` ` ` ` ` 9 9 9 9 % % % % % !._.& * * & ~ T ; S 2 1 ^ ! !.: * & %.:.<.",
"% % % % % % % % % 8 8 8 8 8 8 8 8 8 8 8 8 % % % % % ` ` ` ` ` ` ` ` 9 9 9 9 % % % % % S ; T ~ * * ~ T ; S 2 ....2 S ; 4 4 [.@.}.",
"% % % % % % % % % 8 8 8 8 8 8 8 8 8 8 8 8 % % % % % ` ` ` ` ` ` ` ` 9 9 9 9 % % % % % ^ S !.T & & : !.! b |.2 2 1 ^ S $ g C +.}.",
"y T v & % % % % % % % % % 8 8 8 8 9 9 9 9 9 9 9 9 9 % % % % 9 9 9 9 9 9 9 9 % % % % % ..2 S ; 4 4 ; S 2 ..b S S b 1 2 } } 1./ <.",
"] !.W & % % % % % % % % % 8 8 8 8 9 9 9 9 9 9 9 9 9 % % % % 9 9 9 9 9 9 9 9 % % % % % 2 1 ^ S g g S ^ ..2 ! ; ; ! 2 ..| # / ( -.",
"0 S 2.T % % % % % % % % % 8 8 8 8 9 9 9 9 9 9 9 9 9 % % % % 9 9 9 9 9 9 9 9 % % % % % S ^ 1 2 } } 2 1 ^ S !.T T !.! ^ / ( ;.;.Z ",
"3.^ 4.!.% % % % % % % % % 8 8 8 8 9 9 9 9 9 9 9 9 9 % % % % 9 9 9 9 9 9 9 9 % % % % % ; S 2 ..# # ..2 S ; : ~ ~ : ; S , ' ;.;./ ",
"e | 5.O 3 ; ! @ X } @ ) / % % % % 8 8 8 8 9 9 9 9 9 % % % % % % % % % % % % @ U 6.& & : !.C +.( ' ^ S !.T & & & & . U } # ;.;./.",
"e # 7.V O S ^ # m | # ' ( % % % % 8 8 8 8 9 9 9 9 9 % % % % % % % % % % % % } g 4 * * ~ T A 8.' ) S ; T ~ & & * & 4 g } | ;.;./.",
"9.| 5.0.P 2 1 # # # # # | % % % % 8 8 8 8 9 9 9 9 9 % % % % % % % % % % % % C !._.& & * & %.#.+.a.!.: & & & & & & . U } # ;.-.| ",
"e /.5.=.Q 1 2 @ } @ @ } } 2 1 ^ S % % % % % % % % % % % % % % % % % O @ | b.c.T ~ & & * & %.#.b.c.T ~ & & & & & & . U } # ;.;./.",
"d.t e.2 1 ^ S U g g U O ).7 # / , % % % % % % % % % % % % % % % % % S ) ' 8.A 6.4 : ~ ~ : c.b.b.c.T ~ & * & & * & 4 g } # ( ' Q ",
"f.x @.1 2 S ; . 4 4 . 3 O } # ( ' % % % % % % % % % % % % % % % % % b / ( +.C U $ !.T : !.a.+.+.C !.: & & & & & & . U @ # / , =.",
"g.%.h.+.a.!.: & & & & : !.! b / ( % % % % % % % % % % % % % % % % % 1 # # ..2 X X S ; ; ! E / / ) S ; . 4 . . 4 . ; S 2 ..b S &.",
"i.%.j.8.c.T ~ & * * & ~ T ; S , ' / ) } } ) / / , } } } @ 2 1 # # 1 2 } } R 1 m # b S S b / ( ( / ^ S U g U U g U S b 1 2 ! ; 5 ",
"k.%.l.b.c.T ~ & & & & ~ T ; S 2 1 b S O V @ | +.C U $ $ U C +.( / b ! g g {.^.#.:.t m.E / ;.;.( / 1 7.} } } } } } 2 1 ^ S n.T < ",
"o.%.j.+.a.!.: & & & & : !.! b 1 R ! ; 3 O @ | @.A . 4 4 . A 8.' ) S ; . 4 ~.p.(.%.x q./ r.;.;./ E 2 1 # # # # # # ..2 S ; s.~ { ",
"t.%.j.m X U 6.& & & & 6.U X m # } $ 4 4 $ X # #.%.& * * & %.#.| X g 4 & * & * * * (.#.;.-.;.;./.} } /.;.-.;.;.-.;.# } g 4 * * u."};
