/* XPM */
static char * dino2_xpm[] = {
"64 64 149 2",
"  	c #657381",
". 	c #576168",
"+ 	c #4D4E55",
"@ 	c #434046",
"# 	c #39383B",
"$ 	c #4E5057",
"% 	c #4D4F56",
"& 	c #5B6970",
"* 	c #5B6971",
"= 	c #525D64",
"- 	c #404649",
"; 	c #525E64",
"> 	c #433F45",
", 	c #566068",
"' 	c #49444B",
") 	c #49434A",
"! 	c #3A393B",
"~ 	c #505B62",
"{ 	c #636D7B",
"] 	c #525960",
"^ 	c #49494F",
"/ 	c #3F3D42",
"( 	c #383738",
"_ 	c #3F3D41",
": 	c #494A50",
"< 	c #413E42",
"[ 	c #3C3A3D",
"} 	c #3F3F42",
"| 	c #494950",
"1 	c #51575E",
"2 	c #57626A",
"3 	c #3F4245",
"4 	c #4E575D",
"5 	c #57636B",
"6 	c #5A676F",
"7 	c #3B3C3F",
"8 	c #47494E",
"9 	c #57636A",
"0 	c #434045",
"a 	c #4D4D54",
"b 	c #4A464E",
"c 	c #3A383B",
"d 	c #383839",
"e 	c #505C62",
"f 	c #5E6371",
"g 	c #353536",
"h 	c #403F43",
"i 	c #3C3B3E",
"j 	c #52575E",
"k 	c #3E4245",
"l 	c #4E565C",
"m 	c #48494F",
"n 	c #4E4F57",
"o 	c #5A676E",
"p 	c #535A61",
"q 	c #4D4C54",
"r 	c #444046",
"s 	c #3F3F43",
"t 	c #515D63",
"u 	c #5B5C6B",
"v 	c #4F575D",
"w 	c #576169",
"x 	c #576068",
"y 	c #545A62",
"z 	c #343434",
"A 	c #50575E",
"B 	c #5A5C6A",
"C 	c #413F43",
"D 	c #382121",
"E 	c #4B4C53",
"F 	c #575B68",
"G 	c #3B3A3C",
"H 	c #464247",
"I 	c #525763",
"J 	c #403D41",
"K 	c #39383A",
"L 	c #3E3B3F",
"M 	c #4E5460",
"N 	c #433F44",
"O 	c #423F44",
"P 	c #A04345",
"Q 	c #BC4D4F",
"R 	c #3F3C3F",
"S 	c #373637",
"T 	c #4B9A27",
"U 	c #FFFFFF",
"V 	c #636E7B",
"W 	c #566067",
"X 	c #4D4F55",
"Y 	c #525966",
"Z 	c #403D42",
"` 	c #3F535D",
" .	c #393738",
"..	c #35515A",
"+.	c #3A3739",
"@.	c #3D5660",
"#.	c #443F44",
"$.	c #4C606C",
"%.	c #4E4E55",
"&.	c #5E6C7A",
"*.	c #667481",
"=.	c #657481",
"-.	c #576269",
";.	c #50565D",
">.	c #353636",
",.	c #3F4246",
"'.	c #3F3E41",
").	c #4B4C52",
"!.	c #454147",
"~.	c #515662",
"{.	c #D8B78F",
"].	c #FFD7A8",
"^.	c #4A474E",
"/.	c #333434",
"(.	c #3E3C3F",
"_.	c #4A474F",
":.	c #3F3B3F",
"<.	c #535A62",
"[.	c #556067",
"}.	c #4A4D53",
"|.	c #545E65",
"1.	c #44484D",
"2.	c #525E65",
"3.	c #3F4649",
"4.	c #313131",
"5.	c #4F575E",
"6.	c #313130",
"7.	c #3D3B3F",
"8.	c #403E42",
"9.	c #5A606A",
"0.	c #414448",
"a.	c #424045",
"b.	c #6C747A",
"c.	c #4D555B",
"d.	c #6C7A80",
"e.	c #3F4447",
"f.	c #5B747D",
"g.	c #3F4548",
"h.	c #56707C",
"i.	c #404548",
"j.	c #424246",
"k.	c #423F43",
"l.	c #60727F",
"m.	c #535E65",
"n.	c #414447",
"o.	c #343435",
"p.	c #58636B",
"q.	c #63707D",
"r.	c #5B656B",
"  . + @ # # @ $ . . $ @ # # @ % . & & * & = - - = * * ; - # > % . & & & & & & & & * & ; - # > $ . , $ ' ) @ ! # @ % . & & * & ~ ",
"{ ] ^ / ( ( _ : ] ] : < [ } | 1 2 & & * & ; - 3 4 5 6 ; - 7 8 1 9 & & & & & & * & 6 2 4 3 # 0 $ . 2 1 a b @ c d / | ] 2 6 * * e ",
"f : } d g g d h : : h i < | ] 2 6 & & * & ; - 7 8 j 9 ; - k l 2 6 & & & & & & & & 9 1 m 7 # @ n . o 2 p q r c g d s : 1 9 * & t ",
"u r d g ( # c i < _ d 7 m 1 9 & & & & 6 2 v 3 c @ $ w ; - 3 4 2 6 * * 6 2 . x w . y a r c c r n w * * w n r # z z c r a y w w A ",
"B 0 d d / r r C i D D D D D D D D D D D D D D D D D D D D D D D D D D D D D D D D D D D D D D D D D D D D D D D D D D D a n n E ",
"F < G s | n n : s D D D D D D D D D D D D D D D D D D D D D D D D D D D D D D D D D D D D D D D D D D D D D D D D D D D r r r H ",
"I i J : ] w w ] | D D D D D D D D D D D D D D D D D D D D D D D D D D D D D D D D D D D D D D D D D D D D D D D D D D D c K # L ",
"M c N n w * * w n D D D D D D D D D D D D D D D D D D D D D D D D D D D D D D D D D D D D D D D D D D D D D D D D D D D z z z ! ",
"M # O n D D D D D D D D D P P P P P P P P P P P P P P P P P Q Q Q Q Q Q Q Q Q Q Q Q Q Q Q Q Q Q Q Q Q Q Q Q Q Q Q Q Q Q D D D D ",
"M ( R : D D D D D D D D D P P P P P P P P P P P P P P P P P Q Q Q Q Q Q Q Q Q Q Q Q Q Q Q Q Q Q Q Q Q Q Q Q Q Q Q Q Q Q D D D D ",
"M g S s D D D D D D D D D P P P P P P P P P P P P P P P P P Q Q Q Q Q Q Q Q Q Q Q Q Q Q Q Q Q Q Q Q Q Q Q Q Q Q Q Q Q Q D D D D ",
"D D D D T T T T T D D D D P P P P P P P P P P P P P P P P P P P P P Q Q Q Q Q Q Q Q Q P P P P P P P P P P P P Q Q Q Q Q D D D D ",
"D D D D T T T T T D D D D P P P P P P P P P P P P P P P P P P P P P Q Q Q Q Q Q Q Q Q P P P P P P P P P P P P Q Q Q Q Q D D D D ",
"D D D D T T T T T D D D D P P P P P P P P P P P P P P P P P P P P P Q Q Q Q Q Q Q Q Q P P P P P P P P P P P P Q Q Q Q Q D D D D ",
"D D D D T T T T T D D D D P P P P P P P P P P P P P P P P P P P P P Q Q Q Q Q Q Q Q Q P P P P P P P P P P P P Q Q Q Q Q D D D D ",
"D D D D T T T T T D D D D P P P P U U U U D D D D D U U U U P P P P Q Q Q Q D D D D D Q Q Q Q Q Q Q Q Q Q Q Q D D D D D D D D D ",
"D D D D T T T T T D D D D P P P P U U U U D D D D D U U U U P P P P Q Q Q Q D D D D D Q Q Q Q Q Q Q Q Q Q Q Q D D D D D D D D D ",
"D D D D T T T T T D D D D P P P P U U U U D D D D D U U U U P P P P Q Q Q Q D D D D D Q Q Q Q Q Q Q Q Q Q Q Q D D D D D D D D D ",
"D D D D T T T T T D D D D P P P P U U U U D D D D D U U U U P P P P Q Q Q Q D D D D D Q Q Q Q Q Q Q Q Q Q Q Q D D D D D D D D D ",
"D D D D D D D D D D D D D P P P P U U U U D D D D D U U U U P P P P Q Q Q Q Q Q Q Q Q Q Q Q Q Q Q Q Q Q Q Q Q Q Q Q Q Q D D D D ",
"D D D D D D D D D D D D D P P P P U U U U D D D D D U U U U P P P P Q Q Q Q Q Q Q Q Q Q Q Q Q Q Q Q Q Q Q Q Q Q Q Q Q Q D D D D ",
"D D D D D D D D D D D D D P P P P U U U U D D D D D U U U U P P P P Q Q Q Q Q Q Q Q Q Q Q Q Q Q Q Q Q Q Q Q Q Q Q Q Q Q D D D D ",
"D D D D D D D D D D D D D P P P P U U U U D D D D D U U U U P P P P Q Q Q Q Q Q Q Q Q Q Q Q Q Q Q Q Q Q Q Q Q Q Q Q Q Q D D D D ",
"V w W v D D D D D T T T T D D D D U U U U D D D D D U U U U P P P P Q Q Q Q Q Q Q Q Q Q Q Q Q Q Q Q Q Q Q Q Q Q Q Q Q Q D D D D ",
"f $ X m D D D D D T T T T D D D D U U U U D D D D D U U U U P P P P Q Q Q Q Q Q Q Q Q Q Q Q Q Q Q Q Q Q Q Q Q Q Q Q Q Q D D D D ",
"Y r N Z D D D D D T T T T D D D D U U U U D D D D D U U U U P P P P Q Q Q Q Q Q Q Q Q Q Q Q Q Q Q Q Q Q Q Q Q Q Q Q Q Q D D D D ",
"` c  .d D D D D D T T T T D D D D P P P P P P P P P P P P P P P P P Q Q Q Q Q Q Q Q Q Q Q Q Q Q Q Q Q Q Q Q Q Q Q Q Q Q D D D D ",
"..c +.d D D D D D T T T T D D D D P P P P P P P P P P P P P P P P P Q Q Q Q Q Q Q Q Q Q Q Q Q Q Q Q Q Q Q Q Q Q Q Q Q Q D D D D ",
"@.r #.Z D D D D D T T T T D D D D P P P P P P P P P P P P P P P P P Q Q Q Q Q Q Q Q Q Q Q Q Q Q Q Q Q Q Q Q Q Q Q Q Q Q D D D D ",
"$.n %.: D D D D D T T T T D D D D P P P P P P P P P P P P P P P P P Q Q Q Q Q Q Q Q Q Q Q Q Q Q Q Q Q Q Q Q Q Q Q Q Q Q D D D D ",
"&.w W ] D D D D D D D D D D D D D P P P P P P P P P P P P P P P P P P P P P Q Q Q Q Q D D D D D D D D D D D D D D D D D D D D D ",
"  * & w D D D D D D D D D D D D D P P P P P P P P P P P P P P P P P P P P P Q Q Q Q Q D D D D D D D D D D D D D D D D D D D D D ",
"*.* & w D D D D D D D D D D D D D P P P P P P P P P P P P P P P P P P P P P Q Q Q Q Q D D D D D D D D D D D D D D D D D D D D D ",
"=.6 -.] D D D D D D D D D D D D D P P P P P P P P P P P P P P P P P P P P P Q Q Q Q Q D D D D D D D D D D D D D D D D D D D D D ",
"  2 ;.: D D D D D D D D D P P P P P P P P Q Q Q Q Q Q Q Q Q Q Q Q Q Q Q Q Q D D D D D . % r # >.d c c c c d >.# r % . & & * & t ",
"V ] m < D D D D D D D D D P P P P P P P P Q Q Q Q Q Q Q Q Q Q Q Q Q Q Q Q Q D D D D D ] : C i 7 ,.- - - - ,.7 i C : ] . w w . A ",
"f | '.i D D D D D D D D D P P P P P P P P Q Q Q Q Q Q Q Q Q Q Q Q Q Q Q Q Q D D D D D | s i < m v ; ; ; ; v m < i s | % n n % ).",
"F < G s D D D D D D D D D P P P P P P P P Q Q Q Q Q Q Q Q Q Q Q Q Q Q Q Q Q D D D D D / d c r a y . w w . y a r c d _ @ r @ @ !.",
"~.[ J : ] y a r c D D D D P P P P {.{.{.{.].].].].].].].].].].].].].].].].].D D D D D ( g c r ^.a $ $ $ $ a ^.r c g ( # c K # L ",
"M c N a y ] : < i D D D D P P P P {.{.{.{.].].].].].].].].].].].].].].].].].D D D D D /.z d / @ r @ @ @ r r @ / d g ( # c # c (.",
"M c O _.a : s i < D D D D P P P P {.{.{.{.].].].].].].].].].].].].].].].].].D D D D D z z >.d c c # # # # c c d >.d / @ r @ @ !.",
"M d :.r r _ d # r D D D D P P P P {.{.{.{.].].].].].].].].].].].].].].].].].D D D D D # c # # # # c c d >.>.d # c } | n n a ^.' ",
"M >.S ! c ( g # r D D D D P P P P {.{.{.{.].].].].].].].].].].].].].].].].].D D D D D r r r @ @ @ r @ _ d d _ 0 r : ] w w <.a ' ",
"I c ( # # # # [ < D D D D P P P P {.{.{.{.].].].].].].].].].].].].].].].].].D D D D D $ $ % % n % a b > # c r ^.a 1 2 & & [.}.r ",
"F r O @ @ r r < i D D D D P P P P {.{.{.{.].].].].].].].].].].].].].].].].].D D D D D . w . . w . y a r c c r a y 2 6 * * |.1.! ",
"D D D D D D D D D Q Q Q Q P P P P {.{.{.{.D D D D D ].].].].].].].].].].].].D D D D D 2 6 & & & & 9 1 : s i < | ] 2 6 * * 2.- /.",
"D D D D D D D D D Q Q Q Q P P P P {.{.{.{.D D D D D ].].].].].].].].].].].].D D D D D 1 5 & * * & 6 2 ] | < i } : 1 9 * & ; 3.4.",
"D D D D D D D D D Q Q Q Q P P P P {.{.{.{.D D D D D ].].].].].].].].].].].].D D D D D | ] 2 6 * * 6 2 ] | < [ [ < | ] w w 5.,.6.",
"D D D D D D D D D Q Q Q Q P P P P {.{.{.{.D D D D D ].].].].].].].].].].].].D D D D D } | 1 2 & & 9 1 : s 7.< < i } | $ n m 7 6.",
"D D D D Q Q Q Q Q P P P P P P P P Q Q Q Q Q Q Q Q Q D D D D {.{.{.{.Q Q Q Q D D D D D [ < | ] w w ] | < [ s | | s i < r r 8.d 4.",
"D D D D Q Q Q Q Q P P P P P P P P Q Q Q Q Q Q Q Q Q D D D D {.{.{.{.Q Q Q Q D D D D D < i } | n n | } [ < : ] ] : < [ c # d g /.",
"D D D D Q Q Q Q Q P P P P P P P P Q Q Q Q Q Q Q Q Q D D D D {.{.{.{.Q Q Q Q D D D D D | } i < r r < i } | 1 2 2 1 : } d g z z >.",
"D D D D Q Q Q Q Q P P P P P P P P Q Q Q Q Q Q Q Q Q D D D D {.{.{.{.Q Q Q Q D D D D D ] | < [ # # [ < | ] 9 6 6 9 ] | / ( z z d ",
"D D D D D D D D D D D D D P P P P Q Q Q Q Q Q Q Q Q D D D D P P P P Q Q Q Q D D D D D 9 1 m 7 g ( } | 1 2 & & & & . % r # z z ! ",
"D D D D D D D D D D D D D P P P P Q Q Q Q Q Q Q Q Q D D D D P P P P Q Q Q Q D D D D D 6 2 v k ( _ | ] 2 6 & & * & w n r c z z ! ",
"D D D D D D D D D D D D D P P P P Q Q Q Q Q Q Q Q Q D D D D P P P P Q Q Q Q D D D D D * & ; - 7 8 1 9 & & & & & & . % r # z /.c ",
"M ! O !.L i < @ r @ @ r r D D D D P P P P Q Q Q Q Q D D D D D D D D D D D D 4 2 6 & & * & ; - 3 4 2 6 & & & & & & . % r # z z ! ",
"9.0.a.< i } | % n n % a b D D D D P P P P Q Q Q Q Q D D D D D D D D D D D D v x w 9 6 6 9 4 3 3 4 2 6 & * & & * & w n r # g ( L ",
"b.c.,.i < | ] . w w . y a D D D D P P P P Q Q Q Q Q D D D D D D D D D D D D m % $ 1 2 9 1 8 7 7 m 1 9 & & & & & & . % @ # d / !.",
"d.; e.7 8 1 9 & & & & 9 1 D D D D P P P P Q Q Q Q Q D D D D D D D D D D D D < > > | ] ] : Z d d _ | ] . w . . w . ] | < [ s | ).",
"f.; g.k 4 2 6 & * * & 6 2 D D D D D D D D D D D D D D D D D i # # i < r r C i K # s | | s d g g d } | % n % % n % | s i < : ] A ",
"h.; i.3 4 2 6 & & & & 6 2 D D D D D D D D D D D D D D D D D 7 g d s : n n }.1.- 3.0.j.Z d z z g d i k.r r r r r r < i } | j 2 t ",
"l.; g.7 8 1 9 & & & & 9 1 D D D D D D D D D D D D D D D D D k ( _ | ] . w [.m.2.; c.n.d o.z z d Z < i # # # # # # [ < | ] p.6 e ",
"q.; g.K > % x & & & & x % D D D D D D D D D D D D D D D D D - c > n w & * & * * * 2.- z /.z z ! r r ! z /.z z /.z # r n w * * r."};
