/* XPM */
static char * dinoleft4_xpm[] = {
"64 64 137 2",
"  	c #657381",
". 	c #576168",
"+ 	c #4D4E55",
"@ 	c #434046",
"# 	c #382121",
"$ 	c #39383B",
"% 	c #4D4F56",
"& 	c #5B6970",
"* 	c #5B6971",
"= 	c #505B62",
"- 	c #636D7B",
"; 	c #525960",
"> 	c #49494F",
", 	c #3F3D42",
"' 	c #383839",
") 	c #494950",
"! 	c #57626A",
"~ 	c #5A676F",
"{ 	c #505C62",
"] 	c #5E6371",
"^ 	c #494A50",
"/ 	c #3F3F42",
"( 	c #353536",
"_ 	c #3F3F43",
": 	c #51575E",
"< 	c #57636A",
"[ 	c #515D63",
"} 	c #5B5C6B",
"| 	c #444046",
"1 	c #343434",
"2 	c #3A383B",
"3 	c #4D4D54",
"4 	c #545A62",
"5 	c #576169",
"6 	c #50575E",
"7 	c #BC4D4F",
"8 	c #A04345",
"9 	c #4E4F57",
"0 	c #4B4C53",
"a 	c #464247",
"b 	c #39383A",
"c 	c #3E3B3F",
"d 	c #3A393B",
"e 	c #4B9A27",
"f 	c #FFFFFF",
"g 	c #48494F",
"h 	c #3B3C3F",
"i 	c #4E575D",
"j 	c #3E4245",
"k 	c #4F575D",
"l 	c #3F4245",
"m 	c #3F3D41",
"n 	c #383738",
"o 	c #3C3B3E",
"p 	c #413E42",
"q 	c #454147",
"r 	c #4B4C52",
"s 	c #5E6C7A",
"t 	c #566067",
"u 	c #4E5057",
"v 	c #4D4C54",
"w 	c #535A61",
"x 	c #5A676E",
"y 	c #535A62",
"z 	c #667481",
"A 	c #4A474E",
"B 	c #657481",
"C 	c #576269",
"D 	c #454146",
"E 	c #48434A",
"F 	c #50565D",
"G 	c #353636",
"H 	c #413F43",
"I 	c #49464D",
"J 	c #FFD7A8",
"K 	c #D8B78F",
"L 	c #636E7B",
"M 	c #3C3A3D",
"N 	c #3F3E41",
"O 	c #433F45",
"P 	c #413F42",
"Q 	c #575B68",
"R 	c #3B3A3C",
"S 	c #4A474F",
"T 	c #515662",
"U 	c #403D41",
"V 	c #4E5460",
"W 	c #433F44",
"X 	c #423F44",
"Y 	c #3F3B3F",
"Z 	c #373637",
"` 	c #525763",
" .	c #576068",
"..	c #5A5C6A",
"+.	c #4A464E",
"@.	c #4C4B52",
"#.	c #59666E",
"$.	c #57636B",
"%.	c #403E42",
"&.	c #313131",
"*.	c #333434",
"=.	c #51585F",
"-.	c #3F4246",
";.	c #48494E",
">.	c #423F43",
",.	c #4E545F",
"'.	c #454247",
").	c #5A606A",
"!.	c #414448",
"~.	c #424045",
"{.	c #434045",
"].	c #6C747A",
"^.	c #4D555B",
"/.	c #6C7A80",
"(.	c #525E64",
"_.	c #3F4447",
":.	c #47494E",
"<.	c #5B747D",
"[.	c #3F4548",
"}.	c #56707C",
"|.	c #404548",
"1.	c #4A4D53",
"2.	c #44484D",
"3.	c #404649",
"4.	c #3F4649",
"5.	c #424246",
"6.	c #403D42",
"7.	c #52575E",
"8.	c #60727F",
"9.	c #556067",
"0.	c #535E65",
"a.	c #525E65",
"b.	c #414447",
"c.	c #343435",
"d.	c #58636B",
"e.	c #63707D",
"f.	c #5B656B",
"  . + @ # # # # # # # # # # # # # # # # # # # # # # # # # # # # # # # # # # # # # # # # # # # # # # # # # # # $ @ % . & & * & = ",
"- ; > , # # # # # # # # # # # # # # # # # # # # # # # # # # # # # # # # # # # # # # # # # # # # # # # # # # # ' , ) ; ! ~ * * { ",
"] ^ / ' # # # # # # # # # # # # # # # # # # # # # # # # # # # # # # # # # # # # # # # # # # # # # # # # # # # ( ' _ ^ : < * & [ ",
"} | ' ( # # # # # # # # # # # # # # # # # # # # # # # # # # # # # # # # # # # # # # # # # # # # # # # # # # # 1 1 2 | 3 4 5 5 6 ",
"# # # # 7 7 7 7 7 7 7 7 7 7 7 7 7 7 7 7 7 7 7 7 7 7 7 7 7 7 7 7 7 7 8 8 8 8 8 8 8 8 8 8 8 8 8 8 8 8 8 # # # # # # # # # 3 9 9 0 ",
"# # # # 7 7 7 7 7 7 7 7 7 7 7 7 7 7 7 7 7 7 7 7 7 7 7 7 7 7 7 7 7 7 8 8 8 8 8 8 8 8 8 8 8 8 8 8 8 8 8 # # # # # # # # # | | | a ",
"# # # # 7 7 7 7 7 7 7 7 7 7 7 7 7 7 7 7 7 7 7 7 7 7 7 7 7 7 7 7 7 7 8 8 8 8 8 8 8 8 8 8 8 8 8 8 8 8 8 # # # # # # # # # 2 b $ c ",
"# # # # 7 7 7 7 7 7 7 7 7 7 7 7 7 7 7 7 7 7 7 7 7 7 7 7 7 7 7 7 7 7 8 8 8 8 8 8 8 8 8 8 8 8 8 8 8 8 8 # # # # # # # # # 1 1 1 d ",
"# # # # 7 7 7 7 7 8 8 8 8 8 8 8 8 8 8 8 8 7 7 7 7 7 7 7 7 7 8 8 8 8 8 8 8 8 8 8 8 8 8 8 8 8 8 8 8 8 8 # # # # e e e e e # # # # ",
"# # # # 7 7 7 7 7 8 8 8 8 8 8 8 8 8 8 8 8 7 7 7 7 7 7 7 7 7 8 8 8 8 8 8 8 8 8 8 8 8 8 8 8 8 8 8 8 8 8 # # # # e e e e e # # # # ",
"# # # # 7 7 7 7 7 8 8 8 8 8 8 8 8 8 8 8 8 7 7 7 7 7 7 7 7 7 8 8 8 8 8 8 8 8 8 8 8 8 8 8 8 8 8 8 8 8 8 # # # # e e e e e # # # # ",
"# # # # # # # # # 7 7 7 7 7 7 7 7 7 7 7 7 # # # # # 7 7 7 7 8 8 8 8 f f f f # # # # # f f f f 8 8 8 8 # # # # e e e e e # # # # ",
"# # # # # # # # # 7 7 7 7 7 7 7 7 7 7 7 7 # # # # # 7 7 7 7 8 8 8 8 f f f f # # # # # f f f f 8 8 8 8 # # # # e e e e e # # # # ",
"# # # # # # # # # 7 7 7 7 7 7 7 7 7 7 7 7 # # # # # 7 7 7 7 8 8 8 8 f f f f # # # # # f f f f 8 8 8 8 # # # # e e e e e # # # # ",
"# # # # # # # # # 7 7 7 7 7 7 7 7 7 7 7 7 # # # # # 7 7 7 7 8 8 8 8 f f f f # # # # # f f f f 8 8 8 8 # # # # e e e e e # # # # ",
"# # # # 7 7 7 7 7 7 7 7 7 7 7 7 7 7 7 7 7 7 7 7 7 7 7 7 7 7 8 8 8 8 f f f f # # # # # f f f f 8 8 8 8 # # # # # # # # # # # # # ",
"# # # # 7 7 7 7 7 7 7 7 7 7 7 7 7 7 7 7 7 7 7 7 7 7 7 7 7 7 8 8 8 8 f f f f # # # # # f f f f 8 8 8 8 # # # # # # # # # # # # # ",
"# # # # 7 7 7 7 7 7 7 7 7 7 7 7 7 7 7 7 7 7 7 7 7 7 7 7 7 7 8 8 8 8 f f f f # # # # # f f f f 8 8 8 8 # # # # # # # # # # # # # ",
"# # # # 7 7 7 7 7 7 7 7 7 7 7 7 7 7 7 7 7 7 7 7 7 7 7 7 7 7 8 8 8 8 f f f f # # # # # f f f f 8 8 8 8 # # # # # # # # # # # # # ",
"# # # # 7 7 7 7 7 7 7 7 7 7 7 7 7 7 7 7 7 7 7 7 7 7 7 7 7 7 8 8 8 8 f f f f # # # # # f f f f # # # # e e e e # # # # # : g h d ",
"# # # # 7 7 7 7 7 7 7 7 7 7 7 7 7 7 7 7 7 7 7 7 7 7 7 7 7 7 8 8 8 8 f f f f # # # # # f f f f # # # # e e e e # # # # # ! i j d ",
"# # # # 7 7 7 7 7 7 7 7 7 7 7 7 7 7 7 7 7 7 7 7 7 7 7 7 7 7 8 8 8 8 f f f f # # # # # f f f f # # # # e e e e # # # # # ! k l d ",
"# # # # 7 7 7 7 7 7 7 7 7 7 7 7 7 7 7 7 7 7 7 7 7 7 7 7 7 7 8 8 8 8 f f f f # # # # # f f f f # # # # e e e e # # # # # : g h d ",
"# # # # 7 7 7 7 7 7 7 7 7 7 7 7 7 7 7 7 7 7 7 7 7 7 7 7 7 7 8 8 8 8 8 8 8 8 8 8 8 8 8 8 8 8 8 # # # # e e e e # # # # # ) m n 2 ",
"# # # # 7 7 7 7 7 7 7 7 7 7 7 7 7 7 7 7 7 7 7 7 7 7 7 7 7 7 8 8 8 8 8 8 8 8 8 8 8 8 8 8 8 8 8 # # # # e e e e # # # # # / n ( d ",
"# # # # 7 7 7 7 7 7 7 7 7 7 7 7 7 7 7 7 7 7 7 7 7 7 7 7 7 7 8 8 8 8 8 8 8 8 8 8 8 8 8 8 8 8 8 # # # # e e e e # # # # # o b $ c ",
"# # # # # # # # # # # # # # # # # # # # # 7 7 7 7 7 8 8 8 8 8 8 8 8 8 8 8 8 8 8 8 8 8 8 8 8 8 # # # # # # # # # # # # # p @ | q ",
"# # # # # # # # # # # # # # # # # # # # # 7 7 7 7 7 8 8 8 8 8 8 8 8 8 8 8 8 8 8 8 8 8 8 8 8 8 # # # # # # # # # # # # # ) 9 9 r ",
"# # # # # # # # # # # # # # # # # # # # # 7 7 7 7 7 8 8 8 8 8 8 8 8 8 8 8 8 8 8 8 8 8 8 8 8 8 # # # # # # # # # # # # # ; 5 5 6 ",
"# # # # # # # # # # # # # # # # # # # # # 7 7 7 7 7 8 8 8 8 8 8 8 8 8 8 8 8 8 8 8 8 8 8 8 8 8 # # # # # # # # # # # # # ! * & [ ",
"s 5 t ; ^ , ' $ @ u 5 5 u @ $ 2 @ v w ! x # # # # # 7 7 7 7 7 7 7 7 7 7 7 7 7 7 7 7 7 8 8 8 8 8 8 8 8 # # # # # # # # # ~ * * { ",
"  * & 5 9 | 2 2 | 3 4 4 3 | $ $ | 3 y ! ~ # # # # # 7 7 7 7 7 7 7 7 7 7 7 7 7 7 7 7 7 8 8 8 8 8 8 8 8 # # # # # # # # # & * & = ",
"z * & 5 9 | 2 2 @ A 3 3 A @ 2 2 @ A 3 : ! # # # # # 7 7 7 7 7 7 7 7 7 7 7 7 7 7 7 7 7 8 8 8 8 8 8 8 8 # # # # # # # # # * * & = ",
"B ~ C ; ) m n ' , | | | @ p o o p D E 3 y # # # # # 7 7 7 7 7 7 7 7 7 7 7 7 7 7 7 7 7 8 8 8 8 8 8 8 8 # # # # # # # # # * * & { ",
"  ! F ^ / ' ( G ' 2 2 $ 2 o H H o c D I 3 # # # # # J J J J J J J J J J J J J J J J J K K K K 8 8 8 8 # # # # $ | % . & & * & [ ",
"L ; g p M 2 2 ' G G ' $ 2 _ ) ) _ o p D E # # # # # J J J J J J J J J J J J J J J J J K K K K 8 8 8 8 # # # # o H ^ ; . 5 5 . 6 ",
"] ) N o p | | , ' ' m O | ^ ; ; ^ P o c D # # # # # J J J J J J J J J J J J J J J J J K K K K 8 8 8 8 # # # # p o _ ) % 9 9 % r ",
"Q p R _ ^ 3 S | 2 $ O I 3 : ! ! : ) / o p # # # # # J J J J J J J J J J J J J J J J J K K K K 8 8 8 8 # # # # | 2 ' m @ | @ @ q ",
"T M U ^ ; 4 3 | 2 2 | 3 4 < ~ ~ < ; ) P o # # # # # J J J J J J J J J J J J J J J J J K K K K 8 8 8 8 # # # # # # # # # # # # # ",
"V 2 W 3 4 ; ^ p o / ) : ! & & & & < : ^ / # # # # # J J J J J J J J J J J J J J J J J K K K K 8 8 8 8 # # # # # # # # # # # # # ",
"V 2 X S 3 ^ _ o p ) ; ! ~ & & & & ~ ! ; ) # # # # # J J J J J J J J J J J J J J J J J K K K K 8 8 8 8 # # # # # # # # # # # # # ",
"V ' Y | | m ' $ | 9 5 & * & & * & ~ ! 4 3 # # # # # J J J J J J J J J J J J J J J J J K K K K 8 8 8 8 7 7 7 7 7 7 7 7 7 # # # # ",
"V G Z d 2 n ( $ | 9 5 & * & & & & ! : 3 A # # # # # J J J J J J J J J J J J J J J J J K K K K 8 8 8 8 7 7 7 7 7 7 7 7 7 # # # # ",
"` 2 n $ $ $ $ M p ) ; < ~ ~ < 5  .; ) | O # # # # # J J J J J J J J J J J J J J J J J K K K K 8 8 8 8 7 7 7 7 7 7 7 7 7 # # # # ",
"Q | X @ @ | | p o / ) : ! ! : 9 % ) / 2 $ # # # # # J J J J J J J J J J J J J J J J J K K K K 8 8 8 8 7 7 7 7 7 7 7 7 7 # # # # ",
"..+.@.% 9 9 % ) / M p ^ ; ; ^ | O p o $ $ # # # # # 7 7 7 7 K K K K K K K K 7 7 7 7 7 8 8 8 8 8 8 8 8 8 8 8 8 # # # # # # # # # ",
"} 3 ; . 5 5 . ; ) p M _ ) ) _ $ b o p @ | # # # # # 7 7 7 7 K K K K K K K K 7 7 7 7 7 8 8 8 8 8 8 8 8 8 8 8 8 # # # # # # # # # ",
"] : C & & & & ! : ) / o p H o $ $ / ) % 9 # # # # # 7 7 7 7 K K K K K K K K 7 7 7 7 7 8 8 8 8 8 8 8 8 8 8 8 8 # # # # # # # # # ",
"- ! #.& * * & ~ ! ; ) p M o p O | ) ; . 5 # # # # # 7 7 7 7 K K K K K K K K 7 7 7 7 7 8 8 8 8 8 8 8 8 8 8 8 8 # # # # # # # # # ",
"L ! #.& & & & * & $.: g h 2 O I 3 # # # # 7 7 7 7 7 7 7 7 7 7 7 7 7 7 7 7 7 7 7 7 7 7 7 7 7 7 8 8 8 8 # # # # # # # # # | %.' &.",
"] : C & & & & & & ~ ! i j $ @ 3 4 # # # # 7 7 7 7 7 7 7 7 7 7 7 7 7 7 7 7 7 7 7 7 7 7 7 7 7 7 8 8 8 8 # # # # # # # # # $ ' ( *.",
"Q ) =.! ~ ~ < .  .5 . i -.h g : < # # # # 7 7 7 7 7 7 7 7 7 7 7 7 7 7 7 7 7 7 7 7 7 7 7 7 7 7 8 8 8 8 # # # # # # # # # ( 1 1 G ",
"T / ;.: ! ! : % % u u g h l i ! ~ # # # # 7 7 7 7 7 7 7 7 7 7 7 7 7 7 7 7 7 7 7 7 7 7 7 7 7 7 8 8 8 8 # # # # # # # # # n 1 1 ' ",
"V 2 X 3 4 ; ^ @ O | @ m ' j k ! ~ # # # # 7 7 7 7 7 8 8 8 8 # # # # # # # # # # # # # 7 7 7 7 8 8 8 8 8 8 8 8 # # # # # $ 1 1 d ",
"V $ >.A 3 ) / $ b 2 $ n ( h g : < # # # # 7 7 7 7 7 8 8 8 8 # # # # # # # # # # # # # 7 7 7 7 8 8 8 8 8 8 8 8 # # # # # 2 1 1 d ",
",.2 X E '.p o $ $ $ $ $ 2 o H ^ ; # # # # 7 7 7 7 7 8 8 8 8 # # # # # # # # # # # # # 7 7 7 7 8 8 8 8 8 8 8 8 # # # # # $ 1 *.2 ",
"V d X q c o p @ | @ @ | | p o / ) # # # # # # # # # # # # # 4 5 5 4 3 @ 2 l i ! ~ & & # # # # # # # # # # # # # # # # # $ 1 1 d ",
").!.~.p o / ) % 9 9 % 3 +.{.$ ' , # # # # # # # # # # # # # ; 5 5 ; ) m n j k  .5 < ~ # # # # # # # # # # # # # # # # # $ ( n c ",
"].^.-.o p ) ; . 5 5 . 4 3 | $ ( n # # # # # # # # # # # # # ^ u u ^ _ ' ( h g % u : ! # # # # # # # # # # # # # # # # # $ ' , q ",
"/.(._.h :.: < & & & & < : ^ _ ' ( # # # # # # # # # # # # # H | | p o $ $ M p O O ) ; # # # # # # # # # # # # # # # # # M _ ) r ",
"<.(.[.j i ! ~ & * * & ~ ! ; ) , n ' m | | m ' ' , | | | @ p o $ $ o p | | H o b $ _ ) ) _ ' ( ( ' / ) % 9 % % 9 % ) _ o p ^ ; 6 ",
"}.(.|.l i ! ~ & & & & ~ ! ; ) p o _ ) 3 A @ 2 h g % u u % g h ( ' _ ^ 9 9 1.2.3.4.!.5.6.' 1 1 ( ' o >.| | | | | | p o / ) 7.! [ ",
"8.(.[.h :.: < & & & & < : ^ _ o H ^ ; 4 3 @ 2 -.k . 5 5 . k j n m ) ; . 5 9.0.a.(.^.b.' c.1 1 ' 6.p o $ $ $ $ $ $ M p ) ; d.~ { ",
"e.(.[.b O %  .& & & &  .% O b $ | u 5 5 u O $ 3.(.& * * & (.3.2 O 9 5 & * & * * * a.3.1 *.1 1 d | | d 1 *.1 1 *.1 $ | 9 5 * * f."};
