/* XPM */
static char * dinoleft5_xpm[] = {
"64 64 139 2",
"  	c #657381",
". 	c #576168",
"+ 	c #4D4E55",
"@ 	c #434046",
"# 	c #39383B",
"$ 	c #4E5057",
"% 	c #4D4F56",
"& 	c #5B6970",
"* 	c #5B6971",
"= 	c #525D64",
"- 	c #404649",
"; 	c #525E64",
"> 	c #433F45",
", 	c #566068",
"' 	c #49444B",
") 	c #49434A",
"! 	c #3A393B",
"~ 	c #505B62",
"{ 	c #636D7B",
"] 	c #525960",
"^ 	c #49494F",
"/ 	c #3F3D42",
"( 	c #383738",
"_ 	c #3F3D41",
": 	c #494A50",
"< 	c #413E42",
"[ 	c #3C3A3D",
"} 	c #3F3F42",
"| 	c #494950",
"1 	c #51575E",
"2 	c #57626A",
"3 	c #3F4245",
"4 	c #4E575D",
"5 	c #57636B",
"6 	c #5A676F",
"7 	c #3B3C3F",
"8 	c #47494E",
"9 	c #57636A",
"0 	c #434045",
"a 	c #4D4D54",
"b 	c #4A464E",
"c 	c #3A383B",
"d 	c #383839",
"e 	c #505C62",
"f 	c #5E6371",
"g 	c #353536",
"h 	c #403F43",
"i 	c #3C3B3E",
"j 	c #52575E",
"k 	c #3E4245",
"l 	c #4E565C",
"m 	c #48494F",
"n 	c #4E4F57",
"o 	c #5A676E",
"p 	c #535A61",
"q 	c #4D4C54",
"r 	c #444046",
"s 	c #3F3F43",
"t 	c #515D63",
"u 	c #5B5C6B",
"v 	c #4F575D",
"w 	c #576169",
"x 	c #576068",
"y 	c #545A62",
"z 	c #343434",
"A 	c #50575E",
"B 	c #5A5C6A",
"C 	c #382121",
"D 	c #333434",
"E 	c #4B4C53",
"F 	c #575B68",
"G 	c #3B3A3C",
"H 	c #403D42",
"I 	c #464247",
"J 	c #525763",
"K 	c #403D41",
"L 	c #353636",
"M 	c #39383A",
"N 	c #3E3B3F",
"O 	c #4E5460",
"P 	c #433F44",
"Q 	c #BC4D4F",
"R 	c #A04345",
"S 	c #4B9A27",
"T 	c #FFFFFF",
"U 	c #454147",
"V 	c #4B4C52",
"W 	c #50565D",
"X 	c #413F43",
"Y 	c #454146",
"Z 	c #49464D",
"` 	c #636E7B",
" .	c #48434A",
"..	c #3F3E41",
"+.	c #413F42",
"@.	c #4A474F",
"#.	c #515662",
"$.	c #FFD7A8",
"%.	c #D8B78F",
"&.	c #3E3C3F",
"*.	c #423F44",
"=.	c #3F3B3F",
"-.	c #4A474E",
";.	c #373637",
">.	c #535A62",
",.	c #556067",
"'.	c #4A4D53",
").	c #545E65",
"!.	c #44484D",
"~.	c #4C4B52",
"{.	c #576269",
"].	c #59666E",
"^.	c #51585F",
"/.	c #3F4246",
"(.	c #48494E",
"_.	c #423F43",
":.	c #4E545F",
"<.	c #454247",
"[.	c #5A606A",
"}.	c #414448",
"|.	c #424045",
"1.	c #6C747A",
"2.	c #4D555B",
"3.	c #6C7A80",
"4.	c #3F4447",
"5.	c #5B747D",
"6.	c #3F4548",
"7.	c #56707C",
"8.	c #404548",
"9.	c #3F4649",
"0.	c #424246",
"a.	c #60727F",
"b.	c #535E65",
"c.	c #525E65",
"d.	c #414447",
"e.	c #343435",
"f.	c #58636B",
"g.	c #63707D",
"h.	c #5B656B",
"  . + @ # # @ $ . . $ @ # # @ % . & & * & = - - = * * ; - # > % . & & & & & & & & * & ; - # > $ . , $ ' ) @ ! # @ % . & & * & ~ ",
"{ ] ^ / ( ( _ : ] ] : < [ } | 1 2 & & * & ; - 3 4 5 6 ; - 7 8 1 9 & & & & & & * & 6 2 4 3 # 0 $ . 2 1 a b @ c d / | ] 2 6 * * e ",
"f : } d g g d h : : h i < | ] 2 6 & & * & ; - 7 8 j 9 ; - k l 2 6 & & & & & & & & 9 1 m 7 # @ n . o 2 p q r c g d s : 1 9 * & t ",
"u r d g ( # c i < _ d 7 m 1 9 & & & & 6 2 v 3 c @ $ w ; - 3 4 2 6 * * 6 2 . x w . y a r c c r n w * * w n r # z z c r a y w w A ",
"B 0 d d C C C C C C C C C C C C C C C C C C C C C C C C C C C C C C C C C C C C C C C C C C C C C C C C C C C z D # @ b a n n E ",
"F < G s C C C C C C C C C C C C C C C C C C C C C C C C C C C C C C C C C C C C C C C C C C C C C C C C C C C D D d H r r r r I ",
"J i K : C C C C C C C C C C C C C C C C C C C C C C C C C C C C C C C C C C C C C C C C C C C C C C C C C C C z z L d c c M # N ",
"O c P n C C C C C C C C C C C C C C C C C C C C C C C C C C C C C C C C C C C C C C C C C C C C C C C C C C C c # d g z z z z ! ",
"C C C C Q Q Q Q Q Q Q Q Q Q Q Q Q Q Q Q Q Q Q Q Q Q Q Q Q Q Q Q Q Q R R R R R R R R R R R R R R R R R C C C C C C C C C D D z c ",
"C C C C Q Q Q Q Q Q Q Q Q Q Q Q Q Q Q Q Q Q Q Q Q Q Q Q Q Q Q Q Q Q R R R R R R R R R R R R R R R R R C C C C C C C C C g z z ! ",
"C C C C Q Q Q Q Q Q Q Q Q Q Q Q Q Q Q Q Q Q Q Q Q Q Q Q Q Q Q Q Q Q R R R R R R R R R R R R R R R R R C C C C C C C C C d z z ! ",
"C C C C Q Q Q Q Q R R R R R R R R R R R R Q Q Q Q Q Q Q Q Q R R R R R R R R R R R R R R R R R R R R R C C C C S S S S S C C C C ",
"C C C C Q Q Q Q Q R R R R R R R R R R R R Q Q Q Q Q Q Q Q Q R R R R R R R R R R R R R R R R R R R R R C C C C S S S S S C C C C ",
"C C C C Q Q Q Q Q R R R R R R R R R R R R Q Q Q Q Q Q Q Q Q R R R R R R R R R R R R R R R R R R R R R C C C C S S S S S C C C C ",
"C C C C Q Q Q Q Q R R R R R R R R R R R R Q Q Q Q Q Q Q Q Q R R R R R R R R R R R R R R R R R R R R R C C C C S S S S S C C C C ",
"C C C C C C C C C Q Q Q Q Q Q Q Q Q Q Q Q C C C C C Q Q Q Q R R R R T T T T C C C C C T T T T R R R R C C C C S S S S S C C C C ",
"C C C C C C C C C Q Q Q Q Q Q Q Q Q Q Q Q C C C C C Q Q Q Q R R R R T T T T C C C C C T T T T R R R R C C C C S S S S S C C C C ",
"C C C C C C C C C Q Q Q Q Q Q Q Q Q Q Q Q C C C C C Q Q Q Q R R R R T T T T C C C C C T T T T R R R R C C C C S S S S S C C C C ",
"C C C C C C C C C Q Q Q Q Q Q Q Q Q Q Q Q C C C C C Q Q Q Q R R R R T T T T C C C C C T T T T R R R R C C C C S S S S S C C C C ",
"C C C C Q Q Q Q Q Q Q Q Q Q Q Q Q Q Q Q Q Q Q Q Q Q Q Q Q Q R R R R T T T T C C C C C T T T T R R R R C C C C C C C C C C C C C ",
"C C C C Q Q Q Q Q Q Q Q Q Q Q Q Q Q Q Q Q Q Q Q Q Q Q Q Q Q R R R R T T T T C C C C C T T T T R R R R C C C C C C C C C C C C C ",
"C C C C Q Q Q Q Q Q Q Q Q Q Q Q Q Q Q Q Q Q Q Q Q Q Q Q Q Q R R R R T T T T C C C C C T T T T R R R R C C C C C C C C C C C C C ",
"C C C C Q Q Q Q Q Q Q Q Q Q Q Q Q Q Q Q Q Q Q Q Q Q Q Q Q Q R R R R T T T T C C C C C T T T T R R R R C C C C C C C C C C C C C ",
"C C C C Q Q Q Q Q Q Q Q Q Q Q Q Q Q Q Q Q Q Q Q Q Q Q Q Q Q R R R R T T T T C C C C C T T T T C C C C S S S S C C C C C | _ ( c ",
"C C C C Q Q Q Q Q Q Q Q Q Q Q Q Q Q Q Q Q Q Q Q Q Q Q Q Q Q R R R R T T T T C C C C C T T T T C C C C S S S S C C C C C } ( g ! ",
"C C C C Q Q Q Q Q Q Q Q Q Q Q Q Q Q Q Q Q Q Q Q Q Q Q Q Q Q R R R R T T T T C C C C C T T T T C C C C S S S S C C C C C i M # N ",
"C C C C Q Q Q Q Q Q Q Q Q Q Q Q Q Q Q Q Q Q Q Q Q Q Q Q Q Q R R R R R R R R R R R R R R R R R C C C C S S S S C C C C C < @ r U ",
"C C C C Q Q Q Q Q Q Q Q Q Q Q Q Q Q Q Q Q Q Q Q Q Q Q Q Q Q R R R R R R R R R R R R R R R R R C C C C S S S S C C C C C | n n V ",
"C C C C Q Q Q Q Q Q Q Q Q Q Q Q Q Q Q Q Q Q Q Q Q Q Q Q Q Q R R R R R R R R R R R R R R R R R C C C C S S S S C C C C C ] w w A ",
"C C C C Q Q Q Q Q Q Q Q Q Q Q Q Q Q Q Q Q Q Q Q Q Q Q Q Q Q R R R R R R R R R R R R R R R R R C C C C S S S S C C C C C 2 * & t ",
"C C C C C C C C C C C C C C C C C C C C C Q Q Q Q Q R R R R R R R R R R R R R R R R R R R R R C C C C C C C C C C C C C 6 * * e ",
"C C C C C C C C C C C C C C C C C C C C C Q Q Q Q Q R R R R R R R R R R R R R R R R R R R R R C C C C C C C C C C C C C & * & ~ ",
"C C C C C C C C C C C C C C C C C C C C C Q Q Q Q Q R R R R R R R R R R R R R R R R R R R R R C C C C C C C C C C C C C * * & ~ ",
"C C C C C C C C C C C C C C C C C C C C C Q Q Q Q Q R R R R R R R R R R R R R R R R R R R R R C C C C C C C C C C C C C * * & e ",
"  2 W : } d g L d c c # c i X X i N Y Z a C C C C C Q Q Q Q Q Q Q Q Q Q Q Q Q Q Q Q Q R R R R R R R R C C C C C C C C C & * & t ",
"` ] m < [ c c d L L d # c s | | s i < Y  .C C C C C Q Q Q Q Q Q Q Q Q Q Q Q Q Q Q Q Q R R R R R R R R C C C C C C C C C w w . A ",
"f | ..i < r r / d d _ > r : ] ] : +.i N Y C C C C C Q Q Q Q Q Q Q Q Q Q Q Q Q Q Q Q Q R R R R R R R R C C C C C C C C C n n % V ",
"F < G s : a @.r c # > Z a 1 2 2 1 | } i < C C C C C Q Q Q Q Q Q Q Q Q Q Q Q Q Q Q Q Q R R R R R R R R C C C C C C C C C r @ @ U ",
"#.[ K : ] y a r c c r a y 9 6 6 9 ] | +.i C C C C C $.$.$.$.$.$.$.$.$.$.$.$.$.$.$.$.$.%.%.%.%.R R R R C C C C r c g ( # c M # N ",
"O c P a y ] : < i } | 1 2 & & & & 9 1 : } C C C C C $.$.$.$.$.$.$.$.$.$.$.$.$.$.$.$.$.%.%.%.%.R R R R C C C C / d g ( # c # c &.",
"O c *.@.a : s i < | ] 2 6 & & & & 6 2 ] | C C C C C $.$.$.$.$.$.$.$.$.$.$.$.$.$.$.$.$.%.%.%.%.R R R R C C C C d L d / @ r @ @ U ",
"O d =.r r _ d # r n w & * & & * & 6 2 y a C C C C C $.$.$.$.$.$.$.$.$.$.$.$.$.$.$.$.$.%.%.%.%.R R R R C C C C # c } | n n a -.' ",
"O L ;.! c ( g # r n w & * & & & & 2 1 a -.C C C C C $.$.$.$.$.$.$.$.$.$.$.$.$.$.$.$.$.%.%.%.%.R R R R C C C C 0 r : ] w w >.a ' ",
"J c ( # # # # [ < | ] 9 6 6 9 w x ] | r > C C C C C $.$.$.$.$.$.$.$.$.$.$.$.$.$.$.$.$.%.%.%.%.R R R R C C C C -.a 1 2 & & ,.'.r ",
"F r *.@ @ r r < i } | 1 2 2 1 n % | } c # C C C C C $.$.$.$.$.$.$.$.$.$.$.$.$.$.$.$.$.%.%.%.%.R R R R C C C C a y 2 6 * * ).!.! ",
"B b ~.% n n % | } [ < : ] ] : r > < i # # C C C C C $.$.$.$.$.$.$.$.$.$.$.$.$.$.$.$.$.%.%.%.%.R R R R Q Q Q Q C C C C C C C C C ",
"u a ] . w w . ] | < [ s | | s # M i < @ r C C C C C $.$.$.$.$.$.$.$.$.$.$.$.$.$.$.$.$.%.%.%.%.R R R R Q Q Q Q C C C C C C C C C ",
"f 1 {.& & & & 2 1 | } i < X i # # } | % n C C C C C $.$.$.$.$.$.$.$.$.$.$.$.$.$.$.$.$.%.%.%.%.R R R R Q Q Q Q C C C C C C C C C ",
"{ 2 ].& * * & 6 2 ] | < [ i < > r | ] . w C C C C C $.$.$.$.$.$.$.$.$.$.$.$.$.$.$.$.$.%.%.%.%.R R R R Q Q Q Q C C C C C C C C C ",
"` 2 ].& & & & * & 5 1 m 7 c > Z a C C C C C C C C C Q Q Q Q %.%.%.%.%.%.%.%.C C C C C Q Q Q Q R R R R R R R R Q Q Q Q Q C C C C ",
"f 1 {.& & & & & & 6 2 4 k # @ a y C C C C C C C C C Q Q Q Q %.%.%.%.%.%.%.%.C C C C C Q Q Q Q R R R R R R R R Q Q Q Q Q C C C C ",
"F | ^.2 6 6 9 . x w . 4 /.7 m 1 9 C C C C C C C C C Q Q Q Q %.%.%.%.%.%.%.%.C C C C C Q Q Q Q R R R R R R R R Q Q Q Q Q C C C C ",
"#.} (.1 2 2 1 % % $ $ m 7 3 4 2 6 C C C C C C C C C Q Q Q Q %.%.%.%.%.%.%.%.C C C C C Q Q Q Q R R R R R R R R Q Q Q Q Q C C C C ",
"O c *.a y ] : @ > r @ _ d k v 2 6 C C C C Q Q Q Q Q Q Q Q Q Q Q Q Q Q Q Q Q C C C C C R R R R R R R R C C C C C C C C C C C C C ",
"O # _.-.a | } # M c # ( g 7 m 1 9 C C C C Q Q Q Q Q Q Q Q Q Q Q Q Q Q Q Q Q C C C C C R R R R R R R R C C C C C C C C C C C C C ",
":.c *. .<.< i # # # # # c i X : ] C C C C Q Q Q Q Q Q Q Q Q Q Q Q Q Q Q Q Q C C C C C R R R R R R R R C C C C C C C C C C C C C ",
"O ! *.U N i < @ r @ @ r r < i } | C C C C Q Q Q Q Q R R R R C C C C C C C C C C C C C C C C C C C C C C C C C & & . % r # z z ! ",
"[.}.|.< i } | % n n % a b 0 # d / C C C C Q Q Q Q Q R R R R C C C C C C C C C C C C C C C C C C C C C C C C C * & w n r # g ( N ",
"1.2./.i < | ] . w w . y a r # g ( C C C C Q Q Q Q Q R R R R C C C C C C C C C C C C C C C C C C C C C C C C C & & . % @ # d / U ",
"3.; 4.7 8 1 9 & & & & 9 1 : s d g C C C C Q Q Q Q Q R R R R C C C C C C C C C C C C C C C C C C C C C C C C C w . ] | < [ s | V ",
"5.; 6.k 4 2 6 & * * & 6 2 ] | / ( d _ r r C C C C C C C C C C C C C < r r X i M # s | | s d g g d } | % n % % n % | s i < : ] A ",
"7.; 8.3 4 2 6 & & & & 6 2 ] | < i s | a -.C C C C C C C C C C C C C : n n '.!.- 9.}.0.H d z z g d i _.r r r r r r < i } | j 2 t ",
"a.; 6.7 8 1 9 & & & & 9 1 : s i X : ] y a C C C C C C C C C C C C C ] . w ,.b.c.; 2.d.d e.z z d H < i # # # # # # [ < | ] f.6 e ",
"g.; 6.M > % x & & & & x % > M # r $ w w $ C C C C C C C C C C C C C w & * & * * * c.- z D z z ! r r ! z D z z D z # r n w * * h."};
