/* XPM */
static char * floor_xpm[] = {
"64 64 186 2",
"  	c #657381",
". 	c #576168",
"+ 	c #4D4E55",
"@ 	c #434046",
"# 	c #39383B",
"$ 	c #4E5057",
"% 	c #4D4F56",
"& 	c #5B6970",
"* 	c #5B6971",
"= 	c #525D64",
"- 	c #404649",
"; 	c #525E64",
"> 	c #433F45",
", 	c #566068",
"' 	c #49444B",
") 	c #49434A",
"! 	c #3A393B",
"~ 	c #505B62",
"{ 	c #636D7B",
"] 	c #525960",
"^ 	c #49494F",
"/ 	c #3F3D42",
"( 	c #383738",
"_ 	c #3F3D41",
": 	c #494A50",
"< 	c #413E42",
"[ 	c #3C3A3D",
"} 	c #3F3F42",
"| 	c #494950",
"1 	c #51575E",
"2 	c #57626A",
"3 	c #3F4245",
"4 	c #4E575D",
"5 	c #57636B",
"6 	c #5A676F",
"7 	c #3B3C3F",
"8 	c #47494E",
"9 	c #57636A",
"0 	c #434045",
"a 	c #4D4D54",
"b 	c #4A464E",
"c 	c #3A383B",
"d 	c #383839",
"e 	c #505C62",
"f 	c #5E6371",
"g 	c #353536",
"h 	c #403F43",
"i 	c #3C3B3E",
"j 	c #52575E",
"k 	c #3E4245",
"l 	c #4E565C",
"m 	c #48494F",
"n 	c #4E4F57",
"o 	c #5A676E",
"p 	c #535A61",
"q 	c #4D4C54",
"r 	c #444046",
"s 	c #3F3F43",
"t 	c #515D63",
"u 	c #5B5C6B",
"v 	c #4F575D",
"w 	c #576169",
"x 	c #576068",
"y 	c #545A62",
"z 	c #343434",
"A 	c #50575E",
"B 	c #5A5C6A",
"C 	c #413F43",
"D 	c #39383A",
"E 	c #333434",
"F 	c #4B4C53",
"G 	c #575B68",
"H 	c #3B3A3C",
"I 	c #403D42",
"J 	c #3F4246",
"K 	c #464247",
"L 	c #525763",
"M 	c #403D41",
"N 	c #353636",
"O 	c #4A474E",
"P 	c #3E3B3F",
"Q 	c #4E5460",
"R 	c #433F44",
"S 	c #423F44",
"T 	c #3F3C3F",
"U 	c #44494D",
"V 	c #4A4D54",
"W 	c #373637",
"X 	c #535E65",
"Y 	c #556067",
"Z 	c #4A4D53",
"` 	c #44484D",
" .	c #545E65",
"..	c #393839",
"+.	c #3B3D3F",
"@.	c #3F4649",
"#.	c #3F4346",
"$.	c #4D555B",
"%.	c #3B3B3F",
"&.	c #4D545B",
"*.	c #343535",
"=.	c #3C3D3F",
"-.	c #46464C",
";.	c #575A68",
">.	c #3F3C41",
",.	c #3D3B3E",
"'.	c #555D69",
").	c #3C4143",
"!.	c #353838",
"~.	c #606C79",
"{.	c #4B545A",
"].	c #3C4042",
"^.	c #657481",
"/.	c #546168",
"(.	c #475054",
"_.	c #414448",
":.	c #424246",
"<.	c #3B3B3E",
"[.	c #667481",
"}.	c #59666E",
"|.	c #546067",
"1.	c #636E7B",
"2.	c #566067",
"3.	c #58636B",
"4.	c #4D4F55",
"5.	c #525966",
"6.	c #5A666E",
"7.	c #3F535D",
"8.	c #393738",
"9.	c #454147",
"0.	c #35515A",
"a.	c #3A3739",
"b.	c #50545B",
"c.	c #545B63",
"d.	c #566168",
"e.	c #4B4C52",
"f.	c #3D5660",
"g.	c #443F44",
"h.	c #545C63",
"i.	c #4C606C",
"j.	c #4E4E55",
"k.	c #4D4C53",
"l.	c #535A62",
"m.	c #484349",
"n.	c #5E6C7A",
"o.	c #535961",
"p.	c #4C4C53",
"q.	c #454247",
"r.	c #454146",
"s.	c #424549",
"t.	c #46444A",
"u.	c #576269",
"v.	c #48434A",
"w.	c #50565D",
"x.	c #49464D",
"y.	c #3F3E41",
"z.	c #413F42",
"A.	c #4A474F",
"B.	c #515662",
"C.	c #3E3C3F",
"D.	c #3F3B3F",
"E.	c #4C4B52",
"F.	c #525E65",
"G.	c #313131",
"H.	c #4F575E",
"I.	c #313130",
"J.	c #3D3B3F",
"K.	c #403E42",
"L.	c #51585F",
"M.	c #48494E",
"N.	c #343435",
"O.	c #423F43",
"P.	c #4E545F",
"Q.	c #5A606A",
"R.	c #424045",
"S.	c #6C747A",
"T.	c #6C7A80",
"U.	c #3F4447",
"V.	c #5B747D",
"W.	c #3F4548",
"X.	c #56707C",
"Y.	c #404548",
"Z.	c #60727F",
"`.	c #414447",
" +	c #63707D",
".+	c #5B656B",
"  . + @ # # @ $ . . $ @ # # @ % . & & * & = - - = * * ; - # > % . & & & & & & & & * & ; - # > $ . , $ ' ) @ ! # @ % . & & * & ~ ",
"{ ] ^ / ( ( _ : ] ] : < [ } | 1 2 & & * & ; - 3 4 5 6 ; - 7 8 1 9 & & & & & & * & 6 2 4 3 # 0 $ . 2 1 a b @ c d / | ] 2 6 * * e ",
"f : } d g g d h : : h i < | ] 2 6 & & * & ; - 7 8 j 9 ; - k l 2 6 & & & & & & & & 9 1 m 7 # @ n . o 2 p q r c g d s : 1 9 * & t ",
"u r d g ( # c i < _ d 7 m 1 9 & & & & 6 2 v 3 c @ $ w ; - 3 4 2 6 * * 6 2 . x w . y a r c c r n w * * w n r # z z c r a y w w A ",
"B 0 d d / r r C i ( g k v 2 6 & & & & 9 1 m 7 D > $ x ; - 7 8 1 9 & & 2 1 % % n % a b 0 c # @ % . * * w n r # z E # @ b a n n F ",
"G < H s | n n : s ( g 3 v 2 6 * * 6 2 ] | I d d I : ] v J ( _ | ] w w ] : r 0 @ @ r @ _ d ( _ | ] w w y a r # E E d I r r r r K ",
"L i M : ] w w ] | _ d 7 m 1 9 & & 2 1 | } d g g d h : m 7 g ( } | n n | } # D # # c c d N g d s : n n a O r c z z N d c c D # P ",
"Q c R n w * * w n r c d / : ] w w y a r # z E z z d I < i # # i < r r / d N d c c # # # # # c i C r r @ 0 < [ c # d g z z z z ! ",
"Q # S n w * * w n r c g ( } | n n a b @ # z z z z g d i C r r < i c # ( g d / @ r @ @ @ r r @ < i # # # c i C r r I d z E E z c ",
"Q ( T : ] w w ] | / ( E E d / @ r r @ < i c c d N g d s : n n | } c D ( g c r O a % n n % a b @ c g d 7 J U V $ $ : s d g z z ! ",
"Q g W s : n n : s d g z z g d # c # c i C r r I d d _ | ] w w ] | r > _ d c r a y . w w . y a r # ( _ 8 v X Y w . ] : I d z z ! ",
"L d z d / r r < i # # # # c c d N g d } | a O > # # r n w * * 2 1 n % | s [ < Z Y & & & & 9 1 m 7 c r a y . w w . y a r c g ( i ",
"G I W g ( # c i < @ r r r r @ _ d ( _ : ] y a r c c r n w * * 6 2 w x ] : < i `  .& * * & 6 2 4 3 ! @ O a $ $ $ $ a O r ! d / C ",
"u r ..N d # c } | % n n % a b > c 7 m 1 9 9 1 : } i < | ] 2 6 & & & & . % > # - ; & * * & 6 2 4 3 d _ r r r @ @ @ r @ _ d +.m 8 ",
"u r ..d _ > r | ] . w w . y a @ c 3 v 9 6 6 2 ] | < i } | 1 2 & * * & w n > # @.; & * & & 9 1 m 7 N d c c # # # # c c ( N #.v $.",
"u r ..c @ b a 1 2 & & & & 9 1 8 %.k 4 9 6 6 9 y a r c d / | ] 2 6 * * w n @ # k 4 . w w . y a r # z z z z N d c c c # ( g #.v &.",
"u @ ..c r a y 2 6 & * * & 6 2 4 3 7 m 1 9 2 1 a O r c *.( } | 1 2 & & . % @ # 7 m % $ n % a b @ c z E E z d / @ r r @ _ d =.m -.",
";._ W # @ % . & & & & & & * & X ` i < : ] ] : r > I d z z d I : ] w w ] | < [ [ < 0 @ @ r r @ C i d g E z c r O a n n | } i < >.",
"L d z # r n w & * & & & & * & Y Z < [ s | | s c # d N z z *.d } | n n | s i < C i # # # # # c ,.C I d z z c r a y w w ] : C [ H ",
"'.).!.D r n w & * & & & & * & w n @ # d _ < i c # d g z z z z d I r r < i s : V U J 7 d g g d s | | s ( *.# r n . & & 9 1 m 7 ! ",
"~.{.].# @ % . & & & & & & & & . n r # g ( i C r r I d z z z z g d # c [ < | ] Y  .v 8 _ ( ( _ : ] ] : / d # @ n w * * 6 2 4 k ! ",
"^./.(._.:.: ] . w . . . . w . y a r # *.( } | n n | } c D d g z z z z c r a y w w y a @ # <.8 1 5 5 1 : } [ < Z Y * * 6 2 v 3 ! ",
"[.}.|.$._.s | % n % % % % n % a O @ c d _ | ] w w ] : r @ I d z z E z c r O a $ $ a O @ ! 3 v 9 6 6 9 ] | < i ` X & * 9 1 m 7 ! ",
"1.w 2.v J d _ r r @ @ @ @ @ r r @ < i } | 1 5 * & 2 1 n % : s d g z z d / @ r @ @ r @ < i U  .6 3.w x y a @ c J v w w ] | _ ( c ",
"f $ 4.m 7 g ( # c # # # # # # # c i C | ] 2 6 * * 6 2 w x ] : I d z z N d c c # # # c [ C V Y 9 1 n % a O @ c 7 8 n $ | } ( g ! ",
"5.r R I d z z N d c c c c d N g d } : 1 9 }.2 2 6.& * * & . % r # N d c c # # # # # # [ < : ] ] : @ > r @ _ d d / r r < i D # P ",
"7.c 8.d g z z d / @ r r @ _ d ( _ | ] 5 6 2 1 1 2 & * * & w n r c d / r r @ @ @ @ r @ < i h | | s # D c c d N g d # c i < @ r 9.",
"0.c a.d g E z c r O a a O @ c c @ q p 2 o 2 1 b.c., d.5 6 w $ @ D D > b a % n % % n % | s i < C i c # c c ! ! d g *.d } | n n e.",
"f.r g.I d z z c r a y y a r c ! r O a 1 2 6.2 h.b.% % 1 2 . $ @ # c r a y . w . . w . ] | < [ i < @ r @ @ r r / d ( _ | ] w w A ",
"i.n j.: s d g # r $ w w $ @ # c @ O a 1 2 & & 2 1 k.b a l.] : :._.` Z 1 2 & & & & & & . % @ # c @ O a a O m.9.< i } | 1 2 * & t ",
"n.w 2.] : / d # @ $ w w $ @ # c @ q p 2 o & & 6 2 o.p.O k.| s _.$.X Y 2 6 & * & & * & w n r # # r a y y a q.P i C | ] 2 6 * * e ",
"  * & w n r c c r a y y a r # # r a l.2 6 & & * & w n m.r.< i s.A 2 6 & & & & & & & & . % @ # c r a y y a r c # @ % . & & * & ~ ",
"[.* & w n r c c @ O a a O @ c c @ O a 1 2 & & * & w n 9.P [ < t.p.1 5 & & & & & & & & . % @ # c @ O a a O @ c # r n w & * * & ~ ",
"^.6 u.] | _ ( d / r r r @ < i i < r.v.a l.2 6 6 2 l.a @ c d _ > r | ] 2 6 & * & & * & w n r # d _ > > > > _ d # r n w & * * & e ",
"  2 w.: } d g N d c c # c i C C i P r.x.a 1 2 2 1 a b r c g d c c } | 1 2 & & & & & & . % r # N d c c c c d N # r % . & & * & t ",
"1.] m < [ c c d N N d # c s | | s i < r.v.a l.l.a ' ' r ! g ( # c [ < | ] . w . . w . ] : C i 7 J - - - - J 7 i C : ] . w w . A ",
"f | y.i < r r / d d _ > r : ] ] : z.i P r.O a a O ' ' @ ! d _ r r < i } | % n % % n % | s i < m v ; ; ; ; v m < i s | % n n % e.",
"G < H s : a A.r c # > x.a 1 2 2 1 | } i < 9.v.' ' v.9.< i } | n n | s i < r r r r r r / d c r a y . w w . y a r c d _ @ r @ @ 9.",
"B.[ M : ] y a r c c r a y 9 6 6 9 ] | z.i P r.' ' 9.C.i C : ] w w ] | < [ # # # # c # ( g c r O a $ $ $ $ a O r c g ( # c D # P ",
"Q c R a y ] : < i } | 1 2 & & & & 9 1 : } i < r r < i } | 1 2 & & x % @ D z z z z z z E z d / @ r @ @ @ r r @ / d g ( # c # c C.",
"Q c S A.a : s i < | ] 2 6 & & & & 6 2 ] | C i ! ! i C | ] 2 6 * * w n r # z E z z z z z z N d c c # # # # c c d N d / @ r @ @ 9.",
"Q d D.r r _ d # r n w & * & & * & 6 2 y a r c g d } : 1 2 & & & & 2 1 : } d g z z g d # c # # # # c c d N N d # c } | n n a O ' ",
"Q N W ! c ( g # r n w & * & & & & 2 1 a O r c ( _ | ] 2 6 & & & & 6 2 ] | I d z z d I r r r @ @ @ r @ _ d d _ 0 r : ] w w l.a ' ",
"L c ( # # # # [ < | ] 9 6 6 9 w x ] | r > _ d # r n w & * & & & & & & x % @ D g d s : $ $ % % n % a b > # c r O a 1 2 & & Y Z r ",
"G r S @ @ r r < i } | 1 2 2 1 n % | } c # d N c r n w & * & & & & * & w n r c d / : ] . w . . w . y a r c c r a y 2 6 * *  .` ! ",
"B b E.% n n % | } [ < : ] ] : r > < i # # # # [ < | ] 2 6 & & & & & & 2 1 | } i < | ] 2 6 & & & & 9 1 : s i < | ] 2 6 * * F.- E ",
"u a ] . w w . ] | < [ s | | s # D i < @ r r r < i } | 1 2 & & & & & & 6 2 ] | C i s : 1 5 & * * & 6 2 ] | < i } : 1 9 * & ; @.G.",
"f 1 u.& & & & 2 1 | } i < C i # # } | % n n % | } [ < | ] 2 6 & * & & * & w n r # ( _ | ] 2 6 * * 6 2 ] | < [ [ < | ] w w H.J I.",
"{ 2 }.& * * & 6 2 ] | < [ i < > r | ] . w w . ] | < [ } | 1 2 & & & & * & w n r # *.( } | 1 2 & & 9 1 : s J.< < i } | $ n m 7 I.",
"1.2 }.& & & & * & 5 1 m 7 c > x.a 1 2 & & & & 2 1 | } i C : ] . w . . w . ] | < [ # # [ < | ] w w ] | < [ s | | s i < r r K.d G.",
"f 1 u.& & & & & & 6 2 4 k # @ a y 2 6 & * * & 6 2 ] | < [ } | % n % % n % | s i < r r < i } | n n | } [ < : ] ] : < [ c # d g E ",
"G | L.2 6 6 9 . x w . 4 J 7 m 1 9 & & & & & & * & Y Z / ( d _ @ r @ @ r r < i s | n n | } i < r r < i } | 1 2 2 1 : } d g z z N ",
"B.} M.1 2 2 1 % % $ $ m 7 3 4 2 6 & & & & & & * &  .U d N.g d # c # # # # [ < | ] w w ] | < [ # # [ < | ] 9 6 6 9 ] | / ( z z d ",
"Q c S a y ] : @ > r @ _ d k v 2 6 & * & & * & 6 2 v 3 N ( c c # # c c d N D @ % x & & 9 1 m 7 g ( } | 1 2 & & & & . % r # z z ! ",
"Q # O.O a | } # D c # ( g 7 m 1 9 & & & & & & 9 1 m %.d _ r r @ @ r @ _ d # r n w * * 6 2 v k ( _ | ] 2 6 & & * & w n r c z z ! ",
"P.c S v.q.< i # # # # # c i C : ] . w . . w . ] : / d ! r O a $ $ a O r ! 7 m 1 5 & & * & ; - 7 8 1 9 & & & & & & . % r # z E c ",
"Q ! S 9.P i < @ r @ @ r r < i } | % n % % n % | } ( g c r a y w w y a @ c 3 4 2 6 & & * & ; - 3 4 2 6 & & & & & & . % r # z z ! ",
"Q._.R.< i } | % n n % a b 0 # d / r r @ @ r r I d E E ( / | ] w w ] | _ ( k v x w 9 6 6 9 4 3 3 4 2 6 & * & & * & w n r # g ( P ",
"S.$.J i < | ] . w w . y a r # g ( # c # # c # d g z z g d s : $ $ : s d g 7 m % $ 1 2 9 1 8 7 7 m 1 9 & & & & & & . % @ # d / 9.",
"T.; U.7 8 1 9 & & & & 9 1 : s d g g d c ! d N g d # c # # i C r r < i # # [ < > > | ] ] : I d d _ | ] . w . . w . ] | < [ s | e.",
"V.; W.k 4 2 6 & * * & 6 2 ] | / ( d _ r r _ d d / r r r @ < i # # i < r r C i D # s | | s d g g d } | % n % % n % | s i < : ] A ",
"X.; Y.3 4 2 6 & & & & 6 2 ] | < i s | a O @ c 7 m % $ $ % m 7 g d s : n n Z ` - @._.:.I d z z g d i O.r r r r r r < i } | j 2 t ",
"Z.; W.7 8 1 9 & & & & 9 1 : s i C : ] y a @ c J v . w w . v k ( _ | ] . w Y X F.; $.`.d N.z z d I < i # # # # # # [ < | ] 3.6 e ",
" +; W.D > % x & & & & x % > D # r $ w w $ > # - ; & * * & ; - c > n w & * & * * * F.- z E z z ! r r ! z E z z E z # r n w * * .+"};
