/* XPM */
static char * idleportal7_xpm[] = {
"64 64 493 2",
"  	c #657381",
". 	c #576168",
"+ 	c #4D4E55",
"@ 	c #434046",
"# 	c #39383B",
"$ 	c #4E5057",
"% 	c #4D4F56",
"& 	c #5B6970",
"* 	c #5B6971",
"= 	c #525D64",
"- 	c #404649",
"; 	c #525E64",
"> 	c #433F45",
", 	c #566068",
"' 	c #49444B",
") 	c #49434A",
"! 	c #3A393B",
"~ 	c #505B62",
"{ 	c #636D7B",
"] 	c #525960",
"^ 	c #49494F",
"/ 	c #3F3D42",
"( 	c #383738",
"_ 	c #3F3D41",
": 	c #494A50",
"< 	c #413E42",
"[ 	c #3C3A3D",
"} 	c #3F3F42",
"| 	c #494950",
"1 	c #51575E",
"2 	c #57626A",
"3 	c #3F4245",
"4 	c #4E575D",
"5 	c #57636B",
"6 	c #5A676F",
"7 	c #3B3C3F",
"8 	c #47494E",
"9 	c #57636A",
"0 	c #434045",
"a 	c #4D4D54",
"b 	c #4A464E",
"c 	c #3A383B",
"d 	c #383839",
"e 	c #505C62",
"f 	c #5E6371",
"g 	c #353536",
"h 	c #403F43",
"i 	c #3C3B3E",
"j 	c #52575E",
"k 	c #3E4245",
"l 	c #4E565C",
"m 	c #48494F",
"n 	c #4E4F57",
"o 	c #5A676E",
"p 	c #535A61",
"q 	c #4D4C54",
"r 	c #444046",
"s 	c #3F3F43",
"t 	c #515D63",
"u 	c #5B5C6B",
"v 	c #4F575D",
"w 	c #576169",
"x 	c #576068",
"y 	c #545A62",
"z 	c #343434",
"A 	c #50575E",
"B 	c #5A5C6A",
"C 	c #413F43",
"D 	c #39383A",
"E 	c #333434",
"F 	c #4B4C53",
"G 	c #575B68",
"H 	c #3B3A3C",
"I 	c #403D42",
"J 	c #3F4246",
"K 	c #464247",
"L 	c #525763",
"M 	c #403D41",
"N 	c #783E8C",
"O 	c #353636",
"P 	c #4A474E",
"Q 	c #3E3B3F",
"R 	c #4E5460",
"S 	c #433F44",
"T 	c #7A3E8E",
"U 	c #814497",
"V 	c #854799",
"W 	c #834697",
"X 	c #423F44",
"Y 	c #7A408E",
"Z 	c #7F4495",
"` 	c #8E4DA3",
" .	c #9350A9",
"..	c #7F4295",
"+.	c #3F3C3F",
"@.	c #814495",
"#.	c #9352A9",
"$.	c #9152A7",
"%.	c #44494D",
"&.	c #4A4D54",
"*.	c #373637",
"=.	c #9E5BB4",
"-.	c #B97FCD",
";.	c #D8ACE6",
">.	c #A778B7",
",.	c #713485",
"'.	c #535E65",
").	c #556067",
"!.	c #7D4291",
"~.	c #86499C",
"{.	c #914FA7",
"].	c #A25DB7",
"^.	c #C68ED8",
"/.	c #F3C9FF",
"(.	c #D2A9DF",
"_.	c #A77AB7",
":.	c #4A4D53",
"<.	c #88499E",
"[.	c #9552AB",
"}.	c #9554AB",
"|.	c #A261B5",
"1.	c #C288D6",
"2.	c #EDC2FC",
"3.	c #E1BBED",
"4.	c #8A569C",
"5.	c #44484D",
"6.	c #545E65",
"7.	c #393839",
"8.	c #8A4BA0",
"9.	c #9E5DB4",
"0.	c #AC6BC2",
"a.	c #AE6DC4",
"b.	c #9959AE",
"c.	c #88499C",
"d.	c #A05FB5",
"e.	c #CB95DD",
"f.	c #C491D4",
"g.	c #834B97",
"h.	c #3B3D3F",
"i.	c #7C4090",
"j.	c #9556AB",
"k.	c #B978CF",
"l.	c #AB6BC0",
"m.	c #9558A9",
"n.	c #834699",
"o.	c #8A4B9E",
"p.	c #9C5DB2",
"q.	c #3F4649",
"r.	c #3F4346",
"s.	c #4D555B",
"t.	c #3B3B3F",
"u.	c #814695",
"v.	c #A768BD",
"w.	c #AE6FC4",
"x.	c #8E50A2",
"y.	c #8E4DA2",
"z.	c #8C4DA2",
"A.	c #4D545B",
"B.	c #904FA3",
"C.	c #8E52A2",
"D.	c #8C4DA0",
"E.	c #904FA5",
"F.	c #9150A7",
"G.	c #854699",
"H.	c #3C3D3F",
"I.	c #46464C",
"J.	c #575A68",
"K.	c #7D4093",
"L.	c #9756AC",
"M.	c #D2A2E2",
"N.	c #C697D6",
"O.	c #814795",
"P.	c #8C4BA2",
"Q.	c #9C59B2",
"R.	c #A05DB5",
"S.	c #914FA9",
"T.	c #763E8A",
"U.	c #3F3C41",
"V.	c #763D8A",
"W.	c #8A529C",
"X.	c #B581C6",
"Y.	c #E6C0F4",
"Z.	c #D2ABDF",
"`.	c #8A509C",
" +	c #B77DCB",
".+	c #C991DB",
"++	c #B57FC7",
"@+	c #9961AC",
"#+	c #884B9E",
"$+	c #7F4293",
"%+	c #3D3B3E",
"&+	c #555D69",
"*+	c #3C4143",
"=+	c #353838",
"-+	c #743988",
";+	c #AB7DBB",
">+	c #EFC9FC",
",+	c #C299D0",
"'+	c #935DA5",
")+	c #AC6DC2",
"!+	c #DFB0EF",
"~+	c #FFDBFF",
"{+	c #FCD6FF",
"]+	c #D4A3E6",
"^+	c #A366B9",
"/+	c #343535",
"(+	c #606C79",
"_+	c #4B545A",
":+	c #3C4042",
"<+	c #743B8A",
"[+	c #A06DB2",
"}+	c #D8A7E6",
"|+	c #A26FB4",
"1+	c #7D3E93",
"2+	c #995BAC",
"3+	c #B986C9",
"4+	c #D0A5DF",
"5+	c #CDA5DB",
"6+	c #E6BDF3",
"7+	c #D4A7E2",
"8+	c #854F97",
"9+	c #763B8A",
"0+	c #657481",
"a+	c #546168",
"b+	c #475054",
"c+	c #414448",
"d+	c #424246",
"e+	c #B071C6",
"f+	c #9154A5",
"g+	c #884B9C",
"h+	c #9958AE",
"i+	c #814697",
"j+	c #85469A",
"k+	c #8A49A0",
"l+	c #834997",
"m+	c #D4ABE2",
"n+	c #DBB2EA",
"o+	c #865099",
"p+	c #3B3B3E",
"q+	c #667481",
"r+	c #59666E",
"s+	c #546067",
"t+	c #9356A7",
"u+	c #B273C7",
"v+	c #9054A5",
"w+	c #9358A9",
"x+	c #AE6DC2",
"y+	c #884D9E",
"z+	c #85479A",
"A+	c #7F4693",
"B+	c #A96FBD",
"C+	c #AE73C2",
"D+	c #636E7B",
"E+	c #566067",
"F+	c #9559A9",
"G+	c #B574CB",
"H+	c #9054A3",
"I+	c #8A4F9E",
"J+	c #9354A9",
"K+	c #58636B",
"L+	c #4D4F55",
"M+	c #A364B7",
"N+	c #A566B9",
"O+	c #995DAE",
"P+	c #A568BB",
"Q+	c #B271C7",
"R+	c #9050A3",
"S+	c #9A5BB0",
"T+	c #7F4493",
"U+	c #525966",
"V+	c #884D9C",
"W+	c #A768BB",
"X+	c #BB7AD0",
"Y+	c #B473C7",
"Z+	c #9C5FB0",
"`+	c #8C50A0",
" @	c #3F535D",
".@	c #393738",
"+@	c #A96BBE",
"@@	c #854999",
"#@	c #A76ABD",
"$@	c #BD7CD2",
"%@	c #B778CD",
"&@	c #454147",
"*@	c #35515A",
"=@	c #3A3739",
"-@	c #A366B7",
";@	c #AB6BBE",
">@	c #854B99",
",@	c #B271C6",
"'@	c #9A5DB0",
")@	c #9758AC",
"!@	c #B776CD",
"~@	c #4B4C52",
"{@	c #3D5660",
"]@	c #443F44",
"^@	c #5A666E",
"/@	c #9E5FB2",
"(@	c #A364B9",
"_@	c #A96ABD",
":@	c #7F4695",
"<@	c #4C606C",
"[@	c #4E4E55",
"}@	c #9050A5",
"|@	c #86479C",
"1@	c #8C50A2",
"2@	c #9559AB",
"3@	c #8E52A3",
"4@	c #484349",
"5@	c #5E6C7A",
"6@	c #783E8E",
"7@	c #A96ABE",
"8@	c #9759AB",
"9@	c #864B9C",
"0@	c #9E5DB2",
"a@	c #864B9A",
"b@	c #454247",
"c@	c #535A62",
"d@	c #8C4BA0",
"e@	c #A061B5",
"f@	c #9C5DB0",
"g@	c #9958AC",
"h@	c #8E4FA2",
"i@	c #A766BB",
"j@	c #904DA3",
"k@	c #576269",
"l@	c #454146",
"m@	c #48434A",
"n@	c #AE6FC2",
"o@	c #9E61B2",
"p@	c #50565D",
"q@	c #49464D",
"r@	c #AC6BC0",
"s@	c #A262B7",
"t@	c #8A499E",
"u@	c #743B88",
"v@	c #88479C",
"w@	c #884F9A",
"x@	c #BB83CF",
"y@	c #B476C7",
"z@	c #9764A9",
"A@	c #8C599E",
"B@	c #3F3E41",
"C@	c #413F42",
"D@	c #86469C",
"E@	c #9361A5",
"F@	c #EAC2F6",
"G@	c #D6A7E4",
"H@	c #9552A9",
"I@	c #904DA5",
"J@	c #8C49A0",
"K@	c #9059A2",
"L@	c #DFB9EB",
"M@	c #CFA7DB",
"N@	c #7F4791",
"O@	c #4A474F",
"P@	c #85449A",
"Q@	c #9968A9",
"R@	c #FAD6FF",
"S@	c #E8BDF6",
"T@	c #A362B9",
"U@	c #9754AC",
"V@	c #A25FB7",
"W@	c #905DA2",
"X@	c #F3CFFD",
"Y@	c #E1BDED",
"Z@	c #814B93",
"`@	c #515662",
" #	c #915FA3",
".#	c #E1BBEF",
"+#	c #EABEF8",
"@#	c #C993DD",
"##	c #B06FC6",
"$#	c #E1B7ED",
"%#	c #D0A7DF",
"&#	c #7F4793",
"*#	c #A062B5",
"=#	c #9E66B2",
"-#	c #DDB2EB",
";#	c #F4CBFF",
">#	c #C488D8",
",#	c #B774CD",
"'#	c #864D9A",
")#	c #B47AC7",
"!#	c #AB71BE",
"~#	c #7C4290",
"{#	c #3E3C3F",
"]#	c #88479E",
"^#	c #7C4091",
"/#	c #BD86CF",
"(#	c #D8A3EA",
"_#	c #C083D6",
":#	c #834797",
"<#	c #A262B5",
"[#	c #3F3B3F",
"}#	c #864F9A",
"|#	c #B281C2",
"1#	c #AE7DBE",
"2#	c #A264B7",
"3#	c #E8C2F3",
"4#	c #E1B9ED",
"5#	c #A061B4",
"6#	c #A968BD",
"7#	c #905BA2",
"8#	c #EDC9F8",
"9#	c #9052A3",
"0#	c #8E50A3",
"a#	c #EDC9FA",
"b#	c #EBC4F8",
"c#	c #9556A9",
"d#	c #7C3E90",
"e#	c #9156A5",
"f#	c #4C4B52",
"g#	c #9A5FB0",
"h#	c #975FA9",
"i#	c #DDB7EA",
"j#	c #E4BDF1",
"k#	c #B07AC0",
"l#	c #8A509E",
"m#	c #9A59B0",
"n#	c #525E65",
"o#	c #AC6DC0",
"p#	c #A26DB5",
"q#	c #C9A2D8",
"r#	c #EDC7FA",
"s#	c #AE7AC0",
"t#	c #854499",
"u#	c #86499A",
"v#	c #313131",
"w#	c #A06FB0",
"x#	c #CD9EDD",
"y#	c #B57AC9",
"z#	c #9E5FB4",
"A#	c #86479A",
"B#	c #4F575E",
"C#	c #313130",
"D#	c #9956AE",
"E#	c #B473C9",
"F#	c #AB6AC0",
"G#	c #3D3B3F",
"H#	c #9956AC",
"I#	c #8E4FA3",
"J#	c #7A4090",
"K#	c #403E42",
"L#	c #783E8A",
"M#	c #85499A",
"N#	c #A261B7",
"O#	c #51585F",
"P#	c #914FA5",
"Q#	c #48494E",
"R#	c #7D4293",
"S#	c #7A408C",
"T#	c #7D4491",
"U#	c #423F43",
"V#	c #B086C0",
"W#	c #9356A9",
"X#	c #4E545F",
"Y#	c #FFEAFF",
"Z#	c #BE97CD",
"`#	c #A562BB",
" $	c #B578CB",
".$	c #AB78BB",
"+$	c #9962AB",
"@$	c #EFC7FD",
"#$	c #CBA3D9",
"$$	c #88509C",
"%$	c #5A606A",
"&$	c #424045",
"*$	c #AC6FC2",
"=$	c #D8A5E8",
"-$	c #E4BBF3",
";$	c #D8AEE4",
">$	c #B478C7",
",$	c #6C747A",
"'$	c #834497",
")$	c #DFAEF1",
"!$	c #EDC0FC",
"~$	c #BB7FCF",
"{$	c #6C7A80",
"]$	c #3F4447",
"^$	c #9754AB",
"/$	c #BE7FD2",
"($	c #B77ACB",
"_$	c #5B747D",
":$	c #3F4548",
"<$	c #9A59AE",
"[$	c #56707C",
"}$	c #404548",
"|$	c #60727F",
"1$	c #414447",
"2$	c #343435",
"3$	c #63707D",
"4$	c #5B656B",
"  . + @ # # @ $ . . $ @ # # @ % . & & * & = - - = * * ; - # > % . & & & & & & & & * & ; - # > $ . , $ ' ) @ ! # @ % . & & * & ~ ",
"{ ] ^ / ( ( _ : ] ] : < [ } | 1 2 & & * & ; - 3 4 5 6 ; - 7 8 1 9 & & & & & & * & 6 2 4 3 # 0 $ . 2 1 a b @ c d / | ] 2 6 * * e ",
"f : } d g g d h : : h i < | ] 2 6 & & * & ; - 7 8 j 9 ; - k l 2 6 & & & & & & & & 9 1 m 7 # @ n . o 2 p q r c g d s : 1 9 * & t ",
"u r d g ( # c i < _ d 7 m 1 9 & & & & 6 2 v 3 c @ $ w ; - 3 4 2 6 * * 6 2 . x w . y a r c c r n w * * w n r # z z c r a y w w A ",
"B 0 d d / r r C i ( g k v 2 6 & & & & 9 1 m 7 D > $ x ; - 7 8 1 9 & & 2 1 % % n % a b 0 c # @ % . * * w n r # z E # @ b a n n F ",
"G < H s | n n : s ( g 3 v 2 6 * * 6 2 ] | I d d I : ] v J ( _ | ] w w ] : r 0 @ @ r @ _ d ( _ | ] w w y a r # E E d I r r r r K ",
"L i M : ] w w ] | _ d 7 m 1 9 & & 2 1 | } d g g d h : m 7 g N N N N n | } # D # # c c d O g d s : n n a P r c z z O d c c D # Q ",
"R c S n w * * w n r c d / : ] w w y a r # z E z z d I < i N T U V W r / d O d c c # # # # # c i C r r @ 0 < [ c # d g z z z z ! ",
"R # X n w * * w n r c g ( } | n n a b @ # z z z z g d i N Y Z `  .` ..( g d / @ r @ @ @ r r @ < i # # # c i C r r I d z E E z c ",
"R ( +.: ] w w ] | / ( E E d / @ r r @ < i c c d O g d N N @.`  . .#.$.V N c r P a % n n % a b @ c g d 7 J %.&.$ $ : s d g z z ! ",
"R g *.s : n n : s d g z z g d # c # c i C r r I d d _ N N W  . .=.-.;.>.,.c r a y . w w . y a r # ( _ 8 v '.).w . ] : I d z z ! ",
"L d z d / r r < i # # # # c c d O g d } | a P > # # r N !.~.{. .].^./.(._.[ < :.).& & & & 9 1 m 7 c r a y . w w . y a r c g ( i ",
"G I *.g ( # c i < @ r r r r @ _ d ( _ : ] y a r c N N Y <. .[.}.[.|.1.2.3.4.i 5.6.& * * & 6 2 4 3 ! @ P a $ $ $ $ a P r ! d / C ",
"u r 7.O d # c } | % n n % a b > c 7 m 1  .9 1 : } N N Y 8.9.0.a.b.c.d.e.f.g.# - ; & * * & 6 2 4 3 d _ r r r @ @ @ r @ _ d h.m 8 ",
"u r 7.d _ > r | ] . w w . y a @ c 3 v 9  .6 2 ] | N N i.j.a.k.l.m.n.o.d.p.!.# q.; & * & & 9 1 m 7 O d c c # # # # c c ( O r.v s.",
"u r 7.c @ b a 1 2 & & & & 9 1 8 t.k 4 9 6 6 9 y a N N u.v.k.w.x.<.y.@.8.z.!.# k 4 . w w . y a r # z z z z O d c c c # ( g r.v A.",
"u @ 7.c r a y 2 6 & * * & 6 2 4 3 7 m 1 9 2 1 a N N !.B.a.l.C.D.E.F.y.G.n.8.Z 7 m % $ n % a b @ c z E E z d / @ r r @ _ d H.m I.",
"J._ *.# @ % . & & & & & & * & '.5.i < : ] ] : r N N K.L.M.N.O.P.Q.R.S...@.E.@.T.< 0 @ @ r r @ C i d g E z c r P a n n | } i < U.",
"L d z # r n w & * & & & & * & ).:.< [ s | | s c N V.W.X.Y.Z.`.}. +.+++@+#+P.$+N i # # # # # c %+C I d z z c r a y w w ] : C [ H ",
"&+*+=+D r n w & * & & & & * & w n  . . ._ < i c N -+;+>+,+'+}.)+!+~+{+]+^+u.N N %.J 7 d g g d s | | s ( /+# r n . & & 9 1 m 7 ! ",
"(+_+:+# @ % . & & & & & & & & . n  . . .( i C r N <+[+}+|+1+F.2+3+4+5+6+7+8+9+N 6.v 8 _ ( ( _ : ] ] : / d # @ n w * * 6 2 4 k ! ",
"0+a+b+c+d+: ] . w . . . . w . y a  . ./+( } | n N V.C.e+f+g+h+i+j+k+l+m+n+o+9+N w y a @ # p+8 1 5 5 1 : } [ < :.).* * 6 2 v 3 ! ",
"q+r+s+s.c+s | % n % % % % n % a P @ c d _ | ] w N Y t+u+v+w+x+y+z+P.A+B+C+A+N Y $ a P @ ! 3 v 9 6 6 9 ] | < i 5.'.& * 9 1 m 7 ! ",
"D+w E+v J d _ r r @ @ @ @ @ r r @ < i } | 1 5 N Y F+w.G+H+F+e+I+j+P.!.$.J+!.z+z+T r @ < i %.6.6 K+w x y a @ c J v w w ] | _ ( c ",
"f $ L+m 7 g ( # c # # # # # # # c i C | ] 2 6 N Y M+G+N+O+P+Q+I+R+S+T+c.` G.~.W N # c [ C &.).9 1 n % a P @ c 7 8 n $ | } ( g ! ",
"U+r S I d z z O d c c c c d O g d } : 1 9 r+2 N Y M+l.V+W+X+Y+I+Z+w.`+o. .}.W N N # # [ < : ] ] : @ > r @ _ d d / r r < i D # Q ",
" @c .@d g z z d / @ r r @ _ d ( _ | ] 5 6 2 1 N Y M++@@@#@$@u+I+Z+%@w.f+f+l.`+V.N r @ < i h | | s # D c c d O g d # c i < @ r &@",
"*@c =@d g E z c r P a a P @ c c @ q p 2 o 2 1 N Y -@;@>@#@,@'@D.)@0.!@F+v+u+H+V.N n % | s i < C i c # c c ! ! d g /+d } | n n ~@",
"{@r ]@I d z z c r a y y a r c ! r P  . .2 ^@2 N Y /@(@@@_@N+:@y.E.b.Y+F+f+u+H+V.N w . ] | < [ i < @ r @ @ r r / d ( _ | ] w w A ",
"<@n [@: s d g # r $ w w $ @ # c @ P a 1 2 & & N T z.}@u._@^+T+z.|@1@e+2@H+e+3@V.N & & . % @ # c @ P a a P 4@&@< i } | 1 2 * & t ",
"5@w E+] : / d # @ $ w w $ @ # c @ q p 2 o & & N 6@<.k+u.7@N+T+P.G.I+e+8@9@0@a@T.N * & w n r # # r a y y a b@Q i C | ] 2 6 * * e ",
"  * & w n r c c r a y y a r # # r a c@2 6 & & N T <.d@T+e@f@u.g@h@a@i@v+@.` @.N N & & . % @ # c r a y y a r c # @ % . & & * & ~ ",
"q+* & w n r c c @ P a a P @ c c @ P a 1 2 & & N T <.P.!.y.8.@@l.Z+@.F.V @.j@@.N N & & . % @ # c @ P a a P @ c # r n w & * * & ~ ",
"0+6 k@] | _ ( d / r r r @ < i i < l@m@a c@2 6 N T <.P.!.8.c.@@n@o@T+` W @.j@@.N N * & w n r # d _ > > > > _ d # r n w & * * & e ",
"  2 p@: } d g O d c c # c i C C i Q l@q@a 1 2 N T <.P.!.8.<.@@r@s@z+|@z+t@E.K.u@N & & . % r # O d c c c c d O # r % . & & * & t ",
"D+] m < [ c c d O O d # c s | | s i < l@m@a c@N T <.P.!.8.v@w@x@y@` U 8.{.}@z@A@Y w . ] : C i 7 J - - - - J 7 i C : ] . w w . A ",
"f | B@i < r r / d d _ > r : ] ] : C@i Q l@P a N T <.P.!.8.D@E@F@G@H@I@F.J@K@L@M@N@n % | s i < m v ; ; ; ; v m < i s | % n n % ~@",
"G < H s : a O@r c # > q@a 1 2 2 1 | } i < &@m@N 6@<.8.!.8.P@Q@R@S@T@U@V@h+W@X@Y@Z@r r / d c r a y . w w . y a r c d _ @ r @ @ &@",
"`@[ M : ] y a r c c r a y 9 6 6 9 ] | C@i Q l@N Y }@J+!.8.D@ #.#+#@#v.##W+K@$#%#&#c # ( g c r P a $ $ $ $ a P r c g ( # c D # Q ",
"R c S a y ] : < i } | 1 2 & & & & 9 1 : } i < N Y *#v.u.8.<.u.=#-#;#>#,#P+'#)#!#~#z z E z d / @ r @ @ @ r r @ / d g ( # c # c {#",
"R c X O@a : s i < | ] 2 6 & & & & 6 2 ] | C i N Y -@l.u.]#|@^#P./#(#_#0.j.:#7@<#i.z z z z O d c c # # # # c c d O d / @ r @ @ &@",
"R d [#r r _ d # r n w & * & & * & 6 2 y a r c N Y M+7@}#|#1#A+` V@0.0.9.<.u.;@2#~#g d # c # # # # c c d O O d # c } | n n a P ' ",
"R O *.! c ( g # r n w & * & & & & 2 1 a P r c N Y M+7@K@3#4#}#k+ .}.}. .8.V+7@5#i.d I r r r @ @ @ r @ _ d d _ 0 r : ] w w c@a ' ",
"L c ( # # # # [ < | ] 9 6 6 9 w x ] | r > _ d N Y M+6#7#8#F@t+U <. .{.|@9#v.T@0#Y s : $ $ % % n % a b > # c r P a 1 2 & & ).:.r ",
"G r X @ @ r r < i } | 1 2 2 1 n % | } c # d O N Y ^+7@7#a#b#c#d#z+ . .U e#G+V@|@T : ] . w . . w . y a r c c r a y 2 6 * * 6.5.! ",
"B b f#% n n % | } [ < : ] ] : r > < i # # # # N Y g#(@h#i#j#k#l#j+` ` n.f+x+m#z+T | ] 2 6 & & & & 9 1 : s i < | ] 2 6 * * n#- E ",
"u a ] . w w . ] | < [ s | | s # D i < @ r r r < N T+w+o#p#q#r#s#t#!.$+<.#.L.u#i.i s : 1 5 & * * & 6 2 ] | < i } : 1 9 * & ; q.v#",
"f 1 k@& & & & 2 1 | } i < C i # # } | % n n % | N V.3@u+0#w#x#y#h+|@c.z#e@A#Y T.# ( _ | ] 2 6 * * 6 2 ] | < [ [ < | ] w w B#J C#",
"{ 2 r+& * * & 6 2 ] | < [ i < > r | ] . w w . ] N V.H+u+e#@.D#E#a.d.d.F#<#!.N N # /+( } | 1 2 & & 9 1 : s G#< < i } | $ n m 7 C#",
"D+2 r+& & & & * & 5 1 m 7 c > q@a 1 2 & & & & 2 N V.C.w.H+@.H###!@G+E#T@I#J#N N [ # # [ < | ] w w ] | < [ s | | s i < r r K#d v#",
"f 1 k@& & & & & & 6 2 4 k # @ a y 2 6 & * * & 6 N L#M#S+u#W [.9.N#N#V@D#8.T N N < r r < i } | n n | } [ < : ] ] : < [ c # d g E ",
"G | O#2 6 6 9 . x w . 4 J 7 m 1 9 & & & & & & * N N @.I@<.z+8.P# . .{.P.I#t+O.V.| n n | } i < r r < i } | 1 2 2 1 : } d g z z O ",
"`@} Q#1 2 2 1 % % $ $ m 7 3 4 2 6 & & & & & & * N N T+` F.<.R#`  . .F.W C.7@1@V.] w w ] | < [ # # [ < | ] 9 6 6 9 ] | / ( z z d ",
"R c X a y ] : @ > r @ _ d k v 2 6 & * & & * & 6 2 S#Y Z ` t@!.`  . .F.W T#V+@ % x & & 9 1 m 7 g ( } | 1 2 & & & & . % r # z z ! ",
"R # U#P a | } # D c # ( g 7 m 1 9 & & & & & & 9 1 V#V.Y 8.)@2+<.k+E.<.W#f+Y r n w * * 6 2 v k ( _ | ] 2 6 & & * & w n r c z z ! ",
"X#c X m@b@< i # # # # # c i C : ] . w . . w . ] Y#Z#V.Y 8.`# $.$+$<.n.W+#@T+m 1 5 & & * & ; - 7 8 1 9 & & & & & & . % r # z E c ",
"R ! X &@Q i < @ r @ @ r r < i } | % n % % n % | } W@N Y k+V@>#@$#$$$F.l.v.T+4 2 6 & & * & ; - 3 4 2 6 & & & & & & . % r # z z ! ",
"%$c+&$< i } | % n n % a b 0 # d / r r @ @ r r I d E N T T+}@*$=$-$;$>$z#e#k v x w 9 6 6 9 4 3 3 4 2 6 & * & & * & w n r # g ( Q ",
",$s.J i < | ] . w w . y a r # g ( # c # # c # d g z z N N '$D#E#)$!$~$x.V.7 m % $ 1 2 9 1 8 7 7 m 1 9 & & & & & & . % @ # d / &@",
"{$; ]$7 8 1 9 & & & & 9 1 : s d g g d c ! d O g d # c N N U ^$##/$($m#n.N [ < > > | ] ] : I d d _ | ] . w . . w . ] | < [ s | ~@",
"_$; :$k 4 2 6 & * * & 6 2 ] | / ( d _ r r _ d d / r r r N J#z+<$R.D#V ^#r C i D # s | | s d g g d } | % n % % n % | s i < : ] A ",
"[$; }$3 4 2 6 & & & & 6 2 ] | < i s | a P @ c 7 m % $ $ % N Y G.c.z+i.n n :.5.- q.c+d+I d z z g d i U#r r r r r r < i } | j 2 t ",
"|$; :$7 8 1 9 & & & & 9 1 : s i C : ] y a @ c J v . w w . v N T T T ] . w ).'.n#; s.1$d 2$z z d I < i # # # # # # [ < | ] K+6 e ",
"3$; :$D > % x & & & & x % > D # r $ w w $ > # - ; & * * & ; - c > n w & * & * * * n#- z E z z ! r r ! z E z z E z # r n w * * 4$"};
