/* XPM */
static char * idleportal5_xpm[] = {
"64 64 508 2",
"  	c #657381",
". 	c #576168",
"+ 	c #4D4E55",
"@ 	c #434046",
"# 	c #39383B",
"$ 	c #4E5057",
"% 	c #4D4F56",
"& 	c #5B6970",
"* 	c #5B6971",
"= 	c #525D64",
"- 	c #404649",
"; 	c #525E64",
"> 	c #433F45",
", 	c #566068",
"' 	c #49444B",
") 	c #49434A",
"! 	c #3A393B",
"~ 	c #505B62",
"{ 	c #636D7B",
"] 	c #525960",
"^ 	c #49494F",
"/ 	c #3F3D42",
"( 	c #383738",
"_ 	c #3F3D41",
": 	c #494A50",
"< 	c #413E42",
"[ 	c #3C3A3D",
"} 	c #3F3F42",
"| 	c #494950",
"1 	c #51575E",
"2 	c #57626A",
"3 	c #3F4245",
"4 	c #4E575D",
"5 	c #57636B",
"6 	c #5A676F",
"7 	c #3B3C3F",
"8 	c #47494E",
"9 	c #57636A",
"0 	c #434045",
"a 	c #4D4D54",
"b 	c #4A464E",
"c 	c #3A383B",
"d 	c #383839",
"e 	c #505C62",
"f 	c #5E6371",
"g 	c #353536",
"h 	c #403F43",
"i 	c #3C3B3E",
"j 	c #52575E",
"k 	c #3E4245",
"l 	c #4E565C",
"m 	c #48494F",
"n 	c #4E4F57",
"o 	c #5A676E",
"p 	c #535A61",
"q 	c #4D4C54",
"r 	c #444046",
"s 	c #3F3F43",
"t 	c #515D63",
"u 	c #5B5C6B",
"v 	c #4F575D",
"w 	c #576169",
"x 	c #783E8C",
"y 	c #576068",
"z 	c #545A62",
"A 	c #343434",
"B 	c #50575E",
"C 	c #5A5C6A",
"D 	c #413F43",
"E 	c #39383A",
"F 	c #783E8E",
"G 	c #7F4293",
"H 	c #814495",
"I 	c #7F4495",
"J 	c #333434",
"K 	c #4B4C53",
"L 	c #575B68",
"M 	c #3B3A3C",
"N 	c #403D42",
"O 	c #7F4493",
"P 	c #9050A5",
"Q 	c #9754AC",
"R 	c #464247",
"S 	c #525763",
"T 	c #403D41",
"U 	c #9150A5",
"V 	c #A968BE",
"W 	c #B271C7",
"X 	c #353636",
"Y 	c #4A474E",
"Z 	c #3E3B3F",
"` 	c #4E5460",
" .	c #433F44",
"..	c #814497",
"+.	c #9756AC",
"@.	c #D49EE6",
"#.	c #DBA9EB",
"$.	c #B073C4",
"%.	c #884B9E",
"&.	c #763D8A",
"*.	c #423F44",
"=.	c #7C4090",
"-.	c #88499C",
";.	c #A261B5",
">.	c #C48AD6",
",.	c #E8BBF6",
"'.	c #EDC6FA",
").	c #BE83D0",
"!.	c #9759AC",
"~.	c #834999",
"{.	c #3F3C3F",
"].	c #7A408E",
"^.	c #86479C",
"/.	c #9C5BB2",
"(.	c #BE85D2",
"_.	c #F1C7FF",
":.	c #D8B0E4",
"<.	c #A06DB2",
"[.	c #9C5DB2",
"}.	c #A264B7",
"|.	c #3F4246",
"1.	c #44494D",
"2.	c #4A4D54",
"3.	c #373637",
"4.	c #8A4BA0",
"5.	c #A562BB",
"6.	c #BE81D2",
"7.	c #C99ED9",
"8.	c #AC7DBD",
"9.	c #834499",
"0.	c #86479A",
"a.	c #AB6ABE",
"b.	c #A96BBE",
"c.	c #535E65",
"d.	c #556067",
"e.	c #9E5DB4",
"f.	c #A566BB",
"g.	c #8A4FA0",
"h.	c #88499E",
"i.	c #8E4DA3",
"j.	c #854799",
"k.	c #9C5FB2",
"l.	c #7C4290",
"m.	c #4A4D53",
"n.	c #8C4BA2",
"o.	c #8C4DA2",
"p.	c #8E4DA2",
"q.	c #9150A7",
"r.	c #9350A9",
"s.	c #904FA5",
"t.	c #86499C",
"u.	c #7F4693",
"v.	c #7D4491",
"w.	c #44484D",
"x.	c #545E65",
"y.	c #393839",
"z.	c #7D4291",
"A.	c #8A499E",
"B.	c #914FA7",
"C.	c #884D9C",
"D.	c #A264B5",
"E.	c #8C50A0",
"F.	c #3B3D3F",
"G.	c #85479A",
"H.	c #9052A3",
"I.	c #A062B5",
"J.	c #864D9A",
"K.	c #3F4346",
"L.	c #4D555B",
"M.	c #3B3B3F",
"N.	c #834697",
"O.	c #9352A9",
"P.	c #9554AB",
"Q.	c #8C4BA0",
"R.	c #4D545B",
"S.	c #A96ABE",
"T.	c #8E50A2",
"U.	c #A362B9",
"V.	c #AB6AC0",
"W.	c #9956AE",
"X.	c #7A3E8E",
"Y.	c #3C3D3F",
"Z.	c #46464C",
"`.	c #575A68",
" +	c #9054A3",
".+	c #B273C7",
"++	c #9156A5",
"@+	c #9552AB",
"#+	c #A361B9",
"$+	c #B776CD",
"%+	c #AB68BE",
"&+	c #9A59B0",
"*+	c #8A49A0",
"=+	c #3F3C41",
"-+	c #B271C6",
";+	c #814295",
">+	c #B473C9",
",+	c #A564BB",
"'+	c #9152A5",
")+	c #3D3B3E",
"!+	c #555D69",
"~+	c #3C4143",
"{+	c #353838",
"]+	c #834799",
"^+	c #B473C7",
"/+	c #9A58AE",
"(+	c #A364B9",
"_+	c #343535",
":+	c #606C79",
"<+	c #4B545A",
"[+	c #3C4042",
"}+	c #8E52A3",
"|+	c #A97CB9",
"1+	c #DBB0EA",
"2+	c #B57DC9",
"3+	c #854699",
"4+	c #9A59AE",
"5+	c #763E8A",
"6+	c #657481",
"7+	c #546168",
"8+	c #475054",
"9+	c #414448",
"0+	c #424246",
"a+	c #854999",
"b+	c #9759AB",
"c+	c #A96BBD",
"d+	c #AE7DC0",
"e+	c #D0A9DD",
"f+	c #E6BEF3",
"g+	c #A973BB",
"h+	c #9C59B0",
"i+	c #8A4DA0",
"j+	c #3B3B3E",
"k+	c #667481",
"l+	c #59666E",
"m+	c #546067",
"n+	c #A062B4",
"o+	c #935DA5",
"p+	c #E4C0F1",
"q+	c #E8BEF4",
"r+	c #A36AB5",
"s+	c #834797",
"t+	c #9154A5",
"u+	c #B06FC6",
"v+	c #636E7B",
"w+	c #566067",
"x+	c #A366B9",
"y+	c #905BA2",
"z+	c #EDC9F8",
"A+	c #EBC2F8",
"B+	c #9556AB",
"C+	c #7C3E91",
"D+	c #B474C9",
"E+	c #A25FB5",
"F+	c #58636B",
"G+	c #4D4F55",
"H+	c #A364B7",
"I+	c #A968BD",
"J+	c #EDC9FA",
"K+	c #EAC2F6",
"L+	c #934FA9",
"M+	c #8E50A3",
"N+	c #A262B5",
"O+	c #9154A7",
"P+	c #525966",
"Q+	c #8E58A0",
"R+	c #E1BBED",
"S+	c #D9B4E6",
"T+	c #854D99",
"U+	c #3F535D",
"V+	c #393738",
"W+	c #854B99",
"X+	c #A56FB7",
"Y+	c #A26BB4",
"Z+	c #A25FB7",
"`+	c #814695",
" @	c #AB6BBE",
".@	c #454147",
"+@	c #35515A",
"@@	c #3A3739",
"#@	c #A366B7",
"$@	c #AB6BC0",
"%@	c #88469C",
"&@	c #86469C",
"*@	c #7C4091",
"=@	c #8C49A2",
"-@	c #C491D6",
";@	c #E2B2F3",
">@	c #C486D8",
",@	c #B06DC6",
"'@	c #9959AE",
")@	c #4B4C52",
"!@	c #3D5660",
"~@	c #443F44",
"{@	c #5A666E",
"]@	c #9E5FB2",
"^@	c #834B97",
"/@	c #AB76BD",
"(@	c #E1B5EF",
"_@	c #F1C6FF",
":@	c #C085D4",
"<@	c #B774CD",
"[@	c #A768BD",
"}@	c #884F9C",
"|@	c #BB85CD",
"1@	c #B27CC4",
"2@	c #7C4490",
"3@	c #4C606C",
"4@	c #4E4E55",
"5@	c #9362A5",
"6@	c #EBC6F8",
"7@	c #EBBEFA",
"8@	c #A261B7",
"9@	c #AE6BC4",
"0@	c #E6C0F4",
"a@	c #7F4993",
"b@	c #484349",
"c@	c #5E6C7A",
"d@	c #85449A",
"e@	c #9968A9",
"f@	c #FAD6FF",
"g@	c #E6BBF4",
"h@	c #A05DB5",
"i@	c #9E5BB4",
"j@	c #9554A9",
"k@	c #905DA2",
"l@	c #F3CFFD",
"m@	c #814B93",
"n@	c #454247",
"o@	c #535A62",
"p@	c #915FA3",
"q@	c #E2B9EF",
"r@	c #CFA0DF",
"s@	c #9058A2",
"t@	c #D2ABE1",
"u@	c #C49AD0",
"v@	c #7D4791",
"w@	c #864B9A",
"x@	c #B478C7",
"y@	c #AC6FC2",
"z@	c #8C549E",
"A@	c #814D95",
"B@	c #78408C",
"C@	c #576269",
"D@	c #454146",
"E@	c #48434A",
"F@	c #AC6DC2",
"G@	c #A061B5",
"H@	c #834699",
"I@	c #763B8A",
"J@	c #50565D",
"K@	c #49464D",
"L@	c #88479C",
"M@	c #AE6FC4",
"N@	c #9E61B2",
"O@	c #904DA3",
"P@	c #8E4FA2",
"Q@	c #9A5DAE",
"R@	c #86499A",
"S@	c #3F3E41",
"T@	c #413F42",
"U@	c #7F4695",
"V@	c #A061B4",
"W@	c #9354A9",
"X@	c #9356A7",
"Y@	c #4A474F",
"Z@	c #A566B9",
"`@	c #8A4F9E",
" #	c #8A4D9E",
".#	c #A262B7",
"+#	c #515662",
"@#	c #814797",
"##	c #A96ABD",
"$#	c #9559A9",
"%#	c #9054A5",
"&#	c #A768BB",
"*#	c #A568BB",
"=#	c #3E3C3F",
"-#	c #A76ABD",
";#	c #8C4FA0",
">#	c #B26FC7",
",#	c #9558A9",
"'#	c #3F3B3F",
")#	c #BE7CD4",
"!#	c #9C5FB0",
"~#	c #9052A5",
"{#	c #A766BD",
"]#	c #AC6DC0",
"^#	c #B978CF",
"/#	c #864B9C",
"(#	c #8C4DA0",
"_#	c #814697",
":#	c #B574CB",
"<#	c #7D4293",
"[#	c #9758AC",
"}#	c #4C4B52",
"|#	c #B071C6",
"1#	c #9156A7",
"2#	c #85469A",
"3#	c #B27AC4",
"4#	c #B77FC9",
"5#	c #7F4793",
"6#	c #783D8C",
"7#	c #525E65",
"8#	c #B476C9",
"9#	c #9158A7",
"0#	c #DBB2E8",
"a#	c #E2BBEF",
"b#	c #86529A",
"c#	c #FFEFFF",
"d#	c #3F4649",
"e#	c #313131",
"f#	c #743B88",
"g#	c #A574B5",
"h#	c #E1B4EF",
"i#	c #A978B9",
"j#	c #7D3E93",
"k#	c #9E62B2",
"l#	c #CFA5DD",
"m#	c #B58AC6",
"n#	c #814095",
"o#	c #EFCBFA",
"p#	c #8A569C",
"q#	c #743B8A",
"r#	c #4F575E",
"s#	c #313130",
"t#	c #733788",
"u#	c #B48AC2",
"v#	c #FFDBFF",
"w#	c #B78EC6",
"x#	c #7C3990",
"y#	c #A56AB9",
"z#	c #EABEF8",
"A#	c #DBB4EA",
"B#	c #B488C4",
"C#	c #C091D0",
"D#	c #DBB2EA",
"E#	c #865099",
"F#	c #3D3B3F",
"G#	c #743988",
"H#	c #B085BE",
"I#	c #F8D4FF",
"J#	c #BD93CB",
"K#	c #864D9C",
"L#	c #9958AE",
"M#	c #B97DCD",
"N#	c #E4B7F4",
"O#	c #FFDDFF",
"P#	c #FDD9FF",
"Q#	c #DDACED",
"R#	c #AC73C0",
"S#	c #403E42",
"T#	c #915DA3",
"U#	c #C293D2",
"V#	c #E1BBEF",
"W#	c #C7A0D6",
"X#	c #C28AD4",
"Y#	c #D8A7EA",
"Z#	c #C999D9",
"`#	c #A771B9",
" $	c #8A4B9E",
".$	c #51585F",
"+$	c #7D4093",
"@$	c #9959AC",
"#$	c #DBAEEB",
"$$	c #CFA3DD",
"%$	c #814995",
"&$	c #7F4295",
"*$	c #48494E",
"=$	c #9152A7",
"-$	c #B274C7",
";$	c #AB6FBE",
">$	c #884B9C",
",$	c #423F43",
"'$	c #783E8A",
")$	c #9A5BB0",
"!$	c #B778CD",
"~$	c #4E545F",
"{$	c #9A5BAE",
"]$	c #B983CB",
"^$	c #9A58B0",
"/$	c #B97CCD",
"($	c #E1B9ED",
"_$	c #88549A",
":$	c #5A606A",
"<$	c #424045",
"[$	c #BE86D2",
"}$	c #EABEFA",
"|$	c #BB91C9",
"1$	c #6C747A",
"2$	c #9350A7",
"3$	c #C088D4",
"4$	c #E6BDF4",
"5$	c #B085C0",
"6$	c #6C7A80",
"7$	c #3F4447",
"8$	c #9C61B0",
"9$	c #5B747D",
"0$	c #3F4548",
"a$	c #814297",
"b$	c #7C3E90",
"c$	c #56707C",
"d$	c #404548",
"e$	c #60727F",
"f$	c #414447",
"g$	c #343435",
"h$	c #63707D",
"i$	c #5B656B",
"  . + @ # # @ $ . . $ @ # # @ % . & & * & = - - = * * ; - # > % . & & & & & & & & * & ; - # > $ . , $ ' ) @ ! # @ % . & & * & ~ ",
"{ ] ^ / ( ( _ : ] ] : < [ } | 1 2 & & * & ; - 3 4 5 6 ; - 7 8 1 9 & & & & & & * & 6 2 4 3 # 0 $ . 2 1 a b @ c d / | ] 2 6 * * e ",
"f : } d g g d h : : h i < | ] 2 6 & & * & ; - 7 8 j 9 ; - k l 2 6 & & & & & & & & 9 1 m 7 # @ n . o 2 p q r c g d s : 1 9 * & t ",
"u r d g ( # c i < _ d 7 m 1 9 & & & & 6 2 v 3 c @ $ w ; - 3 x x x * * 6 2 . y w . z a r c c r n w * * w n r # A A c r a z w w B ",
"C 0 d d / r r D i ( g k v 2 6 & & & & 9 1 m 7 E > $ y ; - x F G H I & 2 1 % % n % a b 0 c # @ % . * * w n r # A J # @ b a n n K ",
"L < M s | n n : s ( g 3 v 2 6 * * 6 2 ] | N d d N : ] v x x O P Q P O ] : r 0 @ @ r @ _ d ( _ | ] w w z a r # J J d N r r r r R ",
"S i T : ] w w ] | _ d 7 m 1 9 & & 2 1 | } d g g d h : x x O U V W V U H } # E # # c c d X g d s : n n a Y r c A A X d c c E # Z ",
"` c  .n w * * w n r c d / : ] w w z a r # A J A A d N x x ..+.W @.#.$.%.&.X d c c # # # # # c i D r r @ 0 < [ c # d g A A A A ! ",
"` # *.n w * * w n r c g ( } | n n a b @ # A A A A g d x =.-.;.>.,.'.).!.~.d / @ r @ @ @ r r @ < i # # # c i D r r N d A J J A c ",
"` ( {.: ] w w ] | / ( J J d / @ r r @ < i c c d X g x ].^./.(._.:.<.[.V }.O r Y a % n n % a b @ c g d 7 |.1.2.$ $ : s d g A A ! ",
"` g 3.s : n n : s d g A A g d # c # c i D r r N d x x ].4.5.6.7.8.9.0.a.b.O r a z . w w . z a r # ( _ 8 v c.d.w . ] : N d A A ! ",
"S d A d / r r < i # # # # c c d X g d } | a Y > # x x ].4.e.f.g.h.i.j.k.k.l.< m.d.& & & & 9 1 m 7 c r a z . w w . z a r c g ( i ",
"L N 3.g ( # c i < @ r r r r @ _ d ( _ : ] z a r c x x =.n.o.j.p.q.r.s.t.u.v.i w.x.& * * & 6 2 4 3 ! @ Y a $ $ $ $ a Y r ! d / D ",
"u r y.X d # c } | % n n % a b > c 7 m 1 9 9 1 : x x z.A.B.h.=.i.r.r.r...C.D.E.- ; & * * & 6 2 4 3 d _ r r r @ @ @ r @ _ d F.m 8 ",
"u r y.d _ > r | ] . w w . z a @ c 3 v 9 6 6 2 ] x x H s.i.^.G.s.r.r.r.h.H.I.J.&.; & * & & 9 1 m 7 X d c c # # # # c c ( X K.v L.",
"u r y.c @ b a 1 2 & & & & 9 1 8 M.k 4 9 6 6 9 z x x N.O.j.N.B.r.P.Q r.r.Q.v.].x 4 . w w . z a r # A A A A X d c c c # ( g K.v R.",
"u @ y.c r a z 2 6 & * * & 6 2 4 3 7 m 1 9 2 1 a x &.E.S.T.N.q.r.U.V.W.r.4.X.x x m % $ n % a b @ c A J J A d / @ r r @ _ d Y.m Z.",
"`._ 3.# @ % . & & & & & & * & c.w.i < : ] ] : r x &. +.+++..@+#+W $+%+&+*+].x x < 0 @ @ r r @ D i d g J A c r Y a n n | } i < =+",
"S d A # r n w & * & & & & * & d.m.< [ s | | s c x &. +-+++;++.W $+>+W ,+'+=.x x i # # # # # c )+D N d A A c r a z w w ] : D [ M ",
"!+~+{+E r n w & * & & & & * & w n @ # d _ < i c x &. +-+++]+[.^+V./+&+V.(+v.x x 1.|.7 d g g d s | | s ( _+# r n . & & 9 1 m 7 ! ",
":+<+[+# @ % . & & & & & & & & . n r # g ( i D r x &.}+.+T.|+1+2+O.N.3+4+e.h.=.5+x.v 8 _ ( ( _ : ] ] : / d # @ n w * * 6 2 4 k ! ",
"6+7+8+9+0+: ] . w . . . . w . z a r # _+( } | n x a+b+c+d+e+f+g+9.H H ^.O.h+i+z.w z a @ # j+8 1 5 5 1 : } [ < m.d.* * 6 2 v 3 ! ",
"k+l+m+L.9+s | % n % % % % n % a Y @ c d _ | ] x ].n+f.o+p+q+r+s+G.B.s.N.t+u+e.0.X.a Y @ ! 3 v 9 6 6 9 ] | < i w.c.& * 9 1 m 7 ! ",
"v+w w+v |.d _ r r @ @ @ @ @ r r @ < i } | 1 5 x ].x+S.y+z+A+B+C+G.r.r...++D+E+^.X.r @ < i 1.x.6 F+w y z a @ c |.v w w ] | _ ( c ",
"f $ G+m 7 g ( # c # # # # # # # c i D | ] 2 6 x ].H+I+y+J+K+++9.4.L+B.h.M+N+(+O+].# c [ D 2.d.9 1 n % a Y @ c 7 8 n $ | } ( g ! ",
"P+r  .N d A A X d c c c c d X g d } : 1 9 l+2 x ].H+S.Q+R+S+T+n.Q W.W.@+4.a+b.N+l.# # [ < : ] ] : @ > r @ _ d d / r r < i E # Z ",
"U+c V+d g A A d / @ r r @ _ d ( _ | ] 5 6 2 1 x ].H+b.W+X+Y+O i.,+>+W Z+*+`+ @}.l.r @ < i h | | s # E c c d X g d # c i < @ r .@",
"+@c @@d g J A c r Y a a Y @ c c @ q p 2 o 2 1 x ].#@$@`+%@&@*@=@-@;@>@,@'@s+I+I.=.n % | s i < D i c # c c ! ! d g _+d } | n n )@",
"!@r ~@N d A A c r a z z a r c ! r Y a 1 2 {@2 x ].]@(+`+4.h.^@/@(@_@:@<@[@}@|@1@2@w . ] | < [ i < @ r @ @ r r / d ( _ | ] w w B ",
"3@n 4@: s d g # r $ w w $ @ # c @ Y a 1 2 & & x X.o.P z.4.&@5@6@7@(.8@9@f.y+0@:.a@& & . % @ # c @ Y a a Y b@.@< i } | 1 2 * & t ",
"c@w w+] : / d # @ $ w w $ @ # c @ q p 2 o & & x F h.4.z.4.d@e@f@g@h@@+i@j@k@l@R+m@* & w n r # # r a z z a n@Z i D | ] 2 6 * * e ",
"  * & w n r c c r a z z a r # # r a o@2 6 & & x X.h.n.z.4.&@p@q@r@r.n.s.=@s@t@u@v@& & . % @ # c r a z z a r c # @ % . & & * & ~ ",
"k+* & w n r c c @ Y a a Y @ c c @ Y a 1 2 & & x X.h.n.z.4.-.w@x@y@p.H h.B.U z@A@B@& & . % @ # c @ Y a a Y @ c # r n w & * * & ~ ",
"6+6 C@] | _ ( d / r r r @ < i i < D@E@a o@2 6 x X.h.n.z.4.h.a+F@G@H@A.j.^.s.G I@x * & w n r # d _ > > > > _ d # r n w & * * & e ",
"  2 J@: } d g X d c c # c i D D i Z D@K@a 1 2 x X.h.n.z.4.L@a+M@N@O i.N.H O@H x x & & . % r # X d c c c c d X # r % . & & * & t ",
"v+] m < [ c c d X X d # c s | | s i < D@E@a o@x X.h.Q.z.P P@~.S.Q@`+j@R@H O@H x x w . ] : D i 7 |.- - - - |.7 i D : ] . w w . B ",
"f | S@i < r r / d d _ > r : ] ] : T@i Z D@Y a x X.h.Q.U@H+V@`+W@i+C.$@X@H s.H x x n % | s i < m v ; ; ; ; v m < i s | % n n % )@",
"L < M s : a Y@r c # > K@a 1 2 2 1 | } i < .@E@x F h.*+`+b.Z@O n.3+`@-+b+ #.#C.&.x r r / d c r a z . w w . z a r c d _ @ r @ @ .@",
"+#[ T : ] z a r c c r a z 9 6 6 9 ] | T@i Z D@x ].P W@@###x+O p.h.H.-+$#%#-+ +&.x c # ( g c r Y a $ $ $ $ a Y r c g ( # c E # Z ",
"` c  .a z ] : < i } | 1 2 & & & & 9 1 : } i < x ].I.&#a+##*#s+o.q./.>+$#t+W  +&.x A A J A d / @ r @ @ @ r r @ / d g ( # c # c =#",
"` c *.Y@a : s i < | ] 2 6 & x & & 6 2 ] | D i x ].#@ @W+-#D+}.;#'@>#$+,#%#.+ +&.x A A A A X d c c # # # # c c d X d / @ r @ @ .@",
"` d '#r r _ d # r n w & * & x * & 6 2 z a r c x ].H+b.a+-#)#>+`@!#$+##~#O+{#`@&.x g d # c # # # # c c d X X d # c } | n n a Y ' ",
"` X 3.! c ( g # r n w & * & & & & 2 1 a Y r c x ].H+]#E.Z@^#.+`@Q@$@/#h.r.q.N.X.x d N r r r @ @ @ r @ _ d d _ 0 r : ] w w o@a ' ",
"S c ( # # # # [ < | ] 9 6 6 9 w y ] | r > _ d x ].}.$+$@b+I.-+`@(#B+O h.i._#h.3+x s : $ $ % % n % a b > # c r Y a 1 2 & & d.m.r ",
"L r *.@ @ r r < i } | 1 2 2 1 n % | } c # d X x ]. +S.:# +$#-+`@3+n.<#j@[#z.N.H@/ : ] . w . . w . z a r c c r a z 2 6 * * x.w.! ",
"C b }#% n n % | } [ < : ] ] : r > < i # # # # [ x x  +|#%#1#$@/#2#n.`+3#4#5#6#x < | ] 2 6 & & & & 9 1 : s i < | ] 2 6 * * 7#- J ",
"u a ] . w w . ] | < [ s | | s # x i < @ r r r < x &. +8#9#G.B+W+%.n.T+0#a#b#I@x i s : 1 5 & * * c#6 2 ] | < i } : 1 9 * & ; d#e#",
"f 1 C@& & & & 2 1 | } i < D i # # } | % n n % | x f#g#h#i#j#k#l#m#n#E.K+o#p#q#x # ( _ | ] 2 6 * * 6 2 ] | < [ [ < | ] w w r#|.s#",
"{ 2 l+& * * & 6 2 ] | < [ i < > r | ] . w w . ] x t#u#v#w#x#y#z#A#B#C#z#D#E#I@x # _+( } | 1 2 & & 9 1 : s F#< < i } | $ n m 7 s#",
"v+2 l+& & & & * & 5 1 m 7 c > K@a 1 2 & & & & 2 x G#H#I#J#K#L#M#N#O#P#Q#R#`+x x [ # # [ < | ] w w ] | < [ s | | s i < r r S#d e#",
"f 1 C@& & & & & & 6 2 4 k # @ a z 2 6 & * * & 6 x &.T#U#V#W#E.L#X#Y#Z#`#P@ $z.x < r r < i } | n n | } [ < : ] ] : < [ c # d g J ",
"L | .$2 6 6 9 . y w . 4 |.7 m 1 9 & & & & & & * x x +$@$#$$$%$n.h@5.r.&$H s.H 5+| n n | } i < r r < i } | 1 2 2 1 : } d g A A X ",
"+#} *$1 2 2 1 % % $ $ m 7 3 4 2 6 & & & & & & * x x G =$-$;$>$o.r.@+s.H@N.o.H | ] w w ] | < [ # # [ < | ] 9 6 6 9 ] | / ( A A d ",
"` c *.a z ] : @ > r @ _ d k v 2 6 & * & & * & 6 2 x X.]+S.$+##g.h.i.N.-.h.I @ % y r.r.r.1 m 7 g ( } | 1 2 & & & & . % r # A A ! ",
"` # ,$Y a | } # E c # ( g 7 m 1 9 & & & & & & 9 1 x '$l.)$W !$x+t+G.0.&+L#l.r n w r.r.r.2 v k ( _ | ] 2 6 & & * & w n r c A A ! ",
"~$c *.E@n@< i # # # # # c i D : ] . w . . w . ] : x x ].Q.Z+W W {$G.&+(.]$%$m 1 5 r.r.r.& ; - 7 8 1 9 & & & & & & . % r # A J c ",
"` ! *..@Z i < @ r @ @ r r < i } | % n % % n % | } x x ].4.@+L#^$@+&+/$7@($_$4 2 6 & & * & ; - 3 4 2 6 & & & & & & . % r # A A ! ",
":$9+<$< i } | % n n % a b 0 # d / r r @ @ r r N d J x X.I A.B.r.i@[$}$0#|$k v y w 9 6 6 9 4 3 3 4 2 6 & * & & * & w n r # g ( Z ",
"1$L.|.i < | ] . w w . z a r # g ( # c # # c # d g A A x x H@2$r.h@3$4$5$t#7 m % $ 1 2 9 1 8 7 7 m 1 9 & & & & & & . % @ # d / .@",
"6$; 7$7 8 1 9 & & & & 9 1 : s d g g d c ! d X g d # c x x N.s.r.@+L#8$}@x [ < > > | ] ] : N d d _ | ] . w . . w . ] | < [ s | )@",
"9$; 0$k 4 2 6 & * * & 6 2 ] | / ( d _ r r _ d d / r r r x =.N.s.r.i.a$b$r D i E # s | | s d g g d } | % n % % n % | s i < : ] B ",
"c$; d$3 4 2 6 & & & & 6 2 ] | < i s | a Y @ c 7 m % $ $ % x ].j.h.0.=.n n m.w.- d#9+0+N d A A g d i ,$r r r r r r < i } | j 2 t ",
"e$; 0$7 8 1 9 & & & & 9 1 : s i D : ] z a @ c |.v . w w . v x X.X.X.] . w r.c.7#; L.f$d g$A A d N < i # # # # # # [ < | ] F+6 e ",
"h$; 0$E > % y & & & & y % > E # r $ w w $ > # - ; & * * & ; - c > n w & * & * * * 7#- A J A A ! r r ! A J A A J A # r n w * * i$"};
