/* XPM */
static char * idleportal4_xpm[] = {
"64 64 456 2",
"  	c #657381",
". 	c #576168",
"+ 	c #4D4E55",
"@ 	c #434046",
"# 	c #39383B",
"$ 	c #4E5057",
"% 	c #4D4F56",
"& 	c #5B6970",
"* 	c #5B6971",
"= 	c #525D64",
"- 	c #404649",
"; 	c #525E64",
"> 	c #433F45",
", 	c #566068",
"' 	c #49444B",
") 	c #49434A",
"! 	c #3A393B",
"~ 	c #505B62",
"{ 	c #636D7B",
"] 	c #525960",
"^ 	c #49494F",
"/ 	c #3F3D42",
"( 	c #383738",
"_ 	c #3F3D41",
": 	c #494A50",
"< 	c #413E42",
"[ 	c #3C3A3D",
"} 	c #3F3F42",
"| 	c #494950",
"1 	c #51575E",
"2 	c #57626A",
"3 	c #3F4245",
"4 	c #4E575D",
"5 	c #57636B",
"6 	c #5A676F",
"7 	c #3B3C3F",
"8 	c #47494E",
"9 	c #57636A",
"0 	c #434045",
"a 	c #4D4D54",
"b 	c #4A464E",
"c 	c #3A383B",
"d 	c #383839",
"e 	c #505C62",
"f 	c #5E6371",
"g 	c #353536",
"h 	c #403F43",
"i 	c #3C3B3E",
"j 	c #52575E",
"k 	c #3E4245",
"l 	c #4E565C",
"m 	c #48494F",
"n 	c #4E4F57",
"o 	c #5A676E",
"p 	c #535A61",
"q 	c #4D4C54",
"r 	c #444046",
"s 	c #3F3F43",
"t 	c #515D63",
"u 	c #5B5C6B",
"v 	c #4F575D",
"w 	c #576169",
"x 	c #576068",
"y 	c #545A62",
"z 	c #343434",
"A 	c #50575E",
"B 	c #5A5C6A",
"C 	c #413F43",
"D 	c #39383A",
"E 	c #333434",
"F 	c #4B4C53",
"G 	c #575B68",
"H 	c #3B3A3C",
"I 	c #403D42",
"J 	c #3F4246",
"K 	c #783E8C",
"L 	c #7A408E",
"M 	c #7C4090",
"N 	c #464247",
"O 	c #525763",
"P 	c #403D41",
"Q 	c #88499C",
"R 	c #8C4DA2",
"S 	c #88499E",
"T 	c #353636",
"U 	c #4A474E",
"V 	c #3E3B3F",
"W 	c #4E5460",
"X 	c #433F44",
"Y 	c #7D4291",
"Z 	c #86479A",
"` 	c #904FA5",
" .	c #9350A9",
"..	c #7F4493",
"+.	c #423F44",
"@.	c #834697",
"#.	c #9958AE",
"$.	c #9A59B0",
"%.	c #9956AE",
"&.	c #3F3C3F",
"*.	c #834699",
"=.	c #9956AC",
"-.	c #AC6BC2",
";.	c #B574CB",
">.	c #AE6DC4",
",.	c #44494D",
"'.	c #4A4D54",
").	c #373637",
"!.	c #7A3E8E",
"~.	c #9758AC",
"{.	c #A766BD",
"].	c #9E61B4",
"^.	c #AC6DC2",
"/.	c #B978CF",
"(.	c #AB6AC0",
"_.	c #9556AB",
":.	c #854699",
"<.	c #535E65",
"[.	c #556067",
"}.	c #8A4BA0",
"|.	c #9E5DB4",
"1.	c #A566BB",
"2.	c #8A4FA0",
"3.	c #9559AB",
"4.	c #B06FC4",
"5.	c #B776CD",
"6.	c #A562BB",
"7.	c #4A4D53",
"8.	c #8C4BA0",
"9.	c #854799",
"0.	c #9054A3",
"a.	c #B071C6",
"b.	c #A362B9",
"c.	c #44484D",
"d.	c #545E65",
"e.	c #393839",
"f.	c #8E4DA2",
"g.	c #85479A",
"h.	c #814695",
"i.	c #9C5BB2",
"j.	c #9A58B0",
"k.	c #8A49A0",
"l.	c #3B3D3F",
"m.	c #814697",
"n.	c #86479C",
"o.	c #8A499E",
"p.	c #9A59AE",
"q.	c #7C4091",
"r.	c #3F4649",
"s.	c #3F4346",
"t.	c #4D555B",
"u.	c #3B3B3F",
"v.	c #7F4495",
"w.	c #8E4DA3",
"x.	c #914FA7",
"y.	c #8C4BA2",
"z.	c #A364B7",
"A.	c #B06FC6",
"B.	c #9756AC",
"C.	c #763E8A",
"D.	c #4D545B",
"E.	c #814495",
"F.	c #9350A7",
"G.	c #A366B9",
"H.	c #8A4F9E",
"I.	c #763D8A",
"J.	c #3C3D3F",
"K.	c #46464C",
"L.	c #575A68",
"M.	c #884B9C",
"N.	c #A05FB5",
"O.	c #884D9E",
"P.	c #9150A7",
"Q.	c #9356A9",
"R.	c #BB85CD",
"S.	c #DBACEB",
"T.	c #A06FB2",
"U.	c #733786",
"V.	c #3F3C41",
"W.	c #FFEFFF",
"X.	c #9052A3",
"Y.	c #9154A5",
"Z.	c #814497",
"`.	c #7F4095",
" +	c #B98EC7",
".+	c #FDD9FF",
"++	c #B288C2",
"@+	c #713485",
"#+	c #3D3B3E",
"$+	c #555D69",
"%+	c #3C4143",
"&+	c #353838",
"*+	c #B271C7",
"=+	c #9156A5",
"-+	c #9552AB",
";+	c #B78EC6",
">+	c #FCD8FF",
",+	c #B286C0",
"'+	c #343535",
")+	c #606C79",
"!+	c #4B545A",
"~+	c #3C4042",
"{+	c #B273C7",
"]+	c #9554AB",
"^+	c #A764BD",
"/+	c #814295",
"(+	c #A371B4",
"_+	c #D6A5E6",
":+	c #A06BB0",
"<+	c #657481",
"[+	c #546168",
"}+	c #475054",
"|+	c #414448",
"1+	c #424246",
"2+	c #A968BD",
"3+	c #8C50A2",
"4+	c #7F4295",
"5+	c #9754AC",
"6+	c #B473C9",
"7+	c #BD7CD2",
"8+	c #8E52A3",
"9+	c #743B88",
"0+	c #3B3B3E",
"a+	c #667481",
"b+	c #59666E",
"c+	c #546067",
"d+	c #7C4290",
"e+	c #85499A",
"f+	c #884F9C",
"g+	c #A264B5",
"h+	c #B778CD",
"i+	c #9054A5",
"j+	c #AE6FC4",
"k+	c #636E7B",
"l+	c #566067",
"m+	c #9759AB",
"n+	c #9E61B2",
"o+	c #85449A",
"p+	c #BB8ACB",
"q+	c #E2BBF1",
"r+	c #AB78BD",
"s+	c #995BAC",
"t+	c #9A5BB0",
"u+	c #8C4FA2",
"v+	c #58636B",
"w+	c #4D4F55",
"x+	c #AB6BC0",
"y+	c #864F9A",
"z+	c #B586C6",
"A+	c #D9B0E8",
"B+	c #D9B2E6",
"C+	c #A976BB",
"D+	c #884B9E",
"E+	c #8A4DA0",
"F+	c #A061B4",
"G+	c #9C5BB0",
"H+	c #525966",
"I+	c #A564B9",
"J+	c #8E59A2",
"K+	c #E8C4F4",
"L+	c #E2BDEF",
"M+	c #915DA5",
"N+	c #A96ABD",
"O+	c #BB7AD0",
"P+	c #3F535D",
"Q+	c #393738",
"R+	c #9050A3",
"S+	c #9150A5",
"T+	c #8C589E",
"U+	c #EBC7F8",
"V+	c #E2BEEF",
"W+	c #864F99",
"X+	c #9352A9",
"Y+	c #454147",
"Z+	c #35515A",
"`+	c #3A3739",
" @	c #8E52A2",
".@	c #BE93CD",
"+@	c #B98EC9",
"@@	c #8C4FA0",
"#@	c #904DA5",
"$@	c #4B4C52",
"%@	c #3D5660",
"&@	c #443F44",
"*@	c #5A666E",
"=@	c #904DA3",
"-@	c #834797",
";@	c #4C606C",
">@	c #4E4E55",
",@	c #484349",
"'@	c #5E6C7A",
")@	c #783E8A",
"!@	c #A25FB7",
"~@	c #454247",
"{@	c #535A62",
"]@	c #7C4291",
"^@	c #9559A9",
"/@	c #B576CB",
"(@	c #A564BB",
"_@	c #9959AE",
":@	c #7D4493",
"<@	c #9756AB",
"[@	c #9152A5",
"}@	c #8A4B9E",
"|@	c #975BAC",
"1@	c #B271C6",
"2@	c #9C5DB0",
"3@	c #834997",
"4@	c #814795",
"5@	c #A062B5",
"6@	c #576269",
"7@	c #454146",
"8@	c #48434A",
"9@	c #A364B9",
"0@	c #86499A",
"a@	c #A261B7",
"b@	c #884F9E",
"c@	c #9C5FB2",
"d@	c #A061B5",
"e@	c #854999",
"f@	c #AB6BBE",
"g@	c #A264B7",
"h@	c #50565D",
"i@	c #49464D",
"j@	c #A262B7",
"k@	c #A96ABE",
"l@	c #9A5DAE",
"m@	c #A566B9",
"n@	c #854B99",
"o@	c #A96BBE",
"p@	c #AE76C0",
"q@	c #B77FC9",
"r@	c #A768BD",
"s@	c #864B9A",
"t@	c #3F3E41",
"u@	c #413F42",
"v@	c #7F4791",
"w@	c #D6ACE2",
"x@	c #E4BDF1",
"y@	c #905BA2",
"z@	c #A766BB",
"A@	c #9354A9",
"B@	c #A568BB",
"C@	c #A76ABD",
"D@	c #4A474F",
"E@	c #7F4993",
"F@	c #F1CFFD",
"G@	c #8E59A0",
"H@	c #7F3E95",
"I@	c #9962AB",
"J@	c #CDA5DB",
"K@	c #C995DB",
"L@	c #515662",
"M@	c #7D4691",
"N@	c #CDA3DB",
"O@	c #E4BEF3",
"P@	c #B085C0",
"Q@	c #955DA9",
"R@	c #8E50A2",
"S@	c #9A68AC",
"T@	c #C097CF",
"U@	c #F3C9FF",
"V@	c #D9A7EB",
"W@	c #9C5FB0",
"X@	c #9158A5",
"Y@	c #C799D8",
"Z@	c #F4D0FF",
"`@	c #B488C2",
" #	c #814297",
".#	c #DDB0ED",
"+#	c #F4CBFF",
"@#	c #CF99E2",
"##	c #BE7FD4",
"$#	c #A768BB",
"%#	c #904FA3",
"&#	c #8C4DA0",
"*#	c #3E3C3F",
"=#	c #834099",
"-#	c #C090D2",
";#	c #FFDFFF",
">#	c #B990C7",
",#	c #7F4093",
"'#	c #C68ED8",
")#	c #D8A3EA",
"!#	c #AC6AC2",
"~#	c #3F3B3F",
"{#	c #9050A5",
"]#	c #BD86CF",
"^#	c #E1B7ED",
"/#	c #A778B7",
"(#	c #A05DB5",
"_#	c #A262B5",
":#	c #7F4293",
"<#	c #934FA9",
"[#	c #9356A7",
"}#	c #9959AC",
"|#	c #4C4B52",
"1#	c #8C50A0",
"2#	c #A361B7",
"3#	c #854B9A",
"4#	c #AE6DC2",
"5#	c #AE6BC4",
"6#	c #9554A9",
"7#	c #A366B7",
"8#	c #B06DC6",
"9#	c #525E65",
"0#	c #884D9C",
"a#	c #864D9A",
"b#	c #313131",
"c#	c #B474C9",
"d#	c #995DAE",
"e#	c #975BAB",
"f#	c #4F575E",
"g#	c #313130",
"h#	c #7D4491",
"i#	c #3D3B3F",
"j#	c #9156A7",
"k#	c #9C59B2",
"l#	c #403E42",
"m#	c #864B9C",
"n#	c #51585F",
"o#	c #8E4FA3",
"p#	c #48494E",
"q#	c #9558A9",
"r#	c #834799",
"s#	c #423F43",
"t#	c #995BAE",
"u#	c #814097",
"v#	c #88479C",
"w#	c #7D4091",
"x#	c #4E545F",
"y#	c #AB78BB",
"z#	c #A378B4",
"A#	c #7A4090",
"B#	c #C488D8",
"C#	c #F1C7FD",
"D#	c #FFDDFF",
"E#	c #5A606A",
"F#	c #424045",
"G#	c #783E8E",
"H#	c #AC6FC2",
"I#	c #D8A5EA",
"J#	c #E6B7F6",
"K#	c #6C747A",
"L#	c #A968BE",
"M#	c #6C7A80",
"N#	c #3F4447",
"O#	c #5B747D",
"P#	c #3F4548",
"Q#	c #56707C",
"R#	c #404548",
"S#	c #60727F",
"T#	c #414447",
"U#	c #343435",
"V#	c #63707D",
"W#	c #5B656B",
"  . + @ # # @ $ . . $ @ # # @ % . & & * & = - - = * * ; - # > % . & & & & & & & & * & ; - # > $ . , $ ' ) @ ! # @ % . & & * & ~ ",
"{ ] ^ / ( ( _ : ] ] : < [ } | 1 2 & & * & ; - 3 4 5 6 ; - 7 8 1 9 & & & & & & * & 6 2 4 3 # 0 $ . 2 1 a b @ c d / | ] 2 6 * * e ",
"f : } d g g d h : : h i < | ] 2 6 & & * & ; - 7 8 j 9 ; - k l 2 6 & & & & & & & & 9 1 m 7 # @ n . o 2 p q r c g d s : 1 9 * & t ",
"u r d g ( # c i < _ d 7 m 1 9 & & & & 6 2 v 3 c @ $ w ; - 3 4 2 6 * * 6 2 . x w . y a r c c r n w * * w n r # z z c r a y w w A ",
"B 0 d d / r r C i ( g k v 2 6 & & & & 9 1 m 7 D > $ x ; - 7 8 1 9 & & 2 1 % % n % a b 0 c # @ % . * * w n r # z E # @ b a n n F ",
"G < H s | n n : s ( g 3 v 2 6 * * 6 2 ] | I d d I : ] v J ( K L M M w ] : r 0 @ @ r @ _ d ( _ | ] w w y a r # E E d I r r r r N ",
"O i P : ] w w ] | _ d 7 m 1 9 & & 2 1 | } d g g d h : m 7 K M Q R S M | } # D # # c c d T g d s : n n a U r c z z T d c c D # V ",
"W c X n w * * w n r c d / : ] w w y a r # z E z z d I < K Y Z `  .` Z ..d T d c c # # # # # c i C r r @ 0 < [ c # d g z z z z ! ",
"W # +.n w * * w n r c g ( } | n n a b @ # z z z z g d K K @. .#.$.%. .@.K d / @ r @ @ @ r r @ < i # # # c i C r r I d z E E z c ",
"W ( &.: ] w w ] | / ( E E d / @ r r @ < i c c d T g d K K *.=.-.;.>.%.*.K c r U a % n n % a b @ c g d 7 J ,.'.$ $ : s d g z z ! ",
"W g ).s : n n : s d g z z g d # c # c i C r r I d d K !.@.~.{.].^./.(._.:.L r a y . w w . y a r # ( _ 8 v <.[.w . ] : I d z z ! ",
"O d z d / r r < i # # # # c c d T g d } | a U > # K K L }.|.1.2.3.4.5.6.}.L < 7.[.& & & & 9 1 m 7 c r a y . w w . y a r c g ( i ",
"G I ).g ( # c i < @ r r r r @ _ d ( _ : ] y a r c K K L 8.R 9.R Q 0.a.b.}.L i c.d.& * * & 6 2 4 3 ! @ U a $ $ $ $ a U r ! d / C ",
"u r e.T d # c } | % n n % a b > c 7 m 1 9 9 1 : } K K L 8.S M f.g.h.i.j.k.L # - ; & * * & 6 2 4 3 d _ r r r @ @ @ r @ _ d l.m 8 ",
"u r e.d _ > r | ] . w w . y a @ c 3 v 9 6 6 2 ] | K M m.Q n.g.` 8.:.o.p.#.9.q.r.; & * & & 9 1 m 7 T d c c # # # # c c ( T s.v t.",
"u r e.c @ b a 1 2 & & & & 9 1 8 u.k 4 9 6 6 9 y K K v.w.m.@.x. . .y.h.z.A.B.h.C.4 . w w . y a r # z z z z T d c c c # ( g s.v D.",
"u @ e.c r a y 2 6 & * * & 6 2 4 3 7 m 1 9 2 1 a K K E.` E.@.F. . .f...G./.>.H.I.m % $ n % a b @ c z E E z d / @ r r @ _ d J.m K.",
"L._ ).# @ % . & & & & & & * & <.c.i < : ] ] : r K C.M.N.O.@.P. . .` S Q.R.S.T.U.< 0 @ @ r r @ C i d g E z c r U a n n | } i < V.",
"O d z # r n w & * & & & & W.& [.7.< [ s | | s c K I.X.a.Y.Z.P. . . .x.`. +.+++@+i # # # # # c #+C I d z z c r a y w w ] : C [ H ",
"$+%+&+D r n w & * & & & & * & w n @ # d _ < i c K I.0.*+=+Z.F.-+-+-+ .`.;+>+,+@+,.J 7 d g g d s | | s ( '+# r n . & & 9 1 m 7 ! ",
")+!+~+# @ % . & & & & & & & & . n r # g ( i C r K I.0.{+=+Z.]+^+-.^+]+/+(+_+:+U.d.v 8 _ ( ( _ : ] ] : / d # @ n w * * 6 2 4 k ! ",
"<+[+}+|+1+: ] . w . . . . w . y a r # '+( } | n K I.H.2+3+4+5+6+7+6+%.E.Y.*+8+9+w y a @ # 0+8 1 5 5 1 : } [ < 7.[.* * 6 2 v 3 ! ",
"a+b+c+t.|+s | % n % % % % n % a U @ c d _ | ] w K d+e+P.*.f+g+{+h+A.j.:.i+j+8+K $ a U @ ! 3 v 9 6 6 9 ] | < i c.<.& * 9 1 m 7 ! ",
"k+w l+v J d _ r r @ @ @ @ @ r r @ < i } | 1 5 K L m+n+g.o+p+q+r+3+s+(.t+u+X.u+9.!.r @ < i ,.d.6 v+w x y a @ c J v w w ] | _ ( c ",
"f $ w+m 7 g ( # c # # # # # # # c i C | ] 2 6 K L G.x+y+z+A+B+C+D+E+F+G+}.M y.S !.# c [ C '.[.9 1 n % a U @ c 7 8 n $ | } ( g ! ",
"H+r X I d z z T d c c c c d T g d } : 1 9 b+2 K L F+I+J+K+L+M+N+6.w.v.}.}.Y y.S !.# # [ < : ] ] : @ > O+@ _ d d / r r < i D # V ",
"P+c Q+d g z z d / @ r r @ _ d ( _ | ] 5 6 2 1 K L R+S+T+U+V+W+X+j.w.Y S }.Y y.S !.r @ < i h | | s # D c c d T g d # c i < @ r Y+",
"Z+c `+d g E z c r U a a U @ c c @ q p 2 o 2 1 K K v.:. @.@+@@@#@ .w.Y S }.Y y.S !.n % | s i < C i c # c c ! ! d g '+d } | n n $@",
"%@r &@I d z z c r a y y a r c ! r U a 1 2 *@2 K K K E.=@-@9.x. . .w.Y S }.Y y.S !.w . ] | < [ i < @ r @ @ r r / d ( _ | ] w w A ",
";@n >@: s d g # r $ w w $ @ # c @ U a 1 2 & & K K K E.#@E.*.X+-+-+w.Y S }.Y y.S !.& & . % @ # c @ U a a U ,@Y+< i } | 1 2 * & t ",
"'@w l+] : / d # @ $ w w $ @ # c @ q p 2 o & & K K )@E.=@E. @(.-.!@f.Y S }.Y 8.Q !.* & w n r # # r a y y a ~@V i C | ] 2 6 * * e ",
"  * & w n r c c r a y y a r # # r a {@2 6 & & K K ]@n.` E.^@/@^.(@_@..S }.:@<@[@L & & . % @ # c r a y y a r c # @ % . & & * & ~ ",
"a+* & w n r c c @ U a a U @ c c @ U a 1 2 & & K !.}@-+` E.|@1@8+2@N+3@8.f.4@N+5@M & & . % @ # c @ U a a U @ c # r n w & * * & ~ ",
"<+6 6@] | _ ( d / r r r @ < i i < 7@8@a {@2 6 K L 2@9@0@n.a@1@b@@@~.h.c@d@e@f@g@d+* & w n r # d _ > > > > _ d # r n w & * * & e ",
"  2 h@: } d g T d c c # c i C C i V 7@i@a 1 2 K L j@k@-@~.(@5@l@_.y...m@N+n@o@g@d+& & . % r # T d c c c c d T # r % . & & * & t ",
"k+] m < [ c c d T T d # c s | | s i < 7@8@a {@K d+p@q@y+r@G.s@r@(@w...G.N+n@o@g@d+w . ] : C i 7 J - - - - J 7 i C : ] . w w . A ",
"f | t@i < r r / d d _ > r : ] ] : u@i V 7@U a I.v@w@x@y@z@G.h.A@%.w.3@B@C@n@o@g@d+n % | s i < m v ; ; ; ; v O+< i s | % n n % $@",
"G < H s : a D@r c # > i@a 1 2 2 1 | K i < Y+8@I.E@V+F@G@]+i.Q *.H@I@J@K@r@n@f@z.d+r r / d c r a y . w w . y a r c d _ @ r @ @ Y+",
"L@[ P : ] y a r c c r a y 9 6 6 9 K K K i V 7@I.M@N@O@P@Q@#@P.R@S@T@U@V@r@e@z.W@L c # ( g c r U a $ $ $ $ a U r c g ( # c D # V ",
"W c X a y ] : < i } | 1 2 & & & & K K K } i < K L X@Y@Z@`@ #5+^..#+#@###$#h.%#&#L z z E z d / @ r @ @ @ r r @ / d g ( # c # c *#",
"W c +.D@a : s i < | ] 2 6 & & & & 6 2 ] | C i K K =#-#;#>#,#-+!@'#)###!#_.Y }.Q !.z z z z T d c c # # # # c c d T d / @ r @ @ Y+",
"W d ~#r r _ d # r n w & * & & * & 6 2 y a r c K L {#]#^#/#/+x. .(#-.-._@n.:.w.S !.g d # c # # # # c c d T T d # c } | n n a U ' ",
"W T ).! c ( g # r n w & * & & & & 2 1 a K r c K L _#{+n+e@9.5+-+-+5+-+g.Z.`  .Q !.d I r r r @ @ @ r @ _ d d _ 0 r : ] w w {@a ' ",
"O c ( # # # # [ < | ] 9 6 6 9 w x ] | r > _ d K L z.A.X+:#Y.(.j.<# .x.@.E.x. .Q !.s : $ $ % % n % a b > # c r U a 1 2 & & [.7.r ",
"G r +.@ @ r r < i } | 1 2 2 1 n % | } c # d T K L 0.g@I+{#X.5@(@i.` }@[#}# .}.@./ : ] . w . . w . y a r c c r a y 2 6 * * d.c.! ",
"B b |#% n n % | } [ < : ] ] : r > < i # # # # [ K K 1#k@2#u+3#4#5#6#h.7#8#-+v.K < | ] 2 6 & & & & 9 1 : s i < | ] 2 6 * * 9#- E ",
"u a ] . w w . ] | < [ s | | s # D i < @ r r r < K K d+0#r@5@a#^./.r@s@G.8#X+..C.i s : 1 5 & * * & 6 2 ] | < i } : 1 9 * & ; r.b#",
"f 1 6@& & & & 2 1 | } i < C i # # } | % n n % | K K I.d+k@c#_#d#e#l@5@(@i.0@M K # ( _ | ] 2 6 * * 6 2 ] | < [ [ < | ] w w f#J g#",
"{ 2 b+& * * & 6 2 ] | < [ i < > r | ] . w w . ] K K h#8+g@{+;.s+1#3.x+N.}.L K K # '+( } | 1 2 & & 9 1 : s i#< < i } | $ n m 7 g#",
"k+2 b+& & & & * & 5 1 m 7 c > i@a 1 2 & & & & 2 K I.1#x+j#|@;./@/@4.k# .}.M K K [ # # [ < | ] w w ] | < [ s | | s i < r r l#d b#",
"f 1 6@& & & & & & 6 2 4 k # @ a y 2 6 & * * & 6 K C.0@i.0@m#b.5.7+6+%.n.:.Q Y K < r r < i } | n n | } [ < : ] ] : < [ c # d g E ",
"G | n#2 6 6 9 . x w . 4 J 7 m 1 9 & & & & & & * K K E.#@S :.o#(@>.{.5+E.s@|.s@I.| n n | } i < r r < i } | 1 2 2 1 : } d g z z T ",
"L@} p#1 2 2 1 % % $ $ m 7 3 4 2 6 & & & & & & * K K ..w.x.S :#` 5+-+` 0@q#-.1#I.] w w ] | < [ # # [ < | ] 9 6 6 9 ] | / ( z z d ",
"W c +.a y ] : @ > r @ _ d k v 2 6 & * & & * & 6 2 K L v.w.o.Y f. .w.9.c@k@G+r#I.x & & 9 1 m 7 g ( } | 1 2 & & & & . % r # z z ! ",
"W # s#U a | } # D c # ( g 7 m 1 9 & & & & & & 9 1 K )@d+t+(@t#Q u#v#l@{+^.}@w#n w * * 6 2 v k ( _ | ] 2 6 & & * & w n r c z z ! ",
"x#c +.8@~@< i # # # # # c i C : ] . w . . w . ] : K K h#j@5.h+y#z#y#h+5.j@h#m 1 5 & & * & ; - 7 8 1 9 & & & & & & . % r # z E c ",
"W ! +.Y+V i < @ r @ @ r r < i } | % n % % n % | } K K A#o#6.B#C#D#C#B#6.o#M 4 2 6 & & * & ; - 3 4 2 6 & & & & & & . % r # z z ! ",
"E#|+F#< i } | % n n % a b 0 # d / r r @ @ r r I d E K G#:#%#H#I#J#I#H#%#E.k v x w 9 6 6 9 4 3 3 4 2 6 & * & & * & w n r # g ( V ",
"K#t.J i < | ] . w w . y a r # g ( # c # # c # d g z z K K @.5+L#8#L#5+@.K 7 m % $ 1 2 9 1 8 7 7 m 1 9 & & & & & & . % @ # d / Y+",
"M#; N#7 8 1 9 & & & & 9 1 : s d g g d c ! d T g d # c K K @.x.]+5+]+x.@.K [ < > > | ] ] : I d d _ | ] . w . . w . ] | < [ s | $@",
"O#; P#k 4 2 6 & * * & 6 2 ] | / ( d _ r r _ d d / r r r K M @.#@ .=@*.Y r C i D # s | | s d g g d } | % n % % n % | s i < : ] A ",
"Q#; R#3 4 2 6 & & & & 6 2 ] | < i s | a U @ c 7 m % $ $ % K L 9.S Z M n n 7.c.- r.|+1+I d z z g d i s#r r r r r r < i } | j 2 t ",
"S#; P#7 8 1 9 & & & & 9 1 : s i C : ] y a @ c J v . w w . v K !.!.!.] . w [.<.9#; t.T#d U#z z d I < i # # # # # # [ < | ] v+6 e ",
"V#; P#D > % x & & & & x % > D # r $ w w $ > # - ; & * * & ; - c > n w & * & * * * 9#- z E z z ! r r ! z E z z E z # r n w * * W#"};
