/* XPM */
static char * idleportal3_xpm[] = {
"64 64 496 2",
"  	c #657381",
". 	c #576168",
"+ 	c #4D4E55",
"@ 	c #434046",
"# 	c #39383B",
"$ 	c #4E5057",
"% 	c #4D4F56",
"& 	c #5B6970",
"* 	c #5B6971",
"= 	c #525D64",
"- 	c #404649",
"; 	c #525E64",
"> 	c #433F45",
", 	c #566068",
"' 	c #49444B",
") 	c #49434A",
"! 	c #3A393B",
"~ 	c #505B62",
"{ 	c #636D7B",
"] 	c #525960",
"^ 	c #49494F",
"/ 	c #3F3D42",
"( 	c #383738",
"_ 	c #3F3D41",
": 	c #494A50",
"< 	c #413E42",
"[ 	c #3C3A3D",
"} 	c #3F3F42",
"| 	c #494950",
"1 	c #51575E",
"2 	c #57626A",
"3 	c #3F4245",
"4 	c #4E575D",
"5 	c #57636B",
"6 	c #5A676F",
"7 	c #3B3C3F",
"8 	c #47494E",
"9 	c #57636A",
"0 	c #434045",
"a 	c #4D4D54",
"b 	c #4A464E",
"c 	c #3A383B",
"d 	c #383839",
"e 	c #505C62",
"f 	c #5E6371",
"g 	c #353536",
"h 	c #403F43",
"i 	c #3C3B3E",
"j 	c #52575E",
"k 	c #3E4245",
"l 	c #4E565C",
"m 	c #783E8C",
"n 	c #4E4F57",
"o 	c #5A676E",
"p 	c #535A61",
"q 	c #4D4C54",
"r 	c #444046",
"s 	c #3F3F43",
"t 	c #515D63",
"u 	c #5B5C6B",
"v 	c #48494F",
"w 	c #4F575D",
"x 	c #576169",
"y 	c #576068",
"z 	c #545A62",
"A 	c #343434",
"B 	c #50575E",
"C 	c #5A5C6A",
"D 	c #413F43",
"E 	c #39383A",
"F 	c #333434",
"G 	c #4B4C53",
"H 	c #575B68",
"I 	c #3B3A3C",
"J 	c #403D42",
"K 	c #3F4246",
"L 	c #464247",
"M 	c #525763",
"N 	c #403D41",
"O 	c #353636",
"P 	c #4A474E",
"Q 	c #3E3B3F",
"R 	c #4E5460",
"S 	c #433F44",
"T 	c #7A3E8E",
"U 	c #814497",
"V 	c #854799",
"W 	c #834697",
"X 	c #423F44",
"Y 	c #7A408E",
"Z 	c #7F4495",
"` 	c #8E4DA3",
" .	c #9350A9",
"..	c #7F4295",
"+.	c #3F3C3F",
"@.	c #814495",
"#.	c #9352A9",
"$.	c #9152A7",
"%.	c #44494D",
"&.	c #4A4D54",
"*.	c #373637",
"=.	c #9E5BB4",
"-.	c #B97FCD",
";.	c #D8ACE6",
">.	c #A778B7",
",.	c #713485",
"'.	c #535E65",
").	c #556067",
"!.	c #7D4291",
"~.	c #86499C",
"{.	c #914FA7",
"].	c #A25DB7",
"^.	c #C68ED8",
"/.	c #F3C9FF",
"(.	c #D2A9DF",
"_.	c #A77AB7",
":.	c #4A4D53",
"<.	c #88499E",
"[.	c #9552AB",
"}.	c #9554AB",
"|.	c #A261B5",
"1.	c #C288D6",
"2.	c #EDC2FC",
"3.	c #E1BBED",
"4.	c #8A569C",
"5.	c #44484D",
"6.	c #545E65",
"7.	c #393839",
"8.	c #8A4BA0",
"9.	c #9E5DB4",
"0.	c #AC6BC2",
"a.	c #AE6DC4",
"b.	c #9959AE",
"c.	c #88499C",
"d.	c #A05FB5",
"e.	c #CB95DD",
"f.	c #C491D4",
"g.	c #834B97",
"h.	c #3B3D3F",
"i.	c #7C4090",
"j.	c #9556AB",
"k.	c #B978CF",
"l.	c #AB6BC0",
"m.	c #9558A9",
"n.	c #834699",
"o.	c #8A4B9E",
"p.	c #9C5DB2",
"q.	c #3F4649",
"r.	c #3F4346",
"s.	c #4D555B",
"t.	c #3B3B3F",
"u.	c #814695",
"v.	c #A768BD",
"w.	c #AE6FC4",
"x.	c #8E50A2",
"y.	c #8E4DA2",
"z.	c #8C4DA2",
"A.	c #4D545B",
"B.	c #904FA3",
"C.	c #8E52A2",
"D.	c #8C4DA0",
"E.	c #904FA5",
"F.	c #9150A7",
"G.	c #854699",
"H.	c #3C3D3F",
"I.	c #46464C",
"J.	c #575A68",
"K.	c #7D4093",
"L.	c #9756AC",
"M.	c #D2A2E2",
"N.	c #C697D6",
"O.	c #814793",
"P.	c #8A47A0",
"Q.	c #9E59B4",
"R.	c #A362B9",
"S.	c #7F4095",
"T.	c #904DA5",
"U.	c #763E8A",
"V.	c #3F3C41",
"W.	c #763D8A",
"X.	c #8A529C",
"Y.	c #B581C6",
"Z.	c #E6C0F4",
"`.	c #D2ABDF",
" +	c #8E56A0",
".+	c #A771BB",
"++	c #B278C6",
"@+	c #A96ABE",
"#+	c #9958AC",
"$+	c #9C66AE",
"%+	c #9C68AC",
"&+	c #8E4FA3",
"*+	c #7F4293",
"=+	c #3D3B3E",
"-+	c #555D69",
";+	c #3C4143",
">+	c #353838",
",+	c #743988",
"'+	c #AB7DBB",
")+	c #EFC9FC",
"!+	c #C299D0",
"~+	c #9159A3",
"{+	c #A36BB5",
"]+	c #E8C0F6",
"^+	c #CDA3DB",
"/+	c #884D9E",
"(+	c #9758AB",
"_+	c #DDB4EB",
":+	c #DFB9EB",
"<+	c #8A549C",
"[+	c #763D8C",
"}+	c #343535",
"|+	c #606C79",
"1+	c #4B545A",
"2+	c #3C4042",
"3+	c #743B8A",
"4+	c #A06DB2",
"5+	c #D8A7E6",
"6+	c #A26FB4",
"7+	c #7C3D91",
"8+	c #9A5DAE",
"9+	c #BE93CD",
"0+	c #AC7DBD",
"a+	c #85469A",
"b+	c #EAC4F6",
"c+	c #EFCBFC",
"d+	c #88569A",
"e+	c #743B88",
"f+	c #657481",
"g+	c #546168",
"h+	c #475054",
"i+	c #414448",
"j+	c #424246",
"k+	c #B071C6",
"l+	c #9154A5",
"m+	c #884B9C",
"n+	c #9958AE",
"o+	c #85479A",
"p+	c #8C4BA2",
"q+	c #854B97",
"r+	c #D4ABE2",
"s+	c #DBB2EA",
"t+	c #865099",
"u+	c #763B8A",
"v+	c #3B3B3E",
"w+	c #667481",
"x+	c #59666E",
"y+	c #546067",
"z+	c #9356A7",
"A+	c #B273C7",
"B+	c #9054A5",
"C+	c #9358A9",
"D+	c #AE6DC2",
"E+	c #7F4693",
"F+	c #A96FBD",
"G+	c #AE73C2",
"H+	c #636E7B",
"I+	c #566067",
"J+	c #9559A9",
"K+	c #B574CB",
"L+	c #9054A3",
"M+	c #8A4F9E",
"N+	c #9354A9",
"O+	c #58636B",
"P+	c #4D4F55",
"Q+	c #A364B7",
"R+	c #A566B9",
"S+	c #995DAE",
"T+	c #A568BB",
"U+	c #B271C7",
"V+	c #9050A3",
"W+	c #9A5BB0",
"X+	c #7F4493",
"Y+	c #525966",
"Z+	c #884D9C",
"`+	c #A768BB",
" @	c #BB7AD0",
".@	c #B473C7",
"+@	c #9C5FB0",
"@@	c #8C50A0",
"#@	c #3F535D",
"$@	c #393738",
"%@	c #A96BBE",
"&@	c #854999",
"*@	c #A76ABD",
"=@	c #BD7CD2",
"-@	c #B778CD",
";@	c #454147",
">@	c #35515A",
",@	c #3A3739",
"'@	c #A366B7",
")@	c #AB6BBE",
"!@	c #854B99",
"~@	c #B271C6",
"{@	c #9A5DB0",
"]@	c #9758AC",
"^@	c #B776CD",
"/@	c #4B4C52",
"(@	c #3D5660",
"_@	c #443F44",
":@	c #5A666E",
"<@	c #9E5FB2",
"[@	c #A364B9",
"}@	c #A96ABD",
"|@	c #7F4695",
"1@	c #4C606C",
"2@	c #4E4E55",
"3@	c #FFEFFF",
"4@	c #9050A5",
"5@	c #A366B9",
"6@	c #86479C",
"7@	c #8C50A2",
"8@	c #9559AB",
"9@	c #8E52A3",
"0@	c #484349",
"a@	c #5E6C7A",
"b@	c #783E8E",
"c@	c #8A49A0",
"d@	c #9759AB",
"e@	c #864B9C",
"f@	c #9E5DB2",
"g@	c #864B9A",
"h@	c #454247",
"i@	c #535A62",
"j@	c #8C4BA0",
"k@	c #A061B5",
"l@	c #9C5DB0",
"m@	c #8E4FA2",
"n@	c #A766BB",
"o@	c #904DA3",
"p@	c #576269",
"q@	c #454146",
"r@	c #48434A",
"s@	c #AE6FC2",
"t@	c #9E61B2",
"u@	c #50565D",
"v@	c #49464D",
"w@	c #AC6BC0",
"x@	c #A262B7",
"y@	c #8A499E",
"z@	c #88479C",
"A@	c #884F9A",
"B@	c #BB83CF",
"C@	c #B476C7",
"D@	c #9764A9",
"E@	c #8C599E",
"F@	c #3F3E41",
"G@	c #413F42",
"H@	c #86469C",
"I@	c #9361A5",
"J@	c #EAC2F6",
"K@	c #D6A7E4",
"L@	c #9552A9",
"M@	c #8C49A0",
"N@	c #9059A2",
"O@	c #CFA7DB",
"P@	c #7F4791",
"Q@	c #4A474F",
"R@	c #85449A",
"S@	c #9968A9",
"T@	c #FAD6FF",
"U@	c #E8BDF6",
"V@	c #9754AC",
"W@	c #A25FB7",
"X@	c #905DA2",
"Y@	c #F3CFFD",
"Z@	c #E1BDED",
"`@	c #814B93",
" #	c #515662",
".#	c #915FA3",
"+#	c #E1BBEF",
"@#	c #EABEF8",
"##	c #C993DD",
"$#	c #B06FC6",
"%#	c #E1B7ED",
"&#	c #D0A7DF",
"*#	c #7F4793",
"=#	c #A062B5",
"-#	c #9E66B2",
";#	c #DDB2EB",
">#	c #F4CBFF",
",#	c #C488D8",
"'#	c #B774CD",
")#	c #864D9A",
"!#	c #B47AC7",
"~#	c #AB71BE",
"{#	c #7C4290",
"]#	c #3E3C3F",
"^#	c #88479E",
"/#	c #7C4091",
"(#	c #BD86CF",
"_#	c #D8A3EA",
":#	c #C083D6",
"<#	c #834797",
"[#	c #A262B5",
"}#	c #7A4090",
"|#	c #3F3B3F",
"1#	c #864F9A",
"2#	c #B281C2",
"3#	c #AE7DBE",
"4#	c #A264B7",
"5#	c #E8C2F3",
"6#	c #E1B9ED",
"7#	c #A061B4",
"8#	c #A968BD",
"9#	c #905BA2",
"0#	c #EDC9F8",
"a#	c #9052A3",
"b#	c #8E50A3",
"c#	c #EDC9FA",
"d#	c #EBC4F8",
"e#	c #9556A9",
"f#	c #7C3E90",
"g#	c #9156A5",
"h#	c #4C4B52",
"i#	c #9A5FB0",
"j#	c #975FA9",
"k#	c #DDB7EA",
"l#	c #E4BDF1",
"m#	c #B07AC0",
"n#	c #8A509E",
"o#	c #9A59B0",
"p#	c #525E65",
"q#	c #AC6DC0",
"r#	c #A26DB5",
"s#	c #C9A2D8",
"t#	c #EDC7FA",
"u#	c #AE7AC0",
"v#	c #854499",
"w#	c #86499A",
"x#	c #313131",
"y#	c #A06FB0",
"z#	c #CD9EDD",
"A#	c #B57CC9",
"B#	c #A05FB4",
"C#	c #86479A",
"D#	c #4F575E",
"E#	c #313130",
"F#	c #AB6AC0",
"G#	c #A968BE",
"H#	c #9C5BB2",
"I#	c #A764BD",
"J#	c #3D3B3F",
"K#	c #A766BD",
"L#	c #AE6BC4",
"M#	c #9956AE",
"N#	c #403E42",
"O#	c #783E8A",
"P#	c #85499A",
"Q#	c #9A58B0",
"R#	c #51585F",
"S#	c #814795",
"T#	c #48494E",
"U#	c #7D4293",
"V#	c #7D4491",
"W#	c #423F43",
"X#	c #995BAC",
"Y#	c #9356A9",
"Z#	c #4E545F",
"`#	c #A562BB",
" $	c #B578CB",
".$	c #AB78BB",
"+$	c #9962AB",
"@$	c #EFC7FD",
"#$	c #CBA3D9",
"$$	c #88509C",
"%$	c #5A606A",
"&$	c #424045",
"*$	c #AC6FC2",
"=$	c #D8A5E8",
"-$	c #E4BBF3",
";$	c #D8AEE4",
">$	c #B478C7",
",$	c #9E5FB4",
"'$	c #6C747A",
")$	c #834497",
"!$	c #B473C9",
"~$	c #DFAEF1",
"{$	c #EDC0FC",
"]$	c #BB7FCF",
"^$	c #6C7A80",
"/$	c #3F4447",
"($	c #9754AB",
"_$	c #BE7FD2",
":$	c #B77ACB",
"<$	c #5B747D",
"[$	c #3F4548",
"}$	c #9A59AE",
"|$	c #A05DB5",
"1$	c #56707C",
"2$	c #404548",
"3$	c #60727F",
"4$	c #414447",
"5$	c #343435",
"6$	c #63707D",
"7$	c #5B656B",
"  . + @ # # @ $ . . $ @ # # @ % . & & * & = - - = * * ; - # > % . & & & & & & & & * & ; - # > $ . , $ ' ) @ ! # @ % . & & * & ~ ",
"{ ] ^ / ( ( _ : ] ] : < [ } | 1 2 & & * & ; - 3 4 5 6 ; - 7 8 1 9 & & & & & & * & 6 2 4 3 # 0 $ . 2 1 a b @ c d / | ] 2 6 * * e ",
"f : } d g g d h : : h i < | ] 2 6 & & * & ; - 7 8 j 9 ; - k l 2 6 & & & & & & & & 9 1 m 7 # @ n . o 2 p q r c g d s : 1 9 * & t ",
"u r d g ( # c i < _ d 7 v 1 9 & & & & 6 2 w 3 c @ $ x ; - 3 4 2 6 * * 6 2 . y x . z a r c c r n x * * x n r # A A c r a z x x B ",
"C 0 d d / r r D i ( g k w 2 6 & & & & 9 1 v 7 E > $ y ; - 7 8 1 9 & & 2 1 % % n % a b 0 c # @ % . * * x n m # A F # @ b a n n G ",
"H < I s | n n : s ( g 3 w 2 6 * * 6 2 ] | J d d J : ] w K ( _ | ] x x ] : r 0 @ @ r @ _ d ( _ | ] x x z a r # F F d J r r r r L ",
"M i N : ] x x ] | _ d 7 v 1 9 & & 2 1 | } d g g d h : v 7 g m m m m n | } # E # # c c d O g d s : n n a P r c A A O d c c E # Q ",
"R c S n x * * x n r c d / : ] x x z a r # A F A A d J < i m T U V W r / d O d c c # # # # # c i D r r @ 0 < [ c # d g A A A A ! ",
"R # X n x * * x n r c g ( } | n n a b @ # A A A A g d i m Y Z `  .` ..( g d / @ r @ @ @ r r @ < i # # # c i D r r J d A F F A c ",
"R ( +.: ] x x ] | / ( F F d / @ r r @ < i c c d O g d m m @.`  . .#.$.V m c r P a % n n % a b @ c g d 7 K %.&.$ $ : s d g A A ! ",
"R g *.s : n n : s d g A A g d # c # c i D r r J d d _ m m W  . .=.-.;.>.,.c r a z . x x . z a r # ( _ 8 w '.).x . ] : J d A A ! ",
"M d A d / r r < i # # # # c c d O g d } | a P > # # r m !.~.{. .].^./.(._.[ < :.).& & & & 9 1 v 7 c r a z . x x . z a r c g ( i ",
"H J *.g ( # c i < @ r r r r @ _ d ( _ : ] z a r c m m Y <. .[.}.[.|.1.2.3.4.i 5.6.& * * & 6 2 4 3 ! @ P a $ $ $ $ a P r ! d / D ",
"u r 7.O d # c } | % n n % a b > c 7 v 1 9 9 1 : } m m Y 8.9.0.a.b.c.d.e.f.g.# - ; & * * & 6 2 4 3 d _ r r r @ @ @ r @ _ d h.v 8 ",
"u r 7.d _ > r | ] . x x . z a @ c 3 w 9 6 6 2 ] | m m i.j.a.k.l.m.n.o.d.p.!.# q.; & * & & 9 1 v 7 O d c c # # # # c c ( O r.w s.",
"u r 7.c @ b a 1 2 & & & & 9 1 8 t.k 4 9 6 6 9 z a m m u.v.k.w.x.<.y.@.8.z.!.# k 4 . x x . z a r # A A A A O d c c c # ( g r.w A.",
"u @ 7.c r a z 2 6 & * * & 6 2 4 3 7 v 1 9 2 1 a m m !.B.a.l.C.D.E.F.y.G.n.8.Z 7 v % $ n % a b @ c A F F A d / @ r r @ _ d H.v I.",
"J._ *.# @ % . & & & & & & * & '.5.i < : ] ] : r m m K.L.M.N.O.P.Q.R.[.S.K.T.@.U.< 0 @ @ r r @ D i d g F A c r P a n n | } i < V.",
"M d A # r n x & * & & & & * & ).:.< [ s | | s c m W.X.Y.Z.`. +.+++@+#+$+%+&+*+m i # # # # # c =+D J d A A c r a z x x ] : D [ I ",
"-+;+>+E r n x & * & & & & * & x n @ # d _ < i c m ,+'+)+!+~+{+]+^+/+(+_+:+<+[+m %.K 7 d g g d s | | s ( }+# r n . & & 9 1 v 7 ! ",
"|+1+2+# @ % . & & & & & & & & . n r # g ( i D r m 3+4+5+6+7+8+9+0+a+C.b+c+d+e+m 6.w 8 _ ( ( _ : ] ] : / d # @ n x * * 6 2 4 k ! ",
"f+g+h+i+j+: ] . x . . . . x . z a r # }+( } | n m W.C.k+l+m+n+u.o+p+q+r+s+t+u+m x z a @ # v+8 1 5 5 1 : } [ < :.).* * 6 2 w 3 ! ",
"w+x+y+s.i+s | % n % % % % n % a P @ c d _ | ] x m Y z+A+B+C+D+/+o+p+E+F+G+E+m Y $ a P @ ! 3 w 9 6 6 9 ] | < i 5.'.& * 9 1 v 7 ! ",
"H+x I+w K d _ r r @ @ @ @ @ r r @ < i } | 1 5 m Y J+w.K+L+J+k+M+a+p+!.$.N+!.o+o+T r @ < i %.6.6 O+x y z a @ c K w x x ] | _ ( c ",
"f $ P+v 7 g ( # c # # # # # # # c i D | ] 2 6 m Y Q+K+R+S+T+U+M+V+W+X+c.` G.~.W m # c [ D &.).9 1 n % a P @ c 7 8 n $ | } ( g ! ",
"Y+r S J d A A O d c c c c d O g d } : 1 9 x+2 m Y Q+l.Z+`+ @.@M++@w.@@o. .}.W m m # # [ < : ] ] : @ > r @ _ d d / r r < i E # Q ",
"#@c $@d g A A d / @ r r @ _ d ( _ | ] 5 6 2 1 m Y Q+%@&@*@=@A+M++@-@w.l+l+l.@@W.m r @ < i h | |  @# E c c d O g d # c i < @ r ;@",
">@c ,@d g F A c r P a a P @ c c @ q p 2 o 2 1 m Y '@)@!@*@~@{@D.]@0.^@J+B+A+L+W.m n % | s i < D i c # c c ! ! d g }+d } | n n /@",
"(@r _@J d A A c r a z z a r c ! r P a 1 2 :@2 m Y <@[@&@}@R+|@y.E.b..@J+l+A+L+W.m x . ] | < [ i < @ r @ @ r r / d ( _ | ] x x B ",
"1@n 2@: s d g # r $ x x $ @ # c @ P a 1 3@& & m T z.4@u.}@5@X+z.6@7@k+8@L+k+9@W.m & & . % @ # c @ P a a P 0@;@< i } | 1 2 * & t ",
"a@x I+] : / d # @ $ x x $ @ # c @ q p 2 o & & m b@<.c@u.@+R+X+p+G.M+k+d@e@f@g@U.m * & x n r # # r a z z a h@Q i D | ] 2 6 * * e ",
"  * & x n r c c r a z z a r # # r a i@2 6 & & m T <.j@X+k@l@u.#+m@g@n@B+@.` @.m m & & . % @ # c r a z z a r c # @ % . & & * & ~ ",
"w+* & x n r c c @ P a a P @ c c @ P a 1 2 & & m T <.p+!.y.8.&@l.+@@.F.V @.o@@.m m & & . % @ # c @ P a a P @ c # r n x & * * & ~ ",
"f+6 p@] | _ ( d / r r r @ < i i < q@r@a i@2 6 m T <.p+!.8.c.&@s@t@X+` W @.o@@.m m * & x n r # d _ > > > > _ d # r n x & * * & e ",
"  2 u@: } d g O d c c # c i D D i Q q@v@a 1 2 m T <.p+!.8.<.&@w@x@o+6@o+y@E.K.e+m & & . % r # O d c c c c d O # r % . & & * & t ",
"H+] v < [ c c d O O d # c s | | s i < q@r@a i@m T <.p+!.8.z@A@B@C@` U 8.{.4@D@E@Y x . ] : D i 7 K - - - - K 7 i D : ] . x x . B ",
"f | F@i < r r / d d _ > r : ] ] : G@i Q q@P a m T <.p+!.8.H@I@J@K@L@T.F.M@N@:+O@P@n % | s i < v w ;  @; ; w v < i s | % n n % /@",
"H < I s : a Q@r c # > v@a 1 2 2 1 | } i < ;@r@m b@<.8.!.8.R@S@T@U@R.V@W@n+X@Y@Z@`@r r / d c r a z . x x . z a r c d _ @ r @ @ ;@",
" #[ N : ] z a r c c r a z 9 6 6 9 ] | G@i Q q@m Y 4@N+!.8.H@.#+#@###v.$#`+N@%#&#*#c # ( g c r P a $ $ $ $ a P r c g ( # c E # Q ",
"R c S a z ] : < i } | 1 2 & & & & 9 1 : } i < m Y =#v.u.8.<.u.-#;#>#,#'#T+)#!#~#{#A A 3@A d / @ r @ @ @ r r @ / d g ( # c # c ]#",
"R c X Q@a : s i < | ] 2 6 & & & & 6 2 ] | D i m Y '@l.u.^#6@/#p+(#_#:#0.j.<#@+[#}#A A A A O d c c # # # # c c d O d / @ r @ @ ;@",
"R d |#r r _ d # r n x & * & & * & 6 2 z a r c m Y Q+@+1#2#3#E+` W@0.0.9.<.u.)@4#{#g d # c # # # # c c d O O d # c } | n n a P ' ",
"R O *.! c ( g # r n x & * & & & & 2 1 a P r c m Y Q+@+N@5#6#1#c@ .}.}. .8.Z+@+7#i.d J r r r @ @ @ r @ _ d d _ 0 r : ] x x i@a ' ",
"M c ( # # # # [ < | ] 9 6 6 9 x y ] | r > _ d m Y Q+8#9#0#J@z+U <. .{.6@a#v.R.b#Y s : $ $ % % n % a b > # c r P a 1 2 & & ).:.r ",
"H r X @ @ r r < i } | 1 2 2 1 n % | } c # d O m Y 5@@+9#c#d#e#f#o+ . .U g#K+W@6@T : ] . x . . x . z a r c c r a z 2 6 * * 6.5.! ",
"C b h#% n n % | } [ < : ] ] : r > < i # # # # m Y i#[@j#k#l#m#n#a+` ` n.l+D+o#o+T | ] 2 6 & & & & 9 1 : s i < | ] 2 6 * * p#- F ",
"u a ] . x x . ] | < [ s | | s # E i < @ r r r < m X+C+q#r#s#t#u#v#!.*+<.#.L.w#i.i s : 1 5 & * * & 6 2 ] | < i } : 1 9 * & ; q.x#",
"f 1 p@& & & & 2 1 | } i < D i # # } | % n n % | m W.9@A+b#y#z#A#n+6@<.B#k@C#Y U.# ( _ | ] 2 6 * * 6 2 ] | < [ [ < | ] x x D#K E#",
"{ 2 x+& * * & 6 2 ] | < [ i < > r | ] . x x . ] m W.L+A+g#@.V@F#G#H#V@I#[#!.m m # }+( } | 1 2 & & 9 1 : s J#< < i } | $ n v 7 E#",
"H+2 x+& & & & * & 5 1 v 7 c > v@a 1 2 & & & & 2 m W.C.w.L+U  .V@K#L#M#[.&+}#m m [ # # [ < | ] x x ] | < [ s | | s i < r r N#d x#",
"f 1 p@& & & & & & 6 2 4 k # @ a z 2 6 & * * & 6 m O#P#W+w#W F. .Q#9.[. .8.T m m < r r < i } | n n | } [ < : ] ] : < [ c # d g F ",
"H | R#2 6 6 9 . y x . 4 K 7 v 1 9 & & & & & & * m m @.T.<.o+8.{. . . .y.&+z+S#W.| n n | } i < r r < i } | 1 2 2 1 : } d g A A O ",
" #} T#1 2 2 1 % % $ $ v 7 3 4 2 6 & & & & & & * m m X+` F.<.U#`  . .F.W C.@+7@W.] x x ] | < [ # # [ < | ] 9 6 6 9 ] | / ( A A d ",
"R c X a z ] : @ > r @ _ d k w 2 6 & * & & * & 6 2 m Y Z ` y@!.`  . .F.W V#Z+@ % y & & 9 1 v 7 g ( } | 1 2 & & & & . % r # A A ! ",
"R # W#P a | } # E c # ( g 7 v 1 9 & & & & & & 9 1 m m Y 8.]@X#<.c@E.<.Y#l+Y r n x * * 6 2 w k ( _ | ] 2 6 & & * & x n r c A A ! ",
"Z#c X r@h@< i # # # # # c i D : ] . x . . x . ] : m m Y 8.`# $.$+$<.n.`+*@X+v 1 5 & & * & ; - 7 8 1 9 & & & & & & . % r # A F c ",
"R ! X ;@Q i < @ r @ @ r r < i } | % n % % n % | } m m Y c@W@,#@$#$$$F.l.v.X+4 2 6 & & * & ; - 3 4 2 6 & & & & & & . % r # A A ! ",
"%$i+&$< i } | % n n % a b 0 # d / r r @ @ r r J d F m T X+4@*$=$-$;$>$,$g#k w y x 9 6 6 9 4 3 3 4 2 6 & * & & * & x n r # g ( Q ",
"'$s.K i < | ] . x x . z a r # g ( # c # # c # d g A A m m )$M#!$~${$]$x.W.7 v % $ 1 2 9 1 8 7 7 v 1 9 & & & & & & . % @ # d / ;@",
"^$; /$7 8 1 9 & & & & 9 1 : s d g g d c ! d O g d # c m m U ($$#_$:$o#n.m [ < > > | ] ] : J d d _ | ] . x . . x . ] | < [ s | /@",
"<$; [$k 4 2 6 & * * & 6 2 ] | / ( d _ r r _ d d / r r r m }#o+}$|$M#V /#r D i E # s | | s d g g d } | % n % % n % | s i < : ] B ",
"1$; 2$3 4 2 6 & & & & 6 2 ] | < i s | a P @ c 7 v % $ $ % m Y G.c.o+i.n n :.5.- q.i+j+J d A A g d i W#r r r r r r < i } | j 2 t ",
"3$; [$7 8 1 9 & & & & 9 1 : s i D : ] z a @ c K w . x x . w m T T T ] . x ).'.p#; s.4$d 5$A A d J < i # # # # # # [ < | ] O+6 e ",
"6$; [$E > % y & & & & y % > E # r $ x x $ > # - ; & * * & ; - c > n x & * & * * * p#- A F A A ! r r ! A F A A F A # r n x * * 7$"};
