/* XPM */
static char * idleportal1_xpm[] = {
"64 64 509 2",
"  	c #657381",
". 	c #576168",
"+ 	c #4D4E55",
"@ 	c #434046",
"# 	c #39383B",
"$ 	c #4E5057",
"% 	c #4D4F56",
"& 	c #5B6970",
"* 	c #5B6971",
"= 	c #525D64",
"- 	c #404649",
"; 	c #525E64",
"> 	c #433F45",
", 	c #566068",
"' 	c #49444B",
") 	c #49434A",
"! 	c #3A393B",
"~ 	c #505B62",
"{ 	c #636D7B",
"] 	c #525960",
"^ 	c #49494F",
"/ 	c #3F3D42",
"( 	c #383738",
"_ 	c #3F3D41",
": 	c #494A50",
"< 	c #413E42",
"[ 	c #3C3A3D",
"} 	c #3F3F42",
"| 	c #494950",
"1 	c #51575E",
"2 	c #57626A",
"3 	c #3F4245",
"4 	c #4E575D",
"5 	c #57636B",
"6 	c #5A676F",
"7 	c #3B3C3F",
"8 	c #47494E",
"9 	c #57636A",
"0 	c #434045",
"a 	c #4D4D54",
"b 	c #4A464E",
"c 	c #3A383B",
"d 	c #383839",
"e 	c #505C62",
"f 	c #5E6371",
"g 	c #353536",
"h 	c #403F43",
"i 	c #3C3B3E",
"j 	c #783E8C",
"k 	c #52575E",
"l 	c #3E4245",
"m 	c #4E565C",
"n 	c #48494F",
"o 	c #4E4F57",
"p 	c #5A676E",
"q 	c #535A61",
"r 	c #4D4C54",
"s 	c #444046",
"t 	c #3F3F43",
"u 	c #515D63",
"v 	c #5B5C6B",
"w 	c #4F575D",
"x 	c #576169",
"y 	c #576068",
"z 	c #545A62",
"A 	c #343434",
"B 	c #50575E",
"C 	c #5A5C6A",
"D 	c #413F43",
"E 	c #39383A",
"F 	c #783E8E",
"G 	c #7F4293",
"H 	c #814495",
"I 	c #7F4495",
"J 	c #333434",
"K 	c #4B4C53",
"L 	c #575B68",
"M 	c #3B3A3C",
"N 	c #403D42",
"O 	c #7F4493",
"P 	c #9050A5",
"Q 	c #9754AC",
"R 	c #464247",
"S 	c #525763",
"T 	c #403D41",
"U 	c #9150A5",
"V 	c #A968BE",
"W 	c #B271C7",
"X 	c #353636",
"Y 	c #4A474E",
"Z 	c #3E3B3F",
"` 	c #4E5460",
" .	c #433F44",
"..	c #814497",
"+.	c #9756AC",
"@.	c #D49EE6",
"#.	c #DBA9EB",
"$.	c #B073C4",
"%.	c #884B9E",
"&.	c #763D8A",
"*.	c #423F44",
"=.	c #7C4090",
"-.	c #88499C",
";.	c #A261B5",
">.	c #C48AD6",
",.	c #E8BBF6",
"'.	c #EDC6FA",
").	c #BE83D0",
"!.	c #9759AC",
"~.	c #834999",
"{.	c #3F3C3F",
"].	c #7A408E",
"^.	c #86479C",
"/.	c #9C5BB2",
"(.	c #BE85D2",
"_.	c #F1C7FF",
":.	c #D8B0E4",
"<.	c #A06DB2",
"[.	c #9C5DB2",
"}.	c #A264B7",
"|.	c #3F4246",
"1.	c #44494D",
"2.	c #4A4D54",
"3.	c #373637",
"4.	c #8A4BA0",
"5.	c #A562BB",
"6.	c #BE81D2",
"7.	c #C99ED9",
"8.	c #AC7DBD",
"9.	c #834499",
"0.	c #86479A",
"a.	c #AB6ABE",
"b.	c #A96BBE",
"c.	c #535E65",
"d.	c #556067",
"e.	c #9E5DB4",
"f.	c #A566BB",
"g.	c #8A4FA0",
"h.	c #88499E",
"i.	c #8E4DA3",
"j.	c #854799",
"k.	c #9C5FB2",
"l.	c #7C4290",
"m.	c #4A4D53",
"n.	c #8C4BA2",
"o.	c #8C4DA2",
"p.	c #8E4DA2",
"q.	c #9150A7",
"r.	c #9350A9",
"s.	c #904FA5",
"t.	c #86499C",
"u.	c #7F4693",
"v.	c #7D4491",
"w.	c #44484D",
"x.	c #545E65",
"y.	c #393839",
"z.	c #7D4291",
"A.	c #8A499E",
"B.	c #914FA7",
"C.	c #884D9C",
"D.	c #A264B5",
"E.	c #8C50A0",
"F.	c #3B3D3F",
"G.	c #85479A",
"H.	c #9052A3",
"I.	c #A062B5",
"J.	c #864D9A",
"K.	c #3F4346",
"L.	c #4D555B",
"M.	c #3B3B3F",
"N.	c #834697",
"O.	c #9352A9",
"P.	c #9554AB",
"Q.	c #8C4BA0",
"R.	c #4D545B",
"S.	c #A96ABE",
"T.	c #8E50A2",
"U.	c #A362B9",
"V.	c #AB6AC0",
"W.	c #9956AE",
"X.	c #7A3E8E",
"Y.	c #3C3D3F",
"Z.	c #46464C",
"`.	c #575A68",
" +	c #9054A3",
".+	c #B273C7",
"++	c #9156A5",
"@+	c #9552AB",
"#+	c #A361B9",
"$+	c #B776CD",
"%+	c #AB68BE",
"&+	c #9A59B0",
"*+	c #8A49A0",
"=+	c #3F3C41",
"-+	c #B271C6",
";+	c #814295",
">+	c #B473C9",
",+	c #A564BB",
"'+	c #9152A5",
")+	c #3D3B3E",
"!+	c #555D69",
"~+	c #3C4143",
"{+	c #353838",
"]+	c #834799",
"^+	c #B473C7",
"/+	c #9A58AE",
"(+	c #A364B9",
"_+	c #343535",
":+	c #606C79",
"<+	c #4B545A",
"[+	c #3C4042",
"}+	c #8E52A3",
"|+	c #A97CB9",
"1+	c #DBB0EA",
"2+	c #B57DC9",
"3+	c #854699",
"4+	c #9A59AE",
"5+	c #763E8A",
"6+	c #657481",
"7+	c #546168",
"8+	c #475054",
"9+	c #414448",
"0+	c #424246",
"a+	c #854999",
"b+	c #9759AB",
"c+	c #A96BBD",
"d+	c #AE7DC0",
"e+	c #D0A9DD",
"f+	c #E6BEF3",
"g+	c #A973BB",
"h+	c #9C59B0",
"i+	c #8A4DA0",
"j+	c #3B3B3E",
"k+	c #667481",
"l+	c #59666E",
"m+	c #546067",
"n+	c #A062B4",
"o+	c #935DA5",
"p+	c #E4C0F1",
"q+	c #E8BEF4",
"r+	c #A36AB5",
"s+	c #834797",
"t+	c #9154A5",
"u+	c #B06FC6",
"v+	c #636E7B",
"w+	c #566067",
"x+	c #A366B9",
"y+	c #905BA2",
"z+	c #EDC9F8",
"A+	c #EBC2F8",
"B+	c #9556AB",
"C+	c #7C3E91",
"D+	c #B474C9",
"E+	c #A25FB5",
"F+	c #58636B",
"G+	c #4D4F55",
"H+	c #A364B7",
"I+	c #A968BD",
"J+	c #EDC9FA",
"K+	c #EAC2F6",
"L+	c #934FA9",
"M+	c #8E50A3",
"N+	c #A262B5",
"O+	c #9154A7",
"P+	c #525966",
"Q+	c #8E58A0",
"R+	c #E1BBED",
"S+	c #D9B4E6",
"T+	c #854D99",
"U+	c #3F535D",
"V+	c #393738",
"W+	c #854B99",
"X+	c #A56FB7",
"Y+	c #A26BB4",
"Z+	c #A25FB7",
"`+	c #814695",
" @	c #AB6BBE",
".@	c #454147",
"+@	c #35515A",
"@@	c #3A3739",
"#@	c #A366B7",
"$@	c #AB6BC0",
"%@	c #88469C",
"&@	c #86469C",
"*@	c #7C4091",
"=@	c #8C49A2",
"-@	c #C491D6",
";@	c #E2B2F3",
">@	c #C486D8",
",@	c #B06DC6",
"'@	c #9959AE",
")@	c #4B4C52",
"!@	c #3D5660",
"~@	c #443F44",
"{@	c #5A666E",
"]@	c #9E5FB2",
"^@	c #834B97",
"/@	c #AB76BD",
"(@	c #E1B5EF",
"_@	c #F1C6FF",
":@	c #C085D4",
"<@	c #B774CD",
"[@	c #A768BD",
"}@	c #884F9C",
"|@	c #BB85CD",
"1@	c #B27CC4",
"2@	c #7C4490",
"3@	c #4C606C",
"4@	c #4E4E55",
"5@	c #9362A5",
"6@	c #EBC6F8",
"7@	c #EBBEFA",
"8@	c #A261B7",
"9@	c #AE6BC4",
"0@	c #E6C0F4",
"a@	c #7F4993",
"b@	c #484349",
"c@	c #5E6C7A",
"d@	c #85449A",
"e@	c #9968A9",
"f@	c #FAD6FF",
"g@	c #E6BBF4",
"h@	c #A05DB5",
"i@	c #9E5BB4",
"j@	c #9554A9",
"k@	c #905DA2",
"l@	c #F3CFFD",
"m@	c #814B93",
"n@	c #454247",
"o@	c #535A62",
"p@	c #915FA3",
"q@	c #E2B9EF",
"r@	c #CFA0DF",
"s@	c #9058A2",
"t@	c #D2ABE1",
"u@	c #C49AD0",
"v@	c #7D4791",
"w@	c #864B9A",
"x@	c #B478C7",
"y@	c #AC6FC2",
"z@	c #8C549E",
"A@	c #814D95",
"B@	c #78408C",
"C@	c #576269",
"D@	c #454146",
"E@	c #48434A",
"F@	c #AC6DC2",
"G@	c #A061B5",
"H@	c #834699",
"I@	c #763B8A",
"J@	c #50565D",
"K@	c #49464D",
"L@	c #88479C",
"M@	c #AE6FC4",
"N@	c #9E61B2",
"O@	c #904DA3",
"P@	c #8E4FA2",
"Q@	c #9A5DAE",
"R@	c #86499A",
"S@	c #3F3E41",
"T@	c #413F42",
"U@	c #7F4695",
"V@	c #A061B4",
"W@	c #9354A9",
"X@	c #9356A7",
"Y@	c #4A474F",
"Z@	c #A566B9",
"`@	c #8A4F9E",
" #	c #8A4D9E",
".#	c #A262B7",
"+#	c #515662",
"@#	c #814797",
"##	c #A96ABD",
"$#	c #9559A9",
"%#	c #9054A5",
"&#	c #A768BB",
"*#	c #A568BB",
"=#	c #3E3C3F",
"-#	c #A76ABD",
";#	c #8C4FA0",
">#	c #B26FC7",
",#	c #9558A9",
"'#	c #3F3B3F",
")#	c #BE7CD4",
"!#	c #9C5FB0",
"~#	c #9052A5",
"{#	c #A766BD",
"]#	c #AC6DC0",
"^#	c #B978CF",
"/#	c #864B9C",
"(#	c #8C4DA0",
"_#	c #814697",
":#	c #B574CB",
"<#	c #7D4293",
"[#	c #9758AC",
"}#	c #4C4B52",
"|#	c #B071C6",
"1#	c #9156A7",
"2#	c #85469A",
"3#	c #B27AC4",
"4#	c #B77FC9",
"5#	c #7F4793",
"6#	c #783D8C",
"7#	c #525E65",
"8#	c #B476C9",
"9#	c #9158A7",
"0#	c #DBB2E8",
"a#	c #E2BBEF",
"b#	c #86529A",
"c#	c #3F4649",
"d#	c #313131",
"e#	c #743B88",
"f#	c #A574B5",
"g#	c #E1B4EF",
"h#	c #A978B9",
"i#	c #7D3E93",
"j#	c #9E62B2",
"k#	c #CFA5DD",
"l#	c #B58AC6",
"m#	c #814095",
"n#	c #EFCBFA",
"o#	c #8A569C",
"p#	c #743B8A",
"q#	c #4F575E",
"r#	c #313130",
"s#	c #733788",
"t#	c #B48AC2",
"u#	c #FFDBFF",
"v#	c #B78EC6",
"w#	c #7C3990",
"x#	c #A56AB9",
"y#	c #EABEF8",
"z#	c #DBB4EA",
"A#	c #B488C4",
"B#	c #C091D0",
"C#	c #DBB2EA",
"D#	c #865099",
"E#	c #3D3B3F",
"F#	c #743988",
"G#	c #B085BE",
"H#	c #F8D4FF",
"I#	c #BD93CB",
"J#	c #864D9C",
"K#	c #9958AE",
"L#	c #B97DCD",
"M#	c #E4B7F4",
"N#	c #FFDDFF",
"O#	c #FDD9FF",
"P#	c #DDACED",
"Q#	c #AC73C0",
"R#	c #403E42",
"S#	c #915DA3",
"T#	c #C293D2",
"U#	c #E1BBEF",
"V#	c #C7A0D6",
"W#	c #C28AD4",
"X#	c #D8A7EA",
"Y#	c #C999D9",
"Z#	c #A771B9",
"`#	c #8A4B9E",
" $	c #51585F",
".$	c #7D4093",
"+$	c #9959AC",
"@$	c #DBAEEB",
"#$	c #CFA3DD",
"$$	c #814995",
"%$	c #7F4295",
"&$	c #48494E",
"*$	c #9152A7",
"=$	c #B274C7",
"-$	c #AB6FBE",
";$	c #884B9C",
">$	c #423F43",
",$	c #783E8A",
"'$	c #9A5BB0",
")$	c #B778CD",
"!$	c #4E545F",
"~$	c #9A5BAE",
"{$	c #B983CB",
"]$	c #9A58B0",
"^$	c #B97CCD",
"/$	c #E1B9ED",
"($	c #88549A",
"_$	c #5A606A",
":$	c #424045",
"<$	c #BE86D2",
"[$	c #EABEFA",
"}$	c #BB91C9",
"|$	c #6C747A",
"1$	c #9350A7",
"2$	c #C088D4",
"3$	c #E6BDF4",
"4$	c #B085C0",
"5$	c #6C7A80",
"6$	c #3F4447",
"7$	c #BB7AD0",
"8$	c #9C61B0",
"9$	c #5B747D",
"0$	c #3F4548",
"a$	c #FFEFFF",
"b$	c #814297",
"c$	c #7C3E90",
"d$	c #56707C",
"e$	c #404548",
"f$	c #60727F",
"g$	c #414447",
"h$	c #343435",
"i$	c #63707D",
"j$	c #5B656B",
"  . + @ # # @ $ . . $ @ # # @ % . & & * & = - - = * * ; - # > % . & & & & & & & & * & ; - # > $ . , $ ' ) @ ! # @ % . & & * & ~ ",
"{ ] ^ / ( ( _ : ] ] : < [ } | 1 2 & & * & ; - 3 4 5 6 ; - 7 8 1 9 & & & & & & * & 6 2 4 3 # 0 $ . 2 1 a b @ c d / | ] 2 6 * * e ",
"f : } d g g d h : : h i < | ] 2 j & & * & ; - 7 8 k 9 ; - l m 2 6 & & & & & & & & 9 1 n 7 # @ o . p 2 q r s c g d t : 1 9 * & u ",
"v s d g ( # c i < _ d 7 n 1 9 & & & & 6 2 w 3 c @ $ x ; - 3 j j j * * 6 2 . y x . z a s c c s o x * * x o s # A A c s a z x x B ",
"C 0 d d / s s D i ( g l w 2 6 & & & & 9 1 n 7 E > $ y ; - j F G H I & 2 1 % % o % a b 0 c # @ % . * * x o s # A J # @ b a o o K ",
"L < M t | o o : t ( g 3 w 2 6 * * 6 2 ] | N d d N : ] w j j O P Q P O ] : s 0 @ @ s @ _ d ( _ | ] x x z a s # J J d N s s s s R ",
"S i T : ] x x ] | _ d 7 n 1 9 & & 2 1 | } d g g d h : j j O U V W V U H } # E # # c c d X g d t : o o a Y s c A A X d c c E # Z ",
"` c  .o x * * x o s c d / : ] x x z a s # A J A A d N j j ..+.W @.#.$.%.&.X d c c # # # # # c i D s s @ 0 < [ c # d g A A A A ! ",
"` # *.o x * * x o s c g ( } | o o a b @ # A A A A g d j =.-.;.>.,.'.).!.~.d / @ s @ @ @ s s @ < i # # # c i D s s N d A J J A c ",
"` ( {.: ] x x ] | / ( J J d / @ s s @ < i c c d X g j ].^./.(._.:.<.[.V }.O s Y j j o o % a b @ c g d 7 |.1.2.$ $ : t d g A A ! ",
"` g 3.t : o o : t d g A A g d # c # c i D s s N d j j ].4.5.6.7.8.9.0.a.b.O s a j j x x . z a s # ( _ 8 w c.d.x . ] : N d A A ! ",
"S d A d / s s < i # # # # c c d X g d } | a Y > # j j ].4.e.f.g.h.i.j.k.k.l.< m.j j & & & 9 1 n 7 c s a z . x x . z a s c g ( i ",
"L N 3.g ( # c i < @ s s s s @ _ d ( _ : ] z a s c j j =.n.o.j.p.q.r.s.t.u.v.i w.x.& * * j 6 2 4 3 ! @ Y a $ $ $ $ a Y s ! d / D ",
"v s y.X d # c } | % o o % a b > c 7 n 1 9 9 1 : j j z.A.B.h.=.i.r.r.r...C.D.E.- ; & * * & 6 2 4 3 d _ s s s @ @ @ s @ _ d F.n 8 ",
"v s y.d _ > s | ] . x x . z a @ c 3 w 9 6 6 2 ] j j H s.i.^.G.s.r.r.r.h.H.I.J.&.; & * & & 9 1 n 7 X d c c # # # # c c ( X K.w L.",
"v s y.c @ b a 1 2 & & & & 9 1 8 M.l 4 9 6 6 9 z j j N.O.j.N.B.r.P.Q r.r.Q.v.].j 4 . x x . z a s # A A A A X d c c c # ( g K.w R.",
"v @ y.c s a z 2 6 & * * & 6 2 4 3 7 n 1 9 2 1 a j &.E.S.T.N.q.r.U.V.W.r.4.X.j j n % $ o % a b @ c A J J A d / @ s s @ _ d Y.n Z.",
"`._ 3.# @ % . & & & & & & * & c.w.i < : ] ] : s j &. +.+++..@+#+W $+%+&+*+].j j < 0 @ @ s s @ D i d g J A c s Y a o o | } i < =+",
"S d A # s o x & * & & & & * & d.m.< [ t | | t c j &. +-+++;++.W $+>+W ,+'+=.j j i # # # # # c )+D N d A A c s a z x x ] : D [ M ",
"!+~+{+E s o x & * & & & & * & x o @ # d _ < i c j &. +-+++]+[.^+V./+&+V.(+v.j j 1.|.7 d g g d t | | t ( _+# s o . & & 9 1 n 7 ! ",
":+<+[+# @ % . & & & & & & & & . o s # g ( i D s j &.}+.+T.|+1+2+O.N.3+4+e.h.=.5+x.w 8 _ ( ( _ : ] ] : / d # @ o x * * 6 2 4 l ! ",
"6+7+8+9+0+: ] . x . . . . x . z a s # _+( } | o j a+b+c+d+e+f+g+9.H H ^.O.h+i+z.x z a @ # j+8 1 5 5 1 : } [ < m.d.* * 6 2 w 3 ! ",
"k+l+m+L.9+t | % o % % % % o % a Y @ c d _ | ] j ].n+f.o+p+q+r+s+G.B.s.N.t+u+e.0.X.a Y @ ! 3 w 9 6 6 9 ] | < i w.c.& * 9 1 n 7 ! ",
"v+x w+w j d _ s s @ @ @ @ @ s s @ < i } | 1 5 j ].x+S.y+z+A+B+C+G.r.r...++D+E+^.X.s @ < i 1.x.6 F+x y z a @ c |.w x x ] | _ ( c ",
"f $ G+n 7 g ( # c # # # # # # # c i D | ] 2 6 j ].H+I+y+J+K+++9.4.L+B.h.M+N+(+O+].# c [ D 2.d.9 1 o % a Y @ c 7 8 o $ | } ( g ! ",
"P+s  .N d A A X d c c c c d X g d } : 1 9 l+2 j ].H+S.Q+R+S+T+n.Q W.W.@+4.a+b.N+l.# # [ < : ] ] : @ > s @ _ d d / s s < i E # Z ",
"U+c V+d g A A d / @ s s @ _ d ( _ | ] 5 6 2 1 j ].H+b.W+X+Y+O i.,+>+W Z+*+`+ @}.l.s @ < i h | | t # E c c d X g d # c i < @ s .@",
"+@c @@d g J A c s Y a a Y @ c c @ r q 2 p 2 1 j ].#@$@`+%@&@*@=@-@;@>@,@'@s+I+I.=.o % | t i < D i c # c c ! ! d g _+d } | o o )@",
"!@s ~@N d A A c s a z z a s c ! s Y a 1 2 {@2 j ].]@(+`+4.h.^@/@(@_@:@<@[@}@|@1@2@x . ] | < [ i < @ s @ @ s s / d ( _ | ] x x B ",
"3@o 4@: t d g # s $ x x $ @ # c @ Y a 1 2 & & j X.o.P z.4.&@5@6@7@(.8@9@f.y+0@:.a@& & . % @ # c @ Y a a Y b@.@< i } | 1 2 * & u ",
"c@x w+] : / d # @ $ x x $ @ # c @ r q 2 p & & j F h.4.z.4.d@e@f@g@h@@+i@j@k@l@R+m@* & x o s # # s a z z a n@Z i D | ] 2 6 * * e ",
"  * & x o s c c s a z z a s # # s a o@2 6 & & j X.h.n.z.4.&@p@q@r@r.n.s.=@s@t@u@v@& & . % @ # c s a z z a s c # @ % . & & * & ~ ",
"k+* & x o s c c @ Y a a Y @ c c @ Y a 1 2 & & j X.h.n.z.4.-.w@x@y@p.H h.B.U z@A@B@& & . % @ # c @ Y a a Y @ c # s o x & * * & ~ ",
"6+6 C@] | _ ( d / s s s @ < i i < D@E@a o@2 6 j X.h.n.z.4.h.a+F@G@H@A.j.^.s.G I@j * & x o s # d _ > > > > _ d # s o x & * * & e ",
"  2 J@: } d g X d c c # c i D D i Z D@K@a 1 2 j X.h.n.z.4.L@a+M@N@O i.N.H O@H j j & & . % s # X d c c c c d X # s % . & & * & u ",
"v+] n < [ c c d X X d # c t | | t i < D@E@a o@j X.h.Q.z.P P@~.S.Q@`+j@R@H O@H j j x . ] : D i 7 |.- - - - |.7 i D : ] . x x . B ",
"f | S@i < s s / d d _ > s : ] ] : T@i Z D@Y a j X.h.Q.U@H+V@`+W@i+C.$@X@H s.H j j o % | t i < n w ; ; ; ; w n < i t | % o o % )@",
"L < M t : a Y@s c # > K@a 1 2 2 1 | } i < .@E@j F h.*+`+b.Z@O n.3+`@-+b+ #.#C.&.j s s / d c s a z . x x . z a s c d _ @ s @ @ .@",
"+#[ T : ] z a s c c j a z 9 6 6 9 ] | T@i Z D@j ].P W@@###x+O p.h.H.-+$#%#-+ +&.j c # ( g c s Y a $ $ $ $ a Y s c g ( # c E # Z ",
"` c  .a z ] : < i } | 1 2 & & & & 9 1 : } i < j ].I.&#a+##*#s+o.q./.>+$#t+W  +&.j A A J A d / @ s @ @ @ s s @ / d g ( # c # c =#",
"` c *.Y@a : t i < | ] 2 6 & & & & 6 2 ] | D i j ].#@ @W+-#D+}.;#'@>#$+,#%#.+ +&.j A A A A X d c c # # # # c c d X d / @ s @ @ .@",
"` d '#s s _ d # s o x & * & & * & 6 2 z a s c j ].H+b.a+-#)#>+`@!#$+##~#O+{#`@&.j g d # c # # # # c c d X X d # c } | o o a Y ' ",
"` X 3.! c ( g # s o x & * & & & & 2 1 a Y s c j ].H+]#E.Z@^#.+`@Q@$@/#h.r.q.N.X.j d N s s s @ @ @ s @ _ d d _ 0 s : ] x x o@a ' ",
"S c ( # # # # [ < | ] 9 6 6 9 x y ] | s > _ d j ].}.$+$@b+I.-+`@(#B+O h.i._#h.3+j t : $ $ % % o % a b > # c s Y a 1 2 & & d.m.s ",
"L s *.@ @ s s < i } | 1 2 2 1 o % | } c # d X j ]. +S.:# +$#-+`@3+n.<#j@[#z.N.H@/ : ] . x . . x . z a s c c s a z 2 6 * * x.w.! ",
"C b }#% o o % | } [ < : ] ] : s > < i # # # # [ j j  +|#%#1#$@/#2#n.`+3#4#5#6#j < | ] 2 6 & & & & 9 1 : t i < | ] 2 6 * * 7#- J ",
"v a ] . x x . ] | < [ t | | t # E i < @ s s s < j &. +8#9#G.B+W+%.n.T+0#a#b#I@j i t : 1 5 & * * & 6 2 ] | < i } : 1 9 * & ; c#d#",
"f 1 C@& & & & 2 1 | } i < D i # # } | % o o % | j e#f#g#h#i#j#k#l#m#E.K+n#o#p#j # ( _ | ] 2 6 * * 6 2 ] | < [ [ < | ] x x q#|.r#",
"{ 2 l+& * * & 6 2 ] | < [ i < > s | ] . x x . ] j s#t#u#v#w#x#y#z#A#B#y#C#D#I@j # _+( } | 1 2 & & 9 1 : t E#< < i } | $ o n 7 r#",
"v+2 l+& & & & * & 5 1 n 7 c > K@a 1 2 & & & & 2 j F#G#H#I#J#K#L#M#N#O#P#Q#`+j j [ # # [ < | ] x x ] | < [ t | | t i < s s R#d d#",
"f 1 C@& & & & & & 6 2 4 l # @ a z 2 6 & * * & 6 j &.S#T#U#V#E.K#W#X#Y#Z#P@`#z.j < s s < i } | o o | } [ < : ] ] : < [ c # d g J ",
"L |  $2 6 6 9 . y x . 4 |.7 n 1 9 & & & & & & * j j .$+$@$#$$$n.h@5.r.%$H s.H 5+| o o | } i < s s < i } | 1 2 2 1 : } d g A A X ",
"+#} &$1 2 2 1 % % $ $ n 7 3 4 2 6 & & & & & & * j j G *$=$-$;$o.r.@+s.H@N.o.H 5+] x x ] | < [ # # [ < | ] 9 6 6 9 ] | / ( A A d ",
"` c *.a z ] : @ > s @ _ d l w 2 6 & * & & * & 6 2 j X.]+S.$+##g.h.i.N.-.h.I @ % y & & 9 1 n 7 g ( } | 1 2 & & & & . % s # A A ! ",
"` # >$Y a | } # E c # ( g 7 n 1 9 & & & & & & 9 1 j ,$l.'$W )$x+t+G.0.&+K#l.s o x * * 6 2 w l ( _ | ] 2 6 & & * & x o s c A A ! ",
"!$c *.E@n@< i # # # # # c i D : ] . x . . x . ] : j j ].Q.Z+W W ~$G.&+(.{$$$n 1 5 & & * & ; - 7 8 1 9 & & & & & & . % s # A J c ",
"` ! *..@Z i < @ s @ @ s s < i } | % o % % o % | } j j ].4.@+K#]$@+&+^$7@/$($4 2 6 & & * & ; - 3 4 2 6 & & & & & & . % s # A A ! ",
"_$9+:$< i } | % o o % a b 0 # d / s s @ @ s s N d J j X.I A.B.r.i@<$[$0#}$l w y x 9 6 6 9 4 3 3 4 2 6 & * & & * & x o s # g ( Z ",
"|$L.|.i < | ] . x x . z a s # g ( # c # # c # d g A A j j H@1$r.h@2$3$4$s#7 n % $ 1 2 9 1 8 7 7 n 1 9 & & & & & & . % @ # d / .@",
"5$; 6$7 8 1 9 & & & & 9 1 : t d g g d c ! 7$X g d # c j j N.s.r.@+K#8$}@j [ < > > | ] ] : N d d _ | ] . x . . x . ] | < [ t | )@",
"9$; 0$l 4 2 6 & * * & 6 2 ] | / ( a$_ s s _ d d / s s s j =.N.s.r.i.b$c$s D i E # t | | t d g g d } | % o % % o % | t i < : ] B ",
"d$; e$3 4 2 6 & & & & 6 2 ] | < i a$| a Y @ c 7 n % $ $ % j ].j.h.0.=.o o m.w.- c#9+0+N d A A g d i >$s s s s s s < i } | k 2 u ",
"f$; 0$7 8 1 9 & & & & 9 1 : t i D : ] z a @ c |.w . x x . w j X.X.X.] . x d.c.7#; L.g$d h$A A d N < i # # # # # # [ < | ] F+6 e ",
"i$; 0$E > % y & & & & y % > E # s $ x x $ > # - ; & * * & ; - c > o x & * & * * * 7#- A J A A ! s s ! A J A A J A # s o x * * j$"};
