/* XPM */
static char * idleportal6_xpm[] = {
"64 64 450 2",
"  	c #657381",
". 	c #576168",
"+ 	c #4D4E55",
"@ 	c #434046",
"# 	c #39383B",
"$ 	c #4E5057",
"% 	c #4D4F56",
"& 	c #5B6970",
"* 	c #5B6971",
"= 	c #525D64",
"- 	c #404649",
"; 	c #525E64",
"> 	c #433F45",
", 	c #566068",
"' 	c #49444B",
") 	c #49434A",
"! 	c #3A393B",
"~ 	c #505B62",
"{ 	c #636D7B",
"] 	c #525960",
"^ 	c #49494F",
"/ 	c #3F3D42",
"( 	c #383738",
"_ 	c #3F3D41",
": 	c #494A50",
"< 	c #413E42",
"[ 	c #3C3A3D",
"} 	c #3F3F42",
"| 	c #494950",
"1 	c #51575E",
"2 	c #57626A",
"3 	c #3F4245",
"4 	c #4E575D",
"5 	c #57636B",
"6 	c #5A676F",
"7 	c #3B3C3F",
"8 	c #47494E",
"9 	c #57636A",
"0 	c #434045",
"a 	c #4D4D54",
"b 	c #4A464E",
"c 	c #3A383B",
"d 	c #383839",
"e 	c #505C62",
"f 	c #5E6371",
"g 	c #353536",
"h 	c #403F43",
"i 	c #3C3B3E",
"j 	c #52575E",
"k 	c #3E4245",
"l 	c #4E565C",
"m 	c #48494F",
"n 	c #4E4F57",
"o 	c #5A676E",
"p 	c #535A61",
"q 	c #4D4C54",
"r 	c #444046",
"s 	c #3F3F43",
"t 	c #515D63",
"u 	c #5B5C6B",
"v 	c #4F575D",
"w 	c #576169",
"x 	c #576068",
"y 	c #545A62",
"z 	c #343434",
"A 	c #50575E",
"B 	c #5A5C6A",
"C 	c #413F43",
"D 	c #39383A",
"E 	c #333434",
"F 	c #4B4C53",
"G 	c #575B68",
"H 	c #3B3A3C",
"I 	c #403D42",
"J 	c #3F4246",
"K 	c #783E8C",
"L 	c #7A408E",
"M 	c #7C4090",
"N 	c #464247",
"O 	c #525763",
"P 	c #403D41",
"Q 	c #88499C",
"R 	c #8C4DA2",
"S 	c #88499E",
"T 	c #353636",
"U 	c #4A474E",
"V 	c #3E3B3F",
"W 	c #4E5460",
"X 	c #433F44",
"Y 	c #7D4291",
"Z 	c #86479A",
"` 	c #904FA5",
" .	c #9350A9",
"..	c #7F4493",
"+.	c #423F44",
"@.	c #834697",
"#.	c #9956AE",
"$.	c #9A59B0",
"%.	c #9958AE",
"&.	c #3F3C3F",
"*.	c #834699",
"=.	c #AE6DC4",
"-.	c #B574CB",
";.	c #AC6BC2",
">.	c #9956AC",
",.	c #44494D",
"'.	c #4A4D54",
").	c #373637",
"!.	c #7A3E8E",
"~.	c #9556AB",
"{.	c #AB6AC0",
"].	c #B978CF",
"^.	c #AC6DC2",
"/.	c #9E61B4",
"(.	c #A766BD",
"_.	c #9756AC",
":.	c #854699",
"<.	c #535E65",
"[.	c #556067",
"}.	c #8A4BA0",
"|.	c #A562BB",
"1.	c #B776CD",
"2.	c #B06FC4",
"3.	c #9559AB",
"4.	c #8A4FA0",
"5.	c #A566BB",
"6.	c #9E5DB4",
"7.	c #4A4D53",
"8.	c #A362B9",
"9.	c #B071C6",
"0.	c #9054A3",
"a.	c #854799",
"b.	c #44484D",
"c.	c #545E65",
"d.	c #393839",
"e.	c #9A58B0",
"f.	c #9C5BB2",
"g.	c #814695",
"h.	c #85479A",
"i.	c #8E4DA2",
"j.	c #8C4BA0",
"k.	c #3B3D3F",
"l.	c #9959AE",
"m.	c #9A59AE",
"n.	c #8A499E",
"o.	c #86479C",
"p.	c #3F4649",
"q.	c #3F4346",
"r.	c #4D555B",
"s.	c #3B3B3F",
"t.	c #B06FC6",
"u.	c #A364B7",
"v.	c #8C4BA2",
"w.	c #914FA7",
"x.	c #814697",
"y.	c #8E4DA3",
"z.	c #814495",
"A.	c #763E8A",
"B.	c #4D545B",
"C.	c #763D8A",
"D.	c #A366B9",
"E.	c #9350A7",
"F.	c #3C3D3F",
"G.	c #46464C",
"H.	c #575A68",
"I.	c #743B88",
"J.	c #A06FB2",
"K.	c #DBACEB",
"L.	c #BB85CD",
"M.	c #9356A9",
"N.	c #9150A7",
"O.	c #884D9E",
"P.	c #A05FB5",
"Q.	c #864B9C",
"R.	c #3F3C41",
"S.	c #743788",
"T.	c #B488C2",
"U.	c #FDD9FF",
"V.	c #B98EC7",
"W.	c #7F4095",
"X.	c #814497",
"Y.	c #9154A5",
"Z.	c #8E52A3",
"`.	c #743D88",
" +	c #3D3B3E",
".+	c #555D69",
"++	c #3C4143",
"@+	c #353838",
"#+	c #B286C2",
"$+	c #FCD8FF",
"%+	c #B78EC6",
"&+	c #9552AB",
"*+	c #9156A5",
"=+	c #B271C7",
"-+	c #343535",
";+	c #606C79",
">+	c #4B545A",
",+	c #3C4042",
"'+	c #743B8A",
")+	c #A06BB0",
"!+	c #D6A5E6",
"~+	c #A371B4",
"{+	c #814295",
"]+	c #9554AB",
"^+	c #A764BD",
"/+	c #B273C7",
"(+	c #657481",
"_+	c #546168",
":+	c #475054",
"<+	c #414448",
"[+	c #424246",
"}+	c #9052A3",
"|+	c #B473C9",
"1+	c #BD7CD2",
"2+	c #9754AC",
"3+	c #7F4295",
"4+	c #8C50A2",
"5+	c #A968BD",
"6+	c #8A4F9E",
"7+	c #3B3B3E",
"8+	c #667481",
"9+	c #59666E",
"0+	c #546067",
"a+	c #AE6FC4",
"b+	c #9054A5",
"c+	c #B778CD",
"d+	c #A264B5",
"e+	c #884F9C",
"f+	c #85499A",
"g+	c #7D4491",
"h+	c #636E7B",
"i+	c #566067",
"j+	c #8C4FA2",
"k+	c #9A5BB0",
"l+	c #995BAC",
"m+	c #AB78BD",
"n+	c #E2BBF1",
"o+	c #BB8ACB",
"p+	c #85449A",
"q+	c #9E61B2",
"r+	c #9A5DAE",
"s+	c #7C4290",
"t+	c #58636B",
"u+	c #4D4F55",
"v+	c #9C5BB0",
"w+	c #A061B4",
"x+	c #8A4DA0",
"y+	c #884B9E",
"z+	c #A976BB",
"A+	c #D9B2E6",
"B+	c #D9B0E8",
"C+	c #B586C6",
"D+	c #864F9A",
"E+	c #AB6BC0",
"F+	c #525966",
"G+	c #7F4495",
"H+	c #A96ABD",
"I+	c #915DA5",
"J+	c #E2BDEF",
"K+	c #E8C4F4",
"L+	c #8E59A2",
"M+	c #A564B9",
"N+	c #3F535D",
"O+	c #393738",
"P+	c #9352A9",
"Q+	c #864F99",
"R+	c #E2BEEF",
"S+	c #EBC7F8",
"T+	c #8C589E",
"U+	c #9150A5",
"V+	c #8E50A3",
"W+	c #454147",
"X+	c #35515A",
"Y+	c #3A3739",
"Z+	c #904DA5",
"`+	c #8C4FA0",
" @	c #B98EC9",
".@	c #BE93CD",
"+@	c #8E52A2",
"@@	c #4B4C52",
"#@	c #3D5660",
"$@	c #443F44",
"%@	c #5A666E",
"&@	c #834797",
"*@	c #904DA3",
"=@	c #4C606C",
"-@	c #4E4E55",
";@	c #484349",
">@	c #5E6C7A",
",@	c #783E8E",
"'@	c #A25FB7",
")@	c #783E8A",
"!@	c #454247",
"~@	c #535A62",
"{@	c #9152A7",
"]@	c #9756AB",
"^@	c #7D4493",
"/@	c #A564BB",
"(@	c #B576CB",
"_@	c #9559A9",
":@	c #7C4291",
"<@	c #A262B5",
"[@	c #814795",
"}@	c #834997",
"|@	c #9C5DB0",
"1@	c #B271C6",
"2@	c #975BAC",
"3@	c #8A4B9E",
"4@	c #576269",
"5@	c #454146",
"6@	c #48434A",
"7@	c #A366B7",
"8@	c #AB6BBE",
"9@	c #854999",
"0@	c #A061B5",
"a@	c #9C5FB2",
"b@	c #9758AC",
"c@	c #884F9E",
"d@	c #A261B7",
"e@	c #86499A",
"f@	c #A364B9",
"g@	c #9A5DB0",
"h@	c #50565D",
"i@	c #49464D",
"j@	c #A96BBE",
"k@	c #854B99",
"l@	c #A566B9",
"m@	c #A062B5",
"n@	c #A96ABE",
"o@	c #A768BD",
"p@	c #864B9A",
"q@	c #B77FC9",
"r@	c #AC74C0",
"s@	c #3F3E41",
"t@	c #413F42",
"u@	c #A76ABD",
"v@	c #A568BB",
"w@	c #9354A9",
"x@	c #A766BB",
"y@	c #905BA2",
"z@	c #E4BDF1",
"A@	c #D4ABE2",
"B@	c #7F4993",
"C@	c #4A474F",
"D@	c #C995DB",
"E@	c #CDA5DB",
"F@	c #9962AB",
"G@	c #7F3E95",
"H@	c #8E59A0",
"I@	c #F1CFFD",
"J@	c #E1BDED",
"K@	c #814B93",
"L@	c #515662",
"M@	c #D9A7EB",
"N@	c #F3C9FF",
"O@	c #C097CF",
"P@	c #9A68AC",
"Q@	c #8E50A2",
"R@	c #955DA9",
"S@	c #B085C0",
"T@	c #E4BEF3",
"U@	c #CBA2D9",
"V@	c #7F4791",
"W@	c #904FA3",
"X@	c #A768BB",
"Y@	c #BE7FD4",
"Z@	c #CF99E2",
"`@	c #F4CBFF",
" #	c #DDB0ED",
".#	c #814297",
"+#	c #F4D0FF",
"@#	c #C799D8",
"##	c #9158A5",
"$#	c #3E3C3F",
"%#	c #AC6AC2",
"&#	c #D8A3EA",
"*#	c #C68ED8",
"=#	c #7F4093",
"-#	c #B990C7",
";#	c #FFDFFF",
">#	c #C090D2",
",#	c #814097",
"'#	c #3F3B3F",
")#	c #A05DB5",
"!#	c #A778B7",
"~#	c #E1B7ED",
"{#	c #BD86CF",
"]#	c #9050A3",
"^#	c #934FA9",
"/#	c #7F4293",
"(#	c #A264B7",
"_#	c #9959AC",
":#	c #9356A7",
"<#	c #9050A5",
"[#	c #9558A9",
"}#	c #4C4B52",
"|#	c #B06DC6",
"1#	c #9554A9",
"2#	c #AE6BC4",
"3#	c #AE6DC2",
"4#	c #854B9A",
"5#	c #A361B7",
"6#	c #8C50A0",
"7#	c #525E65",
"8#	c #864D9A",
"9#	c #884D9C",
"0#	c #313131",
"a#	c #975BAB",
"b#	c #995DAE",
"c#	c #B474C9",
"d#	c #4F575E",
"e#	c #313130",
"f#	c #3D3B3F",
"g#	c #9C59B2",
"h#	c #9156A7",
"i#	c #403E42",
"j#	c #51585F",
"k#	c #8E4FA3",
"l#	c #48494E",
"m#	c #834799",
"n#	c #423F43",
"o#	c #88479C",
"p#	c #995BAE",
"q#	c #9A5BAE",
"r#	c #4E545F",
"s#	c #AB78BB",
"t#	c #A378B4",
"u#	c #A262B7",
"v#	c #7A4090",
"w#	c #C488D8",
"x#	c #F1C7FD",
"y#	c #FFDDFF",
"z#	c #5A606A",
"A#	c #424045",
"B#	c #AC6FC2",
"C#	c #D8A5EA",
"D#	c #E6B7F6",
"E#	c #6C747A",
"F#	c #A968BE",
"G#	c #6C7A80",
"H#	c #3F4447",
"I#	c #5B747D",
"J#	c #3F4548",
"K#	c #56707C",
"L#	c #404548",
"M#	c #60727F",
"N#	c #414447",
"O#	c #343435",
"P#	c #63707D",
"Q#	c #5B656B",
"  . + @ # # @ $ . . $ @ # # @ % . & & * & = - - = * * ; - # > % . & & & & & & & & * & ; - # > $ . , $ ' ) @ ! # @ % . & & * & ~ ",
"{ ] ^ / ( ( _ : ] ] : < [ } | 1 2 & & * & ; - 3 4 5 6 ; - 7 8 1 9 & & & & & & * & 6 2 4 3 # 0 $ . 2 1 a b @ c d / | ] 2 6 * * e ",
"f : } d g g d h : : h i < | ] 2 6 & & * & ; - 7 8 j 9 ; - k l 2 6 & & & & & & & & 9 1 m 7 # @ n . o 2 p q r c g d s : 1 9 * & t ",
"u r d g ( # c i < _ d 7 m 1 9 & & & & 6 2 v 3 c @ $ w ; - 3 4 2 6 * * 6 2 . x w . y a r c c r n w * * w n r # z z c r a y w w A ",
"B 0 d d / r r C i ( g k v 2 6 & & & & 9 1 m 7 D > $ x ; - 7 8 1 9 & & 2 1 % % n % a b 0 c # @ % . * * w n r # z E # @ b a n n F ",
"G < H s | n n : s ( g 3 v 2 6 * * 6 2 ] | I d d I : ] v J ( K L M M w ] : r 0 @ @ r @ _ d ( _ | ] w w y a r # E E d I r r r r N ",
"O i P : ] w w ] | _ d 7 m 1 9 & & 2 1 | } d g g d h : m 7 K M Q R S M | } # D # # c c d T g d s : n n a U r c z z T d c c D # V ",
"W c X n w * * w n r c d / : ] w w y a r # z E z z d I < K Y Z `  .` Z ..d T d c c # # # # # c i C r r @ 0 < [ c # d g z z z z ! ",
"W # +.n w * * w n r c g ( } | n n a b @ # z z z z g d K K @. .#.$.%. .@.K d / @ r @ @ @ r r @ < i # # # c i C r r I d z E E z c ",
"W ( &.: ] w w ] | / ( E E d / @ r r @ < i c c d T g d K K *.#.=.-.;.>.*.K c r U a % n n % a b @ c g d 7 J ,.'.$ $ : s d g z z ! ",
"W g ).s : n n : s d g z z g d # c # c i C r r I d d K !.@.~.{.].^./.(._.:.L r a y . w w . y a r # ( _ 8 v <.[.w . ] : I d z z ! ",
"O d z d / r r < i # # # # c c d T g d } | a U > # K K L }.|.1.2.3.4.5.6.}.L < 7.[.& & & & 9 1 m 7 c r a y . w w . y a r c g ( i ",
"G I ).g ( # c i < @ r r r r @ _ d ( _ : ] y a r c K K L }.8.9.0.Q R a.R }.L i b.c.& * * & 6 2 4 3 ! @ U a $ $ $ $ a U r ! d / C ",
"u r d.T d # c } | % n n % a b > c 7 m 1 9 9 1 : } K K L }.e.f.g.h.i.M S j.L # - ; & * * & 6 2 4 3 d _ r r r @ @ @ r @ _ d k.m 8 ",
"u r d.d _ > r | ] . w w . y a @ c 3 v 9 6 6 2 ] | K L *.l.m.n.:.j.` h.o.Q @.Y p.; & * & & 9 1 m 7 T d c c # # # # c c ( T q.v r.",
"u r d.c @ b a 1 2 & & & & 9 1 8 s.k 4 9 6 6 9 y K K g._.t.u.g.v. . .w.@.x.y.z.A.4 . w w . y a r # z z z z T d c c c # ( g q.v B.",
"u @ d.c r a y 2 6 & * * & 6 2 4 3 7 m 1 9 2 1 a K C.4.=.].D...i. . .E.@.z.` z.A.m % $ n % a b @ c z E E z d / @ r r @ _ d F.m G.",
"H._ ).# @ % . & & & & & & * & <.b.i < : ] ] : r K I.J.K.L.M.S `  . .N.@.O.P.Q.C.< 0 @ @ r r @ C i d g E z c r U a n n | } i < R.",
"O d z # r n w & * & & & & * & [.7.< [ s | | s c K S.T.U.V.W.w. . . .N.X.Y.9.Z.`.i # # # # # c  +C I d z z c r a y w w ] : C [ H ",
".+++@+D r n w & * & & & & * & w n @ # d _ < i c K S.#+$+%+W. .&+&+&+E.X.*+=+0.`.,.J 7 d g g d s | | s ( -+# r n . & & 9 1 m 7 ! ",
";+>+,+# @ % . & & & & & & & & . n r # g ( i C r K '+)+!+~+{+]+^+;.^+]+X.*+/+0.`.c.v 8 _ ( ( _ : ] ] : / d # @ n w * * 6 2 4 k ! ",
"(+_+:+<+[+: ] . w . . . . w . y a r # -+( } | n K C.}+=+Y.z.#.|+1+|+2+3+4+5+6+I.w y a @ # 7+8 1 5 5 1 : } [ < 7.[.* * 6 2 v 3 ! ",
"8+9+0+r.<+s | % n % % % % n % a U @ c d _ | ] w K K }+a+b+:.e.t.c+/+d+e+*.N.f+g+$ a U @ ! 3 v 9 6 6 9 ] | < i b.<.& * 9 1 m 7 ! ",
"h+w i+v J d _ r r @ @ @ @ @ r r @ < i } | 1 5 K K *.j+}+j+k+{.l+4+m+n+o+p+h.q+r+s+r @ < i ,.c.6 t+w x y a @ c J v w w ] | _ ( c ",
"f $ u+m 7 g ( # c # # # # # # # c i C | ] 2 6 K !.S v.M }.v+w+x+y+z+A+B+C+D+E+u.s+# c [ C '.[.9 1 n % a U @ c 7 8 n $ | } ( g ! ",
"F+r X I d z z T d c c c c d T g d } : 1 9 9+2 K !.S v.Y }.}.G+y.|.H+I+J+K+L+M+/.M # # [ < : ] ] : @ > r @ _ d d / r r < i D # V ",
"N+c O+d g z z d / @ r r @ _ d ( _ | ] 5 6 2 1 K !.S v.Y }.S Y y.e.P+Q+R+S+T+U+V+L r @ < i h | | s # D c c d T g d # c i < @ r W+",
"X+c Y+d g E z c r U a a U @ c c @ q p 2 o 2 1 K !.S v.Y }.S Y y. .Z+`+ @.@+@:...K n % | s i < C i c # c c ! ! d g -+d } | n n @@",
"#@r $@I d z z c r a y y a r c ! r U a 1 2 %@2 K !.S v.Y }.S Y y. . .w.a.&@*@z.K K w . ] | < [ i < @ r @ @ r r / d ( _ | ] w w A ",
"=@n -@: s d g # r $ w w $ @ # c @ U a 1 2 & & K !.S v.Y }.S Y y.&+&+P+*.z.Z+z.K K & & . % @ # c @ U a a U ;@W+< i } | 1 2 * & t ",
">@w i+] : / d # @ $ w w $ @ # c @ q p 2 o & & K ,@S j.Y }.S Y i.'@;.{.+@z.*@z.)@K * & w n r # # r a y y a !@V i C | ] 2 6 * * e ",
"  * & w n r c c r a y y a r # # r a ~@2 6 & & K L {@]@^@}.S ..l./@^.(@_@z.` o.:@K & & . % @ # c r a y y a r c # @ % . & & * & ~ ",
"8+* & w n r c c @ U a a U @ c c @ U a 1 2 & & K L <@H+[@i.j.}@H+|@Z.1@2@z.` &+3@!.& & . % @ # c @ U a a U @ c # r n w & * * & ~ ",
"(+6 4@] | _ ( d / r r r @ < i i < 5@6@a ~@2 6 K L 7@8@9@0@a@g.b@`+c@1@d@o.e@f@g@L * & w n r # d _ > > > > _ d # r n w & * * & e ",
"  2 h@: } d g T d c c # c i C C i V 5@i@a 1 2 K L u.j@k@H+l@..v.~.r+m@/@b@&@n@<@M & & . % r # T d c c c c d T # r % . & & * & t ",
"h+] m < [ c c d T T d # c s | | s i < 5@6@a ~@K L u.j@k@H+D...y./@o@p@D.o@D+q@r@s+w . ] : C i 7 J - - - - J 7 i C : ] . w w . A ",
"f | s@i < r r / d d _ > r : ] ] : t@i V 5@U a K L u.j@k@u@v@}@y.#.w@g.D.x@y@z@A@B@n % | s i < m v ; ; ; ; v m < i s | % n n % @@",
"G < H s : a C@r c # > i@a 1 2 2 1 | } i < W+6@K L 7@8@k@o@D@E@F@G@*.Q f.]+H@I@J@K@r r / d c r a y . w w . y a r c d _ @ r @ @ W+",
"L@[ P : ] y a r c c r a y 9 6 6 9 ] | t@i V 5@K L a@u.9@o@M@N@O@P@Q@N.Z+R@S@T@U@V@c # ( g c r U a $ $ $ $ a U r c g ( # c D # V ",
"W c X a y ] : < i } | 1 2 & & & & 9 1 : } i < K !.R W@g.X@Y@Z@`@ #^.2+.#T.+#@###L z z E z d / @ r @ @ @ r r @ / d g ( # c # c $#",
"W c +.C@a : s i < | ] 2 6 & & & & 6 2 ] | C i K ,@S }.Y ~.%#Y@&#*#'@&+=#-#;#>#,#!.z z z z T d c c # # # # c c d T d / @ r @ @ W+",
"W d '#r r _ d # r n w & * & & * & 6 2 y a r c K !.S y.:.o.l.;.;.)# .w.{+!#~#{#]#L g d # c # # # # c c d T T d # c } | n n a U ' ",
"W T ).! c ( g # r n w & * & & & & 2 1 a U r c K !.S  .` X.h.&+2+&+&+2+a.9@q+/+m@M d I r r r @ @ @ r @ _ d d _ 0 r : ] w w ~@a ' ",
"O c ( # # # # [ < | ] 9 6 6 9 w x ] | r > _ d K !.S  .w.z.@.w. .^#e.{.Y./#P+t.(#s+s : $ $ % % n % a b > # c r U a 1 2 & & [.7.r ",
"G r +.@ @ r r < i } | 1 2 2 1 n % | } c # d T K K z.}. ._#:#3@` f./@m@}+<#M+(#[#/ : ] . w . . w . y a r c c r a y 2 6 * * c.b.! ",
"B b }#% n n % | } [ < : ] ] : r > < i # # # # [ K K z.&+|#7@g.1#2#3#4#j+5#n@6#K < | ] 2 6 & & & & 9 1 : s i < | ] 2 6 * * 7#- E ",
"u a ] . w w . ] | < [ s | | s # D i < @ r r r < K K ..P+|#D.p@o@].^.8#m@o@9#s+K i s : 1 5 & * * & 6 2 ] | < i } : 1 9 * & ; p.0#",
"f 1 4@& & & & 2 1 | } i < C i # # } | % n n % | K K M e@f./@m@r+a#b#<@c#n@s+C.K # ( _ | ] 2 6 * * 6 2 ] | < [ [ < | ] w w d#J e#",
"{ 2 9+& * * K 6 2 ] | < [ i < > r | ] . w w . ] K K K L }.P.E+3.6#l+-./+(#Z.g+K # -+( } | 1 2 & & 9 1 : s f#< < i } | $ n m 7 e#",
"h+2 9+& & & & * & 5 1 m 7 c > i@a 1 2 & & & & 2 K K K M }. .g#2.(@(@-.2@h#E+6#C.[ # # [ < | ] w w ] | < [ s | | s i < r r i#d 0#",
"f 1 4@& & & & & & 6 2 K k # @ a y 2 6 & * * & 6 K K Y Q :.o.#.|+1+1.8.Q.e@f.e@C.< r r < i } | n n | } [ < : ] ] : < [ c # d g E ",
"G | j#2 6 6 9 . x w . 4 J 7 m 1 9 & & & & & & * K A.p@6.p@z.2+(.=./@k#:.S Z+z.A.| n n | } i < r r < i } | 1 2 2 1 : } d g z z T ",
"L@} l#1 2 2 1 % % $ $ m 7 3 4 2 6 & & & & & & * K C.6#;.[#e@` &+2+` /#S w.y.G+A.] w w ] | < [ # # [ < | ] 9 6 6 9 ] | / ( z z d ",
"W c +.a y ] : @ > r @ _ d k v 2 6 & * & & * & 6 2 C.m#v+n@a@a.y. .i.Y n.y.z.@ % x & & 9 1 m 7 g ( } | 1 2 & & & & . % r # z z ! ",
"W # n#U a | } # D c # ( g 7 m 1 9 & & & & & & 9 1 K M y+3#/+r+o#,#Q p#/@q#s+r n w * * 6 2 v k ( _ | ] 2 6 & & * & w n r c z z ! ",
"r#c +.6@!@< i # # # # # c i C : ] . w . . w . ] : K K g+u.1.c+s#t#s#c+1.u#g+m 1 5 & & * & ; - 7 8 1 9 & & & & & & . % r # z E c ",
"W ! +.W+V i < @ r @ @ r r < i } | % n % % n % | } K K v#k#|.w#x#y#x#w#|.k#M 4 2 6 & & * & ; - 3 4 2 6 & & & & & & . % r # z z ! ",
"z#<+A#< i } | % n n % a b 0 # d / r r @ @ r r I d E K ,@/#W@B#C#D#C#B#W@z.k v x w 9 6 6  .4 3 3 4 2 6 & * & & * & w n r # g ( V ",
"E#r.J i < | ] . w w . y a r # g ( # c # # c # d g z z K K @.2+F#|#F#2+@.K 7 m % $ 1 2 9  .8 7 7 m 1 9 & & & & & & . % @ # d / W+",
"G#; H#7 8 1 9 & & & & 9 1 : s d g g d c ! d T g d # c K K @.w.]+2+]+w.@.K [ < > > | ] ] : I d d _ | ] . w . . w . ] | < [ s | @@",
"I#; J#k 4 2 6 & * * & 6 2 ] | / ( d _ r r _ d d / r r r K M @.Z+ .*@*.Y r C i D # s | | s d g g d } | % n % % n % | s i < : ] A ",
"K#; L#3 4 2 6 & & & & 6 2 ] | < i s | a U @ c 7 m % $ $ % K L a.S Z M n n 7.b.- p.<+[+I d z z g d i n#r r r r r r < i } | j 2 t ",
"M#; J#7 8 1 9 & & & & 9 1 : s i C : ] y a @ c J v . w w . v K !.!.!.] . w [.<.7#; r.N#d O#z z d I < i # # # # # # [ < | ] t+6 e ",
"P#; J#D > % x & & & & x % > D # r $ w w $ > # - ; & * * & ; - c > n w & * & * * * 7#- z E z z ! r r ! z E z z E z # r n w * * Q#"};
