/* XPM */
static char * openportal5_xpm[] = {
"64 64 302 2",
"  	c None",
". 	c #694974",
"+ 	c #6D4B78",
"@ 	c #714F7D",
"# 	c #785684",
"$ 	c #7A5886",
"% 	c #795685",
"& 	c #775383",
"* 	c #6F4C7A",
"= 	c #7A5686",
"- 	c #896595",
"; 	c #93729E",
"> 	c #92729D",
", 	c #805D8B",
"' 	c #704E7C",
") 	c #694973",
"! 	c #6F4D7B",
"~ 	c #7B5787",
"{ 	c #8B6897",
"] 	c #A58BAE",
"^ 	c #AC95B4",
"/ 	c #906F9B",
"( 	c #765482",
"_ 	c #6A4975",
": 	c #6F4D7A",
"< 	c #795584",
"[ 	c #8A6995",
"} 	c #A48AAD",
"| 	c #A48DAB",
"1 	c #947C9D",
"2 	c #866591",
"3 	c #805D8C",
"4 	c #7B5986",
"5 	c #6C4C78",
"6 	c #6A4A75",
"7 	c #73507F",
"8 	c #815C8D",
"9 	c #A690AE",
"0 	c #927B9A",
"a 	c #6F4E7B",
"b 	c #745180",
"c 	c #866291",
"d 	c #84618F",
"e 	c #6D4C78",
"f 	c #896694",
"g 	c #7C5F87",
"h 	c #775781",
"i 	c #745080",
"j 	c #815F8D",
"k 	c #82608E",
"l 	c #74507F",
"m 	c #785584",
"n 	c #775582",
"o 	c #734F7E",
"p 	c #755081",
"q 	c #775283",
"r 	c #765481",
"s 	c #73527E",
"t 	c #6A4A76",
"u 	c #6E4C79",
"v 	c #724F7D",
"w 	c #714E7C",
"x 	c #704D7B",
"y 	c #765282",
"z 	c #785384",
"A 	c #724F7E",
"B 	c #6C4B78",
"C 	c #6E4D7A",
"D 	c #775483",
"E 	c #795585",
"F 	c #7A5586",
"G 	c #684873",
"H 	c #74537F",
"I 	c #846190",
"J 	c #755380",
"K 	c #815D8D",
"L 	c #856191",
"M 	c #7B5687",
"N 	c #765581",
"O 	c #896695",
"P 	c #775682",
"Q 	c #6E4C7A",
"R 	c #795485",
"S 	c #8C6898",
"T 	c #856090",
"U 	c #7C5888",
"V 	c #734F7F",
"W 	c #765582",
"X 	c #6D4B79",
"Y 	c #8A6696",
"Z 	c #825E8E",
"` 	c #775482",
" .	c #886594",
"..	c #795884",
"+.	c #704F7C",
"@.	c #7C5788",
"#.	c #7D5889",
"$.	c #815E8D",
"%.	c #6D4D78",
"&.	c #694975",
"*.	c #7E5C8A",
"=.	c #7E5E89",
"-.	c #967F9F",
";.	c #937B9C",
">.	c #7A5786",
",.	c #795785",
"'.	c #785284",
").	c #7D5B88",
"!.	c #815E8C",
"~.	c #846090",
"{.	c #765980",
"].	c #A995B0",
"^.	c #A992B0",
"/.	c #6C4A77",
"(.	c #7F5B8B",
"_.	c #714E7D",
":.	c #84608F",
"<.	c #A892B0",
"[.	c #7A5885",
"}.	c #886494",
"|.	c #805B8C",
"1.	c #73507E",
"2.	c #AA96B0",
"3.	c #A691AD",
"4.	c #74547F",
"5.	c #724E7D",
"6.	c #765182",
"7.	c #755181",
"8.	c #785683",
"9.	c #83608F",
"0.	c #7C5987",
"a.	c #815F8C",
"b.	c #73557E",
"c.	c #97809F",
"d.	c #947C9C",
"e.	c #6E4F79",
"f.	c #734E7F",
"g.	c #6E4D79",
"h.	c #6B4A76",
"i.	c #7F5C8A",
"j.	c #83608E",
"k.	c #6E4E79",
"l.	c #7F608A",
"m.	c #8A6895",
"n.	c #8D6999",
"o.	c #825D8E",
"p.	c #755281",
"q.	c #704F7B",
"r.	c #8B6B96",
"s.	c #866690",
"t.	c #6B4B76",
"u.	c #765381",
"v.	c #6C4B77",
"w.	c #704C7C",
"x.	c #775B81",
"y.	c #A58FAC",
"z.	c #A388AC",
"A.	c #8B6797",
"B.	c #805C8C",
"C.	c #7F5C8B",
"D.	c #755880",
"E.	c #A48EAB",
"F.	c #9B84A3",
"G.	c #6D4F78",
"H.	c #7B6084",
"I.	c #B19DB7",
"J.	c #A78FAF",
"K.	c #7B5786",
"L.	c #765A80",
"M.	c #AD99B3",
"N.	c #A38FAA",
"O.	c #6E5078",
"P.	c #714D7D",
"Q.	c #785C82",
"R.	c #A791AF",
"S.	c #9C82A5",
"T.	c #785484",
"U.	c #744F7F",
"V.	c #765780",
"W.	c #A08BA7",
"X.	c #97829F",
"Y.	c #6D4E77",
"Z.	c #71527C",
"`.	c #8D6D98",
" +	c #896794",
".+	c #765382",
"++	c #795B83",
"@+	c #73567D",
"#+	c #866292",
"$+	c #6C4A78",
"%+	c #674772",
"&+	c #876492",
"*+	c #7E5C89",
"=+	c #856291",
"-+	c #785483",
";+	c #7F5D8B",
">+	c #7D5B89",
",+	c #745280",
"'+	c #71507C",
")+	c #73527F",
"!+	c #795684",
"~+	c #7B5887",
"{+	c #6F4E7A",
"]+	c #775583",
"^+	c #795885",
"/+	c #805E8C",
"(+	c #70507B",
"_+	c #83618F",
":+	c #72517E",
"<+	c #8A6796",
"[+	c #856290",
"}+	c #785784",
"|+	c #906C9C",
"1+	c #755280",
"2+	c #72507D",
"3+	c #684973",
"4+	c #825F8E",
"5+	c #775683",
"6+	c #866392",
"7+	c #785783",
"8+	c #7B5A87",
"9+	c #876493",
"0+	c #775382",
"a+	c #82618D",
"b+	c #856490",
"c+	c #755480",
"d+	c #72507E",
"e+	c #7C5988",
"f+	c #704C7B",
"g+	c #6F507A",
"h+	c #9981A2",
"i+	c #9E86A6",
"j+	c #70527A",
"k+	c #684773",
"l+	c #7D6087",
"m+	c #997EA3",
"n+	c #7F6289",
"o+	c #6D4A79",
"p+	c #8A7193",
"q+	c #82668B",
"r+	c #72527E",
"s+	c #A792AE",
"t+	c #AB97B1",
"u+	c #674773",
"v+	c #674672",
"w+	c #897191",
"x+	c #B19DB8",
"y+	c #8B7494",
"z+	c #6B4777",
"A+	c #82638D",
"B+	c #AA94B1",
"C+	c #9C86A3",
"D+	c #7A5D84",
"E+	c #83658D",
"F+	c #A891AF",
"G+	c #72557C",
"H+	c #664572",
"I+	c #8A7292",
"J+	c #B4A0BA",
"K+	c #8D7695",
"L+	c #6C4978",
"M+	c #7D5A89",
"N+	c #9678A0",
"O+	c #A68EAE",
"P+	c #AE99B4",
"Q+	c #AE99B5",
"R+	c #A58BAD",
"S+	c #8E7198",
"T+	c #7E6387",
"U+	c #9C84A4",
"V+	c #8B6E94",
"W+	c #74517F",
"X+	c #95799F",
"Y+	c #A48DAC",
"Z+	c #A38CAB",
"`+	c #8E7298",
" @	c #714F7C",
".@	c #755180",
"+@	c #7A5685",
"@@	c #6D4C79",
"#@	c #74527F",
"$@	c #755080",
"%@	c #7B5886",
"&@	c #8D6998",
"*@	c #704E7B",
"=@	c #7D5989",
"-@	c #7F5A8B",
";@	c #7B5987",
">@	c #94759E",
",@	c #90739A",
"'@	c #6F5079",
")@	c #7E5A8A",
"!@	c #8F6E9A",
"~@	c #A991B2",
"{@	c #A38EAA",
"]@	c #92739D",
"^@	c #AB93B3",
"/@	c #9D87A5",
"(@	c #887090",
"_@	c #8E6F99",
":@	c #9F89A7",
"<@	c #8B7393",
"                                                                                                                                ",
"                                                                                                                                ",
"                                                                                                                                ",
"                                                                                                                                ",
"                                                                                                                                ",
"                                                                                                                                ",
"                                                                                                                                ",
"                                                            . . . .                                                             ",
"                                                          + @ # $ % &                                                           ",
"                                                      . . * = - ; > , ' )                                                       ",
"                                                      . . ! ~ { ] ^ / ( .                                                       ",
"                                                    . _ : < [ } | 1 2 3 4 5                                                     ",
"                                                  . . 6 7 8 > 9 0 a b c d e                                                     ",
"                                                  . . 6 7 8 f g h i : j k 5                                                     ",
"                                                  . . 6 l m n o p q l r s 6                                                     ",
"                                                  . t u v w x y z z z A B . .                                                   ",
"                                                . . C D a : q z E F z z 7 6 . .                                                 ",
"                                                . G H I J : & z K L M z l 6 . .                                                 ",
"                                                . G N O P Q R 8 - S T U V 6 . .                                                 ",
"                                                . G r - W X M - S Y - Z ` t . .                                                 ",
"                                                . . N  ...+.M - L @.#.L $.%.. &.                                                ",
"                                              . 6 P *.=.-.;.>.,.% '.z ,.).*.( : _                                               ",
"                                              . 6 !.~.{.].^.$ /.' z & Q n Y (._._                                               ",
"                                              . 6 !.:.{.].<.[.B _.z & ! W }.|.1._                                               ",
"                                              . 6 !.:.{.2.3.4.5.6.z z 7.b 8.9.0.6                                               ",
"                                              . 6 a.I b.c.d.e.f.@.K K @.A g.I , h.                                              ",
"                                              . 6 i.j.k.r J k.l.m.n.Y o.p.q.r.s.t.                                              ",
"                                              . 6 u.m v.V w.x.y.z.A.B.L C.D.E.F.G.                                              ",
"                                              . &.A 7 v.7 w.H.I.J.Z F |.K.L.M.N.O.                                              ",
"                                              . _ A i v.7 P.Q.R.S.T.7.q U.V.W.X.Y.                                              ",
"                                              . _ A i v.7 5.Z.`. +7.u 7 q .+++@+6                                               ",
"                                              . _ A i v.7 A q.#+3 ' v ' A y $+%+.                                               ",
"                                              . _ A i v.7 5.q.&+*+e 7.: u 7.u . .                                               ",
"                                              . _ A i v.p.7 q.=+).u & ' : -+: . .                                               ",
"                                              . _ A l e ;+>+g.>.,+'+9.W H :.)+G .                                               ",
"                                              . 6 !+~+{+I j 5 i V ]+O ^+n O N G .                                               ",
"                                              . 6 /+I (+_+d :+b T.B.<+..n - N G .                                               ",
"                                              . 6 !.[+(+_+n.[+)+0.A.S }+n  .r G .                                               ",
"                                              . 6 j [+q._+|+<+s >+A.*.1+D B.2+3+.                                               ",
"                                              . 6 4 j P /+<+O s $ 4+{+p.M b B . .                                               ",
"                                                . t.5+6+7+8+9+s v 0+g.a+b+g.. .                                                 ",
"                                                . G c+ .N d+e+u f+i g+h+i+j+k+.                                                 ",
"                                                . k+l+m+n+o+4 p+q+f+r+s+t+@+u+.                                                 ",
"                                                . v+w+x+y+z+A+B+C+D+E+F+3.G+u+.                                                 ",
"                                                . H+I+J+K+L+M+N+O+P+Q+R+S+e.G .                                                 ",
"                                                . k+T+U+V+( W+B.X+Y+Z+`+%  @h..                                                 ",
"                                                . . e m 9+d )+.@T.+@D  @x l @@                                                  ",
"                                                  . . g.I n.=+#@v $@u A 7 +                                                     ",
"                                                  . . t.%@}.&@_+8.*@v =@e+t.                                                    ",
"                                                  . . 6 7 -@}.}.;@@ =@>@,@'@                                                    ",
"                                                  . . 6 o R F = R )@!@~@{@@+                                                    ",
"                                                    . . B A q z -@]@^@/@(@                                                      ",
"                                                      . . + 7 & -@_@:@<@                                                        ",
"                                                        . . v.l & u.Z.                                                          ",
"                                                          . . v.+ v.                                                            ",
"                                                              3+3+                                                              ",
"                                                                                                                                ",
"                                                                                                                                ",
"                                                                                                                                ",
"                                                                                                                                ",
"                                                                                                                                ",
"                                                                                                                                ",
"                                                                                                                                ",
"                                                                                                                                "};
