/* XPM */
static char * openportal4_xpm[] = {
"64 64 209 2",
"  	c None",
". 	c #694974",
"+ 	c #704E7B",
"@ 	c #785484",
"# 	c #795485",
"$ 	c #765281",
"% 	c #6C4B77",
"& 	c #6F4D7A",
"* 	c #7A5786",
"= 	c #856191",
"- 	c #866192",
"; 	c #866292",
"> 	c #815E8D",
", 	c #755280",
"' 	c #6D4C78",
") 	c #6B4A76",
"! 	c #6E4C79",
"~ 	c #755181",
"{ 	c #7D5989",
"] 	c #856290",
"^ 	c #886493",
"/ 	c #896595",
"( 	c #846090",
"_ 	c #775382",
": 	c #704D7B",
"< 	c #6A4A75",
"[ 	c #6C4C77",
"} 	c #74517F",
"| 	c #785383",
"1 	c #73507F",
"2 	c #704F7C",
"3 	c #785483",
"4 	c #7B5687",
"5 	c #775383",
"6 	c #6E4D7A",
"7 	c #724F7D",
"8 	c #734F7E",
"9 	c #6B4B76",
"0 	c #684873",
"a 	c #6F4E7A",
"b 	c #7F5D8B",
"c 	c #866392",
"d 	c #886494",
"e 	c #775582",
"f 	c #6F4D7B",
"g 	c #775283",
"h 	c #785384",
"i 	c #74507F",
"j 	c #704E7C",
"k 	c #6A4975",
"l 	c #6A4976",
"m 	c #7C5D87",
"n 	c #9D81A6",
"o 	c #93759D",
"p 	c #815F8D",
"q 	c #805E8C",
"r 	c #755380",
"s 	c #724F7E",
"t 	c #765082",
"u 	c #6E4B79",
"v 	c #71507C",
"w 	c #805C8C",
"x 	c #825E8E",
"y 	c #785583",
"z 	c #6F4C7B",
"A 	c #866890",
"B 	c #AA94B1",
"C 	c #917A9A",
"D 	c #6C4B78",
"E 	c #6E4D79",
"F 	c #795585",
"G 	c #765282",
"H 	c #765182",
"I 	c #7A5785",
"J 	c #82628D",
"K 	c #765680",
"L 	c #755481",
"M 	c #876493",
"N 	c #896695",
"O 	c #7E5C8A",
"P 	c #704F7B",
"Q 	c #6A4A76",
"R 	c #7A5886",
"S 	c #81668A",
"T 	c #7B5D85",
"U 	c #745080",
"V 	c #83608F",
"W 	c #6B4976",
"X 	c #80658A",
"Y 	c #A792AF",
"Z 	c #92789B",
"` 	c #745180",
" .	c #73527E",
"..	c #7C5A88",
"+.	c #83608E",
"@.	c #71517C",
"#.	c #755180",
"$.	c #755081",
"%.	c #6A4875",
"&.	c #714D7C",
"*.	c #7C5988",
"=.	c #795784",
"-.	c #714F7D",
";.	c #6F4C7A",
">.	c #7B5E85",
",.	c #97819F",
"'.	c #A18AA9",
").	c #937A9B",
"!.	c #6D4F78",
"~.	c #674672",
"{.	c #765481",
"].	c #805C8B",
"^.	c #7C5888",
"/.	c #7E598A",
"(.	c #7B5787",
"_.	c #785983",
":.	c #9C86A4",
"<.	c #9E89A6",
"[.	c #73557E",
"}.	c #6B4A77",
"|.	c #73507E",
"1.	c #755281",
"2.	c #7A5586",
"3.	c #6E4C7A",
"4.	c #7A5686",
"5.	c #8A6696",
"6.	c #81628B",
"7.	c #795B83",
"8.	c #684973",
"9.	c #876393",
"0.	c #815D8D",
"a.	c #6F4F7A",
"b.	c #795785",
"c.	c #795884",
"d.	c #7F5D8A",
"e.	c #8B6797",
"f.	c #7E5A8A",
"g.	c #775583",
"h.	c #7C5987",
"i.	c #6E4E79",
"j.	c #906C9C",
"k.	c #886594",
"l.	c #71517D",
"m.	c #805D8B",
"n.	c #8F6B9B",
"o.	c #8C6898",
"p.	c #765581",
"q.	c #6D4B78",
"r.	c #73517E",
"s.	c #815E8C",
"t.	c #694874",
"u.	c #664571",
"v.	c #84688E",
"w.	c #987CA1",
"x.	c #775981",
"y.	c #8D6999",
"z.	c #785783",
"A.	c #72507D",
"B.	c #84628F",
"C.	c #765980",
"D.	c #74577D",
"E.	c #967F9E",
"F.	c #AA95B1",
"G.	c #7E6387",
"H.	c #805B8C",
"I.	c #765381",
"J.	c #7F5A8B",
"K.	c #7F5B8B",
"L.	c #876392",
"M.	c #7C5788",
"N.	c #73517F",
"O.	c #8A6F93",
"P.	c #A894AF",
"Q.	c #AC98B3",
"R.	c #A28BA9",
"S.	c #8D7296",
"T.	c #72547D",
"U.	c #714E7D",
"V.	c #714E7C",
"W.	c #7F5C8B",
"X.	c #806589",
"Y.	c #A38CAB",
"Z.	c #A791AF",
"`.	c #987DA2",
" +	c #765181",
".+	c #6D4C79",
"++	c #7B5686",
"@+	c #775282",
"#+	c #7C5887",
"$+	c #7D5B88",
"%+	c #785684",
"&+	c #795684",
"*+	c #805D8C",
"=+	c #846190",
"-+	c #8A6695",
";+	c #825F8E",
">+	c #72507E",
",+	c #74537F",
"'+	c #856190",
")+	c #775483",
"!+	c #876492",
"~+	c #7C5787",
"{+	c #7D5888",
"]+	c #745380",
"^+	c #785784",
"/+	c #835F8E",
"(+	c #7B5887",
"_+	c #835F8F",
":+	c #765382",
"                                                                                                                                ",
"                                                                                                                                ",
"                                                                                                                                ",
"                                                                                                                                ",
"                                                                                                                                ",
"                                                                                                                                ",
"                                                                                                                                ",
"                                                                                                                                ",
"                                                                                                                                ",
"                                                                                                                                ",
"                                                                                                                                ",
"                                                                                                                                ",
"                                                                                                                                ",
"                                                                                                                                ",
"                                                                                                                                ",
"                                                                                                                                ",
"                                                                                                                                ",
"                                                                                                                                ",
"                                                                                                                                ",
"                                                                                                                                ",
"                                                  . . . . + @ # # $ %                                                           ",
"                                              . . . . . & * = - ; > , '                                                         ",
"                                            . . . ) ' ! ~ { ] ^ / ( _ : '                                                       ",
"                                          . . < [ } # @ | 1 2 3 4 5 6 7 8 9 < <                                                 ",
"                                        . . 0 a b c d ; e f 1 g h g i j : 8 1 : k                                               ",
"                                        . . l m n o p q r s h h h h t u v w x y .                                               ",
"                                        . ) z A B C D E _ F G G H I J K L M N O P                                               ",
"                                    . . Q s G R S T U G V b E D W X Y Z `  . ...+.@.                                            ",
"                                    . . ) #.# $.%.&.h # *.=.-.: ;.>.,.'.).!.~.{.].a                                             ",
"                                    . . ) U h ~ % 7 h g ! & h ^./.(._.:.<.[.}.j |.%                                             ",
"                                    . . ) 1.2.G D s # h 6 3.4.; 5.5.N 6.7.$ ~ s ' <                                             ",
"                                    . 8.' ].9.0.a.R ; (  .& | b.c.d.e.f.z f f g.h.E                                             ",
"                                    . 0 i.c j.k.l.m.n.o.p.! H j q.r.s.x F t.u.v.w.x.                                            ",
"                                    . 0 E ] y.c v O y.5.z.A.F h g ~ 2 m.B.C.D.E.F.G.                                            ",
"                                    . . % 4.H.(.E I.J.K.V L.; M.h g U N.O.P.Q.R.S.T.                                            ",
"                                    . . ) U h G U.j V.|.W.; ( (.h 4 w 7 X.Y.Z.`.K.E                                             ",
"                                    . . ) 8 G  +~ j % .+@ ++@+G ~ #+N $+r.%+&+*+=+v                                             ",
"                                        . 9 D D q.-.#._ ( m.E ' % L -+e.b E }.6 v                                               ",
"                                        . . ' U.U.j f -.f.;+d.d.d.m.x b =.>+U..+0                                               ",
"                                        . . 6 ~ 5 I.,+,+` { d / / '+)+: : U ` j k                                               ",
"                                          . k .+G x N !+{.A.~+^.{+F & 7 8 % ) )                                                 ",
"                                                & ]+=.^+, (.; 9.9./+$ j !                                                       ",
"                                                . 8.0 . : (+; 9.9._+:+.+                                                        ",
"                                                  . . . k V.# 2.2.G q.                                                          ",
"                                                                                                                                ",
"                                                                                                                                ",
"                                                                                                                                ",
"                                                                                                                                ",
"                                                                                                                                ",
"                                                                                                                                ",
"                                                                                                                                ",
"                                                                                                                                ",
"                                                                                                                                ",
"                                                                                                                                ",
"                                                                                                                                ",
"                                                                                                                                ",
"                                                                                                                                ",
"                                                                                                                                ",
"                                                                                                                                ",
"                                                                                                                                ",
"                                                                                                                                ",
"                                                                                                                                ",
"                                                                                                                                ",
"                                                                                                                                "};
