/* XPM */
static char * openportal6_xpm[] = {
"64 64 289 2",
"  	c None",
". 	c #694974",
"+ 	c #6A4975",
"@ 	c #6A4A75",
"# 	c #704E7C",
"$ 	c #734F7E",
"% 	c #714E7D",
"& 	c #6B4A76",
"* 	c #6F4D7B",
"= 	c #765182",
"- 	c #785384",
"; 	c #6C4B77",
"> 	c #6F4D7A",
", 	c #775283",
"' 	c #7A5586",
") 	c #7B5686",
"! 	c #856191",
"~ 	c #896595",
"{ 	c #6D4C79",
"] 	c #775483",
"^ 	c #835F8F",
"/ 	c #8C6898",
"( 	c #886594",
"_ 	c #815E8C",
": 	c #825E8E",
"< 	c #785583",
"[ 	c #6E4D7A",
"} 	c #73507F",
"| 	c #815D8D",
"1 	c #8A6695",
"2 	c #7B5987",
"3 	c #74537F",
"4 	c #846190",
"5 	c #7F5B8B",
"6 	c #825D8E",
"7 	c #896695",
"8 	c #785784",
"9 	c #73507E",
"0 	c #745180",
"a 	c #72517D",
"b 	c #765281",
"c 	c #734F7F",
"d 	c #7D5889",
"e 	c #6F4E7A",
"f 	c #755180",
"g 	c #724F7E",
"h 	c #74507F",
"i 	c #6E4C79",
"j 	c #795685",
"k 	c #7B5787",
"l 	c #745080",
"m 	c #765181",
"n 	c #724F7D",
"o 	c #785484",
"p 	c #866292",
"q 	c #805E8C",
"r 	c #6E4D79",
"s 	c #775383",
"t 	c #765282",
"u 	c #684973",
"v 	c #684873",
"w 	c #72517E",
"x 	c #856091",
"y 	c #8D6899",
"z 	c #815F8D",
"A 	c #6D4C78",
"B 	c #684773",
"C 	c #7D6087",
"D 	c #9B80A5",
"E 	c #8E6F99",
"F 	c #7A5886",
"G 	c #714F7C",
"H 	c #71507D",
"I 	c #7D5989",
"J 	c #674672",
"K 	c #897191",
"L 	c #B19DB8",
"M 	c #8D7595",
"N 	c #6E4B7A",
"O 	c #6E4C7A",
"P 	c #765582",
"Q 	c #886494",
"R 	c #755480",
"S 	c #664572",
"T 	c #8A7292",
"U 	c #B4A0BA",
"V 	c #8D7695",
"W 	c #6D4A78",
"X 	c #775682",
"Y 	c #765581",
"Z 	c #674872",
"` 	c #8A7392",
" .	c #B4A1BA",
"..	c #6D4A79",
"+.	c #896594",
"@.	c #765481",
"#.	c #866D8F",
"$.	c #AC97B3",
"%.	c #897091",
"&.	c #7C5788",
"*.	c #795A84",
"=.	c #91719B",
"-.	c #7B5C85",
";.	c #7A5686",
">.	c #876393",
",.	c #8B6797",
"'.	c #775582",
").	c #755481",
"!.	c #684872",
"~.	c #8A6696",
"{.	c #906C9C",
"].	c #795486",
"^.	c #6D4B79",
"/.	c #72507D",
"(.	c #7E5B8A",
"_.	c #674772",
":.	c #755381",
"<.	c #745280",
"[.	c #84608F",
"}.	c #886793",
"|.	c #8F7298",
"1.	c #7D5F87",
"2.	c #755380",
"3.	c #73527E",
"4.	c #694975",
"5.	c #714F7D",
"6.	c #866291",
"7.	c #6D4B78",
"8.	c #84698D",
"9.	c #AB96B2",
"0.	c #987EA0",
"a.	c #704F7B",
"b.	c #83608E",
"c.	c #7F5D8B",
"d.	c #6B4B76",
"e.	c #7B5887",
"f.	c #856590",
"g.	c #A28CA9",
"h.	c #9A84A2",
"i.	c #74557E",
"j.	c #755181",
"k.	c #815C8D",
"l.	c #7F5C8B",
"m.	c #71527C",
"n.	c #A591AC",
"o.	c #AB97B2",
"p.	c #75587F",
"q.	c #7D5A89",
"r.	c #795485",
"s.	c #72527C",
"t.	c #9F89A6",
"u.	c #A38EAA",
"v.	c #74567E",
"w.	c #7D6187",
"x.	c #7E6388",
"y.	c #6F4C7A",
"z.	c #6C4A78",
"A.	c #7B5687",
"B.	c #7E598A",
"C.	c #7D5888",
"D.	c #785683",
"E.	c #7E5C8A",
"F.	c #6E4E79",
"G.	c #805D8C",
"H.	c #7F5D8A",
"I.	c #8A6796",
"J.	c #795885",
"K.	c #856290",
"L.	c #795584",
"M.	c #815E8D",
"N.	c #795784",
"O.	c #72527E",
"P.	c #7C5A88",
"Q.	c #7C5888",
"R.	c #775482",
"S.	c #846290",
"T.	c #70507B",
"U.	c #82608E",
"V.	c #73517F",
"W.	c #876492",
"X.	c #84618F",
"Y.	c #825F8D",
"Z.	c #6B4976",
"`.	c #805C8C",
" +	c #73557E",
".+	c #967C9F",
"++	c #907599",
"@+	c #6C4D77",
"#+	c #83618F",
"$+	c #886893",
"%+	c #7C6086",
"&+	c #765A81",
"*+	c #AA96B1",
"=+	c #A18CA8",
"-+	c #6E4F78",
";+	c #9E83A8",
">+	c #A893AF",
",+	c #81678A",
"'+	c #6B4A77",
")+	c #775B81",
"!+	c #6E5078",
"~+	c #795785",
"{+	c #7C5987",
"]+	c #9A7BA4",
"^+	c #A68DAE",
"/+	c #A18BA8",
"(+	c #907698",
"_+	c #7E5B89",
":+	c #724E7E",
"<+	c #81658A",
"[+	c #9B85A2",
"}+	c #9E87A6",
"|+	c #8A7093",
"1+	c #6C4C76",
"2+	c #805D8B",
"3+	c #8B6697",
"4+	c #94739F",
"5+	c #AC94B4",
"6+	c #A187AA",
"7+	c #B4A1BB",
"8+	c #92779B",
"9+	c #704C7C",
"0+	c #755280",
"a+	c #8D6A99",
"b+	c #92719D",
"c+	c #886694",
"d+	c #8B7493",
"e+	c #91769B",
"f+	c #714D7D",
"g+	c #765381",
"h+	c #805B8C",
"i+	c #7C5688",
"j+	c #7A5D84",
"k+	c #8C6B97",
"l+	c #7B5886",
"m+	c #7F5A8B",
"n+	c #73517E",
"o+	c #896495",
"p+	c #714E7C",
"q+	c #7E5A8A",
"r+	c #866392",
"s+	c #704E7B",
"t+	c #876392",
"u+	c #7D5B88",
"v+	c #775683",
"w+	c #74517F",
"x+	c #7C5887",
"y+	c #7B5986",
"z+	c #7E5A89",
"A+	c #876493",
"B+	c #6F4F7A",
"C+	c #785684",
"D+	c #825F8E",
"E+	c #7E5C89",
"F+	c #6C4B78",
"G+	c #846090",
"H+	c #83608F",
"I+	c #6D4D78",
"J+	c #856291",
"K+	c #8D6999",
"L+	c #6C4C77",
"M+	c #654570",
"N+	c #71517D",
"O+	c #7A5885",
"P+	c #886493",
"Q+	c #8B6897",
"R+	c #7A5986",
"S+	c #704D7B",
"T+	c #8F6B9B",
"U+	c #71507C",
"V+	c #755281",
"W+	c #6F4E7B",
"X+	c #7D5988",
"Y+	c #7D5B89",
"Z+	c #72507E",
"`+	c #7C5A87",
" @	c #724E7D",
".@	c #6E4A7A",
"+@	c #8C6998",
"@@	c #85698E",
"#@	c #81698A",
"$@	c #6A4A76",
"%@	c #93729E",
"&@	c #AC95B3",
"*@	c #866492",
"=@	c #9E82A8",
"-@	c #A68CAF",
";@	c #886394",
">@	c #795585",
"                                                                                                                                ",
"                                                                                                                                ",
"                                                                                                                                ",
"                                                            . + @ @                                                             ",
"                                                          . @ # $ % &                                                           ",
"                                                        . & * = - = * ;                                                         ",
"                                                      . . > , ' ) ' , > .                                                       ",
"                                                      . . > ' ! ~ ! ' > .                                                       ",
"                                                    . + { ] ^ / ( _ : < [                                                       ",
"                                                  . . @ } | / 1 2 3 4 5 } @                                                     ",
"                                                  . . @ } 6 7 8 9 0 a b } @                                                     ",
"                                                  . . @ c d 5 e # f & g h @                                                     ",
"                                                  . @ i j k l > 9 m > n g i                                                     ",
"                                                . . { o p q r h s - t * > f i u                                                 ",
"                                                . v w x y z A f - - - > i m i u                                                 ",
"                                                . B C D E F G t - - s > H I G v                                                 ",
"                                                . J K L M N , - - - s O P Q R v                                                 ",
"                                                . S T U V W s - - - s O X 7 Y Z                                                 ",
"                                                . S `  .V ..s - , - s O X +.@.Z                                                 ",
"                                                . J #.$.%...- &.d &.- O X ~ Y Z                                                 ",
"                                                . v *.=.-.i ;.>.,.>.;.i '.( ).!.                                                ",
"                                                . v ).Q P i ) ~.{.~.].^./.(.G _.                                                ",
"                                                . & :.z @.<.5 [.4 }.|.1.N } 2.3.                                                ",
"                                              . 4.5.0 e } 5 6.R 7.8.9.0.X a.b.c.d.                                              ",
"                                              . + g l & } o P 0 e.f.M g.h.i.4 _ d.                                              ",
"                                              . + g l ; } g & j.k.l.m.n.o.p.q.2 @                                               ",
"                                              . + g l ; } g ; j.r.j.s.t.u.v.c 5.+                                               ",
"                                              . + g l ; } g ; j.- , t w.x.:.y.& .                                               ",
"                                              . + g l ; } g ; j.- - , ..z.= i u .                                               ",
"                                              . + g h ; } g ; f A.B.C.5.i m i . .                                               ",
"                                              . + } f ; } g ; t : ~.~.D.i = O . .                                               ",
"                                              . @ 2 E.A c n F.G.G.H.I.J.i , l i .                                               ",
"                                              . @ _ K.e L.] e M.N.O.+.P.> 0 Q.R.@                                               ",
"                                              . @ _ S.T.U.q { t V.R W.| 0 e X.c.&                                               ",
"                                              . @ _ S.T.X.Y.A 0 5 z 8 M.l.a.S.q d.                                              ",
"                                              . @ _ S.T.X._ Z.l `.`.e z X. +.+++@+                                              ",
"                                              . @ _ K.T.#+$+%+'.= l > G.G.&+*+=+-+                                              ",
"                                              . @ q 4 T.b.;+>+,+'+> 0 ;.t )+o.=+!+                                              ",
"                                              . @ ~+{+e #+]+^+/+(+_+r.:+<+[+}+|+1+                                              ",
"                                              . + g h A 2+3+4+5+6+p ' W V 7+8+9++                                               ",
"                                              . + g l 7.0+: a+b+c+A.- ..d+L e+f++                                               ",
"                                              . + g , } * g+h+h+i+- , O j+8+k+l+@                                               ",
"                                              . + g - , { O , - , ' m+n+7.- o+q d.                                              ",
"                                              . . p+, s 5.5.t - r.q+r+D.s+k t+H.d.                                              ",
"                                                . & # o : u+s+= | 4 v+w+x+6.y+a                                                 ",
"                                                . u A r.~ z r z+3+A+B+C+D+E+B+_.                                                ",
"                                                . . F+t G+M.Y H+~ #+Y X.4 I+. .                                                 ",
"                                                . . + A ] : J+P B+Y r+K+X.L+v .                                                 ",
"                                                . . . @ $ : 7 a M+N+I.{.4 ; v .                                                 ",
"                                                . . . @ } 5 J+O+3 y+,.7 q ).L+.                                                 ",
"                                                . . . & } - d P+Q+Q+,.R+v+J+3 v                                                 ",
"                                                . . ; n S+% A.~.T+/ | H G I G v                                                 ",
"                                                . u U+q+U+i ' ^ >.: V+S+g = i u                                                 ",
"                                                . v 3 p N.G t r.' t 7.g , j.{ u                                                 ",
"                                                  v W+X+4 Y+s+j.- f ; $ j.i                                                     ",
"                                                  . & Z+t+7 `+ @.@n 2 : {+d.                                                    ",
"                                                  . . L+_ / +@@@#@@@+@/ G.L+                                                    ",
"                                                  . . $@V+6 %@&@7+&@%@6 V+&                                                     ",
"                                                    . 4.7.b *@=@-@=@*@b i                                                       ",
"                                                      . . > ' G+;@G+' > .                                                       ",
"                                                      . . > , >@' >@, > .                                                       ",
"                                                        . & > = - m * ;                                                         ",
"                                                          . @ s+g p+&                                                           ",
"                                                            . + + +                                                             "};
