/* XPM */
static char * openportal2_xpm[] = {
"64 64 51 1",
" 	c None",
".	c #694974",
"+	c #6A4A75",
"@	c #6A4B75",
"#	c #6B4B75",
"$	c #6B4A76",
"%	c #704E7C",
"&	c #785684",
"*	c #7E5C89",
"=	c #775682",
"-	c #73527E",
";	c #7D5B89",
">	c #785783",
",	c #6B4B76",
"'	c #6C4B77",
")	c #714E7C",
"!	c #714E7D",
"~	c #7E5C8A",
"{	c #7B5986",
"]	c #6D4D78",
"^	c #684873",
"/	c #6D4E77",
"(	c #8D7695",
"_	c #947D9B",
":	c #70537A",
"<	c #684773",
"[	c #6B4B77",
"}	c #73507F",
"|	c #7F5C8B",
"1	c #866392",
"2	c #876492",
"3	c #7D5B88",
"4	c #876493",
"5	c #7F5D8A",
"6	c #6C4C77",
"7	c #6E4C79",
"8	c #745080",
"9	c #755181",
"0	c #755180",
"a	c #82608E",
"b	c #6F4F7B",
"c	c #6E5079",
"d	c #9B86A2",
"e	c #9F8AA6",
"f	c #70537B",
"g	c #6E4D79",
"h	c #6F4F7A",
"i	c #704F7B",
"j	c #6E4E79",
"k	c #75597E",
"l	c #7A5F83",
"                                                                ",
"                                                                ",
"                                                                ",
"                                                                ",
"                                                                ",
"                                                                ",
"                                                                ",
"                                                                ",
"                                                                ",
"                                                                ",
"                                                                ",
"                                                                ",
"                                                                ",
"                                                                ",
"                                                                ",
"                                                                ",
"                                                                ",
"                                                                ",
"                                                                ",
"                                                                ",
"                                                                ",
"                                                                ",
"                                                                ",
"                                                                ",
"                                                                ",
"                                                                ",
"                                                                ",
"              ..+++....+++.............+.....@#                 ",
"            .$%&***=+.-;**>,.')!)!)'.,>~{].^/(_:<               ",
"           ..[}|1123,.>11456^7890987^654ab^^cdef<               ",
"              [gbbb]..6hbig+.+$[[[$+.+gij+..+kl                 ",
"                                                                ",
"                                                                ",
"                                                                ",
"                                                                ",
"                                                                ",
"                                                                ",
"                                                                ",
"                                                                ",
"                                                                ",
"                                                                ",
"                                                                ",
"                                                                ",
"                                                                ",
"                                                                ",
"                                                                ",
"                                                                ",
"                                                                ",
"                                                                ",
"                                                                ",
"                                                                ",
"                                                                ",
"                                                                ",
"                                                                ",
"                                                                ",
"                                                                ",
"                                                                ",
"                                                                ",
"                                                                ",
"                                                                ",
"                                                                ",
"                                                                ",
"                                                                ",
"                                                                "};
