/* XPM */
static char * openportal3_xpm[] = {
"64 64 141 2",
"  	c None",
". 	c #694974",
"+ 	c #684873",
"@ 	c #6F4F7A",
"# 	c #795784",
"$ 	c #7A5885",
"% 	c #795885",
"& 	c #755480",
"* 	c #6A4A75",
"= 	c #6B4A76",
"- 	c #6F4D7A",
"; 	c #6F4D7B",
"> 	c #6E4B7A",
", 	c #6D4A79",
"' 	c #6D4A78",
") 	c #6A4975",
"! 	c #6B4B76",
"~ 	c #775582",
"{ 	c #876493",
"] 	c #886594",
"^ 	c #896595",
"/ 	c #8A6696",
"( 	c #83608F",
"_ 	c #72517D",
": 	c #6F4E7A",
"< 	c #72507D",
"[ 	c #755181",
"} 	c #765282",
"| 	c #7F5E8A",
"1 	c #85668F",
"2 	c #82638D",
"3 	c #73537E",
"4 	c #6D4D78",
"5 	c #6C4B77",
"6 	c #73507F",
"7 	c #745180",
"8 	c #73527E",
"9 	c #785584",
"0 	c #7D5989",
"a 	c #7E598A",
"b 	c #805C8C",
"c 	c #866392",
"d 	c #7D5B89",
"e 	c #6E4D79",
"f 	c #6D4C78",
"g 	c #6C4B78",
"h 	c #71517C",
"i 	c #9B84A3",
"j 	c #B29EB9",
"k 	c #AD97B4",
"l 	c #8A6D93",
"m 	c #734F7F",
"n 	c #7F5D8B",
"o 	c #765181",
"p 	c #785384",
"q 	c #724F7E",
"r 	c #775283",
"s 	c #795585",
"t 	c #7E5C8A",
"u 	c #73517E",
"v 	c #7B5986",
"w 	c #7E5C89",
"x 	c #7D5B88",
"y 	c #805F8B",
"z 	c #9B80A4",
"A 	c #AB92B3",
"B 	c #A68DAE",
"C 	c #84678E",
"D 	c #6F4C7A",
"E 	c #704E7C",
"F 	c #714E7C",
"G 	c #714E7D",
"H 	c #724F7D",
"I 	c #785684",
"J 	c #765481",
"K 	c #7B5687",
"L 	c #775482",
"M 	c #73517F",
"N 	c #7A5586",
"O 	c #866292",
"P 	c #886593",
"Q 	c #866391",
"R 	c #72527E",
"S 	c #73527F",
"T 	c #755180",
"U 	c #745080",
"V 	c #765281",
"W 	c #7E6288",
"X 	c #7B6084",
"Y 	c #6B4C76",
"Z 	c #835E8F",
"` 	c #8B6797",
" .	c #805D8B",
"..	c #896695",
"+.	c #825F8D",
"@.	c #7B5787",
"#.	c #755381",
"$.	c #70507B",
"%.	c #82608E",
"&.	c #846190",
"*.	c #71537C",
"=.	c #9F8AA7",
"-.	c #6F527A",
";.	c #684773",
">.	c #825D8E",
",.	c #825E8E",
"'.	c #7D5988",
").	c #785683",
"!.	c #7D5A89",
"~.	c #815F8D",
"{.	c #805E8C",
"].	c #7C5A87",
"^.	c #74517F",
"/.	c #724E7D",
"(.	c #967AA0",
"_.	c #94799D",
":.	c #6E4F78",
"<.	c #684973",
"[.	c #6D4C79",
"}.	c #805B8C",
"|.	c #856191",
"1.	c #886494",
"2.	c #856291",
"3.	c #6A4A76",
"4.	c #714F7D",
"5.	c #74507F",
"6.	c #7E5B89",
"7.	c #7F5B8A",
"8.	c #8A6695",
"9.	c #805C8B",
"0.	c #795485",
"a.	c #775383",
"b.	c #6E4C79",
"c.	c #6C4C77",
"d.	c #6B4B77",
"e.	c #714F7C",
"f.	c #755481",
"g.	c #6D4B78",
"h.	c #694973",
"i.	c #684872",
"j.	c #674872",
"                                                                                                                                ",
"                                                                                                                                ",
"                                                                                                                                ",
"                                                                                                                                ",
"                                                                                                                                ",
"                                                                                                                                ",
"                                                                                                                                ",
"                                                                                                                                ",
"                                                                                                                                ",
"                                                                                                                                ",
"                                                                                                                                ",
"                                                                                                                                ",
"                                                                                                                                ",
"                                                                                                                                ",
"                                                                                                                                ",
"                                                                                                                                ",
"                                                                                                                                ",
"                                                                                                                                ",
"                                                                                                                                ",
"                                                                                                                                ",
"                                                                                                                                ",
"                                                                                                                                ",
"                                                                                                                                ",
"                                                                                                                                ",
"                                      . + + + + + + . . . . . . . . . . . . . . .                                               ",
"                                    + @ # $ % % % $ & * + = - ; ; ; ; > , ' ) . . .                                             ",
"                            = ! ! ! = ~ { ] ^ / / / ( _ : < [ [ [ [ } | 1 2 3 = = . . . . 4 @                                   ",
"                      . . 5 6 [ [ [ [ 7 8 8 9 0 a 0 b c { d e f f g h i j k l m 6 5 . . ! d n 5 .                               ",
"                      . . 5 o p p p p q . + ; r r r s d t # u v w x y z A B C D E F G G H I J * . .                             ",
"                      . . 5 o K 0 0 a L * . M 0 a a 9 ! . - N O / ^ ^ ] P Q % R S 7 T U V W X Y . .                             ",
"                      . . 5 } Z / / `  .5 . $ ../ / +.4 . ; p K @.@.K #.$.8 %...&._ = = *.=.=.-.;..                             ",
"                      . . 5 } a >.>.,.'.6 q J % $ $ ).6 q 7 r r r r p !.~.{.].$ # ^.q /.J (._.:.+ .                             ",
"                        . 5 q 6 6 6 6 [ p p G . <.+ [.r p @.}.b b }.b |.1.2.8 + 3.4.5.6 7 6.x 5 .                               ",
"                            * * * * * ; } r F . . . f o r 7.^ / 8./ ^ 9.0.a.b.. . * * * 3.c.f                                   ",
"                                      5 [.b.d.. . . * f b.e.& f.f.f.& e.f g.* . .                                               ",
"                                        <.<.. . . . . h.<.+ i.j.j.j.i.+ <.h.. .                                                 ",
"                                                                                                                                ",
"                                                                                                                                ",
"                                                                                                                                ",
"                                                                                                                                ",
"                                                                                                                                ",
"                                                                                                                                ",
"                                                                                                                                ",
"                                                                                                                                ",
"                                                                                                                                ",
"                                                                                                                                ",
"                                                                                                                                ",
"                                                                                                                                ",
"                                                                                                                                ",
"                                                                                                                                ",
"                                                                                                                                ",
"                                                                                                                                ",
"                                                                                                                                ",
"                                                                                                                                ",
"                                                                                                                                ",
"                                                                                                                                ",
"                                                                                                                                ",
"                                                                                                                                ",
"                                                                                                                                ",
"                                                                                                                                ",
"                                                                                                                                ",
"                                                                                                                                ",
"                                                                                                                                ",
"                                                                                                                                "};
