/* XPM */
static char * test1_xpm[] = {
"64 64 317 2",
"  	c #54606C",
". 	c #495157",
"+ 	c #404147",
"@ 	c #38353A",
"# 	c #302F31",
"$ 	c #414349",
"% 	c #404248",
"& 	c #4C585D",
"* 	c #4C585E",
"= 	c #444E53",
"- 	c #353A3D",
"; 	c #485057",
"> 	c #3D393F",
", 	c #3D383E",
"' 	c #303031",
") 	c #434C52",
"! 	c #535B67",
"~ 	c #444A50",
"{ 	c #3D3D42",
"] 	c #353337",
"^ 	c #2F2E2F",
"/ 	c #353336",
"( 	c #3D3E43",
"_ 	c #363437",
": 	c #323033",
"< 	c #353537",
"[ 	c #3D3D43",
"} 	c #44494E",
"| 	c #495258",
"1 	c #35373A",
"2 	c #41494E",
"3 	c #495359",
"4 	c #4B565D",
"5 	c #313235",
"6 	c #3B3D41",
"7 	c #495358",
"8 	c #404046",
"9 	c #3E3A41",
"0 	c #2F2F30",
"a 	c #434D52",
"b 	c #4E535E",
"c 	c #2C2C2D",
"d 	c #353538",
"e 	c #323134",
"f 	c #34373A",
"g 	c #41484D",
"h 	c #FFFF9B",
"i 	c #FFFFA7",
"j 	c #FFFFAF",
"k 	c #FFFFC2",
"l 	c #FFFFB8",
"m 	c #FFFFA2",
"n 	c #3C3D42",
"o 	c #414249",
"p 	c #71FFFF",
"q 	c #82FFFF",
"r 	c #70FFFF",
"s 	c #5AFFFF",
"t 	c #58FFFF",
"u 	c #4C4D59",
"v 	c #39353A",
"w 	c #42494E",
"x 	c #495158",
"y 	c #FFFF92",
"z 	c #FFFF94",
"A 	c #FFFF9E",
"B 	c #FFFFBB",
"C 	c #FFFFCD",
"D 	c #FFFFB6",
"E 	c #FFFFA1",
"F 	c #FFFF96",
"G 	c #464B52",
"H 	c #6EFFFF",
"I 	c #8EFFFF",
"J 	c #9CFFFF",
"K 	c #ABFFFF",
"L 	c #8CFFFF",
"M 	c #65FFFF",
"N 	c #2B2B2B",
"O 	c #43494E",
"P 	c #4B4D58",
"Q 	c #363538",
"R 	c #302F30",
"S 	c #495057",
"T 	c #FFFFC4",
"U 	c #FFFFB1",
"V 	c #69FFFF",
"W 	c #88FFFF",
"X 	c #A8FFFF",
"Y 	c #B7FFFF",
"Z 	c #84FFFF",
"` 	c #63FFFF",
" .	c #3F3F45",
"..	c #494C57",
"+.	c #313032",
"@.	c #FFFF91",
"#.	c #FFFFC3",
"$.	c #FFFFCF",
"%.	c #AAFFFF",
"&.	c #A4FFFF",
"*.	c #7CFFFF",
"=.	c #64FFFF",
"-.	c #3A373B",
";.	c #444953",
">.	c #FFFFCC",
",.	c #FFFF95",
"'.	c #89FFFF",
").	c #BBFFFF",
"!.	c #BFFFFF",
"~.	c #9BFFFF",
"{.	c #6CFFFF",
"].	c #3E3B41",
"^.	c #2C2D2D",
"/.	c #343135",
"(.	c #414650",
"_.	c #383539",
":.	c #FFFF9C",
"<.	c #FFFFC1",
"[.	c #FFFFCB",
"}.	c #FFFFAA",
"|.	c #6FFFFF",
"1.	c #99FFFF",
"2.	c #97FFFF",
"3.	c #81FFFF",
"4.	c #373539",
"5.	c #FFFFBC",
"6.	c #FFFFB4",
"7.	c #FFFFA4",
"8.	c #FFFF97",
"9.	c #61FFFF",
"0.	c #77FFFF",
"a.	c #ADFFFF",
"b.	c #B2FFFF",
"c.	c #78FFFF",
"d.	c #353235",
"e.	c #FFFFAD",
"f.	c #FFFFB3",
"g.	c #FAFFAA",
"h.	c #D1FFC8",
"i.	c #EAFFAF",
"j.	c #5CFFFF",
"k.	c #A0FFFF",
"l.	c #60FFFF",
"m.	c #5DFFFF",
"n.	c #393D40",
"o.	c #3E4046",
"p.	c #2E2D2E",
"q.	c #68FFFF",
"r.	c #A9FFFF",
"s.	c #B4FFFF",
"t.	c #A6FFFF",
"u.	c #6AFFFF",
"v.	c #454E54",
"w.	c #475056",
"x.	c #8DFFFF",
"y.	c #B8FFFF",
"z.	c #CBFFFF",
"A.	c #93FFFF",
"B.	c #5FFFFF",
"C.	c #8FFFFF",
"D.	c #73FFFF",
"E.	c #59FFFF",
"F.	c #393C40",
"G.	c #464E54",
"H.	c #83FFFF",
"I.	c #A1FFFF",
"J.	c #C0FFFF",
"K.	c #94FFFF",
"L.	c #79FFFF",
"M.	c #57FFFF",
"N.	c #313335",
"O.	c #90FFFF",
"P.	c #91FFFF",
"Q.	c #7AFFFF",
"R.	c #5BFFFF",
"S.	c #35383A",
"T.	c #40474C",
"U.	c #313135",
"V.	c #CDFFFF",
"W.	c #B3FFFF",
"X.	c #40464C",
"Y.	c #2B2C2C",
"Z.	c #8AFFFF",
"`.	c #C6FFFF",
" +	c #B6FFFF",
".+	c #8BFFFF",
"++	c #323335",
"@+	c #3A3A3F",
"#+	c #494B57",
"$+	c #A3FFFF",
"%+	c #B5FFFF",
"&+	c #9EFFFF",
"*+	c #66FFFF",
"=+	c #353236",
"-+	c #3E4045",
";+	c #C7FFFF",
">+	c #333134",
",+	c #474E58",
"'+	c #323638",
")+	c #2C2F2F",
"!+	c #67FFFF",
"~+	c #505A65",
"{+	c #3F464B",
"]+	c #323537",
"^+	c #C1FFFF",
"/+	c #B9FFFF",
"(+	c #80FFFF",
"_+	c #54616C",
":+	c #465157",
"<+	c #3B4346",
"[+	c #36393C",
"}+	c #37373A",
"|+	c #9AFFFF",
"1+	c #CFFFFF",
"2+	c #7FFFFF",
"3+	c #313134",
"4+	c #55616C",
"5+	c #4A555C",
"6+	c #465056",
"7+	c #98FFFF",
"8+	c #ACFFFF",
"9+	c #96FFFF",
"0+	c #72FFFF",
"a+	c #535C67",
"b+	c #485056",
"c+	c #B0FFFF",
"d+	c #87FFFF",
"e+	c #404247",
"f+	c #92FFFF",
"g+	c #74FFFF",
"h+	c #AEFFFF",
"i+	c #CEFFFF",
"j+	c #444A55",
"k+	c #62FFFF",
"l+	c #C3FFFF",
"m+	c #35454E",
"n+	c #302E2F",
"o+	c #A7FFFF",
"p+	c #6DFFFF",
"q+	c #3A363B",
"r+	c #2C444B",
"s+	c #302E30",
"t+	c #76FFFF",
"u+	c #43464C",
"v+	c #464C53",
"w+	c #485157",
"x+	c #6BFFFF",
"y+	c #3F3F44",
"z+	c #334850",
"A+	c #393539",
"B+	c #4B555C",
"C+	c #464D53",
"D+	c #9DFFFF",
"E+	c #3F505A",
"F+	c #414147",
"G+	c #403F45",
"H+	c #454B52",
"I+	c #7EFFFF",
"J+	c #86FFFF",
"K+	c #4E5A66",
"L+	c #403F46",
"M+	c #454B51",
"N+	c #4B565C",
"O+	c #454A51",
"P+	c #D3FFFF",
"Q+	c #3C383D",
"R+	c #3A363A",
"S+	c #373A3D",
"T+	c #AFFFFF",
"U+	c #3A393E",
"V+	c #85FFFF",
"W+	c #3C383E",
"X+	c #7BFFFF",
"Y+	c #43484E",
"Z+	c #3D3A40",
"`+	c #353436",
" @	c #363537",
".@	c #C2FFFF",
"+@	c #9FFFFF",
"@@	c #3E3B42",
"#@	c #BDFFFF",
"$@	c #D0FFFF",
"%@	c #75FFFF",
"&@	c #444852",
"*@	c #343235",
"=@	c #95FFFF",
"-@	c #353135",
";@	c #A2FFFF",
">@	c #B1FFFF",
",@	c #5EFFFF",
"'@	c #444E54",
")@	c #7DFFFF",
"!@	c #292929",
"~@	c #292928",
"{@	c #353437",
"]@	c #44494F",
"^@	c #BEFFFF",
"/@	c #3C3D41",
"(@	c #2B2B2C",
"_@	c #373538",
":@	c #C8FFFF",
"<@	c #41464F",
"[@	c #4B5058",
"}@	c #37353A",
"|@	c #5A6166",
"1@	c #5A666B",
"2@	c #35393B",
"3@	c #4C6168",
"4@	c #353A3C",
"5@	c #BAFFFF",
"6@	c #485D67",
"7@	c #505F6A",
"8@	c #36393B",
"9@	c #BCFFFF",
"0@	c #535D68",
"a@	c #56FFFF",
"b@	c #4C5459",
"  . + @ # # @ $ . . $ @ # # @ % . & & * & = - - = * * = - # @ % . & & & & & & & & * & = - # @ $ . ; $ > , @ ' # @ % . & & * & ) ",
"! ~ { ] ^ ^ / ( ~ ~ ( _ : < [ } | & & * & = - 1 2 3 4 = - 5 6 } 7 & & & & & & * & 4 | 2 1 # @ $ . | } 8 9 @ # 0 ] [ ~ | 4 * * a ",
"b ( < 0 c c 0 d ( ( d e _ [ ~ | 4 & & * & = - 5 6 } 7 = - f g | 4 & h i j k l m & 7 } n 5 # @ o . p q r s t # c 0 d ( } 7 * & = ",
"u v 0 c ^ # # e _ / 0 5 n } 7 & & & & 4 | w 1 # @ $ x = - 1 2 y z A B C D E F x . G 8 v # # H I J K L M o v # N N # v 8 G x x O ",
"P @ 0 0 ] v v Q e ^ c f w | 4 & & & & 7 } n 5 R @ $ S y y y y E l T U i y % % o % 8 t t V W X Y Z ` * x o v # N N # @ 9 8 o o  .",
".._ +.d [ o o ( d ^ c 1 w | 4 * * 4 | ~ [ ] 0 0 ] ( ~ @.1 m #.$.T m x ~ ( v @ t @ v r q %.&.*.=.~ x x G 8 v # N N 0 ] v v v v -.",
";.e / ( ~ x x ~ [ / 0 5 n } 7 & & | } [ < 0 c c 0 y y F j >.k j ,.o o [ < # R t M '.).!.~.{.0 d ( o o 8 ].v # N N ^.0 # # R # /.",
"(.# _.o x * * x o v # 0 ] ( ~ x x G 8 v # N N N N @.:.<.[.}.# e _ v v ] 0 t s |.1.Y 2.3.t # # e Q v v @ @ _ : # # 0 c N N N N ' ",
"(.# 4.o x * * x o v # c ^ < [ o o 8 9 @ # N N N }.5.6.7.E 8.v _ e # # ^ c 9.0.a.b.c.@ @ v v @ _ e # # # # e Q v v ] 0 N N N N # ",
"(.^ d.( ~ x x ~ [ ] ^ N N 0 ] @ v v @ _ e F e.f.#.g.h.d i.o t t < # R j.I k.W =.l.m.o o % 8 9 @ # c 0 5 1 n.o.$ $ ( d 0 c N N ' ",
"(.c p.d ( o o ( d 0 c N N c 0 # # # # e Q v v ] 0 t / [ ~ x x ~ [ q.r.s.t.u.v 8 t . x x . G 8 v # ^ / 6 w v.w.x . ~ ( ] 0 N N ' ",
";.0 N 0 ] v v _ e # # # # # # 0 ^.c 0 < [ 8 ].@ # # v o x * * 0.x.y.z.A.B.t _ t w.& & & & 7 } n 5 # v 8 G . x x . G 8 v # c ^ e ",
"..] p.c ^ # # e _ @ v v v v @ / 0 ^ / ( ~ G 8 v # # v o x * * 4 r ~.z.z.C.D.E.F.G.& * * & 4 | 2 1 ' @ ].8 $ $ $ $ 8 ].v ' 0 ] Q ",
"u v R ^.0 # # < [ % o o % 8 9 @ # 5 n } 7 7 } ( < e _ [ ~ | 4 & & B.H.I.).J.K.L.M.& E.* & 4 | 2 1 0 / v v v @ @ @ v @ / 0 N.n 6 ",
"u v R 0 / @ v [ ~ . x x . G 8 @ # 1 w 7 4 4 | ~ [ _ e < [ } | & * t t x L.O.y.y.P.*.Q.R.& 7 } n 5 ^.0 # # # # # # # # ^ ^.S.w T.",
"u v R # @ 9 8 } | & & & & 7 } 6 U.f 2 7 4 4 7 G 8 v # 0 ] [ ~ | E.* * x o @ ` D.K.V.W.p . G 8 v # N N N N ^.0 # # # # ^ c S.w X.",
"u @ R # v 8 G | 4 & * * & 4 | 2 1 5 n } 7 | } t ].t # Y.^ < t } | & & . % @ # s Z.`. +.+c.8 9 @ # N N N N 0 ] @ v v @ / 0 ++n @+",
"#+/ p.# @ % . & & & & & & * & v.F.e _ ( ~ ~ ( v @ ] 0 N N 0 ] ( ~ x t t M.Z $+%+W.&+*+@ v v @ Q e 0 c N N # v ].8 o o [ < e _ =+",
";.0 N # v o x & * & & & & * & w.-+_ : d [ [ d # # 0 ^.N N Y.0 < t o t ` Z a.;+2.R.# # # # # # >+Q ] 0 N N # v 8 G x x ~ ( Q : +.",
",+'+)+R v o x & * & & & & * & x o @ # 0 / _ e # # 0 c N N N t E.] !+.+a.J 0.( j.t 1 5 0 c c 0 d [ [ d ^ Y.# v o . & & 7 } n 5 ' ",
"~+{+]+# @ % . & & & & & & & & . o v # c ^ e Q v v ] 0 N N t t M ~.^+/+(+_ [ ~ t G.w 6 / ^ ^ / ( ~ ~ ( ] 0 # @ o x * * 4 | 2 f ' ",
"_+:+<+[+}+( ~ . x . . . . x . G 8 v # Y.^ < [ o o [ < # R r |+ +V.1+&.2+M 8 G t t G 8 @ # 3+6 } 3 3 } ( < : _ -+w.* * 4 | w 1 ' ",
"4+5+6+T.[+d [ % o % % % % o % 8 ].@ # 0 / [ ~ x x ~ E.H.7+8+9+0+r p Z X I.L.` t $ 8 ].@ ' 1 w 7 4 4 7 ~ [ _ e F.v.& * 7 } n 5 ' ",
"a+x b+w 1 0 / v v @ @ @ @ @ v v @ _ e < [ } 3 * =.Z $+c+Z.*+d 0 c N N H d+$+K (+@ v @ t e n.G.4 3 x S G 8 @ # 1 w x x ~ [ / ^ # ",
"b $ e+n 5 c ^ # # # # # # # # # # e Q [ ~ | u.Q.k.X f+g+S ~ ( ] 0 N N ^.0 {.h+i+s.7+'.s Q o.w.7 } o % 8 ].@ # 5 6 o $ [ < ^ c ' ",
"j+v _.] 0 N N ^.0 # # # # 0 ^.c 0 < ( } k+H.K I.H.|.* * & t % v # ^.0 # # # {.L r.l+W.I L.( ~ ~ ( @ @ v @ / 0 0 ] v v _ e R # /.",
"m+# n+0 c N N 0 ] @ v v @ t 0 t / E.=.f+&.o+L.} | & * * & x o v t 0 ] v v @ @ @ @ v p 2.r.I p+[ d # R # # 0 ^.c 0 # # e _ @ v q+",
"r+# s+0 c N N # v ].8 8 ].@ # # @ s |+7+t+| } u+v+; w+3 4 x $ @ t R @ 9 8 % o % % o % [ p 1.X k.x+# # # # ' ' 0 c Y.0 < [ o o y+",
"z+v A+] 0 N N # v 8 G G 8 v # D.3.0.x+} | B+| C+u+% % } | . $ @ # # v 8 G . x . . x . E.t _ *+1.X D+Q.@ @ v v ] 0 ^ / [ ~ x x O ",
"E+o F+( d 0 c # v $ x x $ @ V H !+].8 } | & & | } G+9 8 H+~ ( }+[+F.-+} | & & & & & & . % @ E.s I+^+V.I.J+s q+_ e < [ } | * & = ",
"K+x b+~ ( ] 0 # @ $ x x =.V # # @ L+M+| N+& & 4 | O+ .].G+[ d [+T.v.w.| 4 & * & & * & x o v # q ^+P+I.H.*+t /.e Q [ ~ | 4 * * a ",
"  * & x o v # # v 8 G G 8 v # # v 8 H+| 4 & & * & x o Q+R+_ e S+O | 4 & & & & & & & t . E.c.~.T+|+Z *+G 8 E.E.# @ % . & & * & ) ",
"4+* & x o v # # @ ].8 8 ].@ # # @ ].8 } | & & * & x o q+/.: _ U+ .} 3 & & & & & & =.'.W 2.s.).V+s ].8 8 ].t t # v o x & * * & ) ",
"_+4 | ~ [ / ^ 0 ] v v v @ _ e e _ R+W+8 H+| 4 4 | H+8 @ # 0 / @ v [ ~ | 4 & E.M.=.X+r.%+'.*+m.E./ @ @ @ @ / 0 t t o x & * * & a ",
"  | Y+( < 0 c ^.0 # # # # e Q Q e /.R+Z+8 } | | } 8 9 v # c 0 # # < [ } | & 9.L $+/+~.9.t t # ^.0 # # # # 0 ^.# v t . & & * & = ",
"a+~ n _ : # # 0 ^.^.0 # # d [ [ d e _ R+W+8 H+H+8 > > v ' c ^ # # : _ x+3.~.$+t.V+B.E.~ ( Q e 5 1 - - - - 1 5 e Q t ~ . x x . O ",
"b [ `+e _ v v ] 0 0 / @ v ( ~ ~ (  @e /.R+].8 8 ].> > @ ' 0 / v V W f+T+;+.@+@V M.t t [ d e _ n w = = = = w n _ e d [ % o o % y+",
".._ +.d ( 8 @@v # # @ Z+8 } | | } [ < e _ q+W+> > W+q+t e < [ o 2+#@$@t.%@v v k+v v v ] 0 # v 8 G . x x . G 8 v # 0 / @ v @ @ q+",
"&@: / ( ~ G 8 v # # v 8 G 7 4 4 7 ~ [  @e /.R+> > q+t t Q B.g+K.^+K p+_ : # # t # # # ^ c # v ].8 $ $ $ $ 8 ].v # c ^ # # R # /.",
"(.# _.8 G ~ ( _ e < [ } | & & & & 7 } ( < e _ v t _ e < [ =.(++@;+o+M @ R N N t t N N N N 0 ] @ v @ @ @ v v @ ] 0 c ^ # # # # *@",
"(.# 4.@@8 ( d e _ [ ~ | 4 & & & & 4 | ~ [ Q e ' t e Q [ ~ | 4 t q =@8+7+L.m.N t N N N N N ^.0 # # # # # # # # 0 ^.0 ] @ v @ @ q+",
"(.0 -@v v / 0 # v o x & * & & * & 4 | G 8 v # t 0 < ( } | & & & & | |.2.8+7+|.E.E.c 0 # # # # # # # # 0 ^.^.0 # # < [ o o 8 ].> ",
"(.^.p.' # ^ c # v o x & * & & & & | } 8 ].t t ^ / [ ~ | 4 & & & & 4 | ~ ` 9+o+;@D+|.] v v v @ @ @ v @ / 0 0 / @ v ( ~ x x H+8 > ",
";.# ^ # # # # : _ [ ~ 7 4 4 7 x S ~ [ v @ / 0 # v o x & * & & & & & & S % @ M '.>@k..+,@$ % % o % 8 9 @ # # v ].8 } | & & w.-+v ",
"..v 4.@ @ v v _ e < [ } | | } o % [ < # # 0 ^.# v o x & * & & & & * & x o v # 0 ] 3.;@;@d+H . x . G 8 v # # v 8 G | 4 * * G.F.' ",
"P 9 y+% o o % [ < : _ ( ~ ~ ( v @ _ e # # # # : _ [ ~ | 4 & & & & & & | } [ < e _ [ ,@.++@t.H.*+& 7 } ( d e _ [ ~ | 4 * * '@- N ",
"u 8 ~ . x x . ~ [ _ : d [ [ d # R e _ @ v v v _ e < [ } | & & & & & & 4 | ~ [ Q e d ( } 3 )@&+X 9+=.| ~ [ _ e < ( } 7 * & = - !@",
"b } | & & & & | } [ < e _ Q e # # < [ % o o % [ < : _ [ ~ | 4 & * & & * & x o v # ^ / [ ~ | 4 p+I.8+9+p+t t E.: t [ ~ x x w 1 ~@",
"! | 5+& * * & 4 | ~ [ _ : e _ @ v [ ~ . x x . ~ [ _ : < [ } | & & & & * & x o v # Y.^ < [ } | & & H O.r.;@{._ _ E.< [ $ o n 5 ~@",
"a+| 5+& & & & * & 3 } n 5 # @ Z+8 } | & & & & | } [ < e Q ( ~ . x . . x . ~ [ _ : # # : _ [ ~ x x ~ [ )@o+o+$+&+x+e _ v v {@0 !@",
"b } | & & & & & & 4 | 2 f # @ 8 G | 4 & * * & 4 | ~ [ _ : < [ % o % % o % [ d e _ v v _ e < [ o o [ < : _ |.!.$@k.q E.# # 0 c N ",
"..[ ]@| 4 4 7 . S x . 2 1 5 n } 7 & & & & & & * & w.-+] ^ 0 / @ v @ @ v v _ e d [ o o [ < e _ v v _ e !+3.=@^@k.p ( < 0 c N N ^.",
"&@< /@} | | } % % $ $ n 5 1 2 | 4 & & & & & & * & G.n.0 (@c 0 # # # # # # : _ [ ~ x x ~ [ _ : # # x+1.`.J.9+H.*+7 ~ [ ] ^ N N 0 ",
"(.# 4.8 G ~ ( @ @ v @ / 0 f w | 4 & * & & * & 4 | w 1 ^.^ # # # # # # 0 ^.R @ % S & & 7 } n u.V+K.>@s.k.I+E.& & & . % v # N N ' ",
"(.# _@].8 [ < # R # # ^ c 5 n } 7 & & & & & & 7 } n U.0 / v v @ @ v @ / 0 # v o x * * 4 g+>@:@!.C.u.~ | 4 & & * & x o v # N N ' ",
"<@# 4.W+-._ e # # # # # # e Q ( ~ . x . . x . ~ ( ] 0 ' v ].8 $ $ 8 ].v ' 5 n } 3 E.Z.>@>@c+W %@E.t 7 & & & & & & . % v # N N # ",
"(.' 4.q+/.e _ @ v @ @ v v _ e < [ % o % % o % [ < ^ c # v 8 G x x G 8 @ # 1 2 *+H.$+:@&.` = - 1 t t 4 & & & & & & . % v # N N ' ",
"[@[+}@_ e < [ % o o % 8 9 @ # 0 ] v v @ @ v v ] 0 N N ^ ] [ ~ x x ~ [ / ^ f w ,@p A.^+o+|.2 1 1 2 | 4 t t & & * & x o v # c ^ /.",
"|@T.1 e _ [ ~ . x x . G 8 v # c ^ # # # # # # 0 c N N c 0 d ( $ $ ( d 0 c 5 n % $ } *..+%.+@t+5 n } 7 & & & & & & . % @ # 0 ] q+",
"1@= 2@5 6 } 7 & & & & 7 } ( d 0 c c 0 # ' 0 ^.c 0 # # # # e Q v v _ e # # : _ @ @ [ ~ ~ {.P.%.$+c.[ ~ . x . . x . ~ [ _ : d [ y+",
"3@= 4@f 2 | 4 & * * & 4 | ~ [ ] ^ 0 / v v / 0 0 ] v v v @ _ e # # e _ v v Q e R # d [ [ d 0 %@>@5@o+Z B.o % % o % [ d e _ ( ~ O ",
"6@= 4@1 2 | 4 & & & & 4 | ~ [ _ e d [ 8 ].@ # 5 n % $ $ % n 5 c 0 d ( o o -+F.- - [+}+] 0 N t c l.2+o+$+O.9.v v v _ e < [ } | = ",
"7@= 4@5 6 } 7 & & & & 7 } ( d e Q ( ~ G 8 @ # 1 w . x x . w f ^ / [ ~ . x w.v.'@= T.8@0 (@N N 0 ] _ t 1.9@C.=.# # : _ [ ~ 3 4 a ",
"0@= 4@R @ % S & & & & S % @ R # v $ x x $ @ # - = & * * & = - # @ o x & * & * * * '@- N N N N ' v v a@Q.H N N N N # v o x * * b@"};
