/* XPM */
static char * test6_xpm[] = {
"64 64 275 2",
"  	c #54606C",
". 	c #495157",
"+ 	c #404147",
"@ 	c #38353A",
"# 	c #302F31",
"$ 	c #414349",
"% 	c #404248",
"& 	c #4C585D",
"* 	c #4C585E",
"= 	c #444E53",
"- 	c #353A3D",
"; 	c #485057",
"> 	c #3D393F",
", 	c #3D383E",
"' 	c #303031",
") 	c #434C52",
"! 	c #535B67",
"~ 	c #444A50",
"{ 	c #3D3D42",
"] 	c #353337",
"^ 	c #2F2E2F",
"/ 	c #353336",
"( 	c #3D3E43",
"_ 	c #363437",
": 	c #323033",
"< 	c #353537",
"[ 	c #3D3D43",
"} 	c #44494E",
"| 	c #495258",
"1 	c #35373A",
"2 	c #41494E",
"3 	c #495359",
"4 	c #4B565D",
"5 	c #313235",
"6 	c #3B3D41",
"7 	c #495358",
"8 	c #404046",
"9 	c #3E3A41",
"0 	c #2F2F30",
"a 	c #434D52",
"b 	c #4E535E",
"c 	c #2C2C2D",
"d 	c #353538",
"e 	c #323134",
"f 	c #34373A",
"g 	c #41484D",
"h 	c #FFFF9B",
"i 	c #FFFFA8",
"j 	c #FFFFB1",
"k 	c #FFFFC3",
"l 	c #FFFFB7",
"m 	c #FFFFA1",
"n 	c #414249",
"o 	c #4B565C",
"p 	c #454B51",
"q 	c #6EFFFF",
"r 	c #81FFFF",
"s 	c #73FFFF",
"t 	c #5BFFFF",
"u 	c #58FFFF",
"v 	c #4C4D59",
"w 	c #39353A",
"x 	c #3C3D42",
"y 	c #42494E",
"z 	c #495158",
"A 	c #FFFF92",
"B 	c #FFFF95",
"C 	c #FFFF9F",
"D 	c #FFFFBD",
"E 	c #FFFFCC",
"F 	c #FFFFB4",
"G 	c #FFFFA0",
"H 	c #6BFFFF",
"I 	c #8BFFFF",
"J 	c #9AFFFF",
"K 	c #ABFFFF",
"L 	c #93FFFF",
"M 	c #67FFFF",
"N 	c #2B2B2B",
"O 	c #464B52",
"P 	c #43494E",
"Q 	c #4B4D58",
"R 	c #363538",
"S 	c #302F30",
"T 	c #495057",
"U 	c #FFFF93",
"V 	c #FFFFA3",
"W 	c #FFFFBA",
"X 	c #FFFFB0",
"Y 	c #FFFFA6",
"Z 	c #FFFF91",
"` 	c #64FFFF",
" .	c #87FFFF",
"..	c #A4FFFF",
"+.	c #B8FFFF",
"@.	c #88FFFF",
"#.	c #65FFFF",
"$.	c #3F3F45",
"%.	c #494C57",
"&.	c #313032",
"*.	c #FFFFA4",
"=.	c #FFFFC5",
"-.	c #FFFFCF",
";.	c #FFFFC2",
">.	c #7EFFFF",
",.	c #A7FFFF",
"'.	c #80FFFF",
").	c #66FFFF",
"!.	c #3A373B",
"~.	c #444953",
"{.	c #FFFF97",
"].	c #FFFFB3",
"^.	c #FFFFCD",
"/.	c #FFFFC1",
"(.	c #FFFFAC",
"_.	c #63FFFF",
":.	c #85FFFF",
"<.	c #C1FFFF",
"[.	c #A0FFFF",
"}.	c #6FFFFF",
"|.	c #3E3B41",
"1.	c #2C2D2D",
"2.	c #343135",
"3.	c #414650",
"4.	c #383539",
"5.	c #FFFFCA",
"6.	c #59FFFF",
"7.	c #6DFFFF",
"8.	c #94FFFF",
"9.	c #B6FFFF",
"0.	c #5AFFFF",
"a.	c #373539",
"b.	c #FFFFAD",
"c.	c #FFFFBC",
"d.	c #FFFFA2",
"e.	c #FFFF96",
"f.	c #60FFFF",
"g.	c #AAFFFF",
"h.	c #B4FFFF",
"i.	c #7FFFFF",
"j.	c #353235",
"k.	c #FFFF99",
"l.	c #FFFFB6",
"m.	c #FFFFBE",
"n.	c #FFFF9E",
"o.	c #FBFF99",
"p.	c #A9FFFF",
"q.	c #98FFFF",
"r.	c #68FFFF",
"s.	c #393D40",
"t.	c #3E4046",
"u.	c #2E2D2E",
"v.	c #FFFF9A",
"w.	c #FFFFA5",
"x.	c #FFFFBF",
"y.	c #FFFF9C",
"z.	c #454E54",
"A.	c #475056",
"B.	c #FFFFC7",
"C.	c #FFFFD7",
"D.	c #3E4045",
"E.	c #FFFFCE",
"F.	c #393C40",
"G.	c #464E54",
"H.	c #FFFF94",
"I.	c #FFFFC4",
"J.	c #313335",
"K.	c #FFFFAF",
"L.	c #FFFFC0",
"M.	c #FFFFD0",
"N.	c #35383A",
"O.	c #40474C",
"P.	c #FFFFD5",
"Q.	c #40464C",
"R.	c #FFFFA7",
"S.	c #FFFFC9",
"T.	c #FFFF9D",
"U.	c #323335",
"V.	c #3A3A3F",
"W.	c #494B57",
"X.	c #FFFFB8",
"Y.	c #353236",
"Z.	c #333134",
"`.	c #474E58",
" +	c #323638",
".+	c #2C2F2F",
"++	c #FFFFCB",
"@+	c #2B2C2C",
"#+	c #505A65",
"$+	c #3F464B",
"%+	c #323537",
"&+	c #FFFFD8",
"*+	c #54616C",
"=+	c #465157",
"-+	c #3B4346",
";+	c #36393C",
">+	c #37373A",
",+	c #FFFFAE",
"'+	c #FFFFC6",
")+	c #313134",
"!+	c #55616C",
"~+	c #4A555C",
"{+	c #465056",
"]+	c #FFFFB9",
"^+	c #535C67",
"/+	c #485056",
"(+	c #FFFFAA",
"_+	c #404247",
":+	c #FFFFB5",
"<+	c #FFFF98",
"[+	c #444A55",
"}+	c #FFFFBB",
"|+	c #35454E",
"1+	c #302E2F",
"2+	c #3A363B",
"3+	c #2C444B",
"4+	c #302E30",
"5+	c #FFFFA9",
"6+	c #403F46",
"7+	c #43464C",
"8+	c #464C53",
"9+	c #485157",
"0+	c #FFFFB2",
"a+	c #3F3F44",
"b+	c #334850",
"c+	c #393539",
"d+	c #4B555C",
"e+	c #464D53",
"f+	c #3F505A",
"g+	c #414147",
"h+	c #403F45",
"i+	c #454B52",
"j+	c #3C383D",
"k+	c #4E5A66",
"l+	c #454A51",
"m+	c #3A363A",
"n+	c #373A3D",
"o+	c #3C383E",
"p+	c #43484E",
"q+	c #3D3A40",
"r+	c #FFFFD1",
"s+	c #FFFFD4",
"t+	c #353436",
"u+	c #363537",
"v+	c #3E3B42",
"w+	c #FFFFAB",
"x+	c #444852",
"y+	c #FFFFC8",
"z+	c #FFFFD6",
"A+	c #343235",
"B+	c #353135",
"C+	c #444E54",
"D+	c #292929",
"E+	c #292928",
"F+	c #333135",
"G+	c #FFFFD3",
"H+	c #353437",
"I+	c #44494F",
"J+	c #3C3D41",
"K+	c #2B2B2C",
"L+	c #373538",
"M+	c #313135",
"N+	c #41464F",
"O+	c #4B5058",
"P+	c #37353A",
"Q+	c #5A6166",
"R+	c #5A666B",
"S+	c #35393B",
"T+	c #4C6168",
"U+	c #353A3C",
"V+	c #485D67",
"W+	c #505F6A",
"X+	c #FFFF90",
"Y+	c #535D68",
"Z+	c #4C5459",
"  . + @ # # @ $ . . $ @ # # @ % . & & * & = - - = * * = - # @ % . & & & & & & & & * & = - # @ $ . ; $ > , @ ' # @ % . & & * & ) ",
"! ~ { ] ^ ^ / ( ~ ~ ( _ : < [ } | & & * & = - 1 2 3 4 = - 5 6 } 7 & & & & & & * & 4 | 2 1 # @ $ . | } 8 9 @ # 0 ] [ ~ | 4 * * a ",
"b ( < 0 c c 0 d ( ( d e _ [ ~ | 4 & & * & = - 5 6 } 7 = - f g | 4 & & & & & h i j k l m 5 # @ n . o | p q r s t u d ( } 7 * & = ",
"v w 0 c ^ # # e _ / 0 5 x } 7 & & & & 4 | y 1 # @ $ z = - 1 2 | 4 * A A B C D E F G B w # # w n z H I J K L M N N # w 8 O z z P ",
"Q @ 0 0 ] w w R e ^ c f y | 4 & & & & 7 } x 5 S @ $ T = - 5 6 A A A U V W k X Y Z 8 9 @ # u u `  ...+.@.#.w # N N # @ 9 8 n n $.",
"%._ &.d [ n n ( d ^ c 1 y | 4 * * 4 | ~ [ ] 0 0 ] ( ~ y 1 ^ / Z ~ *.=.-.;.G @ @ @ w u u 0 q >.,.,.'.).O 8 w # N N 0 ] w w w w !.",
"~.e / ( ~ z z ~ [ / 0 5 x } 7 & & | } [ < 0 c c 0 d ( x 5 A A {.].^./.(.B # S # # # u _.:.+.<.[.}.n n 8 |.w # N N 1.0 # # S # 2.",
"3.# 4.n z * * z n w # 0 ] ( ~ z z O 8 w # N N N N 0 ] _ e A C k 5.Y w ] 0 1.0 # u 6.7.8.9.J :.0.R w w @ @ _ : # # 0 c N N N N ' ",
"3.# a.n z * * z n w # c ^ < [ n n 8 9 @ # N N N N c 0 A b.c.].V d.e.# ^ c 0 ] @ f.s g.h.i.w @ _ e # # # # e R w w ] 0 N N N N # ",
"3.^ j.( ~ z z ~ [ ] ^ N N 0 ] @ w A A _ e # # 0 1.k.l.m.k n.n [ o.# S ^ c # w >.p.q.r.n f.8 9 @ # c 0 5 1 s.t.$ $ ( d 0 c N N ' ",
"3.c u.d ( n n ( d 0 c N N c 0 # # # # e R w w v.w.x.-.].y.A A A [ w @ / 0 # w 8 O . z z . O 8 w # ^ / 6 y z.A.z . ~ ( ] 0 N N ' ",
"~.0 N 0 ] w w _ e # # # # # # 0 1.c 0 < [ 8 |.*.b.B.C.5.V U Z | } n % [ d : _ D.A.& & & & 7 } x 5 # w 8 O . z z . O 8 w # c ^ e ",
"%.] u.c ^ # # e _ @ w w w w @ / 0 ^ / ( ~ O 8 w # h W 5.E.=.w.k.A A A ~ ( _ e F.G.& * * & 4 | 2 1 ' @ |.8 $ $ $ $ 8 |.w ' 0 ] R ",
"v w S 1.0 # # < [ % n n % 8 9 @ # 5 x } 7 7 } ( < A Z H.(./.-.I.i & y.. % @ # - = & * * & 4 | 2 1 0 / w w w @ @ @ w @ / 0 J.x 6 ",
"v w S 0 / @ w [ ~ . z z . O 8 @ # 1 y 7 4 4 | ~ Z _ e < [ } m K.L.M./.{.n @ # - = & * & & 7 } x 5 1.0 # # # # # # # # ^ 1.N.y O.",
"v w S # @ 9 8 } | & & & & 7 } 6 A A 2 7 Z A A Z 8 w # 0 ] [ ~ | X P.^.F C @ # f 2 . z z . O 8 w # N N N N 1.0 # # # # ^ c N.y Q.",
"v @ S # w 8 O | 4 & * * & 4 A 2 1 5 x } 7 | } 8 |.w # A Z R.X m.S./.T.. % @ # 5 x % $ n % 8 9 @ # N N N N 0 ] @ w w @ / 0 U.x V.",
"W./ u.# @ % . & & & & & & * & z.F.e _ ( ~ ~ ( w @ A Z N m =.P.X.T.z z ~ [ _ : : _ @ @ @ w w @ R e 0 c N N # w |.8 n n [ < e _ Y.",
"~.0 N # w n z & * & & & & * & A.D._ : d [ [ d A # 0 i x.x.b.i T.[ n n [ d e _ R e # # # # # # Z.R ] 0 N N # w 8 O z z ~ ( R : &.",
"`. +.+S w n z & * & & & & * & z n @ # 0 / A A B X k ++b.{.N N A ] w w _ e d ( t.s.1 5 0 c c 0 d [ [ d ^ @+# w n . & & 7 } x 5 ' ",
"#+$+%+# @ % . & & & & & & & & . n w # c ^ h j =.C.&+X.v.N N N A 0 # # : _ [ ~ A.G.y 6 / ^ ^ / ( ~ ~ ( ] 0 # @ n z * * 4 | 2 f ' ",
"*+=+-+;+>+( ~ . z . . . . z . O 8 w # *.,+k c.b.(.,+X.'+X y.c Z N N N # w 8 O z z O 8 @ # )+6 } 3 3 } ( < : _ D.A.* * 4 | y 1 ' ",
"!+~+{+O.;+d [ % n % % % % n % 8 |.n.].'+l V B A z ~ ( w.]+k W y.N N N A w |.8 $ $ 8 |.@ ' 1 y 7 4 4 7 ~ [ _ e F.z.& * 7 } x 5 ' ",
"^+z /+y 1 0 / w w @ @ @ @ @ w m X.I.m.(.U } 3 * A | } n A *.5.M.l (+R.A ] @ w @ @ w @ _ e s.G.4 3 z T O 8 @ # 1 y z z ~ [ / ^ # ",
"b $ _+x 5 c ^ # # # # # # m L.;.:+C R [ ~ | 4 * * 4 | z T ~ R.L.^.P.=.d.<+# # # # # # : R t.A.7 } n % 8 |.@ # 5 6 n $ [ < ^ c ' ",
"[+w 4.] 0 N A A 0 # {.,+}+'+,+h 0 < ( } 7 ~+| | A & * * & . % w # w.(./.x.R.# # # # # : _ ( ~ ~ ( @ @ w @ / 0 0 ] w w _ e S # 2.",
"|+# 1+0 c N N 0 ] B ]+L.(+k.0 ^ / [ ~ 3 4 | } } A & * * & z n w # 0 ] {.(.;.m.X e.w @ _ e d [ [ d # S # # 0 1.c 0 # # e _ @ w 2+",
"3+# 4+0 c N N h 5+w.*.8 |.@ # # @ 6+p | o | } 7+8+; 9+3 4 z $ @ S S @ A Z % w.k L.0+T.[ d e _ R e # # # # ' ' 0 c @+0 < [ n n a+",
"b+w c+] 0 N y.i d.8 O O 8 w # ' w |.8 } | d+| e+7+% % } | . $ @ # # w 8 O A A H.(+E.5.K.Y _ : e _ @ w @ @ w w ] 0 ^ / [ ~ z z P ",
"f+n g+( y.y.c # w $ z z $ @ # # @ |.8 } | & & | } h+9 8 i+~ ( >+;+F.D.} | & & V S.&+=.0+d.@ # # @ |.8 8 |.j+2+_ e < [ } | * & = ",
"k+z /+~ ( ] 0 # @ $ z z $ @ # # @ 6+p | o & & 4 | l+$.|.h+[ d ;+O.z.Z | Z G b.=.I.:+T.z n A # # w 8 O O 8 !.2.e R [ ~ | 4 * * a ",
"  * & z n w # # w 8 O O 8 w # # w 8 i+| 4 & & * & z n j+m+_ e n+P B d.G b.B.-.].H.& & . % A # # w 8 O O 8 w # # @ % . & & * & ) ",
"!+* & z n w # # @ |.8 8 |.@ # # @ |.8 } | & & * & z n 2+2.: A A A G =.++l.i Y A & & & . % @ # A @ |.8 8 |.@ # # w n z & * * & ) ",
"*+4 | ~ [ / ^ 0 ] w w w @ _ e e _ m+o+8 i+| 4 4 | i+8 @ # 0 H.*.W E L.y.A Z * & & * & z n w # 0 A A @ @ @ / 0 # w n z & * * & a ",
"  | p+( < 0 c 1.0 # # # # e R R e 2.m+q+8 } | | } 8 9 w C ,+]+B.].V {.} | & & & & & & . % w # 1.0 A # # # 0 1.# w % . & & * & = ",
"^+~ x _ : # # 0 1.1.0 # # d [ [ d e _ m+o+8 i+i+y.Y R.m.r+s+m.y.Z Z A [ ~ . z . . z . ~ ( R e 5 1 - - - - 1 5 e R ( ~ . z z . P ",
"b [ t+e _ w w ] 0 0 / @ w ( ~ ~ ( u+A A m+|.8 8 *.++C.I.(+C n.v.w _ e < [ % n % % n % [ d e _ x y = = = = y x _ e d [ % n n % a+",
"%._ &.d ( 8 v+w # # @ q+8 } | | } [ A A _ 2+k.w+5.'+(.h e < [ A n [ d e _ w w w w w w ] 0 # w 8 O . z z . O 8 w # 0 / @ w @ @ 2+",
"x+: / ( ~ O 8 w # # w 8 O 7 4 4 Z ~ [ u+e h j y+z+}+U e R ( ~ A z ~ [ _ : # # # # # # ^ c # w |.8 $ $ $ $ 8 |.w # c ^ # # S # 2.",
"3.# 4.8 O ~ ( _ e < [ } | & & & A 7 } ( < e _ {.0+x.L.5+e.} | Z & T % @ S N N N N N N N N 0 ] @ w @ @ @ w w @ ] 0 c ^ # # # # A+",
"3.# a.v+8 ( d e _ [ ~ | 4 & & A A 4 | ~ [ R e ' ' {.(+;.=.5+<+Z * z n w # N N N N N N N N 1.0 # # # # # # # # 0 1.0 ] @ w @ @ 2+",
"3.0 B+w w / 0 # w n z & * & A * & 4 | O 8 w # c 0 < ( } *.k /.0+X h } ( < 0 c N N c 0 # # # # # # # # 0 1.1.0 # # < [ n n 8 |.> ",
"3.1.u.' # ^ c # w n z & * & & & & | } 8 |.w # ^ / [ ~ | 4 & V D ++j Y ~ [ ] 0 N N 0 ] w w w @ @ @ w @ / 0 0 / @ w ( ~ z z i+8 > ",
"~.# ^ # # # # : _ [ ~ 7 4 4 7 z T ~ [ w @ / 0 # w n z & * & & e.m l.I.F C @ S c 0 d ( $ $ % % n % 8 9 @ # # w |.8 } | & & A.D.w ",
"%.w a.@ @ w w _ e < [ } | | } n % [ < # # 0 1.# w n z & * & & & & * y.X.I.]+m 0 ] ( ~ . z . . z . O 8 w # # w 8 O | 4 * * G.F.' ",
"Q 9 a+% n n % [ < : _ ( ~ ~ ( w @ _ e # # # # : _ [ ~ | 4 & & & & & & | v.F I.W (+U ~ | 4 & & & & 7 } ( d e _ [ ~ | 4 * * C+- N ",
"v 8 ~ . z z . ~ [ _ : d [ [ d # S e _ @ w w w _ e < [ } | & & & & & & 4 | ~ v.(.=.L.i H.A & A * & 4 | ~ [ _ e < ( } 7 * & = - D+",
"b } | & & & & | } [ < e _ R e # # < [ % n n % [ < : _ [ ~ | 4 & * & & * & z n w <+5+m.m.X e.4 * A 4 | ~ [ _ : : _ [ ~ z z y 1 E+",
"! | ~+& * * & 4 | ~ [ _ : e _ @ w [ ~ . z z . ~ [ _ : < [ } | & & & & * & z n w # @+H.0+5.L.0+j k.7 } ( d F+_ _ e < [ $ n x 5 E+",
"^+| ~+& & & & * & 3 } x 5 # @ q+8 } | & & & & | } [ < e R ( ~ . z . . z . ~ [ _ : # # : _ Y r+G+0+Y [ _ : d [ [ d e _ w w H+0 D+",
"b } | & & & & & & 4 | 2 f # @ 8 O | 4 & * * & 4 | ~ [ _ : < [ % n % % n % [ d e _ w w _ h w+E I.i T.< : _ ( ~ ~ ( _ : # # 0 c N ",
"%.[ I+| 4 4 7 . T z . 2 1 5 x } 7 & & & & & & * & A.D.] ^ 0 / @ w @ @ w w _ e d [ e.b.'+E x.:+y.w _ e < [ } | | } ( < 0 c N N 1.",
"x+< J+} | | } % % $ $ x 5 1 2 | 4 & & & & & & * & G.s.0 K+c 0 # # # # # # : _ C (+k E.S.0+U : # # : _ [ ~ 7 4 4 7 ~ [ ] ^ N N 0 ",
"3.# a.8 O ~ ( @ @ w @ / 0 f y | 4 & * & & * & 4 | y 1 1.^ # # # # # # 0 G }+++^.]+i n.7 } x 5 c ^ < [ } | & & & & . % w # N N ' ",
"3.# L+|.8 [ < # S # # ^ c 5 x } 7 & & & & & & 7 } x M+0 / w w @ @ w Y X.I.^.]+(.A * * 4 | y f ^ / [ ~ | 4 & & * & z n w # N N ' ",
"N+# a.o+!._ e # # # # # # e R ( ~ . z . . z . ~ ( ] 0 ' w |.8 $ T.0+^.;.V h x } A A & * & = - 5 6 } 7 & & & & & & . % w # N N # ",
"3.' a.2+2.e _ @ w @ @ w w _ e < [ % n % % n % [ < ^ c # w 8 O y.,+k s+}+B 1 2 | 4 & & A & = - 1 2 | 4 & & & & & & . % w # N N ' ",
"O+;+P+_ e < [ % n n % 8 9 @ # 0 ] w w @ @ w w ] 0 N N ^ ] [ ~ z z B ,+}+I.,+k.T z 7 4 4 7 2 1 1 2 | 4 & * & & * & z n w # c ^ 2.",
"Q+O.1 e _ [ ~ . z z . O 8 w # c ^ # # # # # # 0 c N N c 0 d ( $ $ ( d 0 w.c./.K.y.} | 7 } 6 5 5 x } 7 & & & & & & . % @ # 0 ] 2+",
"R+= S+5 6 } 7 & & & & 7 } ( d 0 c c 0 # ' 0 1.c 0 # # # # e R w w _ e # # A ,+^.S.l G ~ ( ] 0 0 / [ ~ . z . . z . ~ [ _ : d [ a+",
"T+= U+f 2 | 4 & * * & 4 | ~ [ ] ^ 0 / w w / 0 0 ] w w w @ _ e # # e _ w w R A V w.l.=.:+w+A c c 0 < [ % n % % n % [ d e _ ( ~ P ",
"V+= U+1 2 | 4 & & & & 4 | ~ [ _ e d [ 8 |.@ # 5 x % $ $ % x 5 c 0 d ( n n D.F.- - ;+v.m.^.X <+c 0 e L+w w w w w w _ e < [ } | = ",
"W+= U+5 6 } 7 & & & & 7 } ( d e R ( ~ O 8 @ # 1 y . z z . y f ^ / [ ~ . z A.z.C+= O.X+X Y N N 0 ] _ e # # # # # # : _ [ ~ 3 4 a ",
"Y+= U+S @ % T & & & & T % @ S # w $ z z $ @ # - = & * * & = - # @ n z & * & * * * C+A N N N N ' w w ' N N N N N N # w n z * * Z+"};
