/* XPM */
static char * test3_xpm[] = {
"64 64 399 2",
"  	c #54606C",
". 	c #495157",
"+ 	c #404147",
"@ 	c #38353A",
"# 	c #302F31",
"$ 	c #414349",
"% 	c #404248",
"& 	c #4C585D",
"* 	c #4C585E",
"= 	c #444E53",
"- 	c #353A3D",
"; 	c #485057",
"> 	c #3D393F",
", 	c #3D383E",
"' 	c #303031",
") 	c #434C52",
"! 	c #535B67",
"~ 	c #444A50",
"{ 	c #3D3D42",
"] 	c #353337",
"^ 	c #2F2E2F",
"/ 	c #353336",
"( 	c #3D3E43",
"_ 	c #363437",
": 	c #323033",
"< 	c #353537",
"[ 	c #3D3D43",
"} 	c #44494E",
"| 	c #495258",
"1 	c #35373A",
"2 	c #41494E",
"3 	c #495359",
"4 	c #4B565D",
"5 	c #313235",
"6 	c #3B3D41",
"7 	c #495358",
"8 	c #404046",
"9 	c #3E3A41",
"0 	c #2F2F30",
"a 	c #434D52",
"b 	c #4E535E",
"c 	c #2C2C2D",
"d 	c #353538",
"e 	c #323134",
"f 	c #34373A",
"g 	c #41484D",
"h 	c #FFFFA2",
"i 	c #FFFFAC",
"j 	c #FFFFBD",
"k 	c #FFFFC2",
"l 	c #FFFFA8",
"m 	c #3C3D42",
"n 	c #414249",
"o 	c #4B565C",
"p 	c #454B51",
"q 	c #68FFFF",
"r 	c #81FFFF",
"s 	c #7CFFFF",
"t 	c #60FFFF",
"u 	c #58FFFF",
"v 	c #4C4D59",
"w 	c #39353A",
"x 	c #42494E",
"y 	c #495158",
"z 	c #FFFF92",
"A 	c #FFFF9C",
"B 	c #FFFFAB",
"C 	c #FFFFCA",
"D 	c #FFFFC1",
"E 	c #FFFFA6",
"F 	c #FFFF99",
"G 	c #62FFFF",
"H 	c #82FFFF",
"I 	c #98FFFF",
"J 	c #A9FFFF",
"K 	c #A0FFFF",
"L 	c #6AFFFF",
"M 	c #2B2B2B",
"N 	c #464B52",
"O 	c #43494E",
"P 	c #4B4D58",
"Q 	c #363538",
"R 	c #302F30",
"S 	c #495057",
"T 	c #FFFFAE",
"U 	c #FFFFC5",
"V 	c #FFFFBA",
"W 	c #59FFFF",
"X 	c #84FFFF",
"Y 	c #97FFFF",
"Z 	c #B6FFFF",
"` 	c #6DFFFF",
" .	c #3F3F45",
"..	c #494C57",
"+.	c #313032",
"@.	c #FFFF91",
"#.	c #FFFF9D",
"$.	c #FFFFB4",
"%.	c #FFFFCD",
"&.	c #FFFFCC",
"*.	c #FFFFB0",
"=.	c #64FFFF",
"-.	c #7BFFFF",
";.	c #AFFFFF",
">.	c #8CFFFF",
",.	c #3A373B",
"'.	c #444953",
").	c #FFFF93",
"!.	c #FFFF9F",
"~.	c #FFFFC3",
"{.	c #FFFFB7",
"].	c #5AFFFF",
"^.	c #77FFFF",
"/.	c #A7FFFF",
"(.	c #C4FFFF",
"_.	c #ACFFFF",
":.	c #7AFFFF",
"<.	c #3E3B41",
"[.	c #2C2D2D",
"}.	c #343135",
"|.	c #414650",
"1.	c #383539",
"2.	c #FFFF94",
"3.	c #FFFFB1",
"4.	c #FFFFCB",
"5.	c #FFFFBF",
"6.	c #FFFF98",
"7.	c #85FFFF",
"8.	c #A8FFFF",
"9.	c #87FFFF",
"0.	c #65FFFF",
"a.	c #373539",
"b.	c #FFFFB8",
"c.	c #FFFFBB",
"d.	c #FFFFA9",
"e.	c #FFFF9B",
"f.	c #FFFF9E",
"g.	c #63FFFF",
"h.	c #6FFFFF",
"i.	c #B4FFFF",
"j.	c #9BFFFF",
"k.	c #353235",
"l.	c #FFFFA7",
"m.	c #FFFFBE",
"n.	c #F2FFA7",
"o.	c #F8FF9D",
"p.	c #BFFFD5",
"q.	c #A1FFFF",
"r.	c #93FFFF",
"s.	c #74FFFF",
"t.	c #393D40",
"u.	c #3E4046",
"v.	c #2E2D2E",
"w.	c #FFFFA5",
"x.	c #FEFFA5",
"y.	c #F0FFA8",
"z.	c #E7FFB3",
"A.	c #FBFF99",
"B.	c #B7FFFF",
"C.	c #ABFFFF",
"D.	c #8EFFFF",
"E.	c #55FFFF",
"F.	c #454E54",
"G.	c #475056",
"H.	c #FFFFA3",
"I.	c #FFFFAF",
"J.	c #FFFFD8",
"K.	c #FDFF9F",
"L.	c #FEFF95",
"M.	c #5BFFFF",
"N.	c #A2FFFF",
"O.	c #CEFFFF",
"P.	c #B9FFFF",
"Q.	c #75FFFF",
"R.	c #57FFFF",
"S.	c #FFFFC7",
"T.	c #FFFFCF",
"U.	c #CDFFCB",
"V.	c #79FFFF",
"W.	c #AAFFFF",
"X.	c #D6FFFF",
"Y.	c #6BFFFF",
"Z.	c #FFFF97",
"`.	c #FFFFB2",
" +	c #FFFFC4",
".+	c #FFFFBC",
"++	c #69FFFF",
"@+	c #8AFFFF",
"#+	c #C3FFFF",
"$+	c #B3FFFF",
"%+	c #92FFFF",
"&+	c #313335",
"*+	c #FFFFC9",
"=+	c #FFFFD1",
"-+	c #FAFF9D",
";+	c #C3FFD2",
">+	c #5DFFFF",
",+	c #80FFFF",
"'+	c #99FFFF",
")+	c #86FFFF",
"!+	c #72FFFF",
"~+	c #35383A",
"{+	c #40474C",
"]+	c #81FFF4",
"^+	c #A8FFE3",
"/+	c #F9FFA1",
"(+	c #FFFFD5",
"_+	c #F7FFB6",
":+	c #F0FFAA",
"<+	c #D2FFFF",
"[+	c #78FFFF",
"}+	c #5CFFFF",
"|+	c #40464C",
"1+	c #EDFFAB",
"2+	c #F4FFA7",
"3+	c #FCFFB4",
"4+	c #DCFFBF",
"5+	c #6EFFFF",
"6+	c #B0FFFF",
"7+	c #C0FFFF",
"8+	c #91FFFF",
"9+	c #323335",
"0+	c #3A3A3F",
"a+	c #494B57",
"b+	c #393C40",
"c+	c #FEFF93",
"d+	c #E0FFB9",
"e+	c #9FFFFF",
"f+	c #353236",
"g+	c #3E4045",
"h+	c #FFFFB5",
"i+	c #FFFFA1",
"j+	c #9EFFFF",
"k+	c #333134",
"l+	c #474E58",
"m+	c #323638",
"n+	c #2C2F2F",
"o+	c #FFFFCE",
"p+	c #7FFFFF",
"q+	c #A3FFFF",
"r+	c #2B2C2C",
"s+	c #505A65",
"t+	c #3F464B",
"u+	c #323537",
"v+	c #FFFFAD",
"w+	c #FFFFA0",
"x+	c #BDFFFF",
"y+	c #C8FFFF",
"z+	c #61FFFF",
"A+	c #464E54",
"B+	c #54616C",
"C+	c #465157",
"D+	c #3B4346",
"E+	c #36393C",
"F+	c #37373A",
"G+	c #FFFF95",
"H+	c #FFFFC6",
"I+	c #F9FF9C",
"J+	c #C4FFD3",
"K+	c #C8FFDB",
"L+	c #BEFFEF",
"M+	c #BEFFFF",
"N+	c #BCFFFF",
"O+	c #313134",
"P+	c #55616C",
"Q+	c #4A555C",
"R+	c #465056",
"S+	c #FFFFAA",
"T+	c #FFFFB6",
"U+	c #E3FFC6",
"V+	c #BEFFED",
"W+	c #D2FFCA",
"X+	c #BEFFD6",
"Y+	c #66FFFF",
"Z+	c #AEFFFF",
"`+	c #535C67",
" @	c #485056",
".@	c #D9FFC0",
"+@	c #DFFFC1",
"@@	c #FFFFD2",
"#@	c #FEFFBA",
"$@	c #FCFFB3",
"%@	c #FEFFA0",
"&@	c #BAFFD8",
"*@	c #A4FFFF",
"=@	c #404247",
"-@	c #FFFFB9",
";@	c #FFFF96",
">@	c #94FFFF",
",@	c #B4FFFA",
"'@	c #CFFFD6",
")@	c #F8FFB1",
"!@	c #FFFFD0",
"~@	c #FDFFAD",
"{@	c #EEFFAB",
"]@	c #5EFFFF",
"^@	c #CDFFFF",
"/@	c #B8FFFF",
"(@	c #76FFFF",
"_@	c #444A55",
":@	c #E5FFB5",
"<@	c #DDFFC0",
"[@	c #9AFFFF",
"}@	c #CDFFCC",
"|@	c #E2FFBD",
"1@	c #FEFFAF",
"2@	c #B5FFFF",
"3@	c #A5FFFF",
"4@	c #35454E",
"5@	c #302E2F",
"6@	c #F2FFB0",
"7@	c #B6FFDB",
"8@	c #9FFFE8",
"9@	c #B8FFF1",
"0@	c #F0FFB0",
"a@	c #AAFFF2",
"b@	c #F7FFA1",
"c@	c #FEFFB2",
"d@	c #FFFFC0",
"e@	c #8BFFFF",
"f@	c #67FFFF",
"g@	c #3A363B",
"h@	c #2C444B",
"i@	c #302E30",
"j@	c #FFFFA4",
"k@	c #403F46",
"l@	c #83FFFF",
"m@	c #66FFFE",
"n@	c #485157",
"o@	c #FBFF98",
"p@	c #B3FFDD",
"q@	c #E9FFB3",
"r@	c #96FFFF",
"s@	c #ADFFFF",
"t@	c #6CFFFF",
"u@	c #3F3F44",
"v@	c #334850",
"w@	c #393539",
"x@	c #88FFFF",
"y@	c #464D53",
"z@	c #43464C",
"A@	c #FEFF92",
"B@	c #3F505A",
"C@	c #414147",
"D@	c #FFFF9A",
"E@	c #403F45",
"F@	c #454B52",
"G@	c #FFFFD9",
"H@	c #D8FFFF",
"I@	c #4E5A66",
"J@	c #454A51",
"K@	c #FEFF94",
"L@	c #D4FFFF",
"M@	c #3C383D",
"N@	c #3A363A",
"O@	c #373A3D",
"P@	c #EAFFAF",
"Q@	c #B9FFD8",
"R@	c #85FFFC",
"S@	c #D4FFD3",
"T@	c #E2FFC4",
"U@	c #B9FFF4",
"V@	c #3C383E",
"W@	c #43484E",
"X@	c #3D3A40",
"Y@	c #70FFFF",
"Z@	c #353436",
"`@	c #363537",
" #	c #A6FFFF",
".#	c #3E3B42",
"+#	c #444852",
"@#	c #343235",
"##	c #C7FFFF",
"$#	c #BBFFFF",
"%#	c #353135",
"&#	c #9CFFFF",
"*#	c #444E54",
"=#	c #292929",
"-#	c #292928",
";#	c #333135",
">#	c #353437",
",#	c #44494F",
"'#	c #3C3D41",
")#	c #2B2B2C",
"!#	c #373538",
"~#	c #313135",
"{#	c #41464F",
"]#	c #4B5058",
"^#	c #37353A",
"/#	c #5A6166",
"(#	c #5A666B",
"_#	c #35393B",
":#	c #4C6168",
"<#	c #353A3C",
"[#	c #485D67",
"}#	c #505F6A",
"|#	c #36393B",
"1#	c #535D68",
"2#	c #4C5459",
"  . + @ # # @ $ . . $ @ # # @ % . & & * & = - - = * * = - # @ % . & & & & & & & & * & = - # @ $ . ; $ > , @ ' # @ % . & & * & ) ",
"! ~ { ] ^ ^ / ( ~ ~ ( _ : < [ } | & & * & = - 1 2 3 4 = - 5 6 } 7 & & & & & & * & 4 | 2 1 # @ $ . | } 8 9 @ # 0 ] [ ~ | 4 * * a ",
"b ( < 0 c c 0 d ( ( d e _ [ ~ | 4 & & * & = - 5 6 } 7 = - f g | 4 & & & & & h i j k l m 5 # @ n . o | p q r s t u d ( } 7 * & = ",
"v w 0 c ^ # # e _ / 0 5 m } 7 & & & & 4 | x 1 # @ $ y = - 1 2 | 4 * z z A B C D E F 8 w # # w n y G H I J K L M M # w 8 N y y O ",
"P @ 0 0 ] w w Q e ^ c f x | 4 & & & & 7 } m 5 R @ $ S = - 5 6 z 7 z F T U V l F % 8 9 @ # u u W X Y Z I ` w # M M # @ 9 8 n n  .",
".._ +.d [ n n ( d ^ c 1 x | 4 * * 4 | ~ [ ] 0 0 ] ( ~ x 1 ^ @.[ #.$.%.&.*.z @ @ @ w @ u 0 =.-.K ;.>.q N 8 w # M M 0 ] w w w w ,.",
"'.e / ( ~ y y ~ [ / 0 5 m } 7 & & | } [ < 0 c c 0 d ( m 5 z ).!.~.C {.A < # R # # # u ].^./.(._.:.n n 8 <.w # M M [.0 # # R # }.",
"|.# 1.n y * * y n w # 0 ] ( ~ y y N 8 w # M M M M 0 ] _ e 2.3.4.5.6.w ] 0 [.0 # # u G 7.;.8.9.0.Q w w @ @ _ : # # 0 c M M M M ' ",
"|.# a.n y * * y n w # c ^ < [ n n 8 9 @ # M M M M c 0 6.b.c.d.e.f.z # ^ c 0 ] @ g.h.Y i.j.W @ _ e # # # # e Q w w ] 0 M M M M # ",
"|.^ k.( ~ y y ~ [ ] ^ M M 0 ] @ w z @ _ e # # 0 @.l.m.k V n.n o.p.u R u c # w ` q.r.s.W t 8 9 @ # c 0 5 1 t.u.$ $ ( d 0 c M M ' ",
"|.c v.d ( n n ( d 0 c M M c 0 # # # # e Q w w w.*.&.C x.y.z.A.~ [ w @ / 0 >.B.C.D.E.y u . N 8 w # ^ / 6 x F.G.y . ~ ( ] 0 M M ' ",
"'.0 M 0 ] w w _ e # # # # # # 0 [.c 0 < [ 8 <.H.I.4.J.D K.L.* | } n M.9.N.O.P.Q.R.u W & & 7 } m 5 # w 8 N . y y . N 8 w # c ^ e ",
"..] v.c ^ # # e _ @ w w w w @ / 0 ^ / ( ~ N 8 w # H.c.S.T.j d.2.| z U.~ V.W.X.P.X Y.* * & 4 | 2 1 ' @ <.8 $ $ $ $ 8 <.w ' 0 ] Q ",
"v w R [.0 # # < [ % n n % 8 9 @ # 5 m } 7 7 } ( < z _ Z.`. +T..+H.f.e.. % ++@+K #+$+%+=.& u | 2 1 0 / w w w @ @ @ w @ / 0 &+m 6 ",
"v w R 0 / @ w [ ~ . y y . N 8 @ # 1 x 7 4 4 | ~ @._ e < [ } H.i *+=+I.-+;+].# >+,+'+P.W.>.)+!+m 5 [.0 # # # # # # # # ^ [.~+x {+",
"v w R # @ 9 8 } | & & & & 7 } @.z z 2 7 4 z z N 8 w # 0 ] ]+^+/+ +(+5._+:+@ # f 2 . y h.$+<+Y [+}+M M M M [.0 # # # # ^ c ~+x |+",
"v @ R # w 8 N | 4 & * * & 4 | 2 1 5 m } 7 | } 8 <.w 1+U.2+3+5. +*+T 4+. % @ # 5 m % $ 5+6+7+8+:.>+M M M M 0 ] @ w w @ / 0 9+m 0+",
"a+/ v.# @ % . & & & & & & * & F.b+e _ ( ~ ~ ( w z c+d+#.`.T.&.h ~ y y ~ [ _ u : q e+P._./.-.@ Q e 0 c M M # w <.8 n n [ < e _ f+",
"'.0 M # w n y & * & & & & * & G.g+_ : d [ [ z z # #.c.~.h+i+A ).[ n n u u u g.^.j+P.;.Y.# # # k+Q ] 0 M M # w 8 N y y ~ ( Q : +.",
"l+m+n+R w n y & * & & & & * & y n @ # 0 / z z !.5.o+D A M M z 0 ] w u W e p+J q+H 1 E.u c c 0 d [ [ d ^ r+# w n . & & 7 } m 5 ' ",
"s+t+u+# @ % . & & & & & & & & . n w # c 2.l c.T.J.T.v+w+M M M z 0 R.G X x+y+j.z+A+x u / ^ ^ / ( ~ ~ ( ] 0 # @ n y * * 4 | 2 f ' ",
"B+C+D+E+F+( ~ . y . . . . y . N 8 w G+T c.U i H.H.E b.H+*.e.).I+J+K+L+M+y+N+'+)+W N 8 u # O+6 } 3 3 } ( < : _ g+G.* * 4 | x 1 ' ",
"P+Q+R+{+E+d [ % n % % % % n % 8 f.S+D ~.S+6.z y y ~ ).B T+U $.U+V+N.W+X+w Y+@+Z+j.,+G @ ' 1 x 7 4 4 7 ~ [ _ e b+F.& * 7 } m 5 ' ",
"`+y  @x 1 0 / w w @ @ @ @ @ e.B k j 3.!.[ } 3 * & | } .@+@3.@@T.#@$@%@&@] @ w h.H /.*@:.e t.u 4 3 y S N 8 @ # 1 x y y ~ [ / ^ # ",
"b $ =@m 5 c ^ # # # # # e.I.H+-@B ;@Q [ z | 4 * * M.X >@,@'@)@V *+!@V ~@{@# # # ]@H 7+^@/@q+(@7 } n % 8 <.@ # 5 6 n $ [ < ^ c ' ",
"_@w 1.] 0 z z z 0 ).#.T+k 5.!.c 0 < ( } 7 Q+| :@<@[@J @+Y.. % w }@|@1@k V H.# # # # ` @+j+2@3@8+=.@ @ w @ / 0 0 ] w w _ e R # }.",
"4@# 5@0 c M M 0 ] 6.j $.6@7@8@^ / u ~ 3 4 M.-.9@0@a@z+* & y n w # 0 ] b@c@5.d@l @ w @ _ e d ^.[@8.e@f@# # 0 [.c 0 # # e _ @ w g@",
"h@# i@0 c M M j@S+j@#.8 <.@ # # @ k@p | o L [@l@m@; n@3 4 y $ @ R R @ o@p@q@S+D m.*.;@[ d e _ W X r@s@%+t@' ' 0 c r+0 < [ n n u@",
"v@w w@] 0 Z.#.w+F 8 N N 8 w # ' w <.G ,+x@5+| y@z@% % } | . $ @ # # w 8 N o.A@#.k J.H+3.F _ : W _ @ s.I C.N.Y.] 0 ^ / [ ~ y y O ",
"B@n C@z D@A c # w $ y y $ @ # # @ ++q } | & & | } E@9 8 F@~ ( F+E+b+g+} | & f.D G@C v+w+2.@ # # @ <.R.(@i.H@P.%+Y+< [ } | * & = ",
"I@y  @~ ( ] 0 # @ $ y y $ @ # u q k@p | o & & 4 | J@ .<.E@[ d E+{+F.z z Z.`.D 5.3.w+& y n K@# # w 8 ^.i.L@/.` ]@W [ ~ | 4 * * a ",
"  * & y n w # # w 8 N N 8 w # # w 8 F@| 4 & & * & y n M@N@_ e O@O H.*.3.k &..+e.& & & . % P@Q@W ` *@2@r.s Y+# # W u . & & * & ) ",
"P+* & y n w # # @ <.8 8 <.@ # # @ <.8 } | & & * & y n g@}.: z z  .i %.d@h & ).& & & & u % R@S@T@U@Z+>.t <.@ # # w u u & * * & ) ",
"B+4 | ~ [ / ^ 0 ] w w w @ _ e e _ N@V@8 F@| 4 4 | F@8 @ # 0 / @ w [ ~ | 4 & * & & * & }+@+q.C.)+=.R.u @ @ / 0 # w n y u * * & a ",
"  | W@( < 0 c [.0 # # # # e Q Q e }.N@X@8 } | | } 8 9 w # c 0 # # < [ } | & & & & }+x@N./.j+Y@[.u # # # # 0 [.# w % . & u * & = ",
"`+~ m _ : # # 0 [.[.0 # # d [ [ d e _ N@V@8 F@F@8 > > w ' c ^ # # : _ [ ~ . >+e@J P.q.>.]@Q e 5 1 - - - - 1 5 e Q ( ~ . u u . O ",
"b [ Z@e _ w w ] 0 0 / @ w ( ~ ~ ( `@e }.N@<.8 8 <.> > @ ' 0 / w w u e < V. #Z 7+;.[@s ]@d u _ m x = = = = x m _ e d [ % n n % u@",
".._ +.d ( 8 .#w # # @ X@8 } | | } [ < e _ g@V@> > V@g@_ e < u n n [ d Y.J (.W.Y@w w W W 0 # w 8 N . y y . N 8 w # 0 / @ w @ @ g@",
"+#: / ( ~ N 8 w # # w 8 N 7 4 4 7 ~ [ `@e }.N@> > g@@#e u ( W y y V.r.7+##H # # # # u u c # w <.8 $ $ $ $ 8 <.w # c ^ # # R # }.",
"|.# 1.8 N ~ ( _ e < [ } | & & & & 7 } ( < e _ w w _ e < [ } | & & S t@r@$#'+,+}+M M M u M 0 ] @ w @ @ @ w w @ ] 0 c ^ # # # # @#",
"|.# a..#8 ( d e _ [ ~ | 4 & & & & 4 | ~ [ Q e ' ' e Q [ ~ | 4 * * y n w h.>.s@[@H W u W M [.0 # # # # # # # # 0 [.0 ] @ w @ @ g@",
"|.0 %#w w / 0 # w n y & * & & * & 4 | N 8 w # c 0 < ( u | & & & & | } ( < 0 [+x@3@&#V.}+q # # # # # # 0 [.[.0 # # < [ n n 8 <.> ",
"|.[.v.' # ^ c # w n y & * & & & & | } 8 <.w # ^ / u ~ | 4 & & & & 4 | ~ [ ] 0 M q D.q+/@K M.@ @ @ w @ / 0 0 / @ w ( ~ y y F@8 > ",
"'.# ^ # # # # : _ [ ~ 7 4 4 7 y S ~ [ w @ / 0 # w n y & * & & & & & & S % @ R c 0 d >+@+K J )+t % 8 9 @ # # w <.8 } | & & G.g+w ",
"..w a.@ @ w w _ e < [ } | | } n % [ < # # 0 [.# w n y & * & & & & * & y n w # 0 ] ( ~ . y . . y . N 8 w # # w 8 N | 4 * * A+b+' ",
"P 9 u@% n n % [ < : _ ( ~ ~ ( w @ _ e # # # # : _ [ ~ | 4 & & & & & & | } [ < e _ [ ~ | 4 & & & & 7 } ( d e _ [ ~ | 4 * * *#- M ",
"v 8 ~ . y y . ~ [ _ : d [ [ d # R e _ @ w w w _ e < [ } | & & & & & & 4 | ~ [ Q e d ( } 3 & * * & 4 | ~ [ _ e < ( } 7 * & = - =#",
"b } | & & & & | } [ < e _ Q e # # < [ % n n % [ < : _ [ ~ | 4 & * & & * & y n w # ^ / [ ~ | 4 * * 4 | ~ [ _ : : _ [ ~ y y x 1 -#",
"! | Q+& * * & 4 | ~ [ _ : e _ @ w [ ~ . y y . ~ [ _ : < [ } | & & & & * & y n w # r+^ < [ } | & & 7 } ( d ;#_ _ e < [ $ n m 5 -#",
"`+| Q+& & & & * & 3 } m 5 # @ X@8 } | & & & & | } [ < e Q ( ~ . y . . y . ~ [ _ : # # : _ [ ~ y y ~ [ _ : d [ [ d e _ w w >#0 =#",
"b } | & & & & & & 4 | 2 f # @ 8 N | 4 & * * & 4 | ~ [ _ : < [ % n % % n % [ d e _ w w _ e < [ n n [ < : _ ( ~ ~ ( _ : # # 0 c M ",
"..[ ,#| 4 4 7 . S y . 2 1 5 m } 7 & & & & & & * & G.g+] ^ 0 / @ w @ @ w w _ e d [ n n [ < e _ w w _ e < [ } | | } ( < 0 c M M [.",
"+#< '#} | | } % % $ $ m 5 1 2 | 4 & & & & & & * & A+t.0 )#c 0 # # # # # # : _ [ ~ y y ~ [ _ : # # : _ [ ~ 7 4 4 7 ~ [ ] ^ M M 0 ",
"|.# a.8 N ~ ( @ @ w @ / 0 f x | 4 & * & & * & 4 | x 1 [.^ # # # # # # 0 [.R @ % S & & 7 } m 5 c ^ < [ } | & & & & . % w # M M ' ",
"|.# !#<.8 [ < # R # # ^ c 5 m } 7 & & & & & & 7 } m ~#0 / w w @ @ w @ / 0 # w n y * * 4 | x f ^ / [ ~ | 4 & & * & y n w # M M ' ",
"{## a.V@,._ e # # # # # # e Q ( ~ . y . . y . ~ ( ] 0 ' w <.8 $ $ 8 <.w ' 5 m } 3 & & * & = - 5 6 } 7 & & & & & & . % w # M M # ",
"|.' a.g@}.e _ @ w @ @ w w _ e < [ % n % % n % [ < ^ c # w 8 N y y N 8 @ # 1 2 | 4 & & * & = - 1 2 | 4 & & & & & & . % w # M M ' ",
"]#E+^#_ e < [ % n n % 8 9 @ # 0 ] w w @ @ w w ] 0 M M ^ ] [ ~ y y ~ [ / ^ f x S y 7 4 4 7 2 1 1 2 | 4 & * & & * & y n w # c ^ }.",
"/#{+1 e _ [ ~ . y y . N 8 w # c ^ # # # # # # 0 c M M c 0 d ( $ $ ( d 0 c 5 m % $ } | 7 } 6 5 5 m } 7 & & & & & & . % @ # 0 ] g@",
"(#= _#5 6 } 7 & & & & 7 } ( d 0 c c 0 # ' 0 [.c 0 # # # # e Q w w _ e # # : _ @ @ [ ~ ~ ( ] 0 0 / [ ~ . y . . y . ~ [ _ : d [ u@",
":#= <#f 2 | 4 & * * & 4 | ~ [ ] ^ 0 / w w / 0 0 ] w w w @ _ e # # e _ w w Q e R # d [ [ d 0 c c 0 < [ % n % % n % [ d e _ ( ~ O ",
"[#= <#1 2 | 4 & & & & 4 | ~ [ _ e d [ 8 <.@ # 5 m % $ $ % m 5 c 0 d ( n n g+b+- - E+F+] 0 M M c 0 e !#w w w w w w _ e < [ } | = ",
"}#= <#5 6 } 7 & & & & 7 } ( d e Q ( ~ N 8 @ # 1 x . y y . x f ^ / [ ~ . y G.F.*#= {+|#0 )#M M 0 ] _ e # # # # # # : _ [ ~ 3 4 a ",
"1#= <#R @ % S & & & & S % @ R # w $ y y $ @ # - = & * * & = - # @ n y & * & * * * *#- M M M M ' w w ' M M M M M M # w n y * * 2#"};
