/* XPM */
static char * test5_xpm[] = {
"64 64 330 2",
"  	c #54606C",
". 	c #495157",
"+ 	c #404147",
"@ 	c #38353A",
"# 	c #302F31",
"$ 	c #414349",
"% 	c #404248",
"& 	c #4C585D",
"* 	c #4C585E",
"= 	c #444E53",
"- 	c #353A3D",
"; 	c #485057",
"> 	c #3D393F",
", 	c #3D383E",
"' 	c #303031",
") 	c #434C52",
"! 	c #535B67",
"~ 	c #444A50",
"{ 	c #3D3D42",
"] 	c #353337",
"^ 	c #2F2E2F",
"/ 	c #353336",
"( 	c #3D3E43",
"_ 	c #363437",
": 	c #323033",
"< 	c #353537",
"[ 	c #3D3D43",
"} 	c #44494E",
"| 	c #495258",
"1 	c #35373A",
"2 	c #41494E",
"3 	c #495359",
"4 	c #4B565D",
"5 	c #313235",
"6 	c #3B3D41",
"7 	c #495358",
"8 	c #404046",
"9 	c #3E3A41",
"0 	c #2F2F30",
"a 	c #434D52",
"b 	c #4E535E",
"c 	c #2C2C2D",
"d 	c #353538",
"e 	c #323134",
"f 	c #34373A",
"g 	c #41484D",
"h 	c #FFFF9D",
"i 	c #FFFFA9",
"j 	c #FFFFB4",
"k 	c #FFFFC4",
"l 	c #FFFFB2",
"m 	c #FFFF9F",
"n 	c #414249",
"o 	c #4B565C",
"p 	c #454B51",
"q 	c #403F46",
"r 	c #6AFFFF",
"s 	c #81FFFF",
"t 	c #78FFFF",
"u 	c #5EFFFF",
"v 	c #58FFFF",
"w 	c #4C4D59",
"x 	c #39353A",
"y 	c #3C3D42",
"z 	c #42494E",
"A 	c #495158",
"B 	c #FFFF92",
"C 	c #FFFF91",
"D 	c #FFFF96",
"E 	c #FFFFA1",
"F 	c #FFFFC2",
"G 	c #FFFFCA",
"H 	c #FFFFB0",
"I 	c #67FFFF",
"J 	c #86FFFF",
"K 	c #98FFFF",
"L 	c #AAFFFF",
"M 	c #9CFFFF",
"N 	c #2B2B2B",
"O 	c #464B52",
"P 	c #43494E",
"Q 	c #4B4D58",
"R 	c #363538",
"S 	c #302F30",
"T 	c #495057",
"U 	c #FFFF94",
"V 	c #FFFFA6",
"W 	c #FFFFBF",
"X 	c #FFFFC1",
"Y 	c #FFFFAD",
"Z 	c #FFFFA3",
"` 	c #5DFFFF",
" .	c #B8FFFF",
"..	c #92FFFF",
"+.	c #3F3F45",
"@.	c #494C57",
"#.	c #313032",
"$.	c #FFFFA8",
"%.	c #FFFFC9",
"&.	c #FFFFCF",
"*.	c #FFFFBD",
"=.	c #FFFF9A",
"-.	c #68FFFF",
";.	c #7AFFFF",
">.	c #A3FFFF",
",.	c #ACFFFF",
"'.	c #87FFFF",
").	c #3A373B",
"!.	c #444953",
"~.	c #FFFF99",
"{.	c #FFFFB9",
"].	c #FFFFCD",
"^.	c #FFFFBE",
"/.	c #FFFFA7",
"(.	c #2C2D2D",
"_.	c #7EFFFF",
":.	c #B0FFFF",
"<.	c #C2FFFF",
"[.	c #A8FFFF",
"}.	c #76FFFF",
"|.	c #3E3B41",
"1.	c #343135",
"2.	c #414650",
"3.	c #383539",
"4.	c #FFFFA5",
"5.	c #FFFFC7",
"6.	c #FFFFA0",
"7.	c #8BFFFF",
"8.	c #B4FFFF",
"9.	c #A2FFFF",
"0.	c #88FFFF",
"a.	c #373539",
"b.	c #FFFF93",
"c.	c #FFFFB1",
"d.	c #FFFFBC",
"e.	c #FFFFA2",
"f.	c #5FFFFF",
"g.	c #6DFFFF",
"h.	c #B7FFFF",
"i.	c #8DFFFF",
"j.	c #353235",
"k.	c #FFFFB8",
"l.	c #FEFF9B",
"m.	c #EDFFAB",
"n.	c #E5FFB4",
"o.	c #A1FFFF",
"p.	c #8FFFFF",
"q.	c #5CFFFF",
"r.	c #61FFFF",
"s.	c #393D40",
"t.	c #3E4046",
"u.	c #2E2D2E",
"v.	c #FFFFAC",
"w.	c #F9FFA2",
"x.	c #F7FF9F",
"y.	c #DCFFBE",
"z.	c #FCFF97",
"A.	c #9FFFFF",
"B.	c #B6FFFF",
"C.	c #A9FFFF",
"D.	c #7DFFFF",
"E.	c #454E54",
"F.	c #475056",
"G.	c #FFFFCB",
"H.	c #FFFFD8",
"I.	c #FEFF9F",
"J.	c #F4FFA2",
"K.	c #6BFFFF",
"L.	c #89FFFF",
"M.	c #ADFFFF",
"N.	c #CEFFFF",
"O.	c #A4FFFF",
"P.	c #66FFFF",
"Q.	c #57FFFF",
"R.	c #59FFFF",
"S.	c #FFFFCE",
"T.	c #FFFFC0",
"U.	c #FFFFA4",
"V.	c #90FFFF",
"W.	c #D4FFFF",
"X.	c #75FFFF",
"Y.	c #FFFFD0",
"Z.	c #FFFF9B",
"`.	c #9DFFFF",
" +	c #C3FFFF",
".+	c #85FFFF",
"++	c #5AFFFF",
"@+	c #313335",
"#+	c #FFFFD1",
"$+	c #FFFFBA",
"%+	c #FFFF95",
"&+	c #74FFF8",
"*+	c #8CFFFF",
"=+	c #BDFFFF",
"-+	c #9BFFFF",
";+	c #7BFFFF",
">+	c #65FFFF",
",+	c #35383A",
"'+	c #40474C",
")+	c #E9FFAF",
"!+	c #FFFFD7",
"~+	c #FDFF9E",
"{+	c #71FFFF",
"]+	c #7FFFFF",
"^+	c #40464C",
"/+	c #F2FFA4",
"(+	c #CFFFC9",
"_+	c #EBFFAF",
":+	c #ECFFBD",
"<+	c #FFFFB3",
"[+	c #F4FFA8",
"}+	c #9FFFE7",
"|+	c #BCFFFF",
"1+	c #C1FFFF",
"2+	c #94FFFF",
"3+	c #82FFFF",
"4+	c #323335",
"5+	c #3A3A3F",
"6+	c #494B57",
"7+	c #393C40",
"8+	c #EAFFB1",
"9+	c #FFFFD3",
"0+	c #FFFF9C",
"a+	c #56FFFF",
"b+	c #77FFFF",
"c+	c #AFFFFF",
"d+	c #74FFFF",
"e+	c #353236",
"f+	c #3E4045",
"g+	c #FFFF97",
"h+	c #FFFFAE",
"i+	c #FFFFAB",
"j+	c #FFFF98",
"k+	c #C6FFFF",
"l+	c #62FFFF",
"m+	c #333134",
"n+	c #474E58",
"o+	c #323638",
"p+	c #2C2F2F",
"q+	c #FFFFC6",
"r+	c #FFFFC8",
"s+	c #2B2C2C",
"t+	c #505A65",
"u+	c #3F464B",
"v+	c #323537",
"w+	c #FFFFD5",
"x+	c #60FFFF",
"y+	c #C0FFFF",
"z+	c #54616C",
"A+	c #465157",
"B+	c #3B4346",
"C+	c #36393C",
"D+	c #37373A",
"E+	c #FFFFC5",
"F+	c #FFFFBB",
"G+	c #FFFF90",
"H+	c #C0FFD4",
"I+	c #B3FFDE",
"J+	c #313134",
"K+	c #55616C",
"L+	c #4A555C",
"M+	c #465056",
"N+	c #FFFFB7",
"O+	c #FFFFAA",
"P+	c #535C67",
"Q+	c #485056",
"R+	c #FFFFCC",
"S+	c #464E54",
"T+	c #404247",
"U+	c #FFFFC3",
"V+	c #444A55",
"W+	c #FFFFAF",
"X+	c #35454E",
"Y+	c #302E2F",
"Z+	c #3A363B",
"`+	c #2C444B",
" @	c #302E30",
".@	c #43464C",
"+@	c #464C53",
"@@	c #485157",
"#@	c #3F3F44",
"$@	c #334850",
"%@	c #393539",
"&@	c #FFFF9E",
"*@	c #4B555C",
"=@	c #464D53",
"-@	c #3F505A",
";@	c #414147",
">@	c #403F45",
",@	c #454B52",
"'@	c #FFFFD6",
")@	c #3C383D",
"!@	c #4E5A66",
"~@	c #454A51",
"{@	c #3A363A",
"]@	c #373A3D",
"^@	c #3C383E",
"/@	c #43484E",
"(@	c #3D3A40",
"_@	c #FFFFD2",
":@	c #353436",
"<@	c #363537",
"[@	c #3E3B42",
"}@	c #444852",
"|@	c #343235",
"1@	c #FFFFB5",
"2@	c #353135",
"3@	c #444E54",
"4@	c #292929",
"5@	c #292928",
"6@	c #333135",
"7@	c #353437",
"8@	c #44494F",
"9@	c #3C3D41",
"0@	c #2B2B2C",
"a@	c #373538",
"b@	c #313135",
"c@	c #41464F",
"d@	c #4B5058",
"e@	c #37353A",
"f@	c #5A6166",
"g@	c #5A666B",
"h@	c #35393B",
"i@	c #4C6168",
"j@	c #353A3C",
"k@	c #485D67",
"l@	c #505F6A",
"m@	c #36393B",
"n@	c #535D68",
"o@	c #4C5459",
"  . + @ # # @ $ . . $ @ # # @ % . & & * & = - - = * * = - # @ % . & & & & & & & & * & = - # @ $ . ; $ > , @ ' # @ % . & & * & ) ",
"! ~ { ] ^ ^ / ( ~ ~ ( _ : < [ } | & & * & = - 1 2 3 4 = - 5 6 } 7 & & & & & & * & 4 | 2 1 # @ $ . | } 8 9 @ # 0 ] [ ~ | 4 * * a ",
"b ( < 0 c c 0 d ( ( d e _ [ ~ | 4 & & * & = - 5 6 } 7 = - f g | 4 & & & & & h i j k l m 5 # @ n . o | p q r s t u v ( } 7 * & = ",
"w x 0 c ^ # # e _ / 0 5 y } 7 & & & & 4 | z 1 # @ $ A = - 1 2 | 4 * B C D E F G H m 8 x # # x n A * I J K L M r N # x 8 O A A P ",
"Q @ 0 0 ] x x R e ^ c f z | 4 & & & & 7 } y 5 S @ $ T = - 5 6 B 7 B U V W X Y Z % 8 9 @ # # v v ` J M  ...r # N N # @ 9 8 n n +.",
"@._ #.d [ n n ( d ^ c 1 z | 4 * * 4 | ~ [ ] 0 0 ] ( ~ z 1 ^ B C ~ $.%.&.*.=.@ @ @ x @ v v ^ -.;.>.,.'.-.8 x # N N 0 ] x x x x ).",
"!.e / ( ~ A A ~ [ / 0 5 y } 7 & & | } [ < 0 c c 0 d ( y 5 B B ~.{.].^./.U # S # # # # v (._.:.<.[.}.n 8 |.x # N N (.0 # # S # 1.",
"2.# 3.n A * * A n x # 0 ] ( ~ A A O 8 x # N N N N 0 ] _ e B 4.5.5.6.x ] 0 (.0 # # v v -.7.8.9.0.u x x @ @ _ : # # 0 c N N N N ' ",
"2.# a.n A * * A n x # c ^ < [ n n 8 9 @ # N N N N c 0 b.c.d.H e.e.U # ^ c 0 ] @ x f.g.>.h.i.@ _ e # # # # e R x x ] 0 N N N N # ",
"2.^ j.( ~ A A ~ [ ] ^ N N 0 ] @ x B @ _ e # # 0 (.m k.W X l.n m.n.# v ^ c # x |._.o.p.g.q.r.9 @ # c 0 5 1 s.t.$ $ ( d 0 c N N ' ",
"2.c u.d ( n n ( d 0 c N N c 0 # # # # e R x x h $.k ].v.w.x.y.z.[ x @ / 0 q.A.B.C.D.A A v O 8 x # ^ / 6 z E.F.A . ~ ( ] 0 N N ' ",
"!.0 N 0 ] x x _ e # # # # # # 0 (.c 0 < [ 8 |./.c.G.H.k I.J.* | } n % K.L.M.N.O.P.Q.v R.& 7 } y 5 # x 8 O . A A . O 8 x # c ^ e ",
"@.] u.c ^ # # e _ @ x x x x @ / 0 ^ / ( ~ O 8 x # 6.^.G S.T.U.D B B T ~ K.V.<.W.A.X.` * & 4 | 2 1 ' @ |.8 $ $ $ $ 8 |.x ' 0 ] R ",
"w x S (.0 # # < [ % n n % 8 9 @ # 5 y } 7 7 } ( < B C D c.k Y.W U.& Z.. % @ ;.`.8. +A..+++4 R.2 1 0 / x x x @ @ @ x @ / 0 @+y 6 ",
"w x S 0 / @ x [ ~ . A A . O 8 @ # 1 z 7 4 4 | ~ C _ e < [ } U.H k #+$+%+n &+v - g.*+:.=+-+_.;+>+5 (.0 # # # # # # # # ^ (.,+z '+",
"w x S # @ 9 8 } | & & & & 7 } 6 B B 2 7 4 B B C 8 x # 0 ] [ ~ )+{.!+G c.~+@ # f 2 . A {+.+<.<.]+>+N N N N (.0 # # # # ^ c ,+z ^+",
"w @ S # x 8 O | 4 & * * & 4 B 2 1 5 y } 7 | } 8 |.x /+(+_+:+<+^.G.d.[+}+% @ # 5 y % $ n }.|+1+2+3+R.N N N 0 ] @ x x @ / 0 4+y 5+",
"6+/ u.# @ % . & & & & & & * & E.7+e _ ( ~ ~ ( x @ B )+8+4.G 9+c.0+A A ~ [ _ : v a+b+M B.c+L d+R e 0 c N N # x |.8 n n [ < e _ e+",
"!.0 N # x n A & * & & & & * & F.f+_ : d [ [ B B # g+h+T.^.i+$.j+[ n n [ v e v R ;+>.k+[.l+# # m+R ] 0 N N # x 8 O A A ~ ( R : #.",
"n+o+p+S x n A & * & & & & * & A n @ # 0 / B B j+j q+r+/.N N N B ] x x v e d _.,.>.s >+u v c 0 d [ [ d ^ s+# x n . & & 7 } y 5 ' ",
"t+u+v+# @ % . & & & & & & & & . n x # c ^ 6.l %.H.w+c.j+N N N B 0 v v x+i.|+y+V.q.z 6 v ^ ^ / ( ~ ~ ( ] 0 # @ n A * * 4 | 2 f ' ",
"z+A+B+C+D+( ~ . A . . . . A . O 8 x b.V l E+k.v.v.h+F+E+v.=.G+C N H+I+# x 8 O A A O 8 @ # J+6 } 3 3 } ( < : _ f+F.* * 4 | z 1 ' ",
"K+L+M+'+C+d [ % n % % % % n % 8 |.6.N+q+l e.b.A A ~ U O+$+k j =.N N N B x |.8 $ $ 8 |.@ ' 1 z 7 4 4 7 ~ [ _ e 7+E.& * 7 } y 5 ' ",
"P+A Q+z 1 0 / x x @ @ @ @ @ x U.*.F d.$.[ } 3 * B | } n U O+S.R+l i Z C ] @ x @ @ x @ _ e s.S+4 3 A T O 8 @ # 1 z A A ~ [ / ^ # ",
"b $ T+y 5 c ^ # # # # # # U.U+T.<+Z.R [ ~ | 4 * * 4 | A T ~.v.U+&.w+W 6.D # # # # # # : R t.F.7 } n % 8 |.@ # 5 6 n $ [ < ^ c ' ",
"V+x 3.] 0 N B (.0 # Z.W+^.E+O+c 0 < ( } 7 L+| | B & * * & . % x =./.W+U+F+Z # # # # # : _ ( ~ ~ ( @ @ x @ / 0 0 ] x x _ e S # 1.",
"X+# Y+0 c N N 0 ] ~.d.d.V / 0 ^ / [ ~ 3 4 | } } B & * * & A n x # 0 ] ~.l U+d.i+U x @ _ e d [ [ d # S # # 0 (.c 0 # # e _ @ x Z+",
"`+#  @0 c N N h O+4.e.8 |.@ # # @ q p | o | } .@+@; @@3 4 A $ @ S S @ B C ~.i E+*.H j+[ d e _ R e # # # # ' ' 0 c s+0 < [ n n #@",
"$@x %@] 0 D &@i 6.8 O O 8 x # ' x |.8 } | *@| =@.@% % } | . $ @ # # x 8 O . B D l #+q+v.e._ : e _ @ x @ @ x x ] 0 ^ / [ ~ A A P ",
"-@n ;@( h Z.c # x $ A A $ @ # # @ |.8 } | & & | } >@9 8 ,@~ ( D+C+7+f+} | & b.$.S.'@T.H 6.@ # # @ |.8 8 |.)@Z+_ e < [ } | * & = ",
"!@A Q+~ ( ] 0 # @ $ A A $ @ # # @ q p | o & & 4 | ~@+.|.>@[ d C+'+E.B | C 4.W+5.U+l ~.A n B # # x 8 O O 8 ).1.e R [ ~ | 4 * * a ",
"  * & A n x # # x 8 O O 8 x # # x 8 ,@| 4 & & * & A n )@{@_ e ]@P D e.E l G.].Y B & & . % B # # x 8 O O 8 x # # @ % . & & * & ) ",
"K+* & A n x # # @ |.8 8 |.@ # # @ |.8 } | & & * & A n Z+1.: B B B U.r+r+l /.U.C & & & . % @ C B @ |.8 8 |.@ # # x n A & * * & ) ",
"z+4 | ~ [ / ^ 0 ] x x x @ _ e e _ {@^@8 ,@| 4 4 | ,@8 @ # 0 D 4.W R+$+~.B C * & & * & A n x # 0 B @ @ @ @ / 0 # x n A & * * & a ",
"  | /@( < 0 c (.0 # # # # e R R e 1.{@(@8 } | | } 8 9 x E W+d.5.h+e.D } | & & & & & & . % x # (.0 B # # # 0 (.# x % . & & * & = ",
"P+~ y _ : # # 0 (.(.0 # # d [ [ d e _ {@^@8 ,@,@&@V $.k _@9+N+~.C C B [ ~ . A . . A . ~ ( R e 5 1 - B - - 1 5 e R ( ~ . A A . P ",
"b [ :@e _ x x ] 0 0 / @ x ( ~ ~ ( <@B 1.{@|.8 U O+&.w+T.V &@m g+x _ e < [ % n % % n % [ d e _ y z = = = = z y _ e d [ % n n % #@",
"@._ #.d ( 8 [@x # # @ (@8 } | | } [ B B _ Z+Z.W+R+X i+g+e < [ n n [ d e _ x x x x x x ] 0 # x 8 O . A A . O 8 x # 0 / @ x @ @ Z+",
"}@: / ( ~ O 8 x # # x 8 O 7 4 4 C ~ [ <@e 6.<+R+w+l |@e R ( ~ B A ~ [ _ : # # # # # # ^ c # x |.8 $ $ $ $ 8 |.x # c ^ # # S # 1.",
"2.# 3.8 O ~ ( _ e < [ } | & & & & 7 } ( < e _ =.1@T.^.Z [ } | B & T % @ S N N N N N N N N 0 ] @ x @ @ @ x x @ ] 0 c ^ # # # # |@",
"2.# a.[@8 ( d e _ [ ~ | 4 & & B & 4 | ~ [ R e ' ' j+c.U+k 4.D C * A n x # N N N N N N N N (.0 # # # # # # # # 0 (.0 ] @ x @ @ Z+",
"2.0 2@x x / 0 # x n A & * & B * & 4 | O 8 x # c 0 < ( } $.E+^.c.H D } ( < 0 c N N c 0 # # # # # # # # 0 (.(.0 # # < [ n n 8 |.> ",
"2.(.u.' # ^ c # x n A & * & & & & | } 8 |.x # ^ / [ ~ | 4 & V U+r+Y e.~ [ ] 0 N N 0 ] x x x @ @ @ x @ / 0 0 / @ x ( ~ A A ,@8 > ",
"!.# ^ # # # # : _ [ ~ 7 4 4 7 A T ~ [ x @ / 0 # x n A & * & & j+Z {.U+H h @ S c 0 d ( $ $ % % n % 8 9 @ # # x |.8 } | & & F.f+x ",
"@.x a.@ @ x x _ e < [ } | | } n % [ < # # 0 (.# x n A & * & & & & * 6.F+q+j &@0 ] ( ~ . A . . A . O 8 x # # x 8 O | 4 * * S+7+' ",
"Q 9 #@% n n % [ < : _ ( ~ ~ ( x @ _ e # # # # : _ [ ~ | 4 & & & & & & | 0+$+U+k.4.[ ~ | 4 & & & & 7 } ( d e _ [ ~ | 4 * * 3@- N ",
"w 8 ~ . A A . ~ [ _ : d [ [ d # S e _ @ x x x _ e < [ } | & & & & & & 4 | ~ h c.q+W e.B B B B * & 4 | ~ [ _ e < ( } 7 * & = - 4@",
"b } | & & & & | } [ < e _ R e # # < [ % n n % [ < : _ [ ~ | 4 & * & & * & A n x =.Y T.d.i+U 4 * B 4 | ~ [ _ : : _ [ ~ A A z 1 5@",
"! | L+& * * & 4 | ~ [ _ : e _ @ x [ ~ . A A . ~ [ _ : < [ } | & & & & * & A n x # s+g+k.G *.c.H %+7 } ( d 6@_ _ e < [ $ n y 5 5@",
"P+| L+& & & & * & 3 } y 5 # @ (@8 } | & & & & | } [ < e R ( ~ . A . . A . ~ [ _ : # # : %+h+w+S.h+Z [ _ : d [ [ d e _ x x 7@0 4@",
"b } | & & & & & & 4 | 2 f # @ 8 O | 4 & * * & 4 | ~ [ _ : < [ % n % % n % [ d e _ x x _ 0+l S.W 4.=.< : _ ( ~ ~ ( _ : # # 0 c N ",
"@.[ 8@| 4 4 7 . T A . 2 1 5 y } 7 & & & & & & * & F.f+] ^ 0 / @ x @ @ x x _ e d [ g+l %.G.^.c.j+x _ e < [ } | | } ( < 0 c N N (.",
"}@< 9@} | | } % % $ $ y 5 1 2 | 4 & & & & & & * & S+s.0 0@c 0 # # # # # # : j+6.h+5.].5.v.C : # # : _ [ ~ 7 4 4 7 ~ [ ] ^ N N 0 ",
"2.# a.8 O ~ ( @ @ x @ / 0 f z | 4 & * & & * & 4 | z 1 (.^ # # # # # # 0 4.W R+G.1@/.0+7 } y 5 c ^ < [ } | & & & & . % x # N N ' ",
"2.# a@|.8 [ < # S # # ^ c 5 y } 7 & & & & & & 7 } y b@0 / x x @ @ U O+{.r+G.1@$.C * * 4 | z f ^ / [ ~ | 4 & & * & A n x # N N ' ",
"c@# a.^@)._ e # # # # # # e R ( ~ . A . . A . ~ ( ] 0 ' x |.8 $ 6.N+S.F+e.=.y } B & & * & = - 5 6 } 7 & & & & & & . % x # N N # ",
"2.' a.Z+1.e _ @ x @ @ x x _ e < [ % n % % n % [ < ^ c # x 8 O A A O 8 @ # 1 2 | 4 & & * & = - 1 2 | 4 & & & & & & . % x # N N ' ",
"d@C+e@_ e < [ % n n % 8 9 @ # 0 ] x x @ @ x x ] 0 N N ^ ] [ ~ A A ~ [ / ^ f z T A 7 4 4 7 2 1 1 2 | 4 & * & & * & A n x # c ^ 1.",
"f@'+1 e _ [ ~ . A A . O 8 x # c ^ # # # # # # 0 c N N c 0 d ( $ $ ( d 0 c 5 y % $ } | 7 } 6 5 5 y } 7 & & & & & & . % @ # 0 ] Z+",
"g@= h@5 6 } 7 & & & & 7 } ( d 0 c c 0 # ' 0 (.c 0 # # # # e R x x _ e # # : _ @ @ [ ~ ~ ( ] 0 0 / [ ~ . A . . A . ~ [ _ : d [ #@",
"i@= j@f 2 | 4 & * * & 4 | ~ [ ] ^ 0 / x x / 0 0 ] x x x @ _ e # # e _ x x R e S # d [ [ d 0 c c 0 < [ % n % % n % [ d e _ ( ~ P ",
"k@= j@1 2 | 4 & & & & 4 | ~ [ _ e d [ 8 |.@ # 5 y % $ $ % y 5 c 0 d ( n n f+7+- - C+D+] 0 N N c 0 e a@x x x x x x _ e < [ } | = ",
"l@= j@5 6 } 7 & & & & 7 } ( d e R ( ~ O 8 @ # 1 z . A A . z f ^ / [ ~ . A F.E.3@= '+m@0 0@N N 0 ] _ e # # # # # # : _ [ ~ 3 4 a ",
"n@= j@S @ % T & & & & T % @ S # x $ A A $ @ # - = & * * & = - # @ n A & * & * * * 3@- N N N N ' x x ' N N N N N N # x n A * * o@"};
