/* XPM */
static char * test2_xpm[] = {
"64 64 357 2",
"  	c #54606C",
". 	c #495157",
"+ 	c #404147",
"@ 	c #38353A",
"# 	c #302F31",
"$ 	c #414349",
"% 	c #404248",
"& 	c #4C585D",
"* 	c #4C585E",
"= 	c #444E53",
"- 	c #353A3D",
"; 	c #485057",
"> 	c #3D393F",
", 	c #3D383E",
"' 	c #303031",
") 	c #434C52",
"! 	c #535B67",
"~ 	c #444A50",
"{ 	c #3D3D42",
"] 	c #353337",
"^ 	c #2F2E2F",
"/ 	c #353336",
"( 	c #3D3E43",
"_ 	c #363437",
": 	c #323033",
"< 	c #353537",
"[ 	c #3D3D43",
"} 	c #44494E",
"| 	c #495258",
"1 	c #35373A",
"2 	c #41494E",
"3 	c #495359",
"4 	c #4B565D",
"5 	c #313235",
"6 	c #3B3D41",
"7 	c #495358",
"8 	c #404046",
"9 	c #3E3A41",
"0 	c #2F2F30",
"a 	c #434D52",
"b 	c #4E535E",
"c 	c #2C2C2D",
"d 	c #353538",
"e 	c #323134",
"f 	c #34373A",
"g 	c #41484D",
"h 	c #FFFF9B",
"i 	c #FFFFA7",
"j 	c #FFFFAF",
"k 	c #FFFFC2",
"l 	c #FFFFB8",
"m 	c #FFFFA2",
"n 	c #414249",
"o 	c #4B565C",
"p 	c #454B51",
"q 	c #403F46",
"r 	c #39353A",
"s 	c #78FFFF",
"t 	c #81FFFF",
"u 	c #69FFFF",
"v 	c #58FFFF",
"w 	c #4C4D59",
"x 	c #3C3D42",
"y 	c #42494E",
"z 	c #495158",
"A 	c #FFFF92",
"B 	c #FFFF94",
"C 	c #FFFF9E",
"D 	c #FFFFBB",
"E 	c #FFFFCD",
"F 	c #FFFFB6",
"G 	c #FFFFA1",
"H 	c #FFFF96",
"I 	c #75FFFF",
"J 	c #92FFFF",
"K 	c #A2FFFF",
"L 	c #AAFFFF",
"M 	c #7DFFFF",
"N 	c #2B2B2B",
"O 	c #464B52",
"P 	c #43494E",
"Q 	c #4B4D58",
"R 	c #363538",
"S 	c #302F30",
"T 	c #495057",
"U 	c #FFFFC4",
"V 	c #FFFFB1",
"W 	c #57FFFF",
"X 	c #8BFFFF",
"Y 	c #B0FFFF",
"Z 	c #7AFFFF",
"` 	c #3F3F45",
" .	c #494C57",
"..	c #313032",
"+.	c #FFFF91",
"@.	c #FFFFC3",
"#.	c #FFFFCF",
"$.	c #5BFFFF",
"%.	c #74FFFF",
"&.	c #8DFFFF",
"*.	c #AEFFFF",
"=.	c #9BFFFF",
"-.	c #73FFFF",
";.	c #3A373B",
">.	c #444953",
",.	c #FFFFCC",
"'.	c #FFFF95",
").	c #6BFFFF",
"!.	c #94FFFF",
"~.	c #C1FFFF",
"{.	c #B9FFFF",
"].	c #8EFFFF",
"^.	c #63FFFF",
"/.	c #3E3B41",
"(.	c #2C2D2D",
"_.	c #343135",
":.	c #414650",
"<.	c #383539",
"[.	c #FFFF9C",
"}.	c #FFFFC1",
"|.	c #FFFFCB",
"1.	c #FFFFAA",
"2.	c #5CFFFF",
"3.	c #77FFFF",
"4.	c #A6FFFF",
"5.	c #B5FFFF",
"6.	c #90FFFF",
"7.	c #76FFFF",
"8.	c #373539",
"9.	c #FFFFBC",
"0.	c #FFFFB4",
"a.	c #FFFFA4",
"b.	c #FFFF97",
"c.	c #64FFFF",
"d.	c #86FFFF",
"e.	c #B4FFFF",
"f.	c #66FFFF",
"g.	c #353235",
"h.	c #FFFFB5",
"i.	c #FFFFBD",
"j.	c #D0FFC9",
"k.	c #F3FFA4",
"l.	c #62FFFF",
"m.	c #9AFFFF",
"n.	c #9DFFFF",
"o.	c #80FFFF",
"p.	c #5EFFFF",
"q.	c #5AFFFF",
"r.	c #393D40",
"s.	c #3E4046",
"t.	c #2E2D2E",
"u.	c #FFFF99",
"v.	c #FFFFA3",
"w.	c #FFFFB7",
"x.	c #FCFFA2",
"y.	c #FCFF97",
"z.	c #CAFFCD",
"A.	c #F9FF9B",
"B.	c #7CFFFF",
"C.	c #B1FFFF",
"D.	c #AFFFFF",
"E.	c #9FFFFF",
"F.	c #5DFFFF",
"G.	c #454E54",
"H.	c #475056",
"I.	c #FFFFAC",
"J.	c #FFFFC5",
"K.	c #FFFFD7",
"L.	c #F3FFA5",
"M.	c #FBFF97",
"N.	c #82FFFF",
"O.	c #95FFFF",
"P.	c #C3FFFF",
"Q.	c #C0FFFF",
"R.	c #FFFF98",
"S.	c #FFFFC9",
"T.	c #FFFFCE",
"U.	c #FFFFC7",
"V.	c #A9FFFF",
"W.	c #D3FFFF",
"X.	c #BDFFFF",
"Y.	c #6CFFFF",
"Z.	c #FFFFA9",
"`.	c #FFFFBF",
" +	c #B8FFFF",
".+	c #8FFFFF",
"++	c #59FFFF",
"@+	c #313335",
"#+	c #FFFFA0",
"$+	c #FFFFAE",
"%+	c #FFFFD0",
"&+	c #84FFFF",
"*+	c #99FFFF",
"=+	c #BCFFFF",
"-+	c #88FFFF",
";+	c #35383A",
">+	c #40474C",
",+	c #FFFFAB",
"'+	c #FFFFD4",
")+	c #FEFFA3",
"!+	c #C6FFD0",
"~+	c #67FFFF",
"{+	c #A4FFFF",
"]+	c #D2FFFF",
"^+	c #6AFFFF",
"/+	c #40464C",
"(+	c #E5FFB4",
"_+	c #DEFFBB",
":+	c #E9FFBD",
"<+	c #FFFFC8",
"[+	c #FEFFA1",
"}+	c #B1FFDE",
"|+	c #9EFFFF",
"1+	c #CBFFFF",
"2+	c #ACFFFF",
"3+	c #323335",
"4+	c #3A3A3F",
"5+	c #494B57",
"6+	c #393C40",
"7+	c #FEFF94",
"8+	c #C7FFD0",
"9+	c #FEFFA0",
"0+	c #FFFFD6",
"a+	c #FFFF9D",
"b+	c #ABFFFF",
"c+	c #B2FFFF",
"d+	c #91FFFF",
"e+	c #353236",
"f+	c #3E4045",
"g+	c #FFFFBE",
"h+	c #FFFFC0",
"i+	c #FFFFA8",
"j+	c #FFFF9F",
"k+	c #B7FFFF",
"l+	c #83FFFF",
"m+	c #333134",
"n+	c #474E58",
"o+	c #323638",
"p+	c #2C2F2F",
"q+	c #FFFFAD",
"r+	c #6EFFFF",
"s+	c #2B2C2C",
"t+	c #505A65",
"u+	c #3F464B",
"v+	c #323537",
"w+	c #FFFFB0",
"x+	c #FFFFDA",
"y+	c #6FFFFF",
"z+	c #A8FFFF",
"A+	c #C4FFFF",
"B+	c #54616C",
"C+	c #465157",
"D+	c #3B4346",
"E+	c #36393C",
"F+	c #37373A",
"G+	c #7FFFFF",
"H+	c #BEFFFF",
"I+	c #D0FFFF",
"J+	c #C7FFFF",
"K+	c #96FFFF",
"L+	c #313134",
"M+	c #55616C",
"N+	c #4A555C",
"O+	c #465056",
"P+	c #5FFFFF",
"Q+	c #8CFFFF",
"R+	c #ADFFFF",
"S+	c #85FFFF",
"T+	c #71FFFF",
"U+	c #97FFFF",
"V+	c #535C67",
"W+	c #485056",
"X+	c #464E54",
"Y+	c #404247",
"Z+	c #70FFFF",
"`+	c #6DFFFF",
" @	c #7BFFFF",
".@	c #BBFFFF",
"+@	c #56FFFF",
"@@	c #444A55",
"#@	c #4B555C",
"$@	c #98FFFF",
"%@	c #C5FFFF",
"&@	c #35454E",
"*@	c #302E2F",
"=@	c #72FFFF",
"-@	c #A0FFFF",
";@	c #A5FFFF",
">@	c #3A363B",
",@	c #2C444B",
"'@	c #302E30",
")@	c #485157",
"!@	c #7EFFFF",
"~@	c #65FFFF",
"{@	c #3F3F44",
"]@	c #334850",
"^@	c #393539",
"/@	c #79FFFF",
"(@	c #43464C",
"_@	c #A7FFFF",
":@	c #3F505A",
"<@	c #414147",
"[@	c #403F45",
"}@	c #454B52",
"|@	c #60FFFF",
"1@	c #CCFFFF",
"2@	c #4E5A66",
"3@	c #454A51",
"4@	c #CAFFFF",
"5@	c #3C383D",
"6@	c #3A363A",
"7@	c #373A3D",
"8@	c #3A393E",
"9@	c #89FFFF",
"0@	c #3C383E",
"a@	c #61FFFF",
"b@	c #43484E",
"c@	c #3D3A40",
"d@	c #A3FFFF",
"e@	c #353436",
"f@	c #363537",
"g@	c #BAFFFF",
"h@	c #3E3B42",
"i@	c #C8FFFF",
"j@	c #C9FFFF",
"k@	c #444852",
"l@	c #343235",
"m@	c #A1FFFF",
"n@	c #C6FFFF",
"o@	c #8AFFFF",
"p@	c #9CFFFF",
"q@	c #353135",
"r@	c #444E54",
"s@	c #292929",
"t@	c #292928",
"u@	c #333135",
"v@	c #87FFFF",
"w@	c #CDFFFF",
"x@	c #44494F",
"y@	c #3C3D41",
"z@	c #2B2B2C",
"A@	c #373538",
"B@	c #313135",
"C@	c #41464F",
"D@	c #B6FFFF",
"E@	c #4B5058",
"F@	c #37353A",
"G@	c #5A6166",
"H@	c #5A666B",
"I@	c #35393B",
"J@	c #4C6168",
"K@	c #353A3C",
"L@	c #485D67",
"M@	c #505F6A",
"N@	c #36393B",
"O@	c #535D68",
"P@	c #4C5459",
"  . + @ # # @ $ . . $ @ # # @ % . & & * & = - - = * * = - # @ % . & & & & & & & & * & = - # @ $ . ; $ > , @ ' # @ % . & & * & ) ",
"! ~ { ] ^ ^ / ( ~ ~ ( _ : < [ } | & & * & = - 1 2 3 4 = - 5 6 } 7 & & & & & & * & 4 | 2 1 # @ $ . | } 8 9 @ # 0 ] [ ~ | 4 * * a ",
"b ( < 0 c c 0 d ( ( d e _ [ ~ | 4 & & * & = - 5 6 } 7 = - f g | 4 & & & & & h i j k l m 5 # @ n . o | p q r s t u v ( } 7 * & = ",
"w r 0 c ^ # # e _ / 0 5 x } 7 & & & & 4 | y 1 # @ $ z = - 1 2 | 4 * * A B C D E F G H r # # r n z * * I J K L M N # r 8 O z z P ",
"Q @ 0 0 ] r r R e ^ c f y | 4 & & & & 7 } x 5 S @ $ T = - 5 6 A A A A G l U V i A 8 9 @ # # @ v W I X Y Y Z # N N # @ 9 8 n n ` ",
" ._ ..d [ n n ( d ^ c 1 y | 4 * * 4 | ~ [ ] 0 0 ] ( ~ y 1 ^ / +.~ m @.#.U m @ @ @ r @ / v ^ $.%.&.*.=.-.8 r # N N 0 ] r r r r ;.",
">.e / ( ~ z z ~ [ / 0 5 x } 7 & & | } [ < 0 c c 0 d ( x 5 A A H j ,.k j '.# S # # # # v W ).!.~.{.].^.8 /.r # N N (.0 # # S # _.",
":.# <.n z * * z n r # 0 ] ( ~ z z O 8 r # N N N N 0 ] _ e +.[.}.|.1.r ] 0 (.0 # # # v 2.3.4.5.6.7.r r @ @ _ : # # 0 c N N N N ' ",
":.# 8.n z * * z n r # c ^ < [ n n 8 9 @ # N N N N c 0 e 1.9.0.a.G b.# ^ c 0 ] @ r @ c.d.e.L f._ e # # # # e R r r ] 0 N N N N # ",
":.^ g.( ~ z z ~ [ ] ^ N N 0 ] @ r A A _ e # # 0 (.H h.i.U m n j.k.# v ^ v # r /.l.m.n.o.p.^.q.@ # c 0 5 1 r.s.$ $ ( d 0 c N N ' ",
":.c t.d ( n n ( d 0 c N N c 0 # # # # e R r r u.v.9.#.w.x.y.z.A.[ r @ / 0 # B.C.D.E.F.z v O 8 r # ^ / 6 y G.H.z . ~ ( ] 0 N N ' ",
">.0 N 0 ] r r _ e # # # # # # 0 (.c 0 < [ 8 /.G I.J.K.E i L.M.| } n % v N.O.P.Q.o.q.v & & 7 } x 5 # r 8 O . z z . O 8 r # c ^ e ",
" .] t.c ^ # # e _ @ r r r r @ / 0 ^ / ( ~ O 8 r # R.l S.T.U.i h A A A ~ ( Z V.W.X.o.Y.v & 4 | 2 1 ' @ /.8 $ $ $ $ 8 /.r ' 0 ] R ",
"w r S (.0 # # < [ % n n % 8 9 @ # 5 x } 7 7 } ( < e A B Z.`.#.U.1.u.[.. % @ u &.4.Q. +.+).4 v ++1 0 / r r r @ @ @ r @ / 0 @+x 6 ",
"w r S 0 / @ r [ ~ . z z . O 8 @ # 1 y 7 4 4 | ~ +._ e < [ } #+$+i.%+U u.n @ v - q.&+*+=+D.-+B.3.5 (.0 # # # # # # # # ^ (.;+y >+",
"w r S # @ 9 8 } | & & & & 7 } 6 +.A 2 7 +.+.A A 8 r # 0 ] [ ~ z.,+'+#.h.)+!+# f 2 . z ~+%.{+]+{+^+N N N N (.0 # # # # ^ c ;+y /+",
"w @ S # r 8 O | 4 & * * & 4 A 2 1 5 x } 7 | } 8 /.r # (+_+:+j i.<+@.[+}+% @ # 5 x % $ n p.|+1+2+-+Y.N N N 0 ] @ r r @ / 0 3+x 4+",
"5+/ t.# @ % . & & & & & & * & G.6+e _ ( ~ ~ ( r @ ] 7+8+9+k 0+9.a+z z ~ [ _ : v v F.].b+c+5.d+F.e 0 c N N # r /.8 n n [ < e _ e+",
">.0 N # r n z & * & & & & * & H.f+_ : d [ [ d A # 0 a.g+h+$+i+j++.n n [ d v v v u ].k+~.l+# # m+R ] 0 N N # r 8 O z z ~ ( R : ..",
"n+o+p+S r n z & * & & & & * & z n @ # 0 / A A B q+}.,.V R.N N A ] r r v ++d r+m.2+!.r+0 q.c 0 d [ [ d ^ s+# r n . & & 7 } x 5 ' ",
"t+u+v+# @ % . & & & & & & & & . n r # c ^ R.w+k 0+x+9.h N N N A 0 # v ++y+z+A+2+y+y 6 / v ^ / ( ~ ~ ( ] 0 # @ n z * * 4 | 2 f ' ",
"B+C+D+E+F+( ~ . z . . . . z . O 8 r # s+^ < [ n n [ < # S 0 c N N $.G+E.H+I+J+K+M 2.8 @ v L+6 } 3 3 } ( < : _ f+H.* * 4 | y 1 ' ",
"M+N+O+>+E+d [ % n % % % % n % 8 /.@ # 0 / [ ~ z z ~ ( r @ ] 0 P+Q+E.R+S+T+y+-.].*.U+T+F.v 1 y 7 4 4 7 ~ [ _ e 6+G.& * 7 } x 5 ' ",
"V+z W+y 1 0 / r r @ @ @ @ @ r r @ _ e < [ } 3 * & | } n % T+d.R+L o.N v ] @ r @ Z X V.K 3.r.X+4 v z T O 8 @ # 1 y z z ~ [ / ^ # ",
"b $ Y+x 5 c ^ # # # # # # # # # # e R [ ~ | 4 * * 4 | Z+S+V.E.&.`+N N (.0 # # # # 2. @.@1+L !.o.+@n % 8 /.@ # 5 6 n $ [ < ^ c ' ",
"@@r <.] 0 N N (.0 # # # # 0 (.c 0 < ( } 7 N+| | #@u ].*.$@t ^.r # v v # # # # # # # # %.!.D.%@L X `+@ r @ / 0 0 ] r r _ e S # _.",
"&@# *@0 c N N 0 ] @ r r @ / 0 ^ / [ v v v | q.=@$@z+-@Y.& z n r # 0 ] r r v @ @ @ r @ _ e d [ Z E.;@&+f.# 0 (.c 0 # # e _ @ r >@",
",@# '@0 c N N # r /.8 8 /.@ # # @ q p | o | ^+E.].`+)@3 4 z $ @ S S @ 9 8 v n % % n % [ d e _ R $.!@n.V.K+~@' 0 c s+0 < [ n n {@",
"]@r ^@] 0 N N # r 8 O O 8 r # ' r /.8 } /@N.=@~+(@% % } | . $ @ # # r 8 O . z . . z . ~ [ _ : e ++@ r r+-@_@*+`+0 ^ / [ ~ z z P ",
":@n <@( d 0 c # r $ z z $ @ # # @ /.^.).y+l.& | } [@9 8 }@~ ( F+E+6+f+} | & & & & & & . % @ # # @ /.8 v |@.+1@A+$@M +@} | * & = ",
"2@z W+~ ( ] 0 # @ $ z z $ @ # # ++f.~+| o & & 4 | 3@` /.[@[ d E+>+G.H.| 4 & * & & * & z n r # # r 8 O P+d+1@4@!.G+l.~ | 4 * * a ",
"  * & z n r # # r 8 O O 8 r # # r 8 }@| 4 & & * & z n 5@6@_ e 7@P | 4 & & & & & & & & . % @ # v r q.&+-@R+K+B.|@@ % ++& & * & ) ",
"M+* & z n r # # @ /.8 8 /.@ # # @ /.8 } | & & * & z n >@_.: _ 8@` } 3 & & & & & & & & . % @ ^+Q+9@|+{.5.s @ # # r n v v * * & ) ",
"B+4 | ~ [ / ^ 0 ] r r r @ _ e e _ 6@0@8 }@| 4 4 | }@8 @ # 0 / @ r [ ~ | 4 & * & & * & ++W `+t C.R+G+a@F.v / 0 # r n z & v v & a ",
"  | b@( < 0 c (.0 # # # # e R R e _.6@c@8 } | | } 8 9 r # c 0 # # < [ } | & & & & & & Y.6.b+ +].$.v v # # 0 (.# r % . & & v v = ",
"V+~ x _ : # # 0 (.(.0 # # d [ [ d e _ 6@0@8 }@}@8 > > r ' c ^ # # : _ [ ~ . z . 7.&+E.;@d@I e ++1 - - - - 1 5 e R ( ~ . z z v P ",
"b [ e@e _ r r ] 0 0 / @ r ( ~ ~ ( f@e _.6@/.8 8 /.> > @ ' 0 / r r _ e < [ T+Q+O.g@J+=+d+l.v v x y = = = = y x _ e d [ % n n % {@",
" ._ ..d ( 8 h@r # # @ c@8 } | | } [ < e _ >@0@> > 0@>@_ e < [ v v [ d e p..+i@j@O.Y.r |@P+# r 8 O . z z . O 8 r # 0 / @ r @ @ >@",
"k@: / ( ~ O 8 r # # r 8 O 7 4 4 7 ~ [ f@e _.6@> > >@l@e R ( ~ v z ~ f.s m@P.m.u # # # ^ v # r /.8 $ $ $ $ 8 /.r # c ^ # # S # _.",
":.# <.8 O ~ ( _ e < [ } | & & & & 7 } ( < e _ r r _ e < [ v | & & T y+N.b+n@O.|@N N N N v 0 ] @ r @ @ @ r r @ ] 0 c ^ # # # # l@",
":.# 8.h@8 ( d e _ [ ~ | 4 & & & & 4 | ~ [ R e ' ' e R [ ~ | 4 * * z n r p.o@p@*.o@3.N N v (.0 # # # # # # # # 0 (.0 ] @ r @ @ >@",
":.0 q@r r / 0 # r n z & * & & * & 4 | O 8 r # c 0 < ( } v & & & & | } ( < 0 c M p@*.].~+v # # # # # # 0 (.(.0 # # < [ n n 8 /.> ",
":.(.t.' # ^ c # r n z & * & & & & | } 8 /.r # ^ / [ v v 4 & & & & 4 | ~ [ ] 0 N N Y.E.4.m@*+|@@ @ r @ / 0 0 / @ r ( ~ z z }@8 > ",
">.# ^ # # # # : _ [ ~ 7 4 4 7 z T ~ [ r @ / 0 # r n z & * & & & & & & T % @ S c 0 d ( ^+m.Y *+N.++8 9 @ # # r /.8 } | & & H.f+r ",
" .r 8.@ @ r r _ e < [ } | | } n % [ < # # 0 (.# r n z & * & & & & * & z n r # 0 ] ( ~ . z ~+9@;@=.S+^.r # # r 8 O | 4 * * X+6+' ",
"Q 9 {@% n n % [ < : _ ( ~ ~ ( r @ _ e # # # # : _ [ ~ | 4 & & & & & & | } [ < e _ [ ~ | 4 & & ~+6.4.-@Z d e _ [ ~ | 4 * * r@- N ",
"w 8 ~ . z z . ~ [ _ : d [ [ d # S e _ @ r r r _ e < [ } | & & & & & & 4 | ~ [ R e d ( } 3 & * * & F.o@K _@o@a@< ( } 7 * & = - s@",
"b } | & & & & | } [ < e _ R e # # < [ % n n % [ < : _ [ ~ | 4 & * & & * & z n r # ^ / [ ~ | 4 * * 4 | ~ /@4.R+-+f.W v ++z v 1 t@",
"! | N+& * * & 4 | ~ [ _ : e _ @ r [ ~ . z z . ~ [ _ : < [ } | & & & & * & z n r # s+^ < [ } | & & 7 } ( d u@%.*+b+*+f.$ q.v 5 t@",
"V+| N+& & & & * & 3 } x 5 # @ c@8 } | & & & & | } [ < e R ( ~ . z . . z . ~ [ _ : # # : _ [ ~ z z ~ [ _ : d [ q.v@L 4.{+*+p.0 s@",
"b } | & & & & & & 4 | 2 f # @ 8 O | 4 & * * & 4 | ~ [ _ : < [ % n % % n % [ d e _ r r _ e < [ n n [ < : _ ( ~ ~ ( _ t w@J+K+Z +@",
" .[ x@| 4 4 7 . T z . 2 1 5 x } 7 & & & & & & * & H.f+] ^ 0 / @ r @ @ r r _ e d [ n n [ < e _ r r _ e < [ } | | ).&+K X.J ^+N (.",
"k@< y@} | | } % % $ $ x 5 1 2 | 4 & & & & & & * & X+r.0 z@c 0 # # # # # # : _ [ ~ z z ~ [ _ : # # : _ [ ~ 7 Z+z+j@ +J  @|@N N 0 ",
":.# 8.8 O ~ ( @ @ r @ / 0 f y | 4 & * & & * & 4 | y 1 (.^ # # # # # # 0 (.S @ % T & & 7 } x 5 c ^ < [ y+9@m.k+D.=.7.% r # N N ' ",
":.# A@/.8 [ < # S # # ^ c 5 x } 7 & & & & & & 7 } x B@0 / r r @ @ r @ / 0 # r n z * * 4 | y f ^ ++&+=+i@k+S+~@* & z n r # N N ' ",
"C@# 8.0@;._ e # # # # # # e R ( ~ . z . . z . ~ ( ] 0 ' r /.8 $ $ 8 /.r ' 5 x } 3 & & * & = a@K+C.D@V.!@y+v & & & . % r # N N # ",
":.' 8.>@_.e _ @ r @ @ r r _ e < [ % n % % n % [ < ^ c # r 8 O z z O 8 @ # 1 2 | 4 & & * & = - 1 2 | 4 & & & & & & . % r # N N ' ",
"E@E+F@_ e < [ % n n % 8 9 @ # 0 ] r r @ @ r r ] 0 N N ^ ] [ ~ z z ~ [ / ^ f y T z 7 4 4 7 2 1 1 2 | 4 & * & & * & z n r # c ^ _.",
"G@>+1 e _ [ ~ . z z . O 8 r # c ^ # # # # # # 0 c N N c 0 d ( $ $ ( d 0 c 5 x % $ } | 7 } 6 5 5 x } 7 & & & & & & . % @ # 0 ] >@",
"H@= I@5 6 } 7 & & & & 7 } ( d 0 c c 0 # ' 0 (.c 0 # # # # e R r r _ e # # : _ @ @ [ ~ ~ ( ] 0 0 / [ ~ . z . . z . ~ [ _ : d [ {@",
"J@= K@f 2 | 4 & * * & 4 | ~ [ ] ^ 0 / r r / 0 0 ] r r r @ _ e # # e _ r r R e S # d [ [ d 0 c c 0 < [ % n % % n % [ d e _ ( ~ P ",
"L@= K@1 2 | 4 & & & & 4 | ~ [ _ e d [ 8 /.@ # 5 x % $ $ % x 5 c 0 d ( n n f+6+- - E+F+] 0 N N c 0 e A@r r r r r r _ e < [ } | = ",
"M@= K@5 6 } 7 & & & & 7 } ( d e R ( ~ O 8 @ # 1 y . z z . y f ^ / [ ~ . z H.G.r@= >+N@0 z@N N 0 ] _ e # # # # # # : _ [ ~ 3 4 a ",
"O@= K@S @ % T & & & & T % @ S # r $ z z $ @ # - = & * * & = - # @ n z & * & * * * r@- N N N N ' r r ' N N N N N N # r n z * * P@"};
