/* XPM */
static char * test_xpm[] = {
"64 64 417 2",
"  	c #657381",
". 	c #576168",
"+ 	c #4D4E55",
"@ 	c #434046",
"# 	c #39383B",
"$ 	c #4E5057",
"% 	c #4D4F56",
"& 	c #5B6970",
"* 	c #5B6971",
"= 	c #525D64",
"- 	c #404649",
"; 	c #525E64",
"> 	c #433F45",
", 	c #566068",
"' 	c #49444B",
") 	c #49434A",
"! 	c #3A393B",
"~ 	c #505B62",
"{ 	c #636D7B",
"] 	c #525960",
"^ 	c #49494F",
"/ 	c #3F3D42",
"( 	c #383738",
"_ 	c #3F3D41",
": 	c #494A50",
"< 	c #413E42",
"[ 	c #3C3A3D",
"} 	c #3F3F42",
"| 	c #494950",
"1 	c #51575E",
"2 	c #57626A",
"3 	c #3F4245",
"4 	c #4E575D",
"5 	c #57636B",
"6 	c #5A676F",
"7 	c #3B3C3F",
"8 	c #47494E",
"9 	c #57636A",
"0 	c #434045",
"a 	c #4D4D54",
"b 	c #4A464E",
"c 	c #3A383B",
"d 	c #383839",
"e 	c #505C62",
"f 	c #5E6371",
"g 	c #353536",
"h 	c #403F43",
"i 	c #3C3B3E",
"j 	c #52575E",
"k 	c #3E4245",
"l 	c #4E565C",
"m 	c #FFFF9B",
"n 	c #FFFFA7",
"o 	c #FFFFAF",
"p 	c #FFFFC2",
"q 	c #FFFFB8",
"r 	c #FFFFA2",
"s 	c #4E4F57",
"t 	c #5A676E",
"u 	c #535A61",
"v 	c #4D4C54",
"w 	c #66FFFF",
"x 	c #7FFFFF",
"y 	c #7CFFFF",
"z 	c #61FFFF",
"A 	c #58FFFF",
"B 	c #515D63",
"C 	c #5B5C6B",
"D 	c #444046",
"E 	c #48494F",
"F 	c #4F575D",
"G 	c #576169",
"H 	c #FFFF92",
"I 	c #FFFF94",
"J 	c #FFFF9E",
"K 	c #FFFFBB",
"L 	c #FFFFCD",
"M 	c #FFFFB6",
"N 	c #FFFFA1",
"O 	c #FFFF96",
"P 	c #62FFFF",
"Q 	c #80FFFF",
"R 	c #96FFFF",
"S 	c #A8FFFF",
"T 	c #A3FFFF",
"U 	c #6EFFFF",
"V 	c #343434",
"W 	c #545A62",
"X 	c #50575E",
"Y 	c #5A5C6A",
"Z 	c #413F43",
"` 	c #39383A",
" .	c #576068",
"..	c #FFFFC4",
"+.	c #FFFFB1",
"@.	c #59FFFF",
"#.	c #83FFFF",
"$.	c #95FFFF",
"%.	c #B7FFFF",
"&.	c #9CFFFF",
"*.	c #70FFFF",
"=.	c #333434",
"-.	c #4B4C53",
";.	c #575B68",
">.	c #3B3A3C",
",.	c #3F3F43",
"'.	c #403D42",
").	c #3F4246",
"!.	c #FFFF91",
"~.	c #FFFFC3",
"{.	c #FFFFCF",
"].	c #63FFFF",
"^.	c #77FFFF",
"/.	c #9DFFFF",
"(.	c #AFFFFF",
"_.	c #8EFFFF",
":.	c #6BFFFF",
"<.	c #464247",
"[.	c #525763",
"}.	c #403D41",
"|.	c #FFFFCC",
"1.	c #FFFF95",
"2.	c #353636",
"3.	c #A7FFFF",
"4.	c #C3FFFF",
"5.	c #AEFFFF",
"6.	c #7DFFFF",
"7.	c #4A474E",
"8.	c #3E3B3F",
"9.	c #4E5460",
"0.	c #433F44",
"a.	c #FFFF9C",
"b.	c #FFFFC1",
"c.	c #FFFFCB",
"d.	c #FFFFAA",
"e.	c #B1FFFF",
"f.	c #AAFFFF",
"g.	c #8BFFFF",
"h.	c #65FFFF",
"i.	c #423F44",
"j.	c #FFFFBC",
"k.	c #FFFFB4",
"l.	c #FFFFA4",
"m.	c #FFFF97",
"n.	c #5EFFFF",
"o.	c #69FFFF",
"p.	c #9BFFFF",
"q.	c #99FFFF",
"r.	c #3F3C3F",
"s.	c #FFFFB5",
"t.	c #FFFFBD",
"u.	c #D3FFC6",
"v.	c #D0FFC9",
"w.	c #F3FFA4",
"x.	c #72FFFF",
"y.	c #A0FFFF",
"z.	c #94FFFF",
"A.	c #74FFFF",
"B.	c #5BFFFF",
"C.	c #44494D",
"D.	c #4A4D54",
"E.	c #373637",
"F.	c #FFFF99",
"G.	c #FFFFA3",
"H.	c #FFFFB7",
"I.	c #FBFFA2",
"J.	c #FBFF9A",
"K.	c #CDFFCB",
"L.	c #FDFF96",
"M.	c #B6FFFF",
"N.	c #ABFFFF",
"O.	c #535E65",
"P.	c #556067",
"Q.	c #FFFFAC",
"R.	c #FFFFC5",
"S.	c #FFFFD7",
"T.	c #F4FFA3",
"U.	c #88FFFF",
"V.	c #A5FFFF",
"W.	c #CDFFFF",
"X.	c #6CFFFF",
"Y.	c #56FFFF",
"Z.	c #FFFF98",
"`.	c #FFFFC9",
" +	c #FFFFCE",
".+	c #FFFFC7",
"++	c #68FFFF",
"@+	c #BAFFFF",
"#+	c #D7FFFF",
"$+	c #393839",
"%+	c #FFFFA9",
"&+	c #FFFFBF",
"*+	c #75FFFF",
"=+	c #8AFFFF",
"-+	c #5DFFFF",
";+	c #3B3D3F",
">+	c #FFFFA0",
",+	c #FFFFAE",
"'+	c #FFFFD0",
")+	c #93FFED",
"!+	c #3F4649",
"~+	c #A9FFFF",
"{+	c #BEFFFF",
"]+	c #A2FFFF",
"^+	c #7BFFFF",
"/+	c #3F4346",
"(+	c #4D555B",
"_+	c #CAFFCC",
":+	c #FFFFAB",
"<+	c #FFFFD4",
"[+	c #FDFFA4",
"}+	c #D5FFC3",
"|+	c #B8FFFF",
"1+	c #CAFFFF",
"2+	c #67FFFF",
"3+	c #4D545B",
"4+	c #DDFFBD",
"5+	c #E3FFB5",
"6+	c #E6FFC0",
"7+	c #FFFFC8",
"8+	c #FDFFA1",
"9+	c #B5FFDB",
"0+	c #B3FFFF",
"a+	c #C7FFFF",
"b+	c #85FFFF",
"c+	c #3C3D3F",
"d+	c #46464C",
"e+	c #575A68",
"f+	c #44484D",
"g+	c #FAFF9A",
"h+	c #FFFF9F",
"i+	c #FFFFD6",
"j+	c #FFFF9D",
"k+	c #57FFFF",
"l+	c #98FFFF",
"m+	c #B4FFFF",
"n+	c #B0FFFF",
"o+	c #7EFFFF",
"p+	c #3F3C41",
"q+	c #4A4D53",
"r+	c #FFFFBE",
"s+	c #FFFFC0",
"t+	c #FFFFA8",
"u+	c #B2FFFF",
"v+	c #6AFFFF",
"w+	c #3D3B3E",
"x+	c #555D69",
"y+	c #3C4143",
"z+	c #353838",
"A+	c #FFFFAD",
"B+	c #343535",
"C+	c #606C79",
"D+	c #4B545A",
"E+	c #3C4042",
"F+	c #FFFFB0",
"G+	c #FFFFDA",
"H+	c #82FFFF",
"I+	c #9AFFFF",
"J+	c #60FFFF",
"K+	c #657481",
"L+	c #546168",
"M+	c #475054",
"N+	c #414448",
"O+	c #424246",
"P+	c #F4FFA2",
"Q+	c #A2FFE7",
"R+	c #B2FFEB",
"S+	c #C6FFFF",
"T+	c #D2FFFF",
"U+	c #86FFFF",
"V+	c #76FFFF",
"W+	c #3B3B3E",
"X+	c #667481",
"Y+	c #59666E",
"Z+	c #546067",
"`+	c #FFFFB9",
" @	c #F1FFAF",
".@	c #BEFFE3",
"+@	c #B7FFF3",
"@@	c #BAFFF2",
"#@	c #E5FFB8",
"$@	c #6FFFFF",
"%@	c #ADFFFF",
"&@	c #5AFFFF",
"*@	c #636E7B",
"=@	c #566067",
"-@	c #DCFFBD",
";@	c #FCFFA6",
">@	c #FFFFD1",
",@	c #EDFFBD",
"'@	c #F0FFB8",
")@	c #F4FFA4",
"!@	c #5CFFFF",
"~@	c #84FFFF",
"{@	c #92FFFF",
"]@	c #545E65",
"^@	c #58636B",
"/@	c #4D4F55",
"(@	c #84FFF4",
"_@	c #88FFF7",
":@	c #9DFFFA",
"<@	c #D6FFD9",
"[@	c #F6FFB2",
"}@	c #FFFFD5",
"|@	c #F0FFAD",
"1@	c #B7FFDA",
"2@	c #93FFFF",
"3@	c #C9FFFF",
"4@	c #90FFFF",
"5@	c #6DFFFF",
"6@	c #525966",
"7@	c #FFFFC6",
"8@	c #EFFFA9",
"9@	c #80FFFB",
"0@	c #8CFFFF",
"a@	c #6BFFFB",
"b@	c #DFFFBD",
"c@	c #E1FFC2",
"d@	c #FDFFAD",
"e@	c #9FFFFF",
"f@	c #C0FFFF",
"g@	c #87FFFF",
"h@	c #3F535D",
"i@	c #393738",
"j@	c #FEFFAE",
"k@	c #E8FFB7",
"l@	c #CFFFC9",
"m@	c #F1FFAD",
"n@	c #BFFFEE",
"o@	c #91FFFF",
"p@	c #E0FFBC",
"q@	c #79FFFF",
"r@	c #454147",
"s@	c #35515A",
"t@	c #3A3739",
"u@	c #FFFFA6",
"v@	c #FFFFA5",
"w@	c #9EFFF2",
"x@	c #B0FFE0",
"y@	c #566168",
"z@	c #F2FFA4",
"A@	c #C0FFD6",
"B@	c #FEFFA6",
"C@	c #FFFFB2",
"D@	c #5FFFFF",
"E@	c #4B4C52",
"F@	c #3D5660",
"G@	c #443F44",
"H@	c #545C63",
"I@	c #50545B",
"J@	c #F9FF9B",
"K@	c #81FFFF",
"L@	c #A6FFFF",
"M@	c #4C606C",
"N@	c #4E4E55",
"O@	c #4D4C53",
"P@	c #535A62",
"Q@	c #FFFFD8",
"R@	c #FFFFB3",
"S@	c #D4FFFF",
"T@	c #8FFFFF",
"U@	c #5E6C7A",
"V@	c #535961",
"W@	c #4C4C53",
"X@	c #D6FFFF",
"Y@	c #73FFFF",
"Z@	c #484349",
"`@	c #454146",
" #	c #424549",
".#	c #FFFF93",
"+#	c #D2FFC7",
"@#	c #73FFFA",
"##	c #BDFFDC",
"$#	c #E9FFB6",
"%#	c #CEFFD4",
"&#	c #ADFFFC",
"*#	c #BDFFFF",
"=#	c #576269",
"-#	c #48434A",
";#	c #FEFF95",
">#	c #FEFF96",
",#	c #50565D",
"'#	c #49464D",
")#	c #FFFFBA",
"!#	c #3F3E41",
"~#	c #413F42",
"{#	c #4A474F",
"]#	c #515662",
"^#	c #3E3C3F",
"/#	c #3F3B3F",
"(#	c #4C4B52",
"_#	c #525E65",
":#	c #313131",
"<#	c #4F575E",
"[#	c #313130",
"}#	c #3D3B3F",
"|#	c #403E42",
"1#	c #51585F",
"2#	c #48494E",
"3#	c #343435",
"4#	c #423F43",
"5#	c #3B3B3F",
"6#	c #4E545F",
"7#	c #454247",
"8#	c #5A606A",
"9#	c #424045",
"0#	c #6C747A",
"a#	c #6C7A80",
"b#	c #3F4447",
"c#	c #5B747D",
"d#	c #3F4548",
"e#	c #56707C",
"f#	c #404548",
"g#	c #60727F",
"h#	c #414447",
"i#	c #63707D",
"j#	c #5B656B",
"  . + @ # # @ $ . . $ @ # # @ % . & & * & = - - = * * ; - # > % . & & & & & & & & * & ; - # > $ . , $ ' ) @ ! # @ % . & & * & ~ ",
"{ ] ^ / ( ( _ : ] ] : < [ } | 1 2 & & * & ; - 3 4 5 6 ; - 7 8 1 9 & & & & & & * & 6 2 4 3 # 0 $ . 2 1 a b @ c d / | ] 2 6 * * e ",
"f : } d g g d h : : h i < | ] 2 6 & & * & ; - 7 8 j 9 ; - k l 2 6 & & & & & m n o p q r 7 # @ s . t 2 u v w x y z A : 1 9 * & B ",
"C D d g ( # c i < _ d 7 E 1 9 & & & & 6 2 F 3 c @ $ G ; - 3 4 2 6 * * H I J K L M N O D c c D s G * P Q R S T U V c D a W G G X ",
"Y 0 d d / D D Z i ( g k F 2 6 & & & & 9 1 E 7 ` > $  .; - 7 8 H H H H N q ..+.n H a b 0 c # A A @.#.$.%.&.*.# V =.# @ b a s s -.",
";.< >.,.| s s : ,.( g 3 F 2 6 * * 6 2 ] | '.d d '.: ] F ).( _ !.] r ~.{...r 0 @ @ D @ _ A ( ].^./.(._.:.a D # =.=.d '.D D D D <.",
"[.i }.: ] G G ] | _ d 7 E 1 9 & & 2 1 | } d g g d h : E 7 H H O o |.p o 1.# ` # # c c A 2.^.3.4.5.6.s a 7.D c V V 2.d c c ` # 8.",
"9.c 0.s G * * G s D c d / : ] G G W a D # V =.V V d '.< i !.a.b.c.d.D / d 2.d c c # A ].#.e.f.g.h.D D @ 0 < [ c # d g V V V V ! ",
"9.# i.s G * * G s D c g ( } | s s a b @ # V V V V g d i d.j.k.l.N m.# ( g d / @ D n.o.p.%.q.@.< i # # # c i Z D D '.d V =.=.V c ",
"9.( r.: ] G G ] | / ( =.=.d / @ D H H < i c c d 2.O s.t...r u.v.w.c A ( A c D 7.x.y.z.A.B.].b @ c g d 7 ).C.D.$ $ : ,.d g V V ! ",
"9.g E.,.: s s : ,.d g V V g d # c # c i Z D D F.G.j.{.H.I.J.K.L.| D > _ d A $.M.N.g.G G A W a D # ( _ 8 F O.P.G . ] : '.d V V ! ",
"[.d V d / D D < i # # # # c c d 2.g d } | a 7.N Q.R.S.L n T.!.2 1 s % ].U.V.W.5.X.Y.A @.& 9 1 E 7 c D a W . G G . W a D c g ( i ",
";.'.E.g ( # c i < @ D D D D @ _ d ( _ : ] W a D c Z.q `. +.+n m H H L.] ++U.@+#+f.^.z * & 6 2 4 3 ! @ 7.a $ $ $ $ a 7.D ! d / Z ",
"C D $+2.d # c } | % s s % a b > c 7 E 1 9 9 1 : } i H I %+&+{..+d.F.a.. % > *+q.5.4.S =+-+6 A 4 3 d _ D D D @ @ @ D @ _ d ;+E 8 ",
"C D $+d _ > D | ] . G G . W a @ c 3 F 9 6 6 2 ] !.< i } | 1 >+,+t.'+..F.s )+A !+h.=+~+{+]+Q ^+X.7 2.d c c # # # # c c ( 2./+F (+",
"C D $+c @ b a 1 2 & & & & 9 1 8 !.H 4 9 !.!.H H a D c d / | ] _+:+<+{.s.[+}+# k 4 . G U 6.|+1+g.2+V V V V 2.d c c c # ( g /+F 3+",
"C @ $+c D a W 2 6 & * * & 6 H 4 3 7 E 1 9 2 1 a 7.D c 4+5+6+o t.7+~.8+9+% @ # 7 E % $ s :.0+a+p.b+-+=.=.V d / @ D D @ _ d c+E d+",
"e+_ E.# @ % . & & & & & & * & O.f+i < : ] ] : D > '.g+V h+p i+j.j+G G ] | < [ A k+U l+m+5.n+o+Z i d g =.V c D 7.a s s | } i < p+",
"[.d V # D s G & * & & & & * & P.q+< [ ,.| | ,.H # d l.r+s+,+t+h+!.s s | A A A Z A.&.4.u+v+# c w+Z '.d V V c D a W G G ] : Z [ >.",
"x+y+z+` D s G & * & & & & * & G s @ # d _ H H I A+b.|.+.Z.V V H '.D D A i ,.^.~+3.U.2+n.@.g d ,.| | ,.( B+# D s . & & 9 1 E 7 ! ",
"C+D+E+# @ % . & & & & & & & & . s D # g ( Z.F+p i+G+j.m V V V H d @.A n.H+%.4.I+J+F 8 A ( ( _ : ] ] : / d # @ s G * * 6 2 4 k ! ",
"K+L+M+N+O+: ] . G . . . . G . W a D # r Q.b.&+,+Q.A+M R.k.J g !.P+Q+R+S S+T+|+U+V+W a @ A W+8 1 5 5 1 : } [ < q+P.* * 6 2 F 3 ! ",
"X+Y+Z+(+N+,.| % s % % % % s % a 7.j+F+R.`+l.m.!.G ] : r H.~.t. @.@+@@@#@*.$@^.p.%@=+:.&@A 3 F 9 6 6 9 ] | < i f+O.& * 9 1 E 7 ! ",
"*@G =@F ).d _ D D @ @ @ @ @ D J k.R.r+,+1.1 5 * H 2 1 s -@;@7+>@`+,@'@)@/ @ D !@~@$.5.{@X.C.]@A ^@G  .W a @ c ).F G G ] | _ ( c ",
"f $ /@E 7 g ( # c # # # # h+t.~.M G.Z | ] 2 6 * * 6 (@_@:@<@[@r+L }@.+l.|@1@c # # J+2@3@4.y.4@5@1 s % a 7.@ c 7 8 s $ | } ( g ! ",
"6@D 0.'.d V V H d c I A+q 7@+.j+d } : 1 9 Y+2 2 8@9@&.N.0@o+a@D b@c@d@s+b.t+# # # # # x e@|+f@&.g@n.> D @ _ d d / D D < i ` # 8.",
"h@c i@d g V V d / H s.b.j@k@l@( _ | ] A 6 2 B.~@m@n@o@].& G s D c d / p@%+p r++.m.D @ < i h ++U.3./.q@c c d 2.g d # c i < @ D r@",
"s@c t@d g =.V F.n u@v@a 7.@ c c @ v u 2 t 2 #.e@w@x@y@5 6 G $ @ ` ` > H z@A@B@p b.C@h+| ,.i < Z D@_.]+S H+J+! d g B+d } | s s E@",
"F@D G@'.d V m n l.a W W a D c ! D 7.a o.o+o+$@H@I@% % 1 2 . $ @ # c D a W H J@L.t+L |.F+u@H [ i @.@ n.K@L@T 4@z d ( _ | ] G G X ",
"M@s N@: a.a.g # D $ G G $ @ # c @ 7.2+5@U & & 2 1 O@b a P@] : O+N+f+q+1 2 & & N .+Q@.+R@G.@ # c @ 7.A k+o.3.S@M.T@:.| 1 2 * & B ",
"U@G =@] : / d # @ $ G G $ @ # c n.++u 2 t & & 6 2 V@W@7.O@| ,.N+(+O.!.2 6 J Q...R.H.h+G s H # # D a W 5@S X@@+U.Y@-+] 2 6 * * e ",
"  * & G s D c c D a W W a D # # D a P@2 6 & & * & G s Z@`@< i  #X I N >+Q.R.'+M 1.& & . % .#+#a@@.P 4@S V.4@x.# @ % @.& & * & ~ ",
"X+* & G s D c c @ 7.a a 7.@ c c @ 7.a 1 2 & & * & G s r@8.[ H H H J p c.q t+u@.#& & & . % @###$#%#&#*#T o.@ c # D s A & * * & ~ ",
"K+6 =#] | _ ( d / D D D @ < i i < `@-#a P@2 6 6 2 P@a @ c d .#l.H.|.p J H !.H & & * & G s D # d ;#>#> > > _ d # D s G & * * & e ",
"  2 ,#: } d g 2.d c c # c i Z Z i 8.`@'#a 1 2 2 1 a b D J Q.H..+M l.m.1 2 & & & & & & . % D # 2.d H c c c d 2.# D % . & & * & B ",
"*@] E < [ c c d 2.2.d # c ,.| | ,.i < `@-#a P@P@a.u@n )#'+}@b.J !.!.H | ] . G . . G . ] : Z i 7 ).- - - - ).7 i Z : ] . G G . X ",
"f | !#i < D D / d d _ > D : ] ] : ~#H H `@7.a a r 7+S..+Q.h+J m !.< i } | % s % % s % | ,.i < E F ; ; ; ; F E < i ,.| % s s % E@",
";.< >.,.: a {#D c # > '#a 1 2 2 1 | H H < r@-#%+7+`.Q.J i } | H s | ,.i < D D D D D D / d c D a W . G G . W a D c d _ @ D @ @ r@",
"]#[ }.: ] W a D c c D a W 9 6 6 !.] | ~#i F.F+R.i+&+I i Z : ] H G ] | < [ # # # # c # ( g c D 7.a $ $ $ $ a 7.D c g ( # c ` # 8.",
"9.c 0.a W ] : < i } | 1 2 & & & H 9 1 : } i < O o r+s+Q.m.1 2 !.&  .% @ ` V V V V V V =.V d / @ D @ @ @ D D @ / d g ( # c # c ^#",
"9.c i.{#a : ,.i < | ] 2 6 & & H H 6 2 ] | Z i ! ! i n b.7@Q.F.H * G s D # V =.V V V V V V 2.d c c # # # # c c d 2.d / @ D @ @ r@",
"9.d /#D D _ d # D s G & * & H H & 6 2 W a D c g d } : 1 G.b.p R@F+J 1 : } d g V V g d # c # # # # c c d 2.2.d # c } | s s a 7.' ",
"9.2.E.! c ( g # D s G & * & & & & 2 1 a 7.D c ( _ | ] 2 6 & N )#c.k.n .#| '.d V V d '.D D D @ @ @ D @ _ d d _ 0 D : ] G G P@a ' ",
"[.c ( # # # # [ < | ] 9 6 6 9 G  .] | D > _ d # D s G & * & & 1.N k...M >+@ ` g d ,.: $ $ % % s % a b > # c D 7.a 1 2 & & P.q+D ",
";.D i.@ @ D D < i } | 1 2 2 1 s % | } c # d 2.c D s G & * & & & & * J R.`.R@c d / : ] . G . . G . W a D c c D a W 2 6 * * ]@f+! ",
"Y b (#% s s % | } [ < : ] ] : D > < i # # # # [ < | ] 2 6 & & & & & & 2 1 | } i < | ] 2 6 & & & & 9 1 : ,.i < | ] 2 6 * * _#- =.",
"C a ] . G G . ] | < [ ,.| | ,.# ` i < @ D D D < i } | 1 2 & & & & & & 6 2 ] | Z i ,.: 1 5 & * * & 6 2 ] | < i } : 1 9 * & ; !+:#",
"f 1 =#& & & & 2 1 | } i < Z i # # } | % s s % | } [ < | ] 2 6 & * & & * & G s D # ( _ | ] 2 6 * * 6 2 ] | < [ [ < | ] G G <#).[#",
"{ 2 Y+& * * & 6 2 ] | < [ i < > D | ] . G G . ] | < [ } | 1 2 & & & & * & G s D # B+( } | 1 2 & & 9 1 : ,.}#< < i } | $ s E 7 [#",
"*@2 Y+& & & & * & 5 1 E 7 c > '#a 1 2 & & & & 2 1 | } i Z : ] . G . . G . ] | < [ # # [ < | ] G G ] | < [ ,.| | ,.i < D D |#d :#",
"f 1 =#& & & & & & 6 2 4 k # @ a W 2 6 & * * & 6 2 ] | < [ } | % s % % s % | ,.i < D D < i } | s s | } [ < : ] ] : < [ c # d g =.",
";.| 1#2 6 6 9 .  .G . 4 ).7 E 1 9 & & & & & & * & P.q+/ ( d _ @ D @ @ D D < i ,.| s s | } i < D D < i } | 1 2 2 1 : } d g V V 2.",
"]#} 2#1 2 2 1 % % $ $ E 7 3 4 2 6 & & & & & & * & ]@C.d 3#g d # c # # # # [ < | ] G G ] | < [ # # [ < | ] 9 6 6 9 ] | / ( V V d ",
"9.c i.a W ] : @ > D @ _ d k F 2 6 & * & & * & 6 2 F 3 2.( c c # # c c d 2.` @ %  .& & 9 1 E 7 g ( } | 1 2 & & & & . % D # V V ! ",
"9.# 4#7.a | } # ` c # ( g 7 E 1 9 & & & & & & 9 1 E 5#d _ D D @ @ D @ _ d # D s G * * 6 2 F k ( _ | ] 2 6 & & * & G s D c V V ! ",
"6#c i.-#7#< i # # # # # c i Z : ] . G . . G . ] : / d ! D 7.a $ $ a 7.D ! 7 E 1 5 & & * & ; - 7 8 1 9 & & & & & & . % D # V =.c ",
"9.! i.r@8.i < @ D @ @ D D < i } | % s % % s % | } ( g c D a W G G W a @ c 3 4 2 6 & & * & ; - 3 4 2 6 & & & & & & . % D # V V ! ",
"8#N+9#< i } | % s s % a b 0 # d / D D @ @ D D '.d =.=.( / | ] G G ] | _ ( k F  .G 9 6 6 9 4 3 3 4 2 6 & * & & * & G s D # g ( 8.",
"0#(+).i < | ] . G G . W a D # g ( # c # # c # d g V V g d ,.: $ $ : ,.d g 7 E % $ 1 2 9 1 8 7 7 E 1 9 & & & & & & . % @ # d / r@",
"a#; b#7 8 1 9 & & & & 9 1 : ,.d g g d c ! d 2.g d # c # # i Z D D < i # # [ < > > | ] ] : '.d d _ | ] . G . . G . ] | < [ ,.| E@",
"c#; d#k 4 2 6 & * * & 6 2 ] | / ( d _ D D _ d d / D D D @ < i # # i < D D Z i ` # ,.| | ,.d g g d } | % s % % s % | ,.i < : ] X ",
"e#; f#3 4 2 6 & & & & 6 2 ] | < i ,.| a 7.@ c 7 E % $ $ % E 7 g d ,.: s s q+f+- !+N+O+'.d V V g d i 4#D D D D D D < i } | j 2 B ",
"g#; d#7 8 1 9 & & & & 9 1 : ,.i Z : ] W a @ c ).F . G G . F k ( _ | ] . G P.O._#; (+h#d 3#V V d '.< i # # # # # # [ < | ] ^@6 e ",
"i#; d#` > %  .& & & &  .% > ` # D $ G G $ > # - ; & * * & ; - c > s G & * & * * * _#- V =.V V ! D D ! V =.V V =.V # D s G * * j#"};
