/* XPM */
static char * test4_xpm[] = {
"64 64 397 2",
"  	c #54606C",
". 	c #495157",
"+ 	c #404147",
"@ 	c #38353A",
"# 	c #302F31",
"$ 	c #414349",
"% 	c #404248",
"& 	c #4C585D",
"* 	c #4C585E",
"= 	c #444E53",
"- 	c #353A3D",
"; 	c #485057",
"> 	c #3D393F",
", 	c #3D383E",
"' 	c #303031",
") 	c #434C52",
"! 	c #535B67",
"~ 	c #444A50",
"{ 	c #3D3D42",
"] 	c #353337",
"^ 	c #2F2E2F",
"/ 	c #353336",
"( 	c #3D3E43",
"_ 	c #363437",
": 	c #323033",
"< 	c #353537",
"[ 	c #3D3D43",
"} 	c #44494E",
"| 	c #495258",
"1 	c #35373A",
"2 	c #41494E",
"3 	c #495359",
"4 	c #4B565D",
"5 	c #313235",
"6 	c #3B3D41",
"7 	c #495358",
"8 	c #404046",
"9 	c #3E3A41",
"0 	c #2F2F30",
"a 	c #434D52",
"b 	c #4E535E",
"c 	c #2C2C2D",
"d 	c #353538",
"e 	c #323134",
"f 	c #34373A",
"g 	c #41484D",
"h 	c #FFFF9B",
"i 	c #FFFFA7",
"j 	c #FFFFAF",
"k 	c #FFFFC2",
"l 	c #FFFFB8",
"m 	c #FFFFA2",
"n 	c #414249",
"o 	c #4B565C",
"p 	c #454B51",
"q 	c #403F46",
"r 	c #66FFFF",
"s 	c #7FFFFF",
"t 	c #7CFFFF",
"u 	c #61FFFF",
"v 	c #58FFFF",
"w 	c #4C4D59",
"x 	c #39353A",
"y 	c #3C3D42",
"z 	c #42494E",
"A 	c #495158",
"B 	c #FFFF92",
"C 	c #FFFF94",
"D 	c #FFFF9E",
"E 	c #FFFFBB",
"F 	c #FFFFCD",
"G 	c #FFFFB6",
"H 	c #FFFFA1",
"I 	c #FFFF96",
"J 	c #62FFFF",
"K 	c #80FFFF",
"L 	c #96FFFF",
"M 	c #A8FFFF",
"N 	c #A3FFFF",
"O 	c #6EFFFF",
"P 	c #2B2B2B",
"Q 	c #464B52",
"R 	c #43494E",
"S 	c #4B4D58",
"T 	c #363538",
"U 	c #302F30",
"V 	c #495057",
"W 	c #FFFFC4",
"X 	c #FFFFB1",
"Y 	c #59FFFF",
"Z 	c #83FFFF",
"` 	c #95FFFF",
" .	c #B7FFFF",
"..	c #9CFFFF",
"+.	c #70FFFF",
"@.	c #3F3F45",
"#.	c #494C57",
"$.	c #313032",
"%.	c #FFFF91",
"&.	c #FFFFC3",
"*.	c #FFFFCF",
"=.	c #63FFFF",
"-.	c #77FFFF",
";.	c #9DFFFF",
">.	c #AFFFFF",
",.	c #8EFFFF",
"'.	c #6BFFFF",
").	c #3A373B",
"!.	c #444953",
"~.	c #FFFFCC",
"{.	c #FFFF95",
"].	c #2C2D2D",
"^.	c #A7FFFF",
"/.	c #C3FFFF",
"(.	c #AEFFFF",
"_.	c #7DFFFF",
":.	c #3E3B41",
"<.	c #343135",
"[.	c #414650",
"}.	c #383539",
"|.	c #FFFF9C",
"1.	c #FFFFC1",
"2.	c #FFFFCB",
"3.	c #FFFFAA",
"4.	c #B1FFFF",
"5.	c #AAFFFF",
"6.	c #8BFFFF",
"7.	c #65FFFF",
"8.	c #373539",
"9.	c #FFFFBC",
"0.	c #FFFFB4",
"a.	c #FFFFA4",
"b.	c #FFFF97",
"c.	c #5EFFFF",
"d.	c #69FFFF",
"e.	c #9BFFFF",
"f.	c #99FFFF",
"g.	c #353235",
"h.	c #FFFFB5",
"i.	c #FFFFBD",
"j.	c #D3FFC6",
"k.	c #D0FFC9",
"l.	c #F3FFA4",
"m.	c #72FFFF",
"n.	c #A0FFFF",
"o.	c #94FFFF",
"p.	c #74FFFF",
"q.	c #5BFFFF",
"r.	c #393D40",
"s.	c #3E4046",
"t.	c #2E2D2E",
"u.	c #FFFF99",
"v.	c #FFFFA3",
"w.	c #FFFFB7",
"x.	c #FBFFA2",
"y.	c #FBFF9A",
"z.	c #CDFFCB",
"A.	c #FDFF96",
"B.	c #B6FFFF",
"C.	c #ABFFFF",
"D.	c #454E54",
"E.	c #475056",
"F.	c #FFFFAC",
"G.	c #FFFFC5",
"H.	c #FFFFD7",
"I.	c #F4FFA3",
"J.	c #88FFFF",
"K.	c #A5FFFF",
"L.	c #CDFFFF",
"M.	c #6CFFFF",
"N.	c #56FFFF",
"O.	c #FFFF98",
"P.	c #FFFFC9",
"Q.	c #FFFFCE",
"R.	c #FFFFC7",
"S.	c #68FFFF",
"T.	c #BAFFFF",
"U.	c #D7FFFF",
"V.	c #FFFFA9",
"W.	c #FFFFBF",
"X.	c #75FFFF",
"Y.	c #8AFFFF",
"Z.	c #5DFFFF",
"`.	c #313335",
" +	c #FFFFA0",
".+	c #FFFFAE",
"++	c #FFFFD0",
"@+	c #93FFED",
"#+	c #A9FFFF",
"$+	c #BEFFFF",
"%+	c #A2FFFF",
"&+	c #7BFFFF",
"*+	c #35383A",
"=+	c #40474C",
"-+	c #CAFFCC",
";+	c #FFFFAB",
">+	c #FFFFD4",
",+	c #FDFFA4",
"'+	c #D5FFC3",
")+	c #B8FFFF",
"!+	c #CAFFFF",
"~+	c #67FFFF",
"{+	c #40464C",
"]+	c #DDFFBD",
"^+	c #E3FFB5",
"/+	c #E6FFC0",
"(+	c #FFFFC8",
"_+	c #FDFFA1",
":+	c #B5FFDB",
"<+	c #B3FFFF",
"[+	c #C7FFFF",
"}+	c #85FFFF",
"|+	c #323335",
"1+	c #3A3A3F",
"2+	c #494B57",
"3+	c #393C40",
"4+	c #FAFF9A",
"5+	c #FFFF9F",
"6+	c #FFFFD6",
"7+	c #FFFF9D",
"8+	c #57FFFF",
"9+	c #98FFFF",
"0+	c #B4FFFF",
"a+	c #B0FFFF",
"b+	c #7EFFFF",
"c+	c #353236",
"d+	c #3E4045",
"e+	c #FFFFBE",
"f+	c #FFFFC0",
"g+	c #FFFFA8",
"h+	c #B2FFFF",
"i+	c #6AFFFF",
"j+	c #333134",
"k+	c #474E58",
"l+	c #323638",
"m+	c #2C2F2F",
"n+	c #FFFFAD",
"o+	c #2B2C2C",
"p+	c #505A65",
"q+	c #3F464B",
"r+	c #323537",
"s+	c #FFFFB0",
"t+	c #FFFFDA",
"u+	c #82FFFF",
"v+	c #9AFFFF",
"w+	c #60FFFF",
"x+	c #54616C",
"y+	c #465157",
"z+	c #3B4346",
"A+	c #36393C",
"B+	c #37373A",
"C+	c #F4FFA2",
"D+	c #A2FFE7",
"E+	c #B2FFEB",
"F+	c #C6FFFF",
"G+	c #D2FFFF",
"H+	c #86FFFF",
"I+	c #76FFFF",
"J+	c #313134",
"K+	c #55616C",
"L+	c #4A555C",
"M+	c #465056",
"N+	c #FFFFB9",
"O+	c #F1FFAF",
"P+	c #BEFFE3",
"Q+	c #B7FFF3",
"R+	c #BAFFF2",
"S+	c #E5FFB8",
"T+	c #6FFFFF",
"U+	c #ADFFFF",
"V+	c #5AFFFF",
"W+	c #535C67",
"X+	c #485056",
"Y+	c #DCFFBD",
"Z+	c #FCFFA6",
"`+	c #FFFFD1",
" @	c #EDFFBD",
".@	c #F0FFB8",
"+@	c #F4FFA4",
"@@	c #5CFFFF",
"#@	c #84FFFF",
"$@	c #92FFFF",
"%@	c #464E54",
"&@	c #404247",
"*@	c #84FFF4",
"=@	c #88FFF7",
"-@	c #9DFFFA",
";@	c #D6FFD9",
">@	c #F6FFB2",
",@	c #FFFFD5",
"'@	c #F0FFAD",
")@	c #B7FFDA",
"!@	c #93FFFF",
"~@	c #C9FFFF",
"{@	c #90FFFF",
"]@	c #6DFFFF",
"^@	c #444A55",
"/@	c #FFFFC6",
"(@	c #EFFFA9",
"_@	c #80FFFB",
":@	c #8CFFFF",
"<@	c #6BFFFB",
"[@	c #DFFFBD",
"}@	c #E1FFC2",
"|@	c #FDFFAD",
"1@	c #9FFFFF",
"2@	c #C0FFFF",
"3@	c #87FFFF",
"4@	c #35454E",
"5@	c #302E2F",
"6@	c #FEFFAE",
"7@	c #E8FFB7",
"8@	c #CFFFC9",
"9@	c #F1FFAD",
"0@	c #BFFFEE",
"a@	c #91FFFF",
"b@	c #E0FFBC",
"c@	c #79FFFF",
"d@	c #3A363B",
"e@	c #2C444B",
"f@	c #302E30",
"g@	c #FFFFA6",
"h@	c #FFFFA5",
"i@	c #9EFFF2",
"j@	c #B0FFE0",
"k@	c #485157",
"l@	c #F2FFA4",
"m@	c #C0FFD6",
"n@	c #FEFFA6",
"o@	c #FFFFB2",
"p@	c #5FFFFF",
"q@	c #3F3F44",
"r@	c #334850",
"s@	c #393539",
"t@	c #464D53",
"u@	c #43464C",
"v@	c #F9FF9B",
"w@	c #81FFFF",
"x@	c #A6FFFF",
"y@	c #3F505A",
"z@	c #414147",
"A@	c #403F45",
"B@	c #454B52",
"C@	c #FFFFD8",
"D@	c #FFFFB3",
"E@	c #D4FFFF",
"F@	c #8FFFFF",
"G@	c #4E5A66",
"H@	c #454A51",
"I@	c #D6FFFF",
"J@	c #73FFFF",
"K@	c #3C383D",
"L@	c #3A363A",
"M@	c #373A3D",
"N@	c #FFFF93",
"O@	c #D2FFC7",
"P@	c #73FFFA",
"Q@	c #BDFFDC",
"R@	c #E9FFB6",
"S@	c #CEFFD4",
"T@	c #ADFFFC",
"U@	c #BDFFFF",
"V@	c #3C383E",
"W@	c #FEFF95",
"X@	c #FEFF96",
"Y@	c #43484E",
"Z@	c #3D3A40",
"`@	c #FFFFBA",
" #	c #353436",
".#	c #363537",
"+#	c #3E3B42",
"@#	c #444852",
"##	c #343235",
"$#	c #353135",
"%#	c #444E54",
"&#	c #292929",
"*#	c #292928",
"=#	c #333135",
"-#	c #353437",
";#	c #44494F",
">#	c #3C3D41",
",#	c #2B2B2C",
"'#	c #373538",
")#	c #313135",
"!#	c #41464F",
"~#	c #4B5058",
"{#	c #37353A",
"]#	c #5A6166",
"^#	c #5A666B",
"/#	c #35393B",
"(#	c #4C6168",
"_#	c #353A3C",
":#	c #485D67",
"<#	c #505F6A",
"[#	c #36393B",
"}#	c #535D68",
"|#	c #4C5459",
"  . + @ # # @ $ . . $ @ # # @ % . & & * & = - - = * * = - # @ % . & & & & & & & & * & = - # @ $ . ; $ > , @ ' # @ % . & & * & ) ",
"! ~ { ] ^ ^ / ( ~ ~ ( _ : < [ } | & & * & = - 1 2 3 4 = - 5 6 } 7 & & & & & & * & 4 | 2 1 # @ $ . | } 8 9 @ # 0 ] [ ~ | 4 * * a ",
"b ( < 0 c c 0 d ( ( d e _ [ ~ | 4 & & * & = - 5 6 } 7 = - f g | 4 & & & & & h i j k l m 5 # @ n . o | p q r s t u v ( } 7 * & = ",
"w x 0 c ^ # # e _ / 0 5 y } 7 & & & & 4 | z 1 # @ $ A = - 1 2 | 4 * * B C D E F G H I x # # x n A * J K L M N O P # x 8 Q A A R ",
"S @ 0 0 ] x x T e ^ c f z | 4 & & & & 7 } y 5 U @ $ V = - 5 6 B B B B H l W X i B 8 9 @ # # v v Y Z `  ...+.# P P # @ 9 8 n n @.",
"#._ $.d [ n n ( d ^ c 1 z | 4 * * 4 | ~ [ ] 0 0 ] ( ~ z 1 ^ / %.~ m &.*.W m @ @ @ x @ / v ^ =.-.;.>.,.'.8 x # P P 0 ] x x x x ).",
"!.e / ( ~ A A ~ [ / 0 5 y } 7 & & | } [ < 0 c c 0 d ( y 5 B B I j ~.k j {.# U # # # # v ].-.^./.(._.n 8 :.x # P P ].0 # # U # <.",
"[.# }.n A * * A n x # 0 ] ( ~ A A Q 8 x # P P P P 0 ] _ e %.|.1.2.3.x ] 0 ].0 # # # v =.Z 4.5.6.7.x x @ @ _ : # # 0 c P P P P ' ",
"[.# 8.n A * * A n x # c ^ < [ n n 8 9 @ # P P P P c 0 e 3.9.0.a.H b.# ^ c 0 ] @ x c.d.e. .f.Y _ e # # # # e T x x ] 0 P P P P # ",
"[.^ g.( ~ A A ~ [ ] ^ P P 0 ] @ x B B _ e # # 0 ].I h.i.W m j.k.l.# v ^ v # x :.m.n.o.p.q.=.9 @ # c 0 5 1 r.s.$ $ ( d 0 c P P ' ",
"[.c t.d ( n n ( d 0 c P P c 0 # # # # e T x x u.v.9.*.w.x.y.z.A.[ x @ / 0 v ` B.C.6.A A v Q 8 x # ^ / 6 z D.E.A . ~ ( ] 0 P P ' ",
"!.0 P 0 ] x x _ e # # # # # # 0 ].c 0 < [ 8 :.H F.G.H.F i I.%.| } n % =.J.K.L.(.M.N.v Y & 7 } y 5 # x 8 Q . A A . Q 8 x # c ^ e ",
"#.] t.c ^ # # e _ @ x x x x @ / 0 ^ / ( ~ Q 8 x # O.l P.Q.R.i h B B A.~ S.J.T.U.5.-.u * & 4 | 2 1 ' @ :.8 $ $ $ $ 8 :.x ' 0 ] T ",
"w x U ].0 # # < [ % n n % 8 9 @ # 5 y } 7 7 } ( < e B C V.W.*.R.3.u.|.. % @ X.f.(./.M Y.Z.4 v 2 1 0 / x x x @ @ @ x @ / 0 `.y 6 ",
"w x U 0 / @ x [ ~ . A A . Q 8 @ # 1 z 7 4 4 | ~ %._ e < [ }  +.+i.++W u.n @+v - 7.Y.#+$+%+K &+M.5 ].0 # # # # # # # # ^ ].*+z =+",
"w x U # @ 9 8 } | & & & & 7 } 6 %.B 2 7 %.%.B B 8 x # 0 ] [ ~ -+;+>+*.h.,+'+# f 2 . A O _.)+!+6.~+P P P P ].0 # # # # ^ c *+z {+",
"w @ U # x 8 Q | 4 & * * & 4 B 2 1 5 y } 7 | } 8 :.x # ]+^+/+j i.(+&._+:+% @ # 5 y % $ n '.<+[+e.}+Z.P P P 0 ] @ x x @ / 0 |+y 1+",
"2+/ t.# @ % . & & & & & & * & D.3+e _ ( ~ ~ ( x @ ] 4+P 5+k 6+9.7+A A ~ [ _ : v 8+O 9+0+(.a+b+T e 0 c P P # x :.8 n n [ < e _ c+",
"!.0 P # x n A & * & & & & * & E.d+_ : d [ [ d B # 0 a.e+f+.+g+5+%.n n [ v v v T p.../.h+i+# # j+T ] 0 P P # x 8 Q A A ~ ( T : $.",
"k+l+m+U x n A & * & & & & * & A n @ # 0 / B B C n+1.~.X O.P P B ] x x v e d -.#+^.J.~+c.Y c 0 d [ [ d ^ o+# x n . & & 7 } y 5 ' ",
"p+q+r+# @ % . & & & & & & & & . n x # c ^ O.s+k 6+t+9.h P P P B 0 Y v c.u+ ./.v+w+z 6 v ^ ^ / ( ~ ~ ( ] 0 # @ n A * * 4 | 2 f ' ",
"x+y+z+A+B+( ~ . A . . . . A . Q 8 x # m F.1.W..+F.n+G G.0.D c %.C+D+E+M F+G+)+H+I+Q 8 @ v J+6 } 3 3 } ( < : _ d+E.* * 4 | z 1 ' ",
"K+L+M+=+A+d [ % n % % % % n % 8 :.7+s+G.N+a.b.%.A ~ ( m w.&.i.O+P+Q+R+S++.T+-.e.U+Y.'.V+v 1 z 7 4 4 7 ~ [ _ e 3+D.& * 7 } y 5 ' ",
"W+A X+z 1 0 / x x @ @ @ @ @ x D 0.G.e+.+{.} 3 * B | } n Y+Z+(+`+N+ @.@+@] @ x @@#@` (.$@M.r.%@v 3 A V Q 8 @ # 1 z A A ~ [ / ^ # ",
"b $ &@y 5 c ^ # # # # # # 5+i.&.G v.T [ ~ | 4 * * 4 *@=@-@;@>@e+F ,@R.a.'@)@# # # w+!@~@/.n.{@]@} n % 8 :.@ # 5 6 n $ [ < ^ c ' ",
"^@x }.] 0 P P B 0 # C n+l /@X 7+0 < ( } 7 L+| | (@_@..C.:@b+<@x [@}@|@f+1.g+# # # # # s 1@)+2@..3@c.@ x @ / 0 0 ] x x _ e U # <.",
"4@# 5@0 c P P 0 ] B h.1.6@7@8@^ / [ ~ v 4 | q.#@9@0@a@=.& A n x # 0 ] b@V.k e+X b.x @ _ e d S.J.^.;.c@# # 0 ].c 0 # # e _ @ x d@",
"e@# f@0 c P P u.i g@h@8 :.@ # # @ q p | o | Z 1@i@j@k@3 4 A $ @ U U @ B l@m@n@k 1.o@5+[ d e _ T p@,.%+M u+w+' 0 c o+0 < [ n n q@",
"r@x s@] 0 P h i a.8 Q Q 8 x # ' x :.8 d.b+b+T+t@u@% % } | . $ @ # # x 8 Q B v@A.g+F ~.s+g@B : e Y @ c.w@x@N {@u 0 ^ / [ ~ A A R ",
"y@n z@( |.|.c # x $ A A $ @ # # @ :.~+]@O & & | } A@9 8 B@~ ( B+A+3+d+} | & & H R.C@R.D@v.@ # # @ :.v 8+d.^.E@B.F@'.[ } | * & = ",
"G@A X+~ ( ] 0 # @ $ A A $ @ # # c.S.p | o & & 4 | H@@.:.A@[ d A+=+D.%.| 4 D F.W G.w.5+A n B # # x 8 Q ]@M I@T.J.J@Z.~ | 4 * * a ",
"  * & A n x # # x 8 Q Q 8 x # # x 8 B@| 4 & & * & A n K@L@_ e M@R C H  +F.G.++G {.& & . % N@O@<@Y J {@M K.{@m.# @ % Y & & * & ) ",
"K+* & A n x # # @ :.8 8 :.@ # # @ :.8 } | & & * & A n d@<.: B B B D k 2.l g+g@N@& & & . % P@Q@R@S@T@U@N d.@ # # x n v & * * & ) ",
"x+4 | ~ [ / ^ 0 ] x x x @ _ e e _ L@V@8 B@| 4 4 | B@8 @ # 0 N@a.w.~.k D B %.B & & * & A n x # 0 W@X@@ @ @ / 0 # x n A & * * & a ",
"  | Y@( < 0 c ].0 # # # # e T T e <.L@Z@8 } | | } 8 9 x D F.w.R.G a.b.} | & & & & & & . % x # ].0 B # # # 0 ].# x % . & & * & = ",
"W+~ y _ : # # 0 ].].0 # # d [ [ d e _ L@V@8 B@B@|.g@i `@++,@1.D %.%.B [ ~ . A . . A . ~ ( T e 5 1 - - - - 1 5 e T ( ~ . A A . R ",
"b [  #e _ x x ] 0 0 / @ x ( ~ ~ ( .#B B L@:.8 8 m (+H.R.F.5+D h %._ e < [ % n % % n % [ d e _ y z = = = = z y _ e d [ % n n % q@",
"#._ $.d ( 8 +#x # # @ Z@8 } | | } [ B B _ d@V@V.(+P.F.D e < [ B n [ d e _ x x x x x x ] 0 # x 8 Q . A A . Q 8 x # 0 / @ x @ @ d@",
"@#: / ( ~ Q 8 x # # x 8 Q 7 4 4 %.~ [ .#e u.s+G.6+W.C e T ( ~ B A ~ [ _ : # # # # # # ^ c # x :.8 $ $ $ $ 8 :.x # c ^ # # U # <.",
"[.# }.8 Q ~ ( _ e < [ } | & & & B 7 } ( < e _ I j e+f+F.b.} | %.& V % @ U P P P P P P P P 0 ] @ x @ @ @ x x @ ] 0 c ^ # # # # ##",
"[.# 8.+#8 ( d e _ [ ~ | 4 & & B B 4 | ~ [ T e ' ' e i 1./@F.u.B * A n x # P P P P P P P P ].0 # # # # # # # # 0 ].0 ] @ x @ @ d@",
"[.0 $#x x / 0 # x n A & * & B B & 4 | Q 8 x # c 0 < ( } v.1.k D@s+D } ( < 0 c P P c 0 # # # # # # # # 0 ].].0 # # < [ n n 8 :.> ",
"[.].t.' # ^ c # x n A & * & & & & | } 8 :.x # ^ / [ ~ | 4 & H `@2.0.i N@[ ] 0 P P 0 ] x x x @ @ @ x @ / 0 0 / @ x ( ~ A A B@8 > ",
"!.# ^ # # # # : _ [ ~ 7 4 4 7 A V ~ [ x @ / 0 # x n A & * & & {.H 0.W G  +@ U c 0 d ( $ $ % % n % 8 9 @ # # x :.8 } | & & E.d+x ",
"#.x 8.@ @ x x _ e < [ } | | } n % [ < # # 0 ].# x n A & * & & & & * D G.P.D@# 0 ] ( ~ . A . . A . Q 8 x # # x 8 Q | 4 * * %@3+' ",
"S 9 q@% n n % [ < : _ ( ~ ~ ( x @ _ e # # # # : _ [ ~ | 4 & & & & & & | } [ < e _ [ ~ | 4 & & & & 7 } ( d e _ [ ~ | 4 * * %#- P ",
"w 8 ~ . A A . ~ [ _ : d [ [ d # U e _ @ x x x _ e < [ } | & & & & & & 4 | ~ [ T e d ( } 3 & * * & 4 | ~ [ _ e < ( } 7 * & = - &#",
"b } | & & & & | } [ < e _ T e # # < [ % n n % [ < : _ [ ~ | 4 & * & & * & A n x # ^ / [ ~ | 4 * * 4 | ~ [ _ : : _ [ ~ A A z 1 *#",
"! | L+& * * & 4 | ~ [ _ : e _ @ x [ ~ . A A . ~ [ _ : < [ } | & & & & * & A n x # o+^ < [ } | & & 7 } ( d =#_ _ e < [ $ n y 5 *#",
"W+| L+& & & & * & 3 } y 5 # @ Z@8 } | & & & & | } [ < e T ( ~ . A . . A . ~ [ _ : # # : _ [ ~ A A ~ [ _ : d [ [ d e _ x x -#0 &#",
"b } | & & & & & & 4 | 2 f # @ 8 Q | 4 & * * & 4 | ~ [ _ : < [ % n % % n % [ d e _ x x _ e < [ n n [ < : _ ( ~ ~ ( _ : # # 0 c P ",
"#.[ ;#| 4 4 7 . V A . 2 1 5 y } 7 & & & & & & * & E.d+] ^ 0 / @ x @ @ x x _ e d [ n n [ < e _ x x _ e < [ } | | } ( < 0 c P P ].",
"@#< >#} | | } % % $ $ y 5 1 2 | 4 & & & & & & * & %@r.0 ,#c 0 # # # # # # : _ [ ~ A A ~ [ _ : # # : _ [ ~ 7 4 4 7 ~ [ ] ^ P P 0 ",
"[.# 8.8 Q ~ ( @ @ x @ / 0 f z | 4 & * & & * & 4 | z 1 ].^ # # # # # # 0 ].U @ % V & & 7 } y 5 c ^ < [ } | & & & & . % x # P P ' ",
"[.# '#:.8 [ < # U # # ^ c 5 y } 7 & & & & & & 7 } y )#0 / x x @ @ x @ / 0 # x n A * * 4 | z f ^ / [ ~ | 4 & & * & A n x # P P ' ",
"!## 8.V@)._ e # # # # # # e T ( ~ . A . . A . ~ ( ] 0 ' x :.8 $ $ 8 :.x ' 5 y } 3 & & * & = - 5 6 } 7 & & & & & & . % x # P P # ",
"[.' 8.d@<.e _ @ x @ @ x x _ e < [ % n % % n % [ < ^ c # x 8 Q A A Q 8 @ # 1 2 | 4 & & * & = - 1 2 | 4 & & & & & & . % x # P P ' ",
"~#A+{#_ e < [ % n n % 8 9 @ # 0 ] x x @ @ x x ] 0 P P ^ ] [ ~ A A ~ [ / ^ f z V A 7 4 4 7 2 1 1 2 | 4 & * & & * & A n x # c ^ <.",
"]#=+1 e _ [ ~ . A A . Q 8 x # c ^ # # # # # # 0 c P P c 0 d ( $ $ ( d 0 c 5 y % $ } | 7 } 6 5 5 y } 7 & & & & & & . % @ # 0 ] d@",
"^#= /#5 6 } 7 & & & & 7 } ( d 0 c c 0 # ' 0 ].c 0 # # # # e T x x _ e # # : _ @ @ [ ~ ~ ( ] 0 0 / [ ~ . A . . A . ~ [ _ : d [ q@",
"(#= _#f 2 | 4 & * * & 4 | ~ [ ] ^ 0 / x x / 0 0 ] x x x @ _ e # # e _ x x T e U # d [ [ d 0 c c 0 < [ % n % % n % [ d e _ ( ~ R ",
":#= _#1 2 | 4 & & & & 4 | ~ [ _ e d [ 8 :.@ # 5 y % $ $ % y 5 c 0 d ( n n d+3+- - A+B+] 0 P P c 0 e '#x x x x x x _ e < [ } | = ",
"<#= _#5 6 } 7 & & & & 7 } ( d e T ( ~ Q 8 @ # 1 z . A A . z f ^ / [ ~ . A E.D.%#= =+[#0 ,#P P 0 ] _ e # # # # # # : _ [ ~ 3 4 a ",
"}#= _#U @ % V & & & & V % @ U # x $ A A $ @ # - = & * * & = - # @ n A & * & * * * %#- P P P P ' x x ' P P P P P P # x n A * * |#"};
