/* XPM */
static char * trailup3_xpm[] = {
"64 64 187 2",
"  	c #657381",
". 	c #576168",
"+ 	c #4D4E55",
"@ 	c #434046",
"# 	c #39383B",
"$ 	c #4E5057",
"% 	c #4D4F56",
"& 	c #5B6970",
"* 	c #5B6971",
"= 	c #525D64",
"- 	c #404649",
"; 	c #525E64",
"> 	c #433F45",
", 	c #FFDF25",
"' 	c #566068",
") 	c #49444B",
"! 	c #49434A",
"~ 	c #3A393B",
"{ 	c #505B62",
"] 	c #636D7B",
"^ 	c #525960",
"/ 	c #49494F",
"( 	c #3F3D42",
"_ 	c #383738",
": 	c #3F3D41",
"< 	c #494A50",
"[ 	c #413E42",
"} 	c #3C3A3D",
"| 	c #3F3F42",
"1 	c #494950",
"2 	c #51575E",
"3 	c #57626A",
"4 	c #3F4245",
"5 	c #4E575D",
"6 	c #57636B",
"7 	c #5A676F",
"8 	c #3B3C3F",
"9 	c #47494E",
"0 	c #57636A",
"a 	c #434045",
"b 	c #4D4D54",
"c 	c #4A464E",
"d 	c #3A383B",
"e 	c #383839",
"f 	c #505C62",
"g 	c #5E6371",
"h 	c #353536",
"i 	c #403F43",
"j 	c #3C3B3E",
"k 	c #52575E",
"l 	c #3E4245",
"m 	c #4E565C",
"n 	c #48494F",
"o 	c #4E4F57",
"p 	c #5A676E",
"q 	c #535A61",
"r 	c #4D4C54",
"s 	c #444046",
"t 	c #3F3F43",
"u 	c #515D63",
"v 	c #5B5C6B",
"w 	c #4F575D",
"x 	c #576169",
"y 	c #576068",
"z 	c #545A62",
"A 	c #343434",
"B 	c #50575E",
"C 	c #5A5C6A",
"D 	c #413F43",
"E 	c #39383A",
"F 	c #333434",
"G 	c #4B4C53",
"H 	c #575B68",
"I 	c #3B3A3C",
"J 	c #403D42",
"K 	c #3F4246",
"L 	c #464247",
"M 	c #525763",
"N 	c #403D41",
"O 	c #353636",
"P 	c #4A474E",
"Q 	c #3E3B3F",
"R 	c #4E5460",
"S 	c #433F44",
"T 	c #423F44",
"U 	c #3F3C3F",
"V 	c #44494D",
"W 	c #4A4D54",
"X 	c #373637",
"Y 	c #535E65",
"Z 	c #556067",
"` 	c #4A4D53",
" .	c #44484D",
"..	c #545E65",
"+.	c #393839",
"@.	c #3B3D3F",
"#.	c #3F4649",
"$.	c #3F4346",
"%.	c #4D555B",
"&.	c #3B3B3F",
"*.	c #4D545B",
"=.	c #343535",
"-.	c #3C3D3F",
";.	c #46464C",
">.	c #575A68",
",.	c #3F3C41",
"'.	c #3D3B3E",
").	c #555D69",
"!.	c #3C4143",
"~.	c #353838",
"{.	c #606C79",
"].	c #4B545A",
"^.	c #3C4042",
"/.	c #657481",
"(.	c #546168",
"_.	c #475054",
":.	c #414448",
"<.	c #424246",
"[.	c #3B3B3E",
"}.	c #667481",
"|.	c #59666E",
"1.	c #546067",
"2.	c #636E7B",
"3.	c #566067",
"4.	c #58636B",
"5.	c #4D4F55",
"6.	c #525966",
"7.	c #5A666E",
"8.	c #3F535D",
"9.	c #393738",
"0.	c #454147",
"a.	c #35515A",
"b.	c #3A3739",
"c.	c #50545B",
"d.	c #545B63",
"e.	c #566168",
"f.	c #4B4C52",
"g.	c #3D5660",
"h.	c #443F44",
"i.	c #545C63",
"j.	c #4C606C",
"k.	c #4E4E55",
"l.	c #4D4C53",
"m.	c #535A62",
"n.	c #484349",
"o.	c #5E6C7A",
"p.	c #535961",
"q.	c #4C4C53",
"r.	c #454247",
"s.	c #454146",
"t.	c #424549",
"u.	c #46444A",
"v.	c #576269",
"w.	c #48434A",
"x.	c #50565D",
"y.	c #49464D",
"z.	c #3F3E41",
"A.	c #413F42",
"B.	c #4A474F",
"C.	c #515662",
"D.	c #3E3C3F",
"E.	c #3F3B3F",
"F.	c #4C4B52",
"G.	c #525E65",
"H.	c #313131",
"I.	c #4F575E",
"J.	c #313130",
"K.	c #3D3B3F",
"L.	c #403E42",
"M.	c #51585F",
"N.	c #48494E",
"O.	c #343435",
"P.	c #423F43",
"Q.	c #4E545F",
"R.	c #5A606A",
"S.	c #424045",
"T.	c #6C747A",
"U.	c #6C7A80",
"V.	c #3F4447",
"W.	c #5B747D",
"X.	c #3F4548",
"Y.	c #56707C",
"Z.	c #404548",
"`.	c #60727F",
" +	c #414447",
".+	c #63707D",
"++	c #5B656B",
"  . + @ # # @ $ . . $ @ # # @ % . & & * & = - - = * * ; - # > % . , & & & & & & & * & ; - # > $ . ' $ ) ! @ ~ # @ % . & & * & { ",
"] ^ / ( _ _ : < ^ ^ < [ } | 1 2 3 & & * & ; - 4 5 6 7 ; - 8 9 2 0 , & & & & & * & 7 3 5 4 # a $ . 3 2 b c @ d e ( 1 ^ 3 7 * * f ",
"g < | e h h e i < < i j [ 1 ^ 3 7 & & * & ; - 8 9 k 0 ; - l m 3 7 & & & & & & & & 0 2 n 8 # @ o . p 3 q r s d h e t < 2 0 * & u ",
"v s e h _ # d j [ : e 8 n 2 0 & & & & 7 3 w 4 d @ $ x ; - 4 5 3 , * * 7 3 . y x . z b s d d s o x * * x o s # A A d s b z x x B ",
"C a e e ( s s D j _ h l w 3 7 & & & & 0 2 n 8 E > $ y ; - 8 9 2 , & & 3 2 % % o % b c a d # @ % . * * x o s # A F # @ c b o o G ",
"H [ I t 1 o o < t _ h 4 w 3 7 * * 7 3 ^ 1 J e e J < ^ w K _ : 1 , x x ^ < s a @ @ s @ : e _ : 1 ^ x x z b s # F F e J s s s s L ",
"M j N < ^ x x ^ 1 : e 8 n 2 0 & & 3 2 1 | e h h e i < n 8 h _ , 1 o o 1 | # E # # d d e O h e t < o o b P s d A A O e d d E # Q ",
"R d S o x * * x o s d e ( < ^ x x z b s # A F A A e J [ j # # , [ s s ( e O e d d # # # # # d j D s s @ a [ } d # e h A A A A ~ ",
"R # T o x * * x o s d h _ | 1 o o b c @ # A A A A h e j D s s , , d # _ h e ( @ s @ @ @ s s @ [ j # # # d j D s s J e A F F A d ",
"R _ U < ^ x x ^ 1 ( _ F F e ( @ s s @ [ j d d e O h e t < o o 1 , d E _ h d s P b % o o % b c @ d h e 8 K V W $ $ < t e h A A ~ ",
"R h X t < o o < t e h A A h e # d # d j D s s J e e : 1 ^ x x ^ , s > : e d s b z . x x . z b s # _ : 9 w Y Z x . ^ < J e A A ~ ",
"M e A e ( s s [ j # # # # d d e O h e | 1 b P > # # s o x * * 3 , o % 1 t } [ ` Z & & & & 0 2 n 8 d s b z . x x . z b s d h _ j ",
"H J X h _ # d j [ @ s s s s @ : e _ : < ^ z b s d d s o x * * , 3 x y ^ < [ j  ...& * * & 7 3 5 4 ~ @ P b $ $ $ $ b P s ~ e ( D ",
"v s +.O e # d | 1 % o o % b c > d 8 n 2 0 0 2 < | j [ 1 ^ 3 , , & & & . % > # - ; & * * & 7 3 5 4 e : s s s @ @ @ s @ : e @.n 9 ",
"v s +.e : > s 1 ^ . x x . z b @ d 4 w 0 7 7 3 ^ 1 [ j | 1 2 , , * * & x o > # #.; & * & & 0 2 n 8 O e d d # # # # d d _ O $.w %.",
"v s +.d @ c b 2 3 & & & & 0 2 9 &.l 5 0 7 7 0 z b s d e ( 1 ^ , 7 * * x o @ # l 5 . x x . z b s # A A A A O e d d d # _ h $.w *.",
"v @ +.d s b z 3 7 & * * & 7 3 5 4 8 n 2 0 3 2 b P s d =._ | 1 , , & & . % @ # 8 n % $ o % b c @ d A F F A e ( @ s s @ : e -.n ;.",
">.: X # @ % . & & & & & & * & Y  .j [ < ^ ^ < s > J e A A e J < , x x ^ 1 [ } } [ a @ @ s s @ D j e h F A d s P b o o 1 | j [ ,.",
"M e A # s o x & * & & & & * & Z ` [ } t 1 1 t d # e O A A =.e | 1 , o 1 t j [ D j # # # # # d '.D J e A A d s b z x x ^ < D } I ",
").!.~.E s o x & * & & & & * & x o @ # e : [ j d # e h A A A A e J s , [ j t < W V K 8 e h h e t 1 1 t _ =.# s o . & & 0 2 n 8 ~ ",
"{.].^.# @ % . & & & & & & & & . o s # h _ j D s s J e A A A A h e # d , [ 1 ^ Z ..w 9 : _ _ : < ^ ^ < ( e # @ o x * * 7 3 5 l ~ ",
"/.(._.:.<.< ^ . x . . . . x . z b s # =._ | 1 o o 1 | d E e h A A A , , s b z x x z b @ # [.9 2 6 6 2 < | } [ ` Z * * 7 3 w 4 ~ ",
"}.|.1.%.:.t 1 % o % % % % o % b P @ d e : 1 ^ x x ^ < s @ J e , , , , d s P b $ $ b P @ ~ 4 w 0 7 7 0 ^ 1 [ j  .Y & * 0 2 n 8 ~ ",
"2.x 3.w K e : s s @ @ @ @ @ s s @ [ j | 1 2 6 * & 3 2 o % < , , h A A e ( @ s @ @ s @ [ j V ..7 4.x y z b @ d K w x x ^ 1 : _ d ",
"g $ 5.n 8 h _ # d # # # # # # # d j D 1 ^ 3 7 * * 7 3 x y ^ < , e A A O e d d # # # d } D W Z 0 2 o % b P @ d 8 9 o $ 1 | _ h ~ ",
"6.s S J e A A O e d d d d e O h e | < 2 0 |.3 3 7.& * * & . % , # O e d d # # # # # # } [ < ^ ^ < @ > s @ : e e ( s s [ j E # Q ",
"8.d 9.e h A A e ( @ s s @ : e _ : 1 ^ 6 7 3 2 2 3 & * * & x o s , e ( s s @ @ @ @ s @ [ j i 1 1 t # E d d e O h e # d j [ @ s 0.",
"a.d b.e h F A d s P b b P @ d d @ r q 3 p 3 2 c.d.' e.6 7 x $ @ , E > c b % o % % o % 1 t j [ D j d # d d ~ ~ e h =.e | 1 o o f.",
"g.s h.J e A A d s b z z b s d ~ s P b 2 3 7.3 i.c.% % 2 3 . $ @ , , s b z . x . . x . ^ 1 [ } j [ @ s @ @ s s ( e _ : 1 ^ x x B ",
"j.o k.< t e h # s $ x x $ @ # d @ P b 2 3 & & 3 2 l.c b m.^ < <.:., ` 2 3 & & & & & & . % @ # d @ P b b P n.0.[ j | 1 2 3 * & u ",
"o.x 3.^ < ( e # @ $ x x $ @ # d @ r q 3 p & & 7 3 p.q.P l.1 t :.%., Z 3 7 & * & & * & x o s # # s b z z b r.Q j D 1 ^ 3 7 * * f ",
"  * & x o s d d s b z z b s # # s b m.3 7 & & * & x o n.s.[ j t.B 3 , & & & & & & & & . % @ # d s b z z b s d # @ % . & & * & { ",
"}.* & x o s d d @ P b b P @ d d @ P b 2 3 & & * & x o 0.Q } [ u., 2 , & & & & & & & & . % @ # d @ P b b P @ d # s o x & * * & { ",
"/.7 v.^ 1 : _ e ( s s s @ [ j j [ s.w.b m.3 7 7 3 m.b @ d e : > s , , 3 7 & * & & * & x o s # e : > > > > : e # s o x & * * & f ",
"  3 x.< | e h O e d d # d j D D j Q s.y.b 2 3 3 2 b c s d h e , d , , 2 3 & & & & & & . % s # O e d d d d e O # s % . & & * & u ",
"2.^ n [ } d d e O O e # d t 1 1 t j [ s.w.b m.m.b ) ) s ~ h _ , d } , , ^ . x . . x . ^ < D j 8 K - - - - K 8 j D < ^ . x x . B ",
"g 1 z.j [ s s ( e e : > s < ^ ^ < A.j Q s.P b b P ) ) @ ~ e : , s [ , | 1 % o % % o % 1 t j [ n w ; ; ; ; w n [ j t 1 % o o % f.",
"H [ I t < b B.s d # > y.b 2 3 3 2 1 | j [ 0.w.) ) w.0.[ j | 1 , o 1 t j [ s s s s s s ( e d s b z . x x . z b s d e : @ s @ @ 0.",
"C.} N < ^ z b s d d s b z 0 7 7 0 ^ 1 A.j Q s.) ) 0.D.j D < , , x ^ 1 [ } # # # # d # _ h d s P b $ $ $ $ b P s d h _ # d E # Q ",
"R d S b z ^ < [ j | 1 2 3 & & & & 0 2 < | j [ s s [ j | 1 2 , , & y % @ E A A A A A A F A e ( @ s @ @ @ s s @ ( e h _ # d # d D.",
"R d T B.b < t j [ 1 ^ 3 7 & & & & 7 3 ^ 1 D j ~ ~ j D 1 ^ 3 , * * x o s # A F A A A A A A O e d d # # # # d d e O e ( @ s @ @ 0.",
"R e E.s s : e # s o x & * & & * & 7 3 z b s d h e | < 2 3 & , , & 3 2 < | e h A A h e # d # # # # d d e O O e # d | 1 o o b P ) ",
"R O X ~ d _ h # s o x & * & & & & 3 2 b P s d _ : 1 ^ 3 7 & & , , , 3 ^ 1 J e A A e J s s s @ @ @ s @ : e e : a s < ^ x x m.b ) ",
"M d _ # # # # } [ 1 ^ 0 7 7 0 x y ^ 1 s > : e # s o x & * & & & & & , y % @ E h e t < $ $ % % o % b c > # d s P b 2 3 & & Z ` s ",
"H s T @ @ s s [ j | 1 2 3 3 2 o % 1 | d # e O d s o x & * & & & & * , , o s d e ( < ^ . x . . x . z b s d d s b z 3 7 * * .. .~ ",
"C c F.% o o % 1 | } [ < ^ ^ < s > [ j # # # # } [ 1 ^ 3 7 & & & & & , 3 2 1 | j [ 1 ^ 3 7 & & & & 0 2 < t j [ 1 ^ 3 7 * * G.- F ",
"v b ^ . x x . ^ 1 [ } t 1 1 t # E j [ @ s s s [ j | 1 2 3 & & & , , & 7 3 ^ 1 D j t < 2 6 & * * & 7 3 ^ 1 [ j | < 2 0 * & ; #.H.",
"g 2 v.& & & & 3 2 1 | j [ D j # # | 1 % o o % 1 | } [ 1 ^ 3 7 & , & & * & x o s # _ : 1 ^ 3 7 * * 7 3 ^ 1 [ } } [ 1 ^ x x I.K J.",
"] 3 |.& * * & 7 3 ^ 1 [ } j [ > s 1 ^ . x x . ^ 1 [ } | 1 2 3 & & , & * & x o s # =._ | 1 2 3 & & 0 2 < t K.[ [ j | 1 $ o n 8 J.",
"2.3 |.& & & & * & 6 2 n 8 d > y.b 2 3 & & & & 3 2 1 | j D < ^ . x , . x . ^ 1 [ } # # } [ 1 ^ x x ^ 1 [ } t 1 1 t j [ s s L.e H.",
"g 2 v.& & & & & & 7 3 5 l # @ b z 3 7 & * * & 7 3 ^ 1 [ } | 1 % , , % o % 1 t j [ s s [ j | 1 o o 1 | } [ < ^ ^ < [ } d # e h F ",
"H 1 M.3 7 7 0 . y x . 5 K 8 n 2 0 & & & & & & * & Z ` ( _ e : , , @ @ s s [ j t 1 o o 1 | j [ s s [ j | 1 2 3 3 2 < | e h A A O ",
"C.| N.2 3 3 2 % % $ $ n 8 4 5 3 7 & & & & & & * & ..V e O.h e , d # # # # } [ 1 ^ x x ^ 1 [ } # # } [ 1 ^ 0 7 7 0 ^ 1 ( _ A A e ",
"R d T b z ^ < @ > s @ : e l w 3 7 & * & & * & 7 3 w 4 O _ d d , , , d e O E @ % y & & 0 2 n 8 h _ | 1 2 3 & & & & . % s # A A ~ ",
"R # P.P b 1 | # E d # _ h 8 n 2 0 & & & & & & 0 2 n &.e : s s @ , , @ : e # s o x * * 7 3 w l _ : 1 ^ 3 7 & & * & x o s d A A ~ ",
"Q.d T w.r.[ j # # # # # d j D < ^ . x . . x . ^ < ( e ~ s P b $ $ , P s ~ 8 n 2 6 & & * & ; - 8 9 2 0 & & & & & & . % s # A F d ",
"R ~ T 0.Q j [ @ s @ @ s s [ j | 1 % o % % o % 1 | _ h d s b z x x , b @ d 4 5 3 7 & & * & ; - 4 5 3 7 & & & & & & . % s # A A ~ ",
"R.:.S.[ j | 1 % o o % b c a # e ( s s @ @ s s J e F F _ ( 1 ^ x , ^ 1 : _ l w y x 0 7 7 0 5 4 4 5 3 7 & * & & * & x o s # h _ Q ",
"T.%.K j [ 1 ^ . x x . z b s # h _ # d # # d # e h A A h e t < $ , < t e h 8 n % $ 2 3 0 2 9 8 8 n 2 0 & & & & & & . % @ # e ( 0.",
"U.; V.8 9 2 0 & & & & 0 2 < t e h h e d ~ e O h e # d # # j D s , [ j # # } [ > > 1 ^ ^ < J e e : 1 ^ . x . . x . ^ 1 [ } t 1 f.",
"W.; X.l 5 3 7 & * * & 7 3 ^ 1 ( _ e : s s : e e ( s s s @ [ j # , j [ s s D j E # t 1 1 t e h h e | 1 % o % % o % 1 t j [ < ^ B ",
"Y.; Z.4 5 3 7 & & & & 7 3 ^ 1 [ j t 1 b P @ d 8 n % $ $ % n 8 h e t < o o `  .- #.:.<.J e A A h e j P.s s s s s s [ j | 1 k 3 u ",
"`.; X.8 9 2 0 & & & & 0 2 < t j D < ^ z b @ d K w . x x . w l _ : 1 ^ . x Z Y G.; %. +e O.A A e J [ j # # # # # # } [ 1 ^ 4.7 f ",
".+; X.E > % y & & & & y % > E # s $ x x $ > # - ; & * * & ; - d > o x & * & * * * G.- A F A A ~ s s ~ A F A A F A # s o x * * ++"};
