/* XPM */
static char * trailLU3_xpm[] = {
"64 64 188 2",
"  	c #657381",
". 	c #576168",
"+ 	c #4D4E55",
"@ 	c #434046",
"# 	c #39383B",
"$ 	c #4E5057",
"% 	c #4D4F56",
"& 	c #5B6970",
"* 	c #5B6971",
"= 	c #525D64",
"- 	c #404649",
"; 	c #525E64",
"> 	c #433F45",
", 	c #566068",
"' 	c #49444B",
") 	c #49434A",
"! 	c #3A393B",
"~ 	c #505B62",
"{ 	c #636D7B",
"] 	c #525960",
"^ 	c #49494F",
"/ 	c #3F3D42",
"( 	c #383738",
"_ 	c #3F3D41",
": 	c #494A50",
"< 	c #413E42",
"[ 	c #3C3A3D",
"} 	c #3F3F42",
"| 	c #494950",
"1 	c #51575E",
"2 	c #57626A",
"3 	c #3F4245",
"4 	c #4E575D",
"5 	c #57636B",
"6 	c #5A676F",
"7 	c #3B3C3F",
"8 	c #47494E",
"9 	c #57636A",
"0 	c #434045",
"a 	c #4D4D54",
"b 	c #4A464E",
"c 	c #3A383B",
"d 	c #383839",
"e 	c #505C62",
"f 	c #5E6371",
"g 	c #353536",
"h 	c #403F43",
"i 	c #3C3B3E",
"j 	c #52575E",
"k 	c #3E4245",
"l 	c #4E565C",
"m 	c #48494F",
"n 	c #4E4F57",
"o 	c #5A676E",
"p 	c #535A61",
"q 	c #4D4C54",
"r 	c #444046",
"s 	c #3F3F43",
"t 	c #515D63",
"u 	c #5B5C6B",
"v 	c #4F575D",
"w 	c #576169",
"x 	c #FFDF25",
"y 	c #576068",
"z 	c #545A62",
"A 	c #343434",
"B 	c #50575E",
"C 	c #5A5C6A",
"D 	c #413F43",
"E 	c #39383A",
"F 	c #333434",
"G 	c #4B4C53",
"H 	c #575B68",
"I 	c #3B3A3C",
"J 	c #403D42",
"K 	c #3F4246",
"L 	c #464247",
"M 	c #525763",
"N 	c #403D41",
"O 	c #353636",
"P 	c #4A474E",
"Q 	c #3E3B3F",
"R 	c #4E5460",
"S 	c #433F44",
"T 	c #423F44",
"U 	c #3F3C3F",
"V 	c #44494D",
"W 	c #4A4D54",
"X 	c #373637",
"Y 	c #535E65",
"Z 	c #556067",
"` 	c #4A4D53",
" .	c #44484D",
"..	c #545E65",
"+.	c #393839",
"@.	c #3B3D3F",
"#.	c #3F4649",
"$.	c #3F4346",
"%.	c #4D555B",
"&.	c #3B3B3F",
"*.	c #4D545B",
"=.	c #343535",
"-.	c #3C3D3F",
";.	c #46464C",
">.	c #575A68",
",.	c #3F3C41",
"'.	c #3D3B3E",
").	c #555D69",
"!.	c #3C4143",
"~.	c #353838",
"{.	c #606C79",
"].	c #4B545A",
"^.	c #3C4042",
"/.	c #657481",
"(.	c #546168",
"_.	c #475054",
":.	c #414448",
"<.	c #424246",
"[.	c #3B3B3E",
"}.	c #667481",
"|.	c #59666E",
"1.	c #546067",
"2.	c #636E7B",
"3.	c #566067",
"4.	c #58636B",
"5.	c #4D4F55",
"6.	c #525966",
"7.	c #5A666E",
"8.	c #3F535D",
"9.	c #393738",
"0.	c #454147",
"a.	c #35515A",
"b.	c #3A3739",
"c.	c #50545B",
"d.	c #545B63",
"e.	c #566168",
"f.	c #4B4C52",
"g.	c #3D5660",
"h.	c #443F44",
"i.	c #545C63",
"j.	c #4C606C",
"k.	c #4E4E55",
"l.	c #4D4C53",
"m.	c #535A62",
"n.	c #FFDE22",
"o.	c #484349",
"p.	c #5E6C7A",
"q.	c #FED800",
"r.	c #454247",
"s.	c #454146",
"t.	c #424549",
"u.	c #46444A",
"v.	c #4C4C53",
"w.	c #576269",
"x.	c #50565D",
"y.	c #48434A",
"z.	c #3F3E41",
"A.	c #413F42",
"B.	c #4A474F",
"C.	c #49464D",
"D.	c #515662",
"E.	c #3E3C3F",
"F.	c #3F3B3F",
"G.	c #4C4B52",
"H.	c #525E65",
"I.	c #313131",
"J.	c #4F575E",
"K.	c #313130",
"L.	c #3D3B3F",
"M.	c #403E42",
"N.	c #51585F",
"O.	c #48494E",
"P.	c #343435",
"Q.	c #423F43",
"R.	c #4E545F",
"S.	c #5A606A",
"T.	c #424045",
"U.	c #6C747A",
"V.	c #6C7A80",
"W.	c #3F4447",
"X.	c #5B747D",
"Y.	c #3F4548",
"Z.	c #56707C",
"`.	c #404548",
" +	c #60727F",
".+	c #414447",
"++	c #63707D",
"@+	c #5B656B",
"  . + @ # # @ $ . . $ @ # # @ % . & & * & = - - = * * ; - # > % . & & & & & & & & * & ; - # > $ . , $ ' ) @ ! # @ % . & & * & ~ ",
"{ ] ^ / ( ( _ : ] ] : < [ } | 1 2 & & * & ; - 3 4 5 6 ; - 7 8 1 9 & & & & & & * & 6 2 4 3 # 0 $ . 2 1 a b @ c d / | ] 2 6 * * e ",
"f : } d g g d h : : h i < | ] 2 6 & & * & ; - 7 8 j 9 ; - k l 2 6 & & & & & & & & 9 1 m 7 # @ n . o 2 p q r c g d s : 1 9 * & t ",
"u r d g ( # c i < _ d 7 m 1 9 & & & & 6 2 v 3 c @ $ w ; - 3 4 x 6 * * 6 2 . y w . z a r c c r n w * * w n r # A A c r a z w w B ",
"C 0 d d / r r D i ( g k v 2 6 & & & & 9 1 m 7 E > $ y ; - 7 8 x 9 & & 2 1 % % n % a b 0 c # @ % . * * w n r # A F # @ b a n n G ",
"H < I s | n n : s ( g 3 v 2 6 * * 6 2 ] | J d d J : ] v K ( _ x ] w w ] : r 0 @ @ r @ _ d ( _ | ] w w z a r # F F d J r r r r L ",
"M i N : ] w w ] | _ d 7 m 1 9 & & 2 1 | } d g g d h : m 7 g ( } x n n | } # E # # c c d O g d s : n n a P r c A A O d c c E # Q ",
"R c S n w * * w n r c d / : ] w w z a r # A F A A d J < i # # i x r r / d O d c c # # # # # c i D r r @ 0 < [ c # d g A A A A ! ",
"R # T n w * * w n r c g ( } | n n a b @ # A A A A g d i D r r x x c # ( g d / @ r @ @ @ r r @ < i # # # c i D r r J d A F F A c ",
"R ( U : ] w w ] | / ( F F d / @ r r @ < i c c d O g d s : n n x } c E ( g c r P a % n n % a b @ c g d 7 K V W $ $ : s d g A A ! ",
"R g X s : n n : s d g A A g d # c # c i D r r J d d _ | ] w w x | r > _ d c r a z . w w . z a r # ( _ 8 v Y Z w . ] : J d A A ! ",
"M d A d / r r < i # # # # c c d O g d } | a P > # # r n w * * x 1 n % | s [ < ` Z & & & & 9 1 m 7 c r a z . w w . z a r c g ( i ",
"H J X g ( # c i < @ r r r r @ _ d ( _ : ] z a r c c r n w * * 6 x w y ] : < i  ...& * * & 6 2 4 3 ! @ P a $ $ $ $ a P r ! d / D ",
"u r +.O d # c } | % n n % a b > c 7 m 1 9 9 1 : } i < | ] 2 6 & x x & . % > # - ; & * * & 6 2 4 3 d _ r r r @ @ @ r @ _ d @.m 8 ",
"u r +.d _ > r | ] . w w . z a @ c 3 v 9 6 6 2 ] | < i } | 1 2 & x x & w n > # #.; & * & & 9 1 m 7 O d c c # # # # c c ( O $.v %.",
"u r +.c @ b a 1 2 & & & & 9 1 8 &.k 4 9 6 6 9 z a r c d / | ] 2 x * * w n @ # k 4 . w w . z a r # A A A A O d c c c # ( g $.v *.",
"u @ +.c r a z 2 6 & * * & 6 2 4 3 7 m 1 9 2 1 a P r c =.( } | x x & & . % @ # 7 m % $ n % a b @ c A F F A d / @ r r @ _ d -.m ;.",
">._ X # @ % . & & & & & & * & Y  .i < : ] ] : r > J d A A d J x ] w w ] | < [ [ < 0 @ @ r r @ D i d g F A c r P a n n | } i < ,.",
"M d A # r n w & * & & & & * & Z ` < [ s | | s c # d O A A =.d } | n n | s i < D i # # # # # c '.D J d A A c r a z w w ] : D [ I ",
").!.~.E r n w & * & & & & * & w n @ # d _ < i c # d g A A A A d J r r < i s : W V K 7 d g g d s | | s ( =.# r n . & & 9 1 m 7 ! ",
"{.].^.# @ % . & & & & & & & & . n r # g ( i D r r J d A x A A g d # c [ < | ] Z ..v 8 _ ( ( _ : ] ] : / d # @ n w * * 6 2 4 k ! ",
"/.(._.:.<.: ] . w . . . . w . z a r # =.( } | n n | } c x x g A A A A c r a z w w z a @ # [.8 1 5 5 1 : } [ < ` Z * * 6 2 v 3 ! ",
"}.|.1.%.:.s | % n % % % % n % a P @ c d _ | ] w w ] : r @ x x x x F A c r P a $ $ a P @ ! 3 v 9 6 6 9 ] | < i  .Y & * 9 1 m 7 ! ",
"2.w 3.v K d _ r r @ @ @ @ @ r r @ < i } | 1 5 * & 2 1 n % : s d x x A d / @ r @ @ r @ < i V ..6 4.w y z a @ c K v w w ] | _ ( c ",
"f $ 5.m 7 g ( # c # # # # # # # c i D | ] 2 6 * * 6 2 w y ] : J x A A O d c c # # # c [ D W Z 9 1 n % a P @ c 7 8 n $ | } ( g ! ",
"6.r S J d A A O d c c c c d O g d } : 1 9 |.2 2 7.& * * & . % r x O d c c # # # # # # [ < : ] ] : @ > r @ _ d d / r r < i E # Q ",
"8.c 9.d g A A d / @ r r @ _ d ( _ | ] 5 6 2 1 1 2 & * * & w n x c d / r r @ @ @ @ r @ < i h | | s # E c c d O g d # c i < @ r 0.",
"a.c b.d g F A c r P a a P @ c c @ q p 2 o 2 1 c.d., e.5 6 w $ x E E > b a % n % % n % | s i < D i c # c c ! ! d g =.d } | n n f.",
"g.r h.J d A A c r a z z a r c ! r P a 1 2 7.2 i.c.% % 1 2 . x x # c r a z . w . . w . ] | < [ i < @ r @ @ r r / d ( _ | ] w w B ",
"j.n k.: s d g # r $ w w $ @ # c @ P a 1 2 & & 2 1 l.b a m.] n.<.:. .` 1 2 & & & & & & . % @ # c @ P a a P o.0.< i } | 1 2 * & t ",
"p.w 3.] : / d # @ $ w w $ @ # q.q.q.p 2 o & & 6 2 q.q.q.q.| s :.%.Y Z 2 6 & * & & * & w n r # # r a z z a r.Q i D | ] 2 6 * * e ",
"  * & w n q.q.q.r a q.q.a r q.# r a m.2 6 & & * & w q.q.s.< i t.B 2 6 & & & & & & & & . % @ # c r a z z a r c # @ % . & & * & ~ ",
"}.q.q.w n r q.q.@ q.q.a P @ q.c @ P q.1 2 & & * & w n 0.Q [ < u.v.1 5 & & & & & & & & . % @ # c @ P a a P @ c # r n w & * * & ~ ",
"/.6 w.] | _ ( q.q.q.r r @ < i i < s.q.q.m.q.q.q.q.q.a @ c d _ > r | ] 2 6 & * & & * & w n r # d _ > > > > _ d # r n w & * * & e ",
"  2 x.: } d g O d c c # c i D D i Q s.q.q.q.q.2 1 a b r c g d c c } | 1 2 & & & & & & . % r # O d c c c c d O # r % . & & * & t ",
"2.] m < [ c c d O O d # c s | | s i < s.y.a m.m.a ' ' r ! g ( # c [ < | ] . w . . w . ] : D i 7 K - - - - K 7 i D : ] . w w . B ",
"f | z.i < r r / d d _ > r : ] ] : A.i Q s.P a a P ' ' @ ! d _ r r < i } | % n % % n % | s i < m v ; ; ; ; v m < i s | % n n % f.",
"H < I s : a B.r c # > C.a 1 2 2 1 | } i < 0.y.' ' y.0.< i } | n n | s i < r r r r r r / d c r a z . w w . z a r c d _ @ r @ @ 0.",
"D.[ N : ] z a r c c r a z 9 6 6 9 ] | A.i Q s.' ' 0.E.i D : ] w w ] | < [ # # # # c # ( g c r P a $ $ $ $ a P r c g ( # c E # Q ",
"R c S a z ] : < i } | 1 2 & & & & 9 1 : } i < r r < i } | 1 2 & & y % @ E A A A A A A F A d / @ r @ @ @ r r @ / d g ( # c # c E.",
"R c T B.a : s i < | ] 2 6 & & & & 6 2 ] | D i ! ! i D | ] 2 6 * * w n r # A F A A A A A A O d c c # # # # c c d O d / @ r @ @ 0.",
"R d F.r r _ d # r n w & * & & * & 6 2 z a r c g d } : 1 2 & & & & 2 1 : } d g A A g d # c # # # # c c d O O d # c } | n n a P ' ",
"R O X ! c ( g # r n w & * & & & & 2 1 a P r c ( _ | ] 2 6 & & & & 6 2 ] | J d A A d J r r r @ @ @ r @ _ d d _ 0 r : ] w w m.a ' ",
"M c ( # # # # [ < | ] 9 6 6 9 w y ] | r > _ d # r n w & * & & & & & & y % @ E g d s : $ $ % % n % a b > # c r P a 1 2 & & Z ` r ",
"H r T @ @ r r < i } | 1 2 2 1 n % | } c # d O c r n w & * & & & & * & w n r c d / : ] . w . . w . z a r c c r a z 2 6 * * .. .! ",
"C b G.% n n % | } [ < : ] ] : r > < i # # # # [ < | ] 2 6 & & & & & & 2 1 | } i < | ] 2 6 & & & & 9 1 : s i < | ] 2 6 * * H.- F ",
"u a ] . w w . ] | < [ s | | s # E i < @ r r r < i } | 1 2 & & & & & & 6 2 ] | D i s : 1 5 & * * & 6 2 ] | < i } : 1 9 * & ; #.I.",
"f 1 w.& & & & 2 1 | } i < D i # # } | % n n % | } [ < | ] 2 6 & * & & * & w n r # ( _ | ] 2 6 * * 6 2 ] | < [ [ < | ] w w J.K K.",
"{ 2 |.& * * & 6 2 ] | < [ i < > r | ] . w w . ] | < [ } | 1 2 & & & & * & w n r # =.( } | 1 2 & & 9 1 : s L.< < i } | $ n m 7 K.",
"2.2 |.& & & & * & 5 1 m 7 c > C.a 1 2 & & & & 2 1 | } i D : ] . w . . w . ] | < [ # # [ < | ] w w ] | < [ s | | s i < r r M.d I.",
"f 1 w.& & & & & & 6 2 4 k # @ a z 2 6 & * * & 6 2 ] | < [ } | % n % % n % | s i < r r < i } | n n | } [ < : ] ] : < [ c # d g F ",
"H | N.2 6 6 9 . y w . 4 K 7 m 1 9 & & & & & & * & Z ` / ( d _ @ r @ @ r r < i s | n n | } i < r r < i } | 1 2 2 1 : } d g A A O ",
"D.} O.1 2 2 1 % % $ $ m 7 3 4 2 6 & & & & & & * & ..V d P.g d # c # # # # [ < | ] w w ] | < [ # # [ < | ] 9 6 6 9 ] | / ( A A d ",
"R c T a z ] : @ > r @ _ d k v 2 6 & * & & * & 6 2 v 3 O ( c c # # c c d O E @ % y & & 9 1 m 7 g ( } | 1 2 & & & & . % r # A A ! ",
"R # Q.P a | } # E c # ( g 7 m 1 9 & & & & & & 9 1 m &.d _ r r @ @ r @ _ d # r n w * * 6 2 v k ( _ | ] 2 6 & & * & w n r c A A ! ",
"R.c T y.r.< i # # # # # c i D : ] . w . . w . ] : / d ! r P a $ $ a P r ! 7 m 1 5 & & * & ; - 7 8 1 9 & & & & & & . % r # A F c ",
"R ! T 0.Q i < @ r @ @ r r < i } | % n % % n % | } ( g c r a z w w z a @ c 3 4 2 6 & & * & ; - 3 4 2 6 & & & & & & . % r # A A ! ",
"S.:.T.< i } | % n n % a b 0 # d / r r @ @ r r J d F F ( / | ] w w ] | _ ( k v y w 9 6 6 9 4 3 3 4 2 6 & * & & * & w n r # g ( Q ",
"U.%.K i < | ] . w w . z a r # g ( # c # # c # d g A A g d s : $ $ : s d g 7 m % $ 1 2 9 1 8 7 7 m 1 9 & & & & & & . % @ # d / 0.",
"V.; W.7 8 1 9 & & & & 9 1 : s d g g d c ! d O g d # c # # i D r r < i # # [ < > > | ] ] : J d d _ | ] . w . . w . ] | < [ s | f.",
"X.; Y.k 4 2 6 & * * & 6 2 ] | / ( d _ r r _ d d / r r r @ < i # # i < r r D i E # s | | s d g g d } | % n % % n % | s i < : ] B ",
"Z.; `.3 4 2 6 & & & & 6 2 ] | < i s | a P @ c 7 m % $ $ % m 7 g d s : n n `  .- #.:.<.J d A A g d i Q.r r r r r r < i } | j 2 t ",
" +; Y.7 8 1 9 & & & & 9 1 : s i D : ] z a @ c K v . w w . v k ( _ | ] . w Z Y H.; %..+d P.A A d J < i # # # # # # [ < | ] 4.6 e ",
"++; Y.E > % y & & & & y % > E # r $ w w $ > # - ; & * * & ; - c > n w & * & * * * H.- A F A A ! r r ! A F A A F A # r n w * * @+"};
