/* XPM */
static char * trailRU1_xpm[] = {
"64 64 187 2",
"  	c #657381",
". 	c #576168",
"+ 	c #4D4E55",
"@ 	c #434046",
"# 	c #39383B",
"$ 	c #4E5057",
"% 	c #4D4F56",
"& 	c #5B6970",
"* 	c #5B6971",
"= 	c #525D64",
"- 	c #404649",
"; 	c #525E64",
"> 	c #433F45",
", 	c #566068",
"' 	c #49444B",
") 	c #49434A",
"! 	c #3A393B",
"~ 	c #505B62",
"{ 	c #636D7B",
"] 	c #525960",
"^ 	c #49494F",
"/ 	c #3F3D42",
"( 	c #383738",
"_ 	c #3F3D41",
": 	c #494A50",
"< 	c #413E42",
"[ 	c #3C3A3D",
"} 	c #3F3F42",
"| 	c #494950",
"1 	c #51575E",
"2 	c #57626A",
"3 	c #3F4245",
"4 	c #4E575D",
"5 	c #57636B",
"6 	c #5A676F",
"7 	c #3B3C3F",
"8 	c #47494E",
"9 	c #FFDF25",
"0 	c #434045",
"a 	c #4D4D54",
"b 	c #4A464E",
"c 	c #3A383B",
"d 	c #383839",
"e 	c #505C62",
"f 	c #5E6371",
"g 	c #353536",
"h 	c #403F43",
"i 	c #3C3B3E",
"j 	c #52575E",
"k 	c #57636A",
"l 	c #3E4245",
"m 	c #4E565C",
"n 	c #48494F",
"o 	c #4E4F57",
"p 	c #5A676E",
"q 	c #535A61",
"r 	c #4D4C54",
"s 	c #444046",
"t 	c #3F3F43",
"u 	c #515D63",
"v 	c #5B5C6B",
"w 	c #4F575D",
"x 	c #576169",
"y 	c #576068",
"z 	c #545A62",
"A 	c #343434",
"B 	c #50575E",
"C 	c #5A5C6A",
"D 	c #413F43",
"E 	c #39383A",
"F 	c #333434",
"G 	c #4B4C53",
"H 	c #575B68",
"I 	c #3B3A3C",
"J 	c #403D42",
"K 	c #3F4246",
"L 	c #464247",
"M 	c #525763",
"N 	c #403D41",
"O 	c #353636",
"P 	c #4A474E",
"Q 	c #3E3B3F",
"R 	c #4E5460",
"S 	c #433F44",
"T 	c #423F44",
"U 	c #3F3C3F",
"V 	c #44494D",
"W 	c #4A4D54",
"X 	c #373637",
"Y 	c #535E65",
"Z 	c #556067",
"` 	c #4A4D53",
" .	c #44484D",
"..	c #545E65",
"+.	c #393839",
"@.	c #3B3D3F",
"#.	c #3F4649",
"$.	c #3F4346",
"%.	c #4D555B",
"&.	c #3B3B3F",
"*.	c #4D545B",
"=.	c #343535",
"-.	c #3C3D3F",
";.	c #46464C",
">.	c #575A68",
",.	c #3F3C41",
"'.	c #3D3B3E",
").	c #555D69",
"!.	c #3C4143",
"~.	c #353838",
"{.	c #606C79",
"].	c #4B545A",
"^.	c #3C4042",
"/.	c #657481",
"(.	c #546168",
"_.	c #475054",
":.	c #414448",
"<.	c #424246",
"[.	c #3B3B3E",
"}.	c #667481",
"|.	c #59666E",
"1.	c #546067",
"2.	c #636E7B",
"3.	c #566067",
"4.	c #58636B",
"5.	c #4D4F55",
"6.	c #525966",
"7.	c #5A666E",
"8.	c #3F535D",
"9.	c #393738",
"0.	c #454147",
"a.	c #35515A",
"b.	c #3A3739",
"c.	c #50545B",
"d.	c #545B63",
"e.	c #566168",
"f.	c #4B4C52",
"g.	c #3D5660",
"h.	c #443F44",
"i.	c #545C63",
"j.	c #4C606C",
"k.	c #4E4E55",
"l.	c #4D4C53",
"m.	c #535A62",
"n.	c #5E6C7A",
"o.	c #535961",
"p.	c #4C4C53",
"q.	c #454247",
"r.	c #484349",
"s.	c #454146",
"t.	c #424549",
"u.	c #46444A",
"v.	c #576269",
"w.	c #48434A",
"x.	c #50565D",
"y.	c #49464D",
"z.	c #3F3E41",
"A.	c #413F42",
"B.	c #4A474F",
"C.	c #515662",
"D.	c #3E3C3F",
"E.	c #3F3B3F",
"F.	c #4C4B52",
"G.	c #525E65",
"H.	c #313131",
"I.	c #4F575E",
"J.	c #313130",
"K.	c #3D3B3F",
"L.	c #403E42",
"M.	c #51585F",
"N.	c #48494E",
"O.	c #343435",
"P.	c #423F43",
"Q.	c #4E545F",
"R.	c #5A606A",
"S.	c #424045",
"T.	c #6C747A",
"U.	c #6C7A80",
"V.	c #3F4447",
"W.	c #5B747D",
"X.	c #3F4548",
"Y.	c #56707C",
"Z.	c #404548",
"`.	c #60727F",
" +	c #414447",
".+	c #63707D",
"++	c #5B656B",
"  . + @ # # @ $ . . $ @ # # @ % . & & * & = - - = * * ; - # > % . & & & & & & & & * & ; - # > $ . , $ ' ) @ ! # @ % . & & * & ~ ",
"{ ] ^ / ( ( _ : ] ] : < [ } | 1 2 & & * & ; - 3 4 5 6 ; - 7 8 1 9 & & & & & & * & 6 2 4 3 # 0 $ . 2 1 a b @ c d / | ] 2 6 * * e ",
"f : } d g g d h : : h i < | ] 2 6 & & * & ; - 7 8 j k ; - l m 2 9 9 & & & & & & & k 1 n 7 # @ o . p 2 q r s c g d t : 1 k * & u ",
"v s d g ( # c i < _ d 7 n 1 k & & & & 6 2 w 3 c @ $ x ; - 3 4 2 6 9 * 6 2 . y x . z a s c c s o x * * x o s # A A c s a z x x B ",
"C 0 d d / s s D i ( g l w 2 6 & & & & k 1 n 7 E > $ y ; - 7 8 1 k 9 & 2 1 % % o % a b 0 c # @ % . * * x o s # A F # @ b a o o G ",
"H < I t | o o : t ( g 3 w 2 6 * * 6 2 ] | J d d J : ] w K ( _ 9 9 9 9 ] : s 0 @ @ s @ _ d ( _ | ] x x z a s # F F d J s s s s L ",
"M i N : ] x x ] | _ d 7 n 1 k & & 2 1 | } d g g d h : n 7 g ( 9 | o 9 | } # E # # c c d O g d t : o o a P s c A A O d c c E # Q ",
"R c S o x * * x o s c d / : ] x x z a s # A F A A d J < i # # i 9 s s / d O d c c # # # # # c i D s s @ 0 < [ c # d g A A A A ! ",
"R # T o x * * x o s c g ( } | o o a b @ # A A A A g d i D s s < i 9 # ( g d / @ s @ @ @ s s @ < i # # # c i D s s J d A F F A c ",
"R ( U : ] x x ] | / ( F F d / @ s s @ < i c c d O g d t : o o | } 9 E ( g c s P a % o o % a b @ c g d 7 K V W $ $ : t d g A A ! ",
"R g X t : o o : t d g A A g d # c # c i D s s J d d _ | ] x x ] | s 9 _ d c s a z . x x . z a s # ( _ 8 w Y Z x . ] : J d A A ! ",
"M d A d / s s < i # # # # c c d O g d } | a P > # # s o x * * 2 1 9 9 | t [ < ` Z & & & & k 1 n 7 c s a z . x x . z a s c g ( i ",
"H J X g ( # c i < @ s s s s @ _ d ( _ : ] z a s c c s o x * * 9 9 x y ] : < i  ...& * * & 6 2 4 3 ! @ P a $ $ $ $ a P s ! d / D ",
"v s +.O d # c } | % o o % a b > c 7 n 1 k k 1 : } i < | ] 2 9 & & & & . % > # - ; & * * & 6 2 4 3 d _ s s s @ @ @ s @ _ d @.n 8 ",
"v s +.d _ > s | ] . x x . z a @ c 3 w k 6 6 2 ] | < i } | 9 9 & * * & x o > # #.; & * & & k 1 n 7 O d c c # # # # c c ( O $.w %.",
"v s +.c @ b a 1 2 & & & & k 1 8 &.l 4 k 6 6 k z a s c d 9 | ] 2 6 * * x o @ # l 4 . x x . z a s # A A A A O d c c c # ( g $.w *.",
"v @ +.c s a z 2 6 & * * & 6 2 4 3 7 n 1 k 2 1 a P s c =.9 } | 1 2 & & . % @ # 7 n % $ o % a b @ c A F F A d / @ s s @ _ d -.n ;.",
">._ X # @ % . & & & & & & * & Y  .i < : ] ] : s > J d A A 9 J : ] x x ] | < [ [ < 0 @ @ s s @ D i d g F A c s P a o o | } i < ,.",
"M d A # s o x & * & & & & * & Z ` < [ t | | t c # d O A A =.9 } | o o | t i < D i # # # # # c '.D J d A A c s a z x x ] : D [ I ",
").!.~.E s o x & * & & & & * & x o @ # d _ < i c # d g A A A 9 d J s s < i t : W V K 7 d g g d t | | t ( =.# s o . & & k 1 n 7 ! ",
"{.].^.# @ % . & & & & & & & & . o s # g ( i D s s J d A A A A 9 9 # c [ < | ] Z ..w 8 _ ( ( _ : ] ] : / d # @ o x * * 6 2 4 l ! ",
"/.(._.:.<.: ] . x . . . . x . z a s # =.( } | o o | } c E d g 9 9 9 A c s a z x x z a @ # [.8 1 5 5 1 : } [ < ` Z * * 6 2 w 3 ! ",
"}.|.1.%.:.t | % o % % % % o % a P @ c d _ | ] x x ] : s @ J d A 9 9 A c s P a $ $ a P @ ! 3 w k 6 6 k ] | < i  .Y & * k 1 n 7 ! ",
"2.x 3.w K d _ s s @ @ @ @ @ s s @ < i } | 1 5 * & 2 1 o % : t d 9 A A d / @ s @ @ s @ < i V ..6 4.x y z a @ c K w x x ] | _ ( c ",
"f $ 5.n 7 g ( # c # # # # # # # c i D | ] 2 6 * * 6 2 x y ] : 9 d A A O d c c # # # c [ D W Z k 1 o % a P @ c 7 8 o $ | } ( g ! ",
"6.s S J d A A O d c c c c d O g d } : 1 k |.2 2 7.& * * & . % s # O d c c # # # # # # [ < : ] ] : @ > s @ _ d d / s s < i E # Q ",
"8.c 9.d g A A d / @ s s @ _ d ( _ | ] 5 6 2 1 1 2 & * * & x 9 s c d / s s @ @ @ @ s @ < i h | | t # E c c d O g d # c i < @ s 0.",
"a.c b.d g F A c s P a a P @ c c @ r q 2 p 2 1 c.d., e.5 6 x 9 9 E E > b a % o % % o % | t i < D i c # c c ! ! d g =.d } | o o f.",
"g.s h.J d A A c s a z z a s c ! s P a 1 2 7.2 i.c.% % 1 2 . $ 9 9 c s a z . x . . x . ] | < [ i < @ s @ @ s s / d ( _ | ] x x B ",
"j.o k.: t d g # s $ x x $ @ # c @ P a 1 2 & & 2 1 l.b a m.] : <.9 9 ` 1 2 & & & & & & . % @ # c @ 9 9 9 9 9 0.< i } | 1 2 * & u ",
"n.x 3.] : / d # @ $ x x $ @ # c @ r q 2 p & & 6 2 o.p.P l.| t :.9 9 9 9 6 & * & 9 9 9 9 9 9 # # s 9 z z a q.Q i D 9 9 2 6 * * e ",
"  * & x o s c c s a z z a s # # s a m.2 6 & & * & x o r.s.< i t.B 2 6 9 9 9 & 9 9 & & . 9 9 9 9 9 9 z z a s c # @ % 9 & & * & 9 ",
"}.* & x o s c c @ P a a P @ c c @ P a 1 2 & & * & x o 0.Q [ < u.p.1 5 & & & & 9 9 & & . % @ # 9 9 P a a P @ c # s o x 9 9 9 & ~ ",
"/.6 v.] | _ ( d / s s s @ < i i < s.w.a m.2 6 6 2 m.a @ c d _ > s | ] 2 6 & * & & * & x o s # d _ > > > > _ d # s o x & * * & e ",
"  2 x.: } d g O d c c # c i D D i Q s.y.a 1 2 2 1 a b s c g d c c } | 1 2 & & & & & & . % s # O d c c c c d O # s % . & & * & u ",
"2.] n < [ c c d O O d # c t | | t i < s.w.a m.m.a ' ' s ! g ( # c [ < | ] . x . . x . ] : D i 7 K - - - - K 7 i D : ] . x x . B ",
"f | z.i < s s / d d _ > s : ] ] : A.i Q s.P a a P ' ' @ ! d _ s s < i } | % o % % o % | t i < n w ; ; ; ; w n < i t | % o o % f.",
"H < I t : a B.s c # > y.a 1 2 2 1 | } i < 0.w.' ' w.0.< i } | o o | t i < s s s s s s / d c s a z . x x . z a s c d _ @ s @ @ 0.",
"C.[ N : ] z a s c c s a z k 6 6 k ] | A.i Q s.' ' 0.D.i D : ] x x ] | < [ # # # # c # ( g c s P a $ $ $ $ a P s c g ( # c E # Q ",
"R c S a z ] : < i } | 1 2 & & & & k 1 : } i < s s < i } | 1 2 & & y % @ E A A A A A A F A d / @ s @ @ @ s s @ / d g ( # c # c D.",
"R c T B.a : t i < | ] 2 6 & & & & 6 2 ] | D i ! ! i D | ] 2 6 * * x o s # A F A A A A A A O d c c # # # # c c d O d / @ s @ @ 0.",
"R d E.s s _ d # s o x & * & & * & 6 2 z a s c g d } : 1 2 & & & & 2 1 : } d g A A g d # c # # # # c c d O O d # c } | o o a P ' ",
"R O X ! c ( g # s o x & * & & & & 2 1 a P s c ( _ | ] 2 6 & & & & 6 2 ] | J d A A d J s s s @ @ @ s @ _ d d _ 0 s : ] x x m.a ' ",
"M c ( # # # # [ < | ] k 6 6 k x y ] | s > _ d # s o x & * & & & & & & y % @ E g d t : $ $ % % o % a b > # c s P a 1 2 & & Z ` s ",
"H s T @ @ s s < i } | 1 2 2 1 o % | } c # d O c s o x & * & & & & * & x o s c d / : ] . x . . x . z a s c c s a z 2 6 * * .. .! ",
"C b F.% o o % | } [ < : ] ] : s > < i # # # # [ < | ] 2 6 & & & & & & 2 1 | } i < | ] 2 6 & & & & k 1 : t i < | ] 2 6 * * G.- F ",
"v a ] . x x . ] | < [ t | | t # E i < @ s s s < i } | 1 2 & & & & & & 6 2 ] | D i t : 1 5 & * * & 6 2 ] | < i } : 1 k * & ; #.H.",
"f 1 v.& & & & 2 1 | } i < D i # # } | % o o % | } [ < | ] 2 6 & * & & * & x o s # ( _ | ] 2 6 * * 6 2 ] | < [ [ < | ] x x I.K J.",
"{ 2 |.& * * & 6 2 ] | < [ i < > s | ] . x x . ] | < [ } | 1 2 & & & & * & x o s # =.( } | 1 2 & & k 1 : t K.< < i } | $ o n 7 J.",
"2.2 |.& & & & * & 5 1 n 7 c > y.a 1 2 & & & & 2 1 | } i D : ] . x . . x . ] | < [ # # [ < | ] x x ] | < [ t | | t i < s s L.d H.",
"f 1 v.& & & & & & 6 2 4 l # @ a z 2 6 & * * & 6 2 ] | < [ } | % o % % o % | t i < s s < i } | o o | } [ < : ] ] : < [ c # d g F ",
"H | M.2 6 6 k . y x . 4 K 7 n 1 k & & & & & & * & Z ` / ( d _ @ s @ @ s s < i t | o o | } i < s s < i } | 1 2 2 1 : } d g A A O ",
"C.} N.1 2 2 1 % % $ $ n 7 3 4 2 6 & & & & & & * & ..V d O.g d # c # # # # [ < | ] x x ] | < [ # # [ < | ] k 6 6 k ] | / ( A A d ",
"R c T a z ] : @ > s @ _ d l w 2 6 & * & & * & 6 2 w 3 O ( c c # # c c d O E @ % y & & k 1 n 7 g ( } | 1 2 & & & & . % s # A A ! ",
"R # P.P a | } # E c # ( g 7 n 1 k & & & & & & k 1 n &.d _ s s @ @ s @ _ d # s o x * * 6 2 w l ( _ | ] 2 6 & & * & x o s c A A ! ",
"Q.c T w.q.< i # # # # # c i D : ] . x . . x . ] : / d ! s P a $ $ a P s ! 7 n 1 5 & & * & ; - 7 8 1 k & & & & & & . % s # A F c ",
"R ! T 0.Q i < @ s @ @ s s < i } | % o % % o % | } ( g c s a z x x z a @ c 3 4 2 6 & & * & ; - 3 4 2 6 & & & & & & . % s # A A ! ",
"R.:.S.< i } | % o o % a b 0 # d / s s @ @ s s J d F F ( / | ] x x ] | _ ( l w y x k 6 6 k 4 3 3 4 2 6 & * & & * & x o s # g ( Q ",
"T.%.K i < | ] . x x . z a s # g ( # c # # c # d g A A g d t : $ $ : t d g 7 n % $ 1 2 k 1 8 7 7 n 1 k & & & & & & . % @ # d / 0.",
"U.; V.7 8 1 k & & & & k 1 : t d g g d c ! d O g d # c # # i D s s < i # # [ < > > | ] ] : J d d _ | ] . x . . x . ] | < [ t | f.",
"W.; X.l 4 2 6 & * * & 6 2 ] | / ( d _ s s _ d d / s s s @ < i # # i < s s D i E # t | | t d g g d } | % o % % o % | t i < : ] B ",
"Y.; Z.3 4 2 6 & & & & 6 2 ] | < i t | a P @ c 7 n % $ $ % n 7 g d t : o o `  .- #.:.<.J d A A g d i P.s s s s s s < i } | j 2 u ",
"`.; X.7 8 1 k & & & & k 1 : t i D : ] z a @ c K w . x x . w l ( _ | ] . x Z Y G.; %. +d O.A A d J < i # # # # # # [ < | ] 4.6 e ",
".+; X.E > % y & & & & y % > E # s $ x x $ > # - ; & * * & ; - c > o x & * & * * * G.- A F A A ! s s ! A F A A F A # s o x * * ++"};
