/* XPM */
static char * trailRU2_xpm[] = {
"64 64 187 2",
"  	c #657381",
". 	c #576168",
"+ 	c #4D4E55",
"@ 	c #434046",
"# 	c #39383B",
"$ 	c #4E5057",
"% 	c #4D4F56",
"& 	c #5B6970",
"* 	c #5B6971",
"= 	c #525D64",
"- 	c #404649",
"; 	c #525E64",
"> 	c #FFDF25",
", 	c #433F45",
"' 	c #566068",
") 	c #49444B",
"! 	c #49434A",
"~ 	c #3A393B",
"{ 	c #505B62",
"] 	c #636D7B",
"^ 	c #525960",
"/ 	c #49494F",
"( 	c #3F3D42",
"_ 	c #383738",
": 	c #3F3D41",
"< 	c #494A50",
"[ 	c #413E42",
"} 	c #3C3A3D",
"| 	c #3F3F42",
"1 	c #494950",
"2 	c #51575E",
"3 	c #57626A",
"4 	c #3F4245",
"5 	c #4E575D",
"6 	c #57636B",
"7 	c #5A676F",
"8 	c #3B3C3F",
"9 	c #47494E",
"0 	c #57636A",
"a 	c #434045",
"b 	c #4D4D54",
"c 	c #4A464E",
"d 	c #3A383B",
"e 	c #383839",
"f 	c #505C62",
"g 	c #5E6371",
"h 	c #353536",
"i 	c #403F43",
"j 	c #3C3B3E",
"k 	c #52575E",
"l 	c #4E565C",
"m 	c #48494F",
"n 	c #4E4F57",
"o 	c #5A676E",
"p 	c #535A61",
"q 	c #4D4C54",
"r 	c #444046",
"s 	c #3F3F43",
"t 	c #515D63",
"u 	c #5B5C6B",
"v 	c #4F575D",
"w 	c #576169",
"x 	c #576068",
"y 	c #545A62",
"z 	c #343434",
"A 	c #50575E",
"B 	c #5A5C6A",
"C 	c #413F43",
"D 	c #3E4245",
"E 	c #39383A",
"F 	c #333434",
"G 	c #4B4C53",
"H 	c #575B68",
"I 	c #3B3A3C",
"J 	c #403D42",
"K 	c #3F4246",
"L 	c #464247",
"M 	c #525763",
"N 	c #403D41",
"O 	c #353636",
"P 	c #4A474E",
"Q 	c #3E3B3F",
"R 	c #4E5460",
"S 	c #433F44",
"T 	c #423F44",
"U 	c #3F3C3F",
"V 	c #44494D",
"W 	c #4A4D54",
"X 	c #373637",
"Y 	c #535E65",
"Z 	c #556067",
"` 	c #4A4D53",
" .	c #44484D",
"..	c #545E65",
"+.	c #393839",
"@.	c #3B3D3F",
"#.	c #3F4649",
"$.	c #3F4346",
"%.	c #4D555B",
"&.	c #3B3B3F",
"*.	c #4D545B",
"=.	c #343535",
"-.	c #3C3D3F",
";.	c #46464C",
">.	c #575A68",
",.	c #3F3C41",
"'.	c #3D3B3E",
").	c #555D69",
"!.	c #3C4143",
"~.	c #353838",
"{.	c #606C79",
"].	c #4B545A",
"^.	c #3C4042",
"/.	c #657481",
"(.	c #546168",
"_.	c #475054",
":.	c #414448",
"<.	c #424246",
"[.	c #3B3B3E",
"}.	c #667481",
"|.	c #59666E",
"1.	c #546067",
"2.	c #636E7B",
"3.	c #566067",
"4.	c #58636B",
"5.	c #4D4F55",
"6.	c #525966",
"7.	c #5A666E",
"8.	c #3F535D",
"9.	c #393738",
"0.	c #454147",
"a.	c #35515A",
"b.	c #3A3739",
"c.	c #50545B",
"d.	c #545B63",
"e.	c #566168",
"f.	c #4B4C52",
"g.	c #3D5660",
"h.	c #443F44",
"i.	c #545C63",
"j.	c #4C606C",
"k.	c #4E4E55",
"l.	c #4D4C53",
"m.	c #535A62",
"n.	c #484349",
"o.	c #5E6C7A",
"p.	c #535961",
"q.	c #4C4C53",
"r.	c #454247",
"s.	c #454146",
"t.	c #424549",
"u.	c #46444A",
"v.	c #576269",
"w.	c #48434A",
"x.	c #50565D",
"y.	c #49464D",
"z.	c #3F3E41",
"A.	c #413F42",
"B.	c #4A474F",
"C.	c #515662",
"D.	c #3E3C3F",
"E.	c #3F3B3F",
"F.	c #4C4B52",
"G.	c #525E65",
"H.	c #313131",
"I.	c #4F575E",
"J.	c #313130",
"K.	c #3D3B3F",
"L.	c #403E42",
"M.	c #51585F",
"N.	c #48494E",
"O.	c #343435",
"P.	c #423F43",
"Q.	c #4E545F",
"R.	c #5A606A",
"S.	c #424045",
"T.	c #6C747A",
"U.	c #6C7A80",
"V.	c #3F4447",
"W.	c #5B747D",
"X.	c #3F4548",
"Y.	c #56707C",
"Z.	c #404548",
"`.	c #60727F",
" +	c #414447",
".+	c #63707D",
"++	c #5B656B",
"  . + @ # # @ $ . . $ @ # # @ % . & & * & = - - = * * ; - # > % . & & & & & & & & * & ; - # , $ . ' $ ) ! @ ~ # @ % . & & * & { ",
"] ^ / ( _ _ : < ^ ^ < [ } | 1 2 3 & & * & ; - 4 5 6 7 ; - 8 9 2 0 & & & & & & * & 7 3 5 4 # a $ . 3 2 b c @ d e ( 1 ^ 3 7 * * f ",
"g < | e h h e i < < i j [ 1 ^ 3 7 & & * & ; - 8 9 k 0 ; - > l 3 7 & & & & & & & & 0 2 m 8 # @ n . o 3 p q r d h e s < 2 0 * & t ",
"u r e h _ # d j [ : e 8 m 2 0 & & & & 7 3 v 4 d @ $ w ; > 4 5 3 7 * * 7 3 . x w . y b r d d r n w * * w n r # z z d r b y w w A ",
"B a e e ( r r C j _ h D v 3 7 & & & & 0 2 m 8 E , $ x > > 8 9 2 0 & & 3 2 % % n % b c a d # @ % . * * w n r # z F # @ c b n n G ",
"H [ I s 1 n n < s _ h 4 v 3 7 * * 7 3 ^ 1 J e e J < ^ > K _ : 1 ^ w w ^ < r a @ @ r @ : e _ : 1 ^ w w y b r # F F e J r r r r L ",
"M j N < ^ w w ^ 1 : e 8 m 2 0 & & 3 2 1 | e h h e i < > 8 h _ | 1 n n 1 | # E # # d d e O h e s < n n b P r d z z O e d d E # Q ",
"R d S n w * * w n r d e ( < ^ w w y b r # z F z z e > > j # # j [ r r ( e O e d d # # # # # d j C r r @ a [ } d # e h z z z z ~ ",
"R # T n w * * w n r d h _ | 1 n n b c @ # z z z z h > j > r r [ j d # _ h e ( @ r @ @ @ r r @ [ j # # # d j C r r J e z F F z d ",
"R _ U < ^ w w ^ 1 ( _ F F e ( @ r r @ [ j d d e O h > > > > n 1 | d E _ h d r P b % n n % b c @ d h e 8 K V W $ $ < s e h z z ~ ",
"R h X s < n n < s e h z z h e # d # d j C r r J e e : > > w w ^ 1 r , : e d r b y . w w . y b r # _ : 9 v Y Z w . ^ < J e z z ~ ",
"M e z e ( r r [ j # # # # d d e O h e | 1 b P , # # r n > * > > 2 n % 1 s } [ ` Z & & & & 0 2 m 8 d r b y . w w . y b r d h _ j ",
"H J X h _ # d j [ @ r r r r @ : e _ : < ^ y b r d d r > > > > > 3 w x ^ < [ j  ...& * * & 7 3 5 4 ~ @ P b $ $ $ $ b P r ~ e ( C ",
"u r +.O e # d | 1 % n n % b c , d 8 m 2 0 0 2 < | j [ > > > > & & & & . % , # - ; & * * & 7 3 5 4 e : r r r @ @ @ r @ : e @.m 9 ",
"u r +.e : , r 1 ^ . w w . y b @ d 4 v 0 7 7 3 ^ 1 [ j | > > > & * * & w n , # #.; & * & & 0 2 m 8 O e d d # # # # d d _ O $.v %.",
"u r +.d @ c b 2 3 & & & & 0 2 9 &.D 5 0 7 7 0 y b r d e ( 1 > 3 7 * * w n @ # D 5 . w w . y b r # z z z z O e d d d # _ h $.v *.",
"u @ +.d r b y 3 7 & * * & 7 3 5 4 8 m 2 0 3 2 b P r d =._ | > 2 3 & & . % @ # 8 m % $ n % b c @ d z F F z e ( @ r r @ : e -.m ;.",
">.: X # @ % . & & & & & & * & Y  .j [ < ^ ^ < r , J e z z > J < ^ w w ^ 1 [ } } [ a @ @ r r @ C j e h F z d r P b n n 1 | j [ ,.",
"M e z # r n w & * & & & & * & Z ` [ } s 1 1 s d # e O z z > e | 1 n > > s j [ C j # # # # # d '.C J e z z d r b y w w ^ < C } I ",
").!.~.E r n w & * & & & & * & w n @ # e : [ j d # e h z > > z e J > > > j s < W V K 8 e h h e s 1 1 s _ =.# r n . & & 0 2 m 8 ~ ",
"{.].^.# @ % . & & & & & & & & . n r # h _ j C r r J e z > z z h e > > > [ 1 ^ Z ..v 9 : _ _ : < ^ ^ < ( e # @ n w * * 7 3 5 D ~ ",
"/.(._.:.<.< ^ . w . . . . w . y b r # =._ | 1 n n 1 | > > e h z > z > d r b y w w y b @ # [.9 2 6 6 2 < | } [ ` Z * * 7 3 v 4 ~ ",
"}.|.1.%.:.s 1 % n % % % % n % b P @ d e : 1 ^ w w ^ < > > J > > > F > d r P b $ $ b P @ ~ 4 v 0 7 7 0 ^ 1 [ j  .Y & * 0 2 m 8 ~ ",
"2.w 3.v K e : r r @ @ @ @ @ r r @ [ j | 1 2 6 * & 3 2 > > > > > h z > e ( @ r @ @ r @ [ j V ..7 4.w x y b @ d K v w w ^ 1 : _ d ",
"g $ 5.m 8 h _ # d # # # # # # # d j C 1 ^ 3 7 * * 7 3 w x ^ < J e z > O e d d # # # d } C W Z 0 2 n % b P @ d 8 9 n $ 1 | _ h ~ ",
"6.r S J e z z O e d d d d e O h e | < 2 0 |.3 3 7.& * * & . % r # O e d d # # # # # # } [ < ^ ^ < @ , r @ : e e ( r r [ j E # Q ",
"8.d 9.e h z z e ( @ r r @ : e _ : 1 ^ 6 7 3 2 2 3 & * * & w n r d > ( r r @ @ @ @ r @ [ j i 1 1 s # E d d e O h e # d j [ @ r 0.",
"a.d b.e h F z d r P b b P @ d d @ q p 3 o 3 2 c.d.' e.6 7 w $ @ E > , c b % n % % n % 1 s j [ C j d # d d ~ ~ e h =.e | 1 n n f.",
"g.r h.J e z z d r b y y b r d ~ r P b 2 3 7.3 i.c.% % 2 3 . $ @ # > r b y . w . . w . ^ 1 [ } j [ @ r @ @ r r ( e _ : 1 ^ w w A ",
"j.n k.< s e h # r $ w w $ @ # d @ P b 2 3 & & 3 2 l.c b m.^ < <.>  .` 2 > & & > & & & . % @ # d > > b b P n.0.[ j | 1 2 3 * & t ",
"o.w 3.^ < ( e # @ $ w w $ @ # d @ q p 3 o & & 7 3 p.q.P l.1 s :.> > > 3 7 & * & & > > w n r # # > b > y b r.Q j C 1 ^ 3 7 * * f ",
"  * & w n r d d r b y y b r # # r b m.3 7 & & * & w n n.s.[ j t.A 3 7 > > & > > & & > > % @ # > > b y > > r d # @ % . & & > > { ",
"}.* & w n r d d @ P b b P @ d d @ P b 2 3 & & * & w n 0.Q } [ u.q.2 6 & & & & > & & & > > @ # > @ P b b P @ d # > > > & > * & { ",
"/.7 v.^ 1 : _ e ( r r r @ [ j j [ s.w.b m.3 7 7 3 m.b @ d e : , r 1 ^ 3 7 & * & & * & w > > > > : , , , , > > > > n w & * * & f ",
"  3 x.< | e h O e d d # d j C C j Q s.y.b 2 3 3 2 b c r d h e d d | 1 2 3 & & & & & & . % > # O e d d d d e O # r % . & & * & t ",
"2.^ m [ } d d e O O e # d s 1 1 s j [ s.w.b m.m.b ) ) r ~ h _ # d } [ 1 ^ . w . . w . ^ < C j 8 K - - - - K 8 j C < ^ . w w . A ",
"g 1 z.j [ r r ( e e : , r < ^ ^ < A.j Q s.P b b P ) ) @ ~ e : r r [ j | 1 % n % % n % 1 s j [ m v ; ; ; ; v m [ j s 1 % n n % f.",
"H [ I s < b B.r d # , y.b 2 3 3 2 1 | j [ 0.w.) ) w.0.[ j | 1 n n 1 s j [ r r r r r r ( e d r b y . w w . y b r d e : @ r @ @ 0.",
"C.} N < ^ y b r d d r b y 0 7 7 0 ^ 1 A.j Q s.) ) 0.D.j C < ^ w w ^ 1 [ } # # # # d # _ h d r P b $ $ $ $ b P r d h _ # d E # Q ",
"R d S b y ^ < [ j | 1 2 3 & & & & 0 2 < | j [ r r [ j | 1 2 3 & & x % @ E z z z z z z F z e ( @ r @ @ @ r r @ ( e h _ # d # d D.",
"R d T B.b < s j [ 1 ^ 3 7 & & & & 7 3 ^ 1 C j ~ ~ j C 1 ^ 3 7 * * w n r # z F z z z z z z O e d d # # # # d d e O e ( @ r @ @ 0.",
"R e E.r r : e # r n w & * & & * & 7 3 y b r d h e | < 2 3 & & & & 3 2 < | e h z z h e # d # # # # d d e O O e # d | 1 n n b P ) ",
"R O X ~ d _ h # r n w & * & & & & 3 2 b P r d _ : 1 ^ 3 7 & & & & 7 3 ^ 1 J e z z e J r r r @ @ @ r @ : e e : a r < ^ w w m.b ) ",
"M d _ # # # # } [ 1 ^ 0 7 7 0 w x ^ 1 r , : e # r n w & * & & & & & & x % @ E h e s < $ $ % % n % b c , # d r P b 2 3 & & Z ` r ",
"H r T @ @ r r [ j | 1 2 3 3 2 n % 1 | d # e O d r n w & * & & & & * & w n r d e ( < ^ . w . . w . y b r d d r b y 3 7 * * .. .~ ",
"B c F.% n n % 1 | } [ < ^ ^ < r , [ j # # # # } [ 1 ^ 3 7 & & & & & & 3 2 1 | j [ 1 ^ 3 7 & & & & 0 2 < s j [ 1 ^ 3 7 * * G.- F ",
"u b ^ . w w . ^ 1 [ } s 1 1 s # E j [ @ r r r [ j | 1 2 3 & & & & & & 7 3 ^ 1 C j s < 2 6 & * * & 7 3 ^ 1 [ j | < 2 0 * & ; #.H.",
"g 2 v.& & & & 3 2 1 | j [ C j # # | 1 % n n % 1 | } [ 1 ^ 3 7 & * & & * & w n r # _ : 1 ^ 3 7 * * 7 3 ^ 1 [ } } [ 1 ^ w w I.K J.",
"] 3 |.& * * & 7 3 ^ 1 [ } j [ , r 1 ^ . w w . ^ 1 [ } | 1 2 3 & & & & * & w n r # =._ | 1 2 3 & & 0 2 < s K.[ [ j | 1 $ n m 8 J.",
"2.3 |.& & & & * & 6 2 m 8 d , y.b 2 3 & & & & 3 2 1 | j C < ^ . w . . w . ^ 1 [ } # # } [ 1 ^ w w ^ 1 [ } s 1 1 s j [ r r L.e H.",
"g 2 v.& & & & & & 7 3 5 D # @ b y 3 7 & * * & 7 3 ^ 1 [ } | 1 % n % % n % 1 s j [ r r [ j | 1 n n 1 | } [ < ^ ^ < [ } d # e h F ",
"H 1 M.3 7 7 0 . x w . 5 K 8 m 2 0 & & & & & & * & Z ` ( _ e : @ r @ @ r r [ j s 1 n n 1 | j [ r r [ j | 1 2 3 3 2 < | e h z z O ",
"C.| N.2 3 3 2 % % $ $ m 8 4 5 3 7 & & & & & & * & ..V e O.h e # d # # # # } [ 1 ^ w w ^ 1 [ } # # } [ 1 ^ 0 7 7 0 ^ 1 ( _ z z e ",
"R d T b y ^ < @ , r @ : e D v 3 7 & * & & * & 7 3 v 4 O _ d d # # d d e O E @ % x & & 0 2 m 8 h _ | 1 2 3 & & & & . % r # z z ~ ",
"R # P.P b 1 | # E d # _ h 8 m 2 0 & & & & & & 0 2 m &.e : r r @ @ r @ : e # r n w * * 7 3 v D _ : 1 ^ 3 7 & & * & w n r d z z ~ ",
"Q.d T w.r.[ j # # # # # d j C < ^ . w . . w . ^ < ( e ~ r P b $ $ b P r ~ 8 m 2 6 & & * & ; - 8 9 2 0 & & & & & & . % r # z F d ",
"R ~ T 0.Q j [ @ r @ @ r r [ j | 1 % n % % n % 1 | _ h d r b y w w y b @ d 4 5 3 7 & & * & ; - 4 5 3 7 & & & & & & . % r # z z ~ ",
"R.:.S.[ j | 1 % n n % b c a # e ( r r @ @ r r J e F F _ ( 1 ^ w w ^ 1 : _ D v x w 0 7 7 0 5 4 4 5 3 7 & * & & * & w n r # h _ Q ",
"T.%.K j [ 1 ^ . w w . y b r # h _ # d # # d # e h z z h e s < $ $ < s e h 8 m % $ 2 3 0 2 9 8 8 m 2 0 & & & & & & . % @ # e ( 0.",
"U.; V.8 9 2 0 & & & & 0 2 < s e h h e d ~ e O h e # d # # j C r r [ j # # } [ , , 1 ^ ^ < J e e : 1 ^ . w . . w . ^ 1 [ } s 1 f.",
"W.; X.D 5 3 7 & * * & 7 3 ^ 1 ( _ e : r r : e e ( r r r @ [ j # # j [ r r C j E # s 1 1 s e h h e | 1 % n % % n % 1 s j [ < ^ A ",
"Y.; Z.4 5 3 7 & & & & 7 3 ^ 1 [ j s 1 b P @ d 8 m % $ $ % m 8 h e s < n n `  .- #.:.<.J e z z h e j P.r r r r r r [ j | 1 k 3 t ",
"`.; X.8 9 2 0 & & & & 0 2 < s j C < ^ y b @ d K v . w w . v D _ : 1 ^ . w Z Y G.; %. +e O.z z e J [ j # # # # # # } [ 1 ^ 4.7 f ",
".+; X.E , % x & & & & x % , E # r $ w w $ , # - ; & * * & ; - d , n w & * & * * * G.- z F z z ~ r r ~ z F z z F z # r n w * * ++"};
