/* XPM */
static char * trailLU2_xpm[] = {
"64 64 186 2",
"  	c #657381",
". 	c #576168",
"+ 	c #4D4E55",
"@ 	c #434046",
"# 	c #39383B",
"$ 	c #4E5057",
"% 	c #4D4F56",
"& 	c #5B6970",
"* 	c #5B6971",
"= 	c #525D64",
"- 	c #404649",
"; 	c #525E64",
"> 	c #433F45",
", 	c #566068",
"' 	c #49444B",
") 	c #49434A",
"! 	c #3A393B",
"~ 	c #505B62",
"{ 	c #636D7B",
"] 	c #525960",
"^ 	c #49494F",
"/ 	c #3F3D42",
"( 	c #383738",
"_ 	c #3F3D41",
": 	c #494A50",
"< 	c #413E42",
"[ 	c #3C3A3D",
"} 	c #3F3F42",
"| 	c #494950",
"1 	c #51575E",
"2 	c #57626A",
"3 	c #3F4245",
"4 	c #4E575D",
"5 	c #57636B",
"6 	c #5A676F",
"7 	c #3B3C3F",
"8 	c #47494E",
"9 	c #FFDF25",
"0 	c #57636A",
"a 	c #434045",
"b 	c #4D4D54",
"c 	c #4A464E",
"d 	c #3A383B",
"e 	c #383839",
"f 	c #505C62",
"g 	c #5E6371",
"h 	c #353536",
"i 	c #403F43",
"j 	c #3C3B3E",
"k 	c #52575E",
"l 	c #3E4245",
"m 	c #4E565C",
"n 	c #48494F",
"o 	c #4E4F57",
"p 	c #5A676E",
"q 	c #535A61",
"r 	c #4D4C54",
"s 	c #444046",
"t 	c #3F3F43",
"u 	c #515D63",
"v 	c #5B5C6B",
"w 	c #4F575D",
"x 	c #576169",
"y 	c #576068",
"z 	c #545A62",
"A 	c #343434",
"B 	c #50575E",
"C 	c #5A5C6A",
"D 	c #413F43",
"E 	c #39383A",
"F 	c #333434",
"G 	c #4B4C53",
"H 	c #575B68",
"I 	c #3B3A3C",
"J 	c #403D42",
"K 	c #3F4246",
"L 	c #464247",
"M 	c #525763",
"N 	c #403D41",
"O 	c #353636",
"P 	c #4A474E",
"Q 	c #3E3B3F",
"R 	c #4E5460",
"S 	c #433F44",
"T 	c #423F44",
"U 	c #3F3C3F",
"V 	c #44494D",
"W 	c #4A4D54",
"X 	c #373637",
"Y 	c #535E65",
"Z 	c #556067",
"` 	c #4A4D53",
" .	c #44484D",
"..	c #545E65",
"+.	c #393839",
"@.	c #3B3D3F",
"#.	c #3F4649",
"$.	c #3F4346",
"%.	c #4D555B",
"&.	c #3B3B3F",
"*.	c #4D545B",
"=.	c #343535",
"-.	c #3C3D3F",
";.	c #46464C",
">.	c #575A68",
",.	c #3F3C41",
"'.	c #3D3B3E",
").	c #555D69",
"!.	c #3C4143",
"~.	c #353838",
"{.	c #606C79",
"].	c #4B545A",
"^.	c #3C4042",
"/.	c #657481",
"(.	c #546168",
"_.	c #475054",
":.	c #414448",
"<.	c #424246",
"[.	c #3B3B3E",
"}.	c #667481",
"|.	c #59666E",
"1.	c #546067",
"2.	c #636E7B",
"3.	c #566067",
"4.	c #58636B",
"5.	c #4D4F55",
"6.	c #525966",
"7.	c #5A666E",
"8.	c #3F535D",
"9.	c #393738",
"0.	c #454147",
"a.	c #35515A",
"b.	c #3A3739",
"c.	c #50545B",
"d.	c #545B63",
"e.	c #566168",
"f.	c #4B4C52",
"g.	c #3D5660",
"h.	c #443F44",
"i.	c #545C63",
"j.	c #4C606C",
"k.	c #4E4E55",
"l.	c #4D4C53",
"m.	c #535A62",
"n.	c #484349",
"o.	c #5E6C7A",
"p.	c #535961",
"q.	c #454247",
"r.	c #454146",
"s.	c #424549",
"t.	c #46444A",
"u.	c #4C4C53",
"v.	c #576269",
"w.	c #48434A",
"x.	c #3F3E41",
"y.	c #413F42",
"z.	c #4A474F",
"A.	c #49464D",
"B.	c #515662",
"C.	c #3E3C3F",
"D.	c #3F3B3F",
"E.	c #4C4B52",
"F.	c #525E65",
"G.	c #313131",
"H.	c #4F575E",
"I.	c #313130",
"J.	c #3D3B3F",
"K.	c #403E42",
"L.	c #51585F",
"M.	c #48494E",
"N.	c #343435",
"O.	c #423F43",
"P.	c #4E545F",
"Q.	c #5A606A",
"R.	c #424045",
"S.	c #6C747A",
"T.	c #6C7A80",
"U.	c #3F4447",
"V.	c #5B747D",
"W.	c #3F4548",
"X.	c #56707C",
"Y.	c #404548",
"Z.	c #60727F",
"`.	c #414447",
" +	c #63707D",
".+	c #5B656B",
"  . + @ # # @ $ . . $ @ # # @ % . & & * & = - - = * * ; - # > % . & & & & & & & & * & ; - # > $ . , $ ' ) @ ! # @ % . & & * & ~ ",
"{ ] ^ / ( ( _ : ] ] : < [ } | 1 2 & & * & ; - 3 4 5 6 ; - 7 8 9 0 & & & & & & * & 6 2 4 3 # a $ . 2 1 b c @ d e / | ] 2 6 * * f ",
"g : } e h h e i : : i j < | ] 2 6 & & * & ; - 7 8 k 0 ; - l m 9 6 & & & & & & & & 0 1 n 7 # @ o . p 2 q r s d h e t : 1 0 * & u ",
"v s e h ( # d j < _ e 7 n 1 0 & & & & 6 2 w 3 d @ $ x ; - 3 4 2 9 * * 6 2 . y x . z b s d d s o x * * x o s # A A d s b z x x B ",
"C a e e / s s D j ( h l w 2 6 & & & & 0 1 n 7 E > $ y ; - 7 8 1 0 & & 2 1 % % o % b c a d # @ % . * * x o s # A F # @ c b o o G ",
"H < I t | o o : t ( h 3 w 2 6 * * 6 2 ] | J e e J : ] w K ( _ | 9 x x ] : s a @ @ s @ _ e ( _ | ] x x z b s # F F e J s s s s L ",
"M j N : ] x x ] | _ e 7 n 1 0 & & 2 1 | } e h h e i : n 7 h ( } 9 o o | } # E # # d d e O h e t : o o b P s d A A O e d d E # Q ",
"R d S o x * * x o s d e / : ] x x z b s # A F A A e J < j # # j 9 9 s / e O e d d # # # # # d j D s s @ a < [ d # e h A A A A ! ",
"R # T o x * * x o s d h ( } | o o b c @ # A A A A h e j D s s < j 9 # ( h e / @ s @ @ @ s s @ < j # # # d j D s s J e A F F A d ",
"R ( U : ] x x ] | / ( F F e / @ s s @ < j d d e O h e t : o o | } 9 E ( h d s P b % o o % b c @ d h e 7 K V W $ $ : t e h A A ! ",
"R h X t : o o : t e h A A h e # d # d j D s s J e e _ | ] x x ] | 9 > _ e d s b z . x x . z b s # ( _ 8 w Y Z x . ] : J e A A ! ",
"M e A e / s s < j # # # # d d e O h e } | b P > # # s o x * * 9 1 o % | t [ < ` Z & & & & 0 1 n 7 d s b z . x x . z b s d h ( j ",
"H J X h ( # d j < @ s s s s @ _ e ( _ : ] z b s d d s o x * * 9 2 x y ] : < j  ...& * * & 6 2 4 3 ! @ P b $ $ $ $ b P s ! e / D ",
"v s +.O e # d } | % o o % b c > d 7 n 1 0 0 1 : } j < | ] 2 9 & & & & . % > # - ; & * * & 6 2 4 3 e _ s s s @ @ @ s @ _ e @.n 8 ",
"v s +.e _ > s | ] . x x . z b @ d 3 w 0 6 6 2 ] | < j } | 9 2 & * * & x o > # #.; & * & & 0 1 n 7 O e d d # # # # d d ( O $.w %.",
"v s +.d @ c b 1 2 & & & & 0 1 8 &.l 4 0 6 6 0 z b s d e / 9 9 9 6 * * x o @ # l 4 . x x . z b s # A A A A O e d d d # ( h $.w *.",
"v @ +.d s b z 2 6 & * * & 6 2 4 3 7 n 1 0 2 1 b P s d =.( } | 9 9 9 & . % @ # 7 n % $ o % b c @ d A F F A e / @ s s @ _ e -.n ;.",
">._ X # @ % . & & & & & & * & Y  .j < : ] ] : s > J e A A e J : ] 9 x ] | < [ [ < a @ @ s s @ D j e h F A d s P b o o | } j < ,.",
"M e A # s o x & * & & & & * & Z ` < [ t | | t d # e O A A =.e } | 9 9 | t j < D j # # # # # d '.D J e A A d s b z x x ] : D [ I ",
").!.~.E s o x & * & & & & * & x o @ # e _ < j d # e h A A A A e 9 9 s < j t : W V K 7 e h h e t | | t ( =.# s o . & & 0 1 n 7 ! ",
"{.].^.# @ % . & & & & & & & & . o s # h ( j D s s J e A A A A 9 9 # d [ < | ] Z ..w 8 _ ( ( _ : ] ] : / e # @ o x * * 6 2 4 l ! ",
"/.(._.:.<.: ] . x . . . . x . z b s # =.( } | o o | } d E e 9 9 A A A d s b z x x z b @ # [.8 1 5 5 1 : } [ < ` Z * * 6 2 w 3 ! ",
"}.|.1.%.:.t | % o % % % % o % b P @ d e _ | ] x x ] : s @ J 9 A A F A d s P b $ $ b P @ ! 3 w 0 6 6 0 ] | < j  .Y & * 0 1 n 7 ! ",
"2.x 3.w K e _ s s @ @ @ @ @ s s @ < j } | 1 5 * & 2 1 o % : t e h A A e / @ s @ @ s @ < j V ..6 4.x y z b @ d K w x x ] | _ ( d ",
"g $ 5.n 7 h ( # d # # # # # # # d j D | ] 2 6 * * 6 2 x y 9 : 9 9 A A O e d d # # # d [ D W Z 0 1 o % b P @ d 7 8 o $ | } ( h ! ",
"6.s S J e A A O e d d d d e O h e } : 1 0 |.2 2 7.& * * & . % 9 # O e d d # # # # # # [ < : ] ] : @ > s @ _ e e / s s < j E # Q ",
"8.d 9.e h A A e / @ s s @ _ e ( _ | ] 5 6 2 1 1 2 & * * & x o s d e / s s @ @ @ @ s @ < j i | | t # E d d e O h e # d j < @ s 0.",
"a.d b.e h F A d s P b b P @ d d @ r q 2 p 2 1 c.d., e.5 6 9 $ 9 E E > c b % o % % o % | t j < D j d # d d ! ! e h =.e } | o o f.",
"g.s h.J e A A d s b z z b s d ! s P 9 9 9 7.2 i.c.% % 1 2 . $ 9 # d s b z . x . . x . ] | < [ j < @ s @ @ s s / e ( _ | ] x x B ",
"j.o k.: t e h # s $ x x $ @ # d @ P 9 9 9 9 9 9 9 l.c b m.] 9 <.:. .` 1 2 & & & & & & . % @ # d @ P b b P n.0.< j } | 1 2 * & u ",
"o.x 3.] : / e # @ $ x x $ @ # d @ r q 9 9 & & 6 2 p.9 9 9 | 9 :.%.Y Z 2 6 & * & & * & x o s # # s b z z b q.Q j D | ] 2 6 * * f ",
"  * & x o s d d s b z z b s # # s b m.2 6 9 9 * & x o n.r.9 9 s.B 2 6 & & & & & & & & . % @ # d s b z z b s d # @ % . & & * & ~ ",
"}.* & x o s d d @ P b 9 9 @ d d @ P b 1 2 & 9 9 & x o 0.Q [ < t.u.1 5 & & & & & & & & . % @ # d @ P b b P @ d # s o x & * * & ~ ",
"9 6 v.] | _ ( e / s s 9 9 9 9 9 9 r.w.b m.2 9 9 2 m.b @ d e _ > s | ] 2 6 & * & & * & x o s # e _ > > > > _ e # s o x & * * & f ",
"  2 9 : } e h O e 9 d # 9 9 9 D j 9 9 9 b 1 2 9 1 b c s d h e d d } | 1 2 & & & & & & . % s # O e d d d d e O # s % . & & * & u ",
"2.] n 9 9 d d e 9 9 9 9 9 9 9 | t j < 9 9 9 9 9 b ' ' s ! h ( # d [ < | ] . x . . x . ] : D j 7 K - - - - K 7 j D : ] . x x . B ",
"g | x.j 9 9 9 9 e 9 9 > 9 9 ] ] : y.j Q r.9 9 9 P ' ' @ ! e _ s s < j } | % o % % o % | t j < n w ; ; ; ; w n < j t | % o o % f.",
"H < I t : b z.9 9 9 > A.b 1 2 2 1 | } j < 0.w.' ' w.0.< j } | o o | t j < s s s s s s / e d s b z . x x . z b s d e _ @ s @ @ 0.",
"B.[ N : ] z b s d d s b z 0 6 6 0 ] | y.j Q r.' ' 0.C.j D : ] x x ] | < [ # # # # d # ( h d s P b $ $ $ $ b P s d h ( # d E # Q ",
"R d S b z ] : < j } | 1 2 & & & & 0 1 : } j < s s < j } | 1 2 & & y % @ E A A A A A A F A e / @ s @ @ @ s s @ / e h ( # d # d C.",
"R d T z.b : t j < | ] 2 6 & & & & 6 2 ] | D j ! ! j D | ] 2 6 * * x o s # A F A A A A A A O e d d # # # # d d e O e / @ s @ @ 0.",
"R e D.s s _ e # s o x & * & & * & 6 2 z b s d h e } : 1 2 & & & & 2 1 : } e h A A h e # d # # # # d d e O O e # d } | o o b P ' ",
"R O X ! d ( h # s o x & * & & & & 2 1 b P s d ( _ | ] 2 6 & & & & 6 2 ] | J e A A e J s s s @ @ @ s @ _ e e _ a s : ] x x m.b ' ",
"M d ( # # # # [ < | ] 0 6 6 0 x y ] | s > _ e # s o x & * & & & & & & y % @ E h e t : $ $ % % o % b c > # d s P b 1 2 & & Z ` s ",
"H s T @ @ s s < j } | 1 2 2 1 o % | } d # e O d s o x & * & & & & * & x o s d e / : ] . x . . x . z b s d d s b z 2 6 * * .. .! ",
"C c E.% o o % | } [ < : ] ] : s > < j # # # # [ < | ] 2 6 & & & & & & 2 1 | } j < | ] 2 6 & & & & 0 1 : t j < | ] 2 6 * * F.- F ",
"v b ] . x x . ] | < [ t | | t # E j < @ s s s < j } | 1 2 & & & & & & 6 2 ] | D j t : 1 5 & * * & 6 2 ] | < j } : 1 0 * & ; #.G.",
"g 1 v.& & & & 2 1 | } j < D j # # } | % o o % | } [ < | ] 2 6 & * & & * & x o s # ( _ | ] 2 6 * * 6 2 ] | < [ [ < | ] x x H.K I.",
"{ 2 |.& * * & 6 2 ] | < [ j < > s | ] . x x . ] | < [ } | 1 2 & & & & * & x o s # =.( } | 1 2 & & 0 1 : t J.< < j } | $ o n 7 I.",
"2.2 |.& & & & * & 5 1 n 7 d > A.b 1 2 & & & & 2 1 | } j D : ] . x . . x . ] | < [ # # [ < | ] x x ] | < [ t | | t j < s s K.e G.",
"g 1 v.& & & & & & 6 2 4 l # @ b z 2 6 & * * & 6 2 ] | < [ } | % o % % o % | t j < s s < j } | o o | } [ < : ] ] : < [ d # e h F ",
"H | L.2 6 6 0 . y x . 4 K 7 n 1 0 & & & & & & * & Z ` / ( e _ @ s @ @ s s < j t | o o | } j < s s < j } | 1 2 2 1 : } e h A A O ",
"B.} M.1 2 2 1 % % $ $ n 7 3 4 2 6 & & & & & & * & ..V e N.h e # d # # # # [ < | ] x x ] | < [ # # [ < | ] 0 6 6 0 ] | / ( A A e ",
"R d T b z ] : @ > s @ _ e l w 2 6 & * & & * & 6 2 w 3 O ( d d # # d d e O E @ % y & & 0 1 n 7 h ( } | 1 2 & & & & . % s # A A ! ",
"R # O.P b | } # E d # ( h 7 n 1 0 & & & & & & 0 1 n &.e _ s s @ @ s @ _ e # s o x * * 6 2 w l ( _ | ] 2 6 & & * & x o s d A A ! ",
"P.d T w.q.< j # # # # # d j D : ] . x . . x . ] : / e ! s P b $ $ b P s ! 7 n 1 5 & & * & ; - 7 8 1 0 & & & & & & . % s # A F d ",
"R ! T 0.Q j < @ s @ @ s s < j } | % o % % o % | } ( h d s b z x x z b @ d 3 4 2 6 & & * & ; - 3 4 2 6 & & & & & & . % s # A A ! ",
"Q.:.R.< j } | % o o % b c a # e / s s @ @ s s J e F F ( / | ] x x ] | _ ( l w y x 0 6 6 0 4 3 3 4 2 6 & * & & * & x o s # h ( Q ",
"S.%.K j < | ] . x x . z b s # h ( # d # # d # e h A A h e t : $ $ : t e h 7 n % $ 1 2 0 1 8 7 7 n 1 0 & & & & & & . % @ # e / 0.",
"T.; U.7 8 1 0 & & & & 0 1 : t e h h e d ! e O h e # d # # j D s s < j # # [ < > > | ] ] : J e e _ | ] . x . . x . ] | < [ t | f.",
"V.; W.l 4 2 6 & * * & 6 2 ] | / ( e _ s s _ e e / s s s @ < j # # j < s s D j E # t | | t e h h e } | % o % % o % | t j < : ] B ",
"X.; Y.3 4 2 6 & & & & 6 2 ] | < j t | b P @ d 7 n % $ $ % n 7 h e t : o o `  .- #.:.<.J e A A h e j O.s s s s s s < j } | k 2 u ",
"Z.; W.7 8 1 0 & & & & 0 1 : t j D : ] z b @ d K w . x x . w l ( _ | ] . x Z Y F.; %.`.e N.A A e J < j # # # # # # [ < | ] 4.6 f ",
" +; W.E > % y & & & & y % > E # s $ x x $ > # - ; & * * & ; - d > o x & * & * * * F.- A F A A ! s s ! A F A A F A # s o x * * .+"};
