/* XPM */
static char * wall1_xpm[] = {
"64 64 153 2",
"  	c None",
". 	c #FFFF9B",
"+ 	c #FFFFA7",
"@ 	c #FFFFAF",
"# 	c #FFFFC2",
"$ 	c #FFFFB8",
"% 	c #FFFFA2",
"& 	c #71FFFF",
"* 	c #82FFFF",
"= 	c #70FFFF",
"- 	c #5AFFFF",
"; 	c #58FFFF",
"> 	c #FFFF92",
", 	c #FFFF94",
"' 	c #FFFF9E",
") 	c #FFFFBB",
"! 	c #FFFFCD",
"~ 	c #FFFFB6",
"{ 	c #FFFFA1",
"] 	c #FFFF96",
"^ 	c #6EFFFF",
"/ 	c #8EFFFF",
"( 	c #9CFFFF",
"_ 	c #ABFFFF",
": 	c #8CFFFF",
"< 	c #65FFFF",
"[ 	c #FFFFC4",
"} 	c #FFFFB1",
"| 	c #69FFFF",
"1 	c #88FFFF",
"2 	c #A8FFFF",
"3 	c #B7FFFF",
"4 	c #84FFFF",
"5 	c #63FFFF",
"6 	c #FFFF91",
"7 	c #FFFFC3",
"8 	c #FFFFCF",
"9 	c #AAFFFF",
"0 	c #A4FFFF",
"a 	c #7CFFFF",
"b 	c #64FFFF",
"c 	c #FFFFCC",
"d 	c #FFFF95",
"e 	c #89FFFF",
"f 	c #BBFFFF",
"g 	c #BFFFFF",
"h 	c #9BFFFF",
"i 	c #6CFFFF",
"j 	c #FFFF9C",
"k 	c #FFFFC1",
"l 	c #FFFFCB",
"m 	c #FFFFAA",
"n 	c #6FFFFF",
"o 	c #99FFFF",
"p 	c #97FFFF",
"q 	c #81FFFF",
"r 	c #FFFFBC",
"s 	c #FFFFB4",
"t 	c #FFFFA4",
"u 	c #FFFF97",
"v 	c #61FFFF",
"w 	c #77FFFF",
"x 	c #ADFFFF",
"y 	c #B2FFFF",
"z 	c #78FFFF",
"A 	c #FFFFAD",
"B 	c #FFFFB3",
"C 	c #FAFFAA",
"D 	c #D1FFC8",
"E 	c #EAFFAF",
"F 	c #5CFFFF",
"G 	c #A0FFFF",
"H 	c #60FFFF",
"I 	c #5DFFFF",
"J 	c #68FFFF",
"K 	c #A9FFFF",
"L 	c #B4FFFF",
"M 	c #A6FFFF",
"N 	c #6AFFFF",
"O 	c #8DFFFF",
"P 	c #B8FFFF",
"Q 	c #CBFFFF",
"R 	c #93FFFF",
"S 	c #5FFFFF",
"T 	c #8FFFFF",
"U 	c #73FFFF",
"V 	c #59FFFF",
"W 	c #83FFFF",
"X 	c #A1FFFF",
"Y 	c #C0FFFF",
"Z 	c #94FFFF",
"` 	c #79FFFF",
" .	c #57FFFF",
"..	c #90FFFF",
"+.	c #91FFFF",
"@.	c #7AFFFF",
"#.	c #5BFFFF",
"$.	c #CDFFFF",
"%.	c #B3FFFF",
"&.	c #8AFFFF",
"*.	c #C6FFFF",
"=.	c #B6FFFF",
"-.	c #8BFFFF",
";.	c #A3FFFF",
">.	c #B5FFFF",
",.	c #9EFFFF",
"'.	c #66FFFF",
").	c #C7FFFF",
"!.	c #67FFFF",
"~.	c #C1FFFF",
"{.	c #B9FFFF",
"].	c #80FFFF",
"^.	c #9AFFFF",
"/.	c #CFFFFF",
"(.	c #7FFFFF",
"_.	c #98FFFF",
":.	c #ACFFFF",
"<.	c #96FFFF",
"[.	c #72FFFF",
"}.	c #B0FFFF",
"|.	c #87FFFF",
"1.	c #92FFFF",
"2.	c #74FFFF",
"3.	c #AEFFFF",
"4.	c #CEFFFF",
"5.	c #62FFFF",
"6.	c #C3FFFF",
"7.	c #A7FFFF",
"8.	c #6DFFFF",
"9.	c #76FFFF",
"0.	c #6BFFFF",
"a.	c #9DFFFF",
"b.	c #7EFFFF",
"c.	c #86FFFF",
"d.	c #D3FFFF",
"e.	c #AFFFFF",
"f.	c #85FFFF",
"g.	c #7BFFFF",
"h.	c #C2FFFF",
"i.	c #9FFFFF",
"j.	c #BDFFFF",
"k.	c #D0FFFF",
"l.	c #75FFFF",
"m.	c #95FFFF",
"n.	c #A2FFFF",
"o.	c #B1FFFF",
"p.	c #5EFFFF",
"q.	c #7DFFFF",
"r.	c #BEFFFF",
"s.	c #C8FFFF",
"t.	c #BAFFFF",
"u.	c #BCFFFF",
"v.	c #56FFFF",
"                                                                                                                                ",
"                                                                                                                                ",
"                                                                    . + @ # $ %                   & * = - ;                     ",
"                                                              > , ' ) ! ~ { ]               ^ / ( _ : <                         ",
"                                                      > > > > { $ [ } + >           ; ; | 1 2 3 4 5                             ",
"                                                      6   % 7 8 [ %           ;     = * 9 0 a b                                 ",
"                                                  > > ] @ c # @ d             ; < e f g h i                                     ",
"                                                  6 j k l m               ; - n o 3 p q ;                                       ",
"                                                m r s t { u               v w x y z                                             ",
"                                          ] A B 7 C D   E   ; ;       F / G 1 b H I                                             ",
"                                                  ;               J K L M N     ;                                               ",
"                                                              w O P Q R S ;   ;                                                 ",
"                                                                = h Q Q T U V                                                   ",
"                                                                  S W X f Y Z `  .  V                                           ",
"                                                                  ; ;   ` ..P P +.a @.#.                                        ",
"                                                                V           5 U Z $.%.&                                         ",
"                                              ;   ;         ;                 - &.*.=.-.z                                       ",
"                                                                    ; ;  .4 ;.>.%.,.'.                                          ",
"                                                                ;   ; 5 4 x ).p #.                                              ",
"                                                            ; V   !.-.x ( w   F ;                                               ",
"                                                          ; ; < h ~.{.].      ;                                                 ",
"                                                          = ^.=.$./.0 (.<     ; ;                                               ",
"                                                    V W _.:.<.[.= & 4 2 X ` 5 ;                                                 ",
"                                                b 4 ;.}.&.'.          ^ |.;._ ].      ;                                         ",
"                                            N @.G 2 1.2.                  i 3.4.L _.e -                                         ",
"                                        5.W _ X W n       ;                 i : K 6.%./ `                                       ",
"                          ;   ;   V b 1.0 7.`                   ;                   & p K / 8.                                  ",
"                                  - ^._.9.                      ;                       & o 2 G 0.                              ",
"                              U q w 0.                                                V ;   '.o 2 a.@.                          ",
"                            | ^ !.                                                          V - b.~.$.X c.-                     ",
"                        b |                                                                   * ~.d.X W '.;                     ",
"                                                                                    ;   V z h e.^.4 '.    V V                   ",
"                                                                                  b e 1 p L f f.-         ; ;                   ",
"                                                                            V  .b g.K >.e '.I V               ; ;               ",
"                                                                            v : ;.{.h v ; ;                       ;             ",
"                                                                      0.q h ;.M f.S V                             ;             ",
"                                                                | 1 1.e.).h.i.|  .; ;                                           ",
"                                                      ;         (.j.k.M l.    5.                                                ",
"                                                    ; ;   S 2.Z ~._ 8.        ;                                                 ",
"                                                ;         b ].i.).7.<         ; ;                                               ",
"                                                ;             ; * m.:._.` I   ;                                                 ",
"                                              ;                     n p :._.n V V                                               ",
"                                          ; ;                           5 <.7.n.a.n                                             ",
"                                                                            < e o.G -.p.                                        ",
"                                                                                  q n.n.|.^                                     ",
"                                                                                    p.-.i.M W '.                                ",
"                                                                                          q.,.2 <.b                             ",
"                                                                                              8.X :.<.8.; ; V   ;               ",
"                                                                                                  ^ ..K n.i     V               ",
"                                                                                                      q.7.7.;.,.0.              ",
"                                                                                                          n g k.G * V           ",
"                                                                                                      !.q m.r.G &               ",
"                                                                                                  0.o *.Y <.W '.                ",
"                                                                                            N f.Z o.L G b.V                     ",
"                                                                                        2.o.s.g T N                             ",
"                                                                                  V &.o.o.}.1 l.V ;                             ",
"                                                                              '.W ;.s.0 5       ; ;                             ",
"                                                                              p.& R ~.7.n             ; ;                       ",
"                                                                                    a -.9 i.9.                                  ",
"                                                                                        i +.9 ;.z                               ",
"                                                                                            l.o.t.7.4 S                         ",
"                                                                                            ;   H (.7.;...v                     ",
"                                                                                                    ; o u.T b                   ",
"                                                                                                    v.@.^                       "};
