/* XPM */
static char * wall4_xpm[] = {
"64 64 235 2",
"  	c None",
". 	c #FFFF9B",
"+ 	c #FFFFA7",
"@ 	c #FFFFAF",
"# 	c #FFFFC2",
"$ 	c #FFFFB8",
"% 	c #FFFFA2",
"& 	c #66FFFF",
"* 	c #7FFFFF",
"= 	c #7CFFFF",
"- 	c #61FFFF",
"; 	c #58FFFF",
"> 	c #FFFF92",
", 	c #FFFF94",
"' 	c #FFFF9E",
") 	c #FFFFBB",
"! 	c #FFFFCD",
"~ 	c #FFFFB6",
"{ 	c #FFFFA1",
"] 	c #FFFF96",
"^ 	c #62FFFF",
"/ 	c #80FFFF",
"( 	c #96FFFF",
"_ 	c #A8FFFF",
": 	c #A3FFFF",
"< 	c #6EFFFF",
"[ 	c #FFFFC4",
"} 	c #FFFFB1",
"| 	c #59FFFF",
"1 	c #83FFFF",
"2 	c #95FFFF",
"3 	c #B7FFFF",
"4 	c #9CFFFF",
"5 	c #70FFFF",
"6 	c #FFFF91",
"7 	c #FFFFC3",
"8 	c #FFFFCF",
"9 	c #63FFFF",
"0 	c #77FFFF",
"a 	c #9DFFFF",
"b 	c #AFFFFF",
"c 	c #8EFFFF",
"d 	c #6BFFFF",
"e 	c #FFFFCC",
"f 	c #FFFF95",
"g 	c #A7FFFF",
"h 	c #C3FFFF",
"i 	c #AEFFFF",
"j 	c #7DFFFF",
"k 	c #FFFF9C",
"l 	c #FFFFC1",
"m 	c #FFFFCB",
"n 	c #FFFFAA",
"o 	c #B1FFFF",
"p 	c #AAFFFF",
"q 	c #8BFFFF",
"r 	c #65FFFF",
"s 	c #FFFFBC",
"t 	c #FFFFB4",
"u 	c #FFFFA4",
"v 	c #FFFF97",
"w 	c #5EFFFF",
"x 	c #69FFFF",
"y 	c #9BFFFF",
"z 	c #99FFFF",
"A 	c #FFFFB5",
"B 	c #FFFFBD",
"C 	c #D3FFC6",
"D 	c #D0FFC9",
"E 	c #F3FFA4",
"F 	c #72FFFF",
"G 	c #A0FFFF",
"H 	c #94FFFF",
"I 	c #74FFFF",
"J 	c #5BFFFF",
"K 	c #FFFF99",
"L 	c #FFFFA3",
"M 	c #FFFFB7",
"N 	c #FBFFA2",
"O 	c #FBFF9A",
"P 	c #CDFFCB",
"Q 	c #FDFF96",
"R 	c #B6FFFF",
"S 	c #ABFFFF",
"T 	c #FFFFAC",
"U 	c #FFFFC5",
"V 	c #FFFFD7",
"W 	c #F4FFA3",
"X 	c #88FFFF",
"Y 	c #A5FFFF",
"Z 	c #CDFFFF",
"` 	c #6CFFFF",
" .	c #56FFFF",
"..	c #FFFF98",
"+.	c #FFFFC9",
"@.	c #FFFFCE",
"#.	c #FFFFC7",
"$.	c #68FFFF",
"%.	c #BAFFFF",
"&.	c #D7FFFF",
"*.	c #FFFFA9",
"=.	c #FFFFBF",
"-.	c #75FFFF",
";.	c #8AFFFF",
">.	c #5DFFFF",
",.	c #FFFFA0",
"'.	c #FFFFAE",
").	c #FFFFD0",
"!.	c #93FFED",
"~.	c #A9FFFF",
"{.	c #BEFFFF",
"].	c #A2FFFF",
"^.	c #7BFFFF",
"/.	c #CAFFCC",
"(.	c #FFFFAB",
"_.	c #FFFFD4",
":.	c #FDFFA4",
"<.	c #D5FFC3",
"[.	c #B8FFFF",
"}.	c #CAFFFF",
"|.	c #67FFFF",
"1.	c #DDFFBD",
"2.	c #E3FFB5",
"3.	c #E6FFC0",
"4.	c #FFFFC8",
"5.	c #FDFFA1",
"6.	c #B5FFDB",
"7.	c #B3FFFF",
"8.	c #C7FFFF",
"9.	c #85FFFF",
"0.	c #FAFF9A",
"a.	c #FFFF9F",
"b.	c #FFFFD6",
"c.	c #FFFF9D",
"d.	c #57FFFF",
"e.	c #98FFFF",
"f.	c #B4FFFF",
"g.	c #B0FFFF",
"h.	c #7EFFFF",
"i.	c #FFFFBE",
"j.	c #FFFFC0",
"k.	c #FFFFA8",
"l.	c #B2FFFF",
"m.	c #6AFFFF",
"n.	c #FFFFAD",
"o.	c #FFFFB0",
"p.	c #FFFFDA",
"q.	c #82FFFF",
"r.	c #9AFFFF",
"s.	c #60FFFF",
"t.	c #F4FFA2",
"u.	c #A2FFE7",
"v.	c #B2FFEB",
"w.	c #C6FFFF",
"x.	c #D2FFFF",
"y.	c #86FFFF",
"z.	c #76FFFF",
"A.	c #FFFFB9",
"B.	c #F1FFAF",
"C.	c #BEFFE3",
"D.	c #B7FFF3",
"E.	c #BAFFF2",
"F.	c #E5FFB8",
"G.	c #6FFFFF",
"H.	c #ADFFFF",
"I.	c #5AFFFF",
"J.	c #DCFFBD",
"K.	c #FCFFA6",
"L.	c #FFFFD1",
"M.	c #EDFFBD",
"N.	c #F0FFB8",
"O.	c #F4FFA4",
"P.	c #5CFFFF",
"Q.	c #84FFFF",
"R.	c #92FFFF",
"S.	c #84FFF4",
"T.	c #88FFF7",
"U.	c #9DFFFA",
"V.	c #D6FFD9",
"W.	c #F6FFB2",
"X.	c #FFFFD5",
"Y.	c #F0FFAD",
"Z.	c #B7FFDA",
"`.	c #93FFFF",
" +	c #C9FFFF",
".+	c #90FFFF",
"++	c #6DFFFF",
"@+	c #FFFFC6",
"#+	c #EFFFA9",
"$+	c #80FFFB",
"%+	c #8CFFFF",
"&+	c #6BFFFB",
"*+	c #DFFFBD",
"=+	c #E1FFC2",
"-+	c #FDFFAD",
";+	c #9FFFFF",
">+	c #C0FFFF",
",+	c #87FFFF",
"'+	c #FEFFAE",
")+	c #E8FFB7",
"!+	c #CFFFC9",
"~+	c #F1FFAD",
"{+	c #BFFFEE",
"]+	c #91FFFF",
"^+	c #E0FFBC",
"/+	c #79FFFF",
"(+	c #FFFFA6",
"_+	c #FFFFA5",
":+	c #9EFFF2",
"<+	c #B0FFE0",
"[+	c #F2FFA4",
"}+	c #C0FFD6",
"|+	c #FEFFA6",
"1+	c #FFFFB2",
"2+	c #5FFFFF",
"3+	c #F9FF9B",
"4+	c #81FFFF",
"5+	c #A6FFFF",
"6+	c #FFFFD8",
"7+	c #FFFFB3",
"8+	c #D4FFFF",
"9+	c #8FFFFF",
"0+	c #D6FFFF",
"a+	c #73FFFF",
"b+	c #FFFF93",
"c+	c #D2FFC7",
"d+	c #73FFFA",
"e+	c #BDFFDC",
"f+	c #E9FFB6",
"g+	c #CEFFD4",
"h+	c #ADFFFC",
"i+	c #BDFFFF",
"j+	c #FEFF95",
"k+	c #FEFF96",
"l+	c #FFFFBA",
"                                                                                                                                ",
"                                                                                                                                ",
"                                                                            . + @ # $ %                   & * = - ;             ",
"                                                                      > , ' ) ! ~ { ]               ^ / ( _ : <                 ",
"                                                              > > > > { $ [ } + >           ; ; | 1 2 3 4 5                     ",
"                                                              6   % 7 8 [ %             ;   9 0 a b c d                         ",
"                                                          > > ] @ e # @ f             ;   0 g h i j                             ",
"                                                          6 k l m n                 ; 9 1 o p q r                               ",
"                                                        n s t u { v               w x y 3 z |                                   ",
"                                  > >             ] A B [ % C D E   ;   ;       F G H I J 9                                     ",
"                                              K L s 8 M N O P Q           ; 2 R S q     ;                                       ",
"                                              { T U V ! + W 6         9 X Y Z i `  .; |                                         ",
"                                                  ..$ +.@.#.+ . > > Q   $.X %.&.p 0 -                                           ",
"                                                    > , *.=.8 #.n K k       -.z i h _ ;.>.  ;                                   ",
"                                                6           ,.'.B ).[ K   !.;   r ;.~.{.]./ ^.`                                 ",
"                                6 >     6 6 > >               /.(._.8 A :.<.          < j [.}.q |.                              ",
"                            >                         1.2.3.@ B 4.7 5.6.                d 7.8.y 9.>.                            ",
"                                                    0.  a.# b.s c.            ; d.< e.f.i g.h.                                  ",
"                                              >     u i.j.'.k.a.6       ; ; ;   I 4 h l.m.                                      ",
"                                          > > , n.l e } ..    >       ;     0 ~.g X |.w |                                       ",
"                                          ..o.# b.p.s .       >   | ; w q.3 h r.s.    ;                                         ",
"                                      % T l =.'.T n.~ U t '   6 t.u.v._ w.x.[.y.z.      ;                                       ",
"                                  c.o.U A.u v 6       % M 7 B B.C.D.E.F.5 G.0 y H.;.d I.;                                       ",
"                              ' t U i.'.f       >       J.K.4.L.A.M.N.O.      P.Q.2 i R.`     ;                                 ",
"                          a.B 7 ~ L                 S.T.U.V.W.i.! X.#.u Y.Z.      s.`. +h G .+++                                ",
"              >     , n.$ @+} c.                #+$+4 S %+h.&+  *+=+-+j.l k.          * ;+[.>+4 ,+w                             ",
"                  > A l '+)+!+        ;     J Q.~+{+]+9               ^+*.# i.} v           $.X g a /+                          ",
"              K + (+_+                      1 ;+:+<+                  > [+}+|+# l 1+a.          2+c ]._ q.s.                    ",
"            . + u                     x h.h.G.                            > 3+Q k.! e o.(+>     |   w 4+5+: .+-                 ",
"        k k                         |.++<                                     { #.6+#.7+L           ; d.x g 8+R 9+d             ",
"                                w $.                                6     ' T [ U M a.    >           ++_ 0+%.X a+>.            ",
"                                                                  , { ,.T U ).~ f         b+c+&+| ^ .+_ Y .+F       |           ",
"                                                            > > > ' # m $ k.(+b+          d+e+f+g+h+i+: x           ;           ",
"                                                            b+u M e # ' > 6 >                   j+k+                            ",
"                                                        ' T M #.~ u v                             >                             ",
"                                                k (++ l+).X.l ' 6 6 >                                                           ",
"                                    > >         % 4.V #.T a.' . 6                                                               ",
"                                    > >       *.4.+.T '       >                                                                 ",
"                                6         K o.U b.=.,         >                                                                 ",
"                                >             ] @ i.j.T v     6                                                                 ",
"                              > >                   + l @+T K >                                                                 ",
"                            > >                         L l # 7+o.'                                                             ",
"                                                            { l+m t + b+                                                        ",
"                                                              f { t [ ~ ,.                                                      ",
"                                                                    ' U +.7+                                                    ",
"                                                                                                                                ",
"                                                                                                                                ",
"                                                                                                                                ",
"                                                                                                                                ",
"                                                                                                                                ",
"                                                                                                                                ",
"                                                                                                                                ",
"                                                                                                                                ",
"                                                                                                                                ",
"                                                                                                                                ",
"                                                                                                                                ",
"                                                                                                                                ",
"                                                                                                                                ",
"                                                                                                                                ",
"                                                                                                                                ",
"                                                                                                                                ",
"                                                                                                                                ",
"                                                                                                                                ",
"                                                                                                                                "};
