/* XPM */
static char * wall5_xpm[] = {
"64 64 166 2",
"  	c None",
". 	c #FFFF9D",
"+ 	c #FFFFA9",
"@ 	c #FFFFB4",
"# 	c #FFFFC4",
"$ 	c #FFFFB2",
"% 	c #FFFF9F",
"& 	c #6AFFFF",
"* 	c #81FFFF",
"= 	c #78FFFF",
"- 	c #5EFFFF",
"; 	c #58FFFF",
"> 	c #FFFF92",
", 	c #FFFF91",
"' 	c #FFFF96",
") 	c #FFFFA1",
"! 	c #FFFFC2",
"~ 	c #FFFFCA",
"{ 	c #FFFFB0",
"] 	c #67FFFF",
"^ 	c #86FFFF",
"/ 	c #98FFFF",
"( 	c #AAFFFF",
"_ 	c #9CFFFF",
": 	c #FFFF94",
"< 	c #FFFFA6",
"[ 	c #FFFFBF",
"} 	c #FFFFC1",
"| 	c #FFFFAD",
"1 	c #FFFFA3",
"2 	c #5DFFFF",
"3 	c #B8FFFF",
"4 	c #92FFFF",
"5 	c #FFFFA8",
"6 	c #FFFFC9",
"7 	c #FFFFCF",
"8 	c #FFFFBD",
"9 	c #FFFF9A",
"0 	c #68FFFF",
"a 	c #7AFFFF",
"b 	c #A3FFFF",
"c 	c #ACFFFF",
"d 	c #87FFFF",
"e 	c #FFFF99",
"f 	c #FFFFB9",
"g 	c #FFFFCD",
"h 	c #FFFFBE",
"i 	c #FFFFA7",
"j 	c #7EFFFF",
"k 	c #B0FFFF",
"l 	c #C2FFFF",
"m 	c #A8FFFF",
"n 	c #76FFFF",
"o 	c #FFFFA5",
"p 	c #FFFFC7",
"q 	c #FFFFA0",
"r 	c #8BFFFF",
"s 	c #B4FFFF",
"t 	c #A2FFFF",
"u 	c #88FFFF",
"v 	c #FFFF93",
"w 	c #FFFFB1",
"x 	c #FFFFBC",
"y 	c #FFFFA2",
"z 	c #5FFFFF",
"A 	c #6DFFFF",
"B 	c #B7FFFF",
"C 	c #8DFFFF",
"D 	c #FFFFB8",
"E 	c #FEFF9B",
"F 	c #EDFFAB",
"G 	c #E5FFB4",
"H 	c #A1FFFF",
"I 	c #8FFFFF",
"J 	c #5CFFFF",
"K 	c #61FFFF",
"L 	c #FFFFAC",
"M 	c #F9FFA2",
"N 	c #F7FF9F",
"O 	c #DCFFBE",
"P 	c #FCFF97",
"Q 	c #9FFFFF",
"R 	c #B6FFFF",
"S 	c #A9FFFF",
"T 	c #7DFFFF",
"U 	c #FFFFCB",
"V 	c #FFFFD8",
"W 	c #FEFF9F",
"X 	c #F4FFA2",
"Y 	c #6BFFFF",
"Z 	c #89FFFF",
"` 	c #ADFFFF",
" .	c #CEFFFF",
"..	c #A4FFFF",
"+.	c #66FFFF",
"@.	c #57FFFF",
"#.	c #59FFFF",
"$.	c #FFFFCE",
"%.	c #FFFFC0",
"&.	c #FFFFA4",
"*.	c #90FFFF",
"=.	c #D4FFFF",
"-.	c #75FFFF",
";.	c #FFFFD0",
">.	c #FFFF9B",
",.	c #9DFFFF",
"'.	c #C3FFFF",
").	c #85FFFF",
"!.	c #5AFFFF",
"~.	c #FFFFD1",
"{.	c #FFFFBA",
"].	c #FFFF95",
"^.	c #74FFF8",
"/.	c #8CFFFF",
"(.	c #BDFFFF",
"_.	c #9BFFFF",
":.	c #7BFFFF",
"<.	c #65FFFF",
"[.	c #E9FFAF",
"}.	c #FFFFD7",
"|.	c #FDFF9E",
"1.	c #71FFFF",
"2.	c #7FFFFF",
"3.	c #F2FFA4",
"4.	c #CFFFC9",
"5.	c #EBFFAF",
"6.	c #ECFFBD",
"7.	c #FFFFB3",
"8.	c #F4FFA8",
"9.	c #9FFFE7",
"0.	c #BCFFFF",
"a.	c #C1FFFF",
"b.	c #94FFFF",
"c.	c #82FFFF",
"d.	c #EAFFB1",
"e.	c #FFFFD3",
"f.	c #FFFF9C",
"g.	c #56FFFF",
"h.	c #77FFFF",
"i.	c #AFFFFF",
"j.	c #74FFFF",
"k.	c #FFFF97",
"l.	c #FFFFAE",
"m.	c #FFFFAB",
"n.	c #FFFF98",
"o.	c #C6FFFF",
"p.	c #62FFFF",
"q.	c #FFFFC6",
"r.	c #FFFFC8",
"s.	c #FFFFD5",
"t.	c #60FFFF",
"u.	c #C0FFFF",
"v.	c #FFFFC5",
"w.	c #FFFFBB",
"x.	c #FFFF90",
"y.	c #C0FFD4",
"z.	c #B3FFDE",
"A.	c #FFFFB7",
"B.	c #FFFFAA",
"C.	c #FFFFCC",
"D.	c #FFFFC3",
"E.	c #FFFFAF",
"F.	c #FFFF9E",
"G.	c #FFFFD6",
"H.	c #FFFFD2",
"I.	c #FFFFB5",
"                                                                                                                                ",
"                                                                                                                                ",
"                                                                            . + @ # $ %                   & * = - ;             ",
"                                                                    > , ' ) ! ~ { %                 ] ^ / ( _ &                 ",
"                                                              >   > : < [ } | 1             ; ; 2 ^ _ 3 4 &                     ",
"                                                            > ,   5 6 7 8 9           ; ;   0 a b c d 0                         ",
"                                                          > > e f g h i :             ;   j k l m n                             ",
"                                                          > o p p q               ; ; 0 r s t u -                               ",
"                                                      v w x { y y :               z A b B C                                     ",
"                                  >               % D [ } E   F G   ;           j H I A J K                                     ",
"                                              . 5 # g L M N O P           J Q R S T     ;                                       ",
"                                              i w U V # W X           Y Z `  ...+.@.; #.                                        ",
"                                                  q h ~ $.%.&.' > >     Y *.l =.Q -.2                                           ",
"                                                  > , ' w # ;.[ &.  >.      a ,.s '.Q ).!.  #.                                  ",
"                                                ,           &.{ # ~.{.].  ^.;   A /.k (._.j :.<.                                ",
"                                > >       > > ,               [.f }.~ w |.            1.).l l 2.<.                              ",
"                            >                       3.4.5.6.7.h U x 8.9.                n 0.a.b.c.#.                            ",
"                                                  > [.d.o ~ e.w f.            ; g.h._ R i.( j.                                  ",
"                                            > >   k.l.%.h m.5 n.        ;   ;   :.b o.m p.                                      ",
"                                          > > n.@ q.r.i       >       ;     j c b * <.- ;                                       ",
"                                          q $ 6 V s.w n.      >   ; ; t.C 0.u.*.J     ;                                         ",
"                                    v < $ v.D L L l.w.v.L 9 x.,   y.z.                                                          ",
"                                  q A.q.$ y v       : B.{.# @ 9       >                                                         ",
"                              &.8 ! x 5         >       : B.$.C.$ + 1 ,                                                         ",
"                          &.D.%.7.>.                      e L D.7 s.[ q '                                                       ",
"            >       >.E.h v.B.                  >               9 i E.D.w.1                                                     ",
"                  e x x <                       >                     e $ D.x m.:                                               ",
"              . B.o y                                                 > , e + v.8 { n.                                          ",
"          ' F.+ q                                                           > ' $ ~.q.L y                                       ",
"        . >.                                                                v 5 $.G.%.{ q                                       ",
"                                                                    >   , o E.p D.$ e     >                                     ",
"                                                                  ' y ) $ U g | >         >                                     ",
"                                                            > > > &.r.r.$ i &.,             , >                                 ",
"                                                            ' o [ C.{.e > ,                     >                               ",
"                                                        ) E.x p l.y '                             >                             ",
"                                                F.< 5 # H.e.A.e , , >                               >                           ",
"                                    >         : B.7 s.%.< F.% k.                                                                ",
"                                    > >     >.E.C.} m.k.                                                                        ",
"                                ,         q 7.C.s.$           >                                                                 ",
"                                              9 I.%.h 1       >                                                                 ",
"                              >                   n.w D.# o ' ,                                                                 ",
"                            >                           5 v.h w { '                                                             ",
"                                                            < D.r.| y                                                           ",
"                                                              n.1 f D.{ .                                                       ",
"                                                                    q w.q.@ F.                                                  ",
"                                                                        f.{.D.D o                                               ",
"                                                                            . w q.[ y > > > >                                   ",
"                                                                                9 | %.x m.:     >                               ",
"                                                                                    k.D ~ 8 w { ].                              ",
"                                                                                        ].l.s.$.l.1                             ",
"                                                                                        f.$ $.[ o 9                             ",
"                                                                                  k.$ 6 U h w n.                                ",
"                                                                            n.q l.p g p L ,                                     ",
"                                                                        o [ C.U I.i f.                                          ",
"                                                                  : B.f r.U I.5 ,                                               ",
"                                                                q A.$.w.y 9     >                                               ",
"                                                                                                                                ",
"                                                                                                                                ",
"                                                                                                                                ",
"                                                                                                                                ",
"                                                                                                                                ",
"                                                                                                                                ",
"                                                                                                                                ",
"                                                                                                                                "};
