/* XPM */
static char * wall6_xpm[] = {
"64 64 112 2",
"  	c None",
". 	c #FFFF9B",
"+ 	c #FFFFA8",
"@ 	c #FFFFB1",
"# 	c #FFFFC3",
"$ 	c #FFFFB7",
"% 	c #FFFFA1",
"& 	c #6EFFFF",
"* 	c #81FFFF",
"= 	c #73FFFF",
"- 	c #5BFFFF",
"; 	c #58FFFF",
"> 	c #FFFF92",
", 	c #FFFF95",
"' 	c #FFFF9F",
") 	c #FFFFBD",
"! 	c #FFFFCC",
"~ 	c #FFFFB4",
"{ 	c #FFFFA0",
"] 	c #6BFFFF",
"^ 	c #8BFFFF",
"/ 	c #9AFFFF",
"( 	c #ABFFFF",
"_ 	c #93FFFF",
": 	c #67FFFF",
"< 	c #FFFF93",
"[ 	c #FFFFA3",
"} 	c #FFFFBA",
"| 	c #FFFFB0",
"1 	c #FFFFA6",
"2 	c #FFFF91",
"3 	c #64FFFF",
"4 	c #87FFFF",
"5 	c #A4FFFF",
"6 	c #B8FFFF",
"7 	c #88FFFF",
"8 	c #65FFFF",
"9 	c #FFFFA4",
"0 	c #FFFFC5",
"a 	c #FFFFCF",
"b 	c #FFFFC2",
"c 	c #7EFFFF",
"d 	c #A7FFFF",
"e 	c #80FFFF",
"f 	c #66FFFF",
"g 	c #FFFF97",
"h 	c #FFFFB3",
"i 	c #FFFFCD",
"j 	c #FFFFC1",
"k 	c #FFFFAC",
"l 	c #63FFFF",
"m 	c #85FFFF",
"n 	c #C1FFFF",
"o 	c #A0FFFF",
"p 	c #6FFFFF",
"q 	c #FFFFCA",
"r 	c #59FFFF",
"s 	c #6DFFFF",
"t 	c #94FFFF",
"u 	c #B6FFFF",
"v 	c #5AFFFF",
"w 	c #FFFFAD",
"x 	c #FFFFBC",
"y 	c #FFFFA2",
"z 	c #FFFF96",
"A 	c #60FFFF",
"B 	c #AAFFFF",
"C 	c #B4FFFF",
"D 	c #7FFFFF",
"E 	c #FFFF99",
"F 	c #FFFFB6",
"G 	c #FFFFBE",
"H 	c #FFFF9E",
"I 	c #FBFF99",
"J 	c #A9FFFF",
"K 	c #98FFFF",
"L 	c #68FFFF",
"M 	c #FFFF9A",
"N 	c #FFFFA5",
"O 	c #FFFFBF",
"P 	c #FFFF9C",
"Q 	c #FFFFC7",
"R 	c #FFFFD7",
"S 	c #FFFFCE",
"T 	c #FFFF94",
"U 	c #FFFFC4",
"V 	c #FFFFAF",
"W 	c #FFFFC0",
"X 	c #FFFFD0",
"Y 	c #FFFFD5",
"Z 	c #FFFFA7",
"` 	c #FFFFC9",
" .	c #FFFF9D",
"..	c #FFFFB8",
"+.	c #FFFFCB",
"@.	c #FFFFD8",
"#.	c #FFFFAE",
"$.	c #FFFFC6",
"%.	c #FFFFB9",
"&.	c #FFFFAA",
"*.	c #FFFFB5",
"=.	c #FFFF98",
"-.	c #FFFFBB",
";.	c #FFFFA9",
">.	c #FFFFB2",
",.	c #FFFFD1",
"'.	c #FFFFD4",
").	c #FFFFAB",
"!.	c #FFFFC8",
"~.	c #FFFFD6",
"{.	c #FFFFD3",
"].	c #FFFF90",
"                                                                                                                                ",
"                                                                                                                                ",
"                                                                            . + @ # $ %                 & * = - ;               ",
"                                                                    > > , ' ) ! ~ { ,             ] ^ / ( _ :                   ",
"                                                              > > > < [ } # | 1 2         ; ; 3 4 5 6 7 8                       ",
"                                                              2   9 0 a b {         ; ;   & c d d e f                           ",
"                                                          > > g h i j k ,           ; l m 6 n o p                               ",
"                                                          > ' # q 1             ; r s t u / m v                                 ",
"                                                      > w x h [ y z             A = B C D                                       ",
"                                  > >             E F G # H     I             c J K L   A                                       ",
"                                              M N O a h P > > >                                                                 ",
"                                              9 w Q R q [ < 2                                                                   ",
"                                                  . } q S 0 N E > > >                                                           ",
"                                                  > 2 T k j a U +   P                                                           ",
"                                                2           % V W X j g                                                         ",
"                                > >     2 > > 2                 | Y i ~ '                                                       ",
"                            >                         > 2 Z | G ` j  .                                                          ",
"                                                  > 2   % 0 Y .. .                                                              ",
"                                              >     + O O w +  .                                                                ",
"                                          > > , | # +.w g     >                                                                 ",
"                                          . @ 0 R @...M       >                                                                 ",
"                                      9 #.# x w k #...$.| P   2                                                                 ",
"                                  H h $.$ [ , >       N %.# } P       >                                                         ",
"                              % ..U G k <       >       > 9 q X $ &.Z >                                                         ",
"                          % W b *.'                         Z W i Y 0 y =.                                                      ",
"            > >     g #.-.$.#..                 >                 N k j O Z                                                     ",
"                  , %.W &.E                     >                     g k b G | z                                               ",
"              . ;.N 9                                                 > 2   N # W >. .                                          ",
"            P + y                                                         > > T &.S q V 1                                       ",
"        P P                                                                   [ ` @.0 >.y                                       ",
"                                                                    2   2 { w 0 U *. .    >                                     ",
"                                                                  , y { w Q a h T         >                                     ",
"                                                            > > > { 0 +.F + 1 >               >                                 ",
"                                                            T 9 } ! W P > 2                     > >                             ",
"                                                        ' #.%.Q h [ g                             >                             ",
"                                                P 1 Z G ,.'.G P 2 2 >                                                           ",
"                                    > >         9 +.R U &.' H M                                                                 ",
"                                    > >     E ).q $.k .       >                                                                 ",
"                                2         . @ !.~.-.<         >                                                                 ",
"                                >             g >.O W ;.z     2                                                                 ",
"                              > >                 g &.b 0 ;.=.2                                                                 ",
"                            >                           9 # j >.| .                                                             ",
"                                                            [ ) +.@ 1                                                           ",
"                                                              z % F U ~ '                                                       ",
"                                                                    P ..U %.%                                                   ",
"                                                                        M ~ U } &.<                                             ",
"                                                                            M k 0 W + T >   >                                   ",
"                                                                                =.;.G G | z     >                               ",
"                                                                                    T >.q W >.@ E                               ",
"                                                                                          1 ,.{.>.1                             ",
"                                                                                        . ).! U +  .                            ",
"                                                                                  z w $.! O *.P                                 ",
"                                                                              ' &.# S ` >.<                                     ",
"                                                                        { -.+.i %.+ H                                           ",
"                                                                    1 ..U i %.k >                                               ",
"                                                                 .>.i b [ .     > >                                             ",
"                                                              P #.# '.-.,             >                                         ",
"                                                                  , #.-.U #.E                                                   ",
"                                                                        N x j V P                                               ",
"                                                                          > #.i ` $ {                                           ",
"                                                                            > [ N F 0 *.).>                                     ",
"                                                                                    M G i | =.                                  ",
"                                                                                    ].| 1                                       ",
"                                                                                    >                                           "};
