/* XPM */
static char * wall2_xpm[] = {
"64 64 195 2",
"  	c None",
". 	c #FFFF9B",
"+ 	c #FFFFA7",
"@ 	c #FFFFAF",
"# 	c #FFFFC2",
"$ 	c #FFFFB8",
"% 	c #FFFFA2",
"& 	c #78FFFF",
"* 	c #81FFFF",
"= 	c #69FFFF",
"- 	c #58FFFF",
"; 	c #FFFF92",
"> 	c #FFFF94",
", 	c #FFFF9E",
"' 	c #FFFFBB",
") 	c #FFFFCD",
"! 	c #FFFFB6",
"~ 	c #FFFFA1",
"{ 	c #FFFF96",
"] 	c #75FFFF",
"^ 	c #92FFFF",
"/ 	c #A2FFFF",
"( 	c #AAFFFF",
"_ 	c #7DFFFF",
": 	c #FFFFC4",
"< 	c #FFFFB1",
"[ 	c #57FFFF",
"} 	c #8BFFFF",
"| 	c #B0FFFF",
"1 	c #7AFFFF",
"2 	c #FFFF91",
"3 	c #FFFFC3",
"4 	c #FFFFCF",
"5 	c #5BFFFF",
"6 	c #74FFFF",
"7 	c #8DFFFF",
"8 	c #AEFFFF",
"9 	c #9BFFFF",
"0 	c #73FFFF",
"a 	c #FFFFCC",
"b 	c #FFFF95",
"c 	c #6BFFFF",
"d 	c #94FFFF",
"e 	c #C1FFFF",
"f 	c #B9FFFF",
"g 	c #8EFFFF",
"h 	c #63FFFF",
"i 	c #FFFF9C",
"j 	c #FFFFC1",
"k 	c #FFFFCB",
"l 	c #FFFFAA",
"m 	c #5CFFFF",
"n 	c #77FFFF",
"o 	c #A6FFFF",
"p 	c #B5FFFF",
"q 	c #90FFFF",
"r 	c #76FFFF",
"s 	c #FFFFBC",
"t 	c #FFFFB4",
"u 	c #FFFFA4",
"v 	c #FFFF97",
"w 	c #64FFFF",
"x 	c #86FFFF",
"y 	c #B4FFFF",
"z 	c #66FFFF",
"A 	c #FFFFB5",
"B 	c #FFFFBD",
"C 	c #D0FFC9",
"D 	c #F3FFA4",
"E 	c #62FFFF",
"F 	c #9AFFFF",
"G 	c #9DFFFF",
"H 	c #80FFFF",
"I 	c #5EFFFF",
"J 	c #5AFFFF",
"K 	c #FFFF99",
"L 	c #FFFFA3",
"M 	c #FFFFB7",
"N 	c #FCFFA2",
"O 	c #FCFF97",
"P 	c #CAFFCD",
"Q 	c #F9FF9B",
"R 	c #7CFFFF",
"S 	c #B1FFFF",
"T 	c #AFFFFF",
"U 	c #9FFFFF",
"V 	c #5DFFFF",
"W 	c #FFFFAC",
"X 	c #FFFFC5",
"Y 	c #FFFFD7",
"Z 	c #F3FFA5",
"` 	c #FBFF97",
" .	c #82FFFF",
"..	c #95FFFF",
"+.	c #C3FFFF",
"@.	c #C0FFFF",
"#.	c #FFFF98",
"$.	c #FFFFC9",
"%.	c #FFFFCE",
"&.	c #FFFFC7",
"*.	c #A9FFFF",
"=.	c #D3FFFF",
"-.	c #BDFFFF",
";.	c #6CFFFF",
">.	c #FFFFA9",
",.	c #FFFFBF",
"'.	c #B8FFFF",
").	c #8FFFFF",
"!.	c #59FFFF",
"~.	c #FFFFA0",
"{.	c #FFFFAE",
"].	c #FFFFD0",
"^.	c #84FFFF",
"/.	c #99FFFF",
"(.	c #BCFFFF",
"_.	c #88FFFF",
":.	c #FFFFAB",
"<.	c #FFFFD4",
"[.	c #FEFFA3",
"}.	c #C6FFD0",
"|.	c #67FFFF",
"1.	c #A4FFFF",
"2.	c #D2FFFF",
"3.	c #6AFFFF",
"4.	c #E5FFB4",
"5.	c #DEFFBB",
"6.	c #E9FFBD",
"7.	c #FFFFC8",
"8.	c #FEFFA1",
"9.	c #B1FFDE",
"0.	c #9EFFFF",
"a.	c #CBFFFF",
"b.	c #ACFFFF",
"c.	c #FEFF94",
"d.	c #C7FFD0",
"e.	c #FEFFA0",
"f.	c #FFFFD6",
"g.	c #FFFF9D",
"h.	c #ABFFFF",
"i.	c #B2FFFF",
"j.	c #91FFFF",
"k.	c #FFFFBE",
"l.	c #FFFFC0",
"m.	c #FFFFA8",
"n.	c #FFFF9F",
"o.	c #B7FFFF",
"p.	c #83FFFF",
"q.	c #FFFFAD",
"r.	c #6EFFFF",
"s.	c #FFFFB0",
"t.	c #FFFFDA",
"u.	c #6FFFFF",
"v.	c #A8FFFF",
"w.	c #C4FFFF",
"x.	c #7FFFFF",
"y.	c #BEFFFF",
"z.	c #D0FFFF",
"A.	c #C7FFFF",
"B.	c #96FFFF",
"C.	c #5FFFFF",
"D.	c #8CFFFF",
"E.	c #ADFFFF",
"F.	c #85FFFF",
"G.	c #71FFFF",
"H.	c #97FFFF",
"I.	c #70FFFF",
"J.	c #6DFFFF",
"K.	c #7BFFFF",
"L.	c #BBFFFF",
"M.	c #56FFFF",
"N.	c #98FFFF",
"O.	c #C5FFFF",
"P.	c #72FFFF",
"Q.	c #A0FFFF",
"R.	c #A5FFFF",
"S.	c #7EFFFF",
"T.	c #65FFFF",
"U.	c #79FFFF",
"V.	c #A7FFFF",
"W.	c #60FFFF",
"X.	c #CCFFFF",
"Y.	c #CAFFFF",
"Z.	c #89FFFF",
"`.	c #61FFFF",
" +	c #A3FFFF",
".+	c #BAFFFF",
"++	c #C8FFFF",
"@+	c #C9FFFF",
"#+	c #A1FFFF",
"$+	c #C6FFFF",
"%+	c #8AFFFF",
"&+	c #9CFFFF",
"*+	c #87FFFF",
"=+	c #CDFFFF",
"-+	c #B6FFFF",
"                                                                                                                                ",
"                                                                                                                                ",
"                                                                            . + @ # $ %                     & * = -             ",
"                                                                      ; > , ' ) ! ~ {                 ] ^ / ( _                 ",
"                                                              ; ; ; ; ~ $ : < + ;             - [ ] } | | 1                     ",
"                                                              2   % 3 4 : %             -   5 6 7 8 9 0                         ",
"                                                          ; ; { @ a # @ b             - [ c d e f g h                           ",
"                                                          2 i j k l                 - m n o p q r                               ",
"                                                        l s t u ~ v                 w x y ( z                                   ",
"                                  ; ;             { A B : %   C D   -   -       E F G H I h J                                   ",
"                                              K L s 4 M N O P Q             R S T U V   -                                       ",
"                                              ~ W X Y ) + Z `         -  ...+.@.H J -                                           ",
"                                                  #.$ $.%.&.+ . ; ; ;     1 *.=.-.H ;.-                                         ",
"                                                    ; > >.,.4 &.l K i       = 7 o @.'.).c   - !.                                ",
"                                                2           ~.{.B ].: K     -   J ^./.(.T _.R n                                 ",
"                                2 ;     2 2 ; ;               P :.<.4 A [.}.          |.6 1.2.1.3.                              ",
"                            ;                         4.5.6.@ B 7.3 8.9.                I 0.a.b._.;.                            ",
"                                                    c.d.e.# f.s g.            - - V g h.i.p j.V                                 ",
"                                              ;     u k.l.{.m.n.2         - - - = g o.e p.                                      ",
"                                          ; ; > q.j a < #.    ;       - !.  r.F b.d r.  J                                       ",
"                                          #.s.# f.t.s .       ;     - !.u.v.w.b.u.      -                                       ",
"                                                                  5 x.U y.z.A.B._ m     -                                       ",
"                                                              C.D.U E.F.G.u.0 g 8 H.G.V -                                       ",
"                                                          G.x E.( H   -         1 } *./ n       -                               ",
"                                                      I.F.*.U 7 J.                m K.L.a.( d H M.                              ",
"                                                  = g 8 N.* h     - -                 6 d T O.( } J.                            ",
"                                    - - -   J P.N.v.Q.;.                  -                   1 U R.^.z                         ",
"                                            3.U g J.                      -                     5 S.G *.B.T.                    ",
"                                        U. .P.|.                                                !.    r.Q.V./.J.                ",
"                                    h c u.E                                                           - W.).X.w.N._ M.          ",
"                                !.z |.                                                                C.j.X.Y.d x.E             ",
"                                                                                              -   J ^.Q.E.B.R W.    !.          ",
"                                                                                            3.D.Z.0.f p &           - -         ",
"                                                                                      !.[ J.* S E.x.`.V -               - -     ",
"                                                                                      ;.q h.'.g 5 - -                     - -   ",
"                                                                                r ^.U R. +]   !.                            -   ",
"                                                                          G.D....+A.(.j.E - -                                   ",
"                                                              - -       I ).++@+..;.  W.C.                                      ",
"                                                              -     z & #++.F =         -                                       ",
"                                                          -         u. .h.$+..W.        -                                       ",
"                                                                        I %+&+8 %+n     -                                       ",
"                                                        -                     _ &+8 g |.-                                       ",
"                                                    - -                           ;.U o #+/.W.                                  ",
"                                                                                      3.F | /. .!.                              ",
"                                                                                          |.Z.R.9 F.h                           ",
"                                                                                              |.q o Q.1                         ",
"                                                                                                  V %+/ V.%+`.                  ",
"                                                                                                        U.o E._.z [ - !.  -     ",
"                                                                                                            6 /.h./.z   J -     ",
"                                                                                                              J *+( o 1./.I     ",
"                                                                                                                    * =+A.B.1 M.",
"                                                                                                                c ^./ -.^ 3.    ",
"                                                                                                            I.v.@+'.^ K.W.      ",
"                                                                                                      u.Z.F o.T 9 r             ",
"                                                                                                !.^.(.++o.F.T.                  ",
"                                                                                            `.B.S -+*.S.u.-                     ",
"                                                                                                                                ",
"                                                                                                                                ",
"                                                                                                                                ",
"                                                                                                                                ",
"                                                                                                                                ",
"                                                                                                                                ",
"                                                                                                                                ",
"                                                                                                                                "};
