/* XPM */
static char * wall3_xpm[] = {
"64 64 237 2",
"  	c None",
". 	c #FFFFA2",
"+ 	c #FFFFAC",
"@ 	c #FFFFBD",
"# 	c #FFFFC2",
"$ 	c #FFFFA8",
"% 	c #68FFFF",
"& 	c #81FFFF",
"* 	c #7CFFFF",
"= 	c #60FFFF",
"- 	c #58FFFF",
"; 	c #FFFF92",
"> 	c #FFFF9C",
", 	c #FFFFAB",
"' 	c #FFFFCA",
") 	c #FFFFC1",
"! 	c #FFFFA6",
"~ 	c #FFFF99",
"{ 	c #62FFFF",
"] 	c #82FFFF",
"^ 	c #98FFFF",
"/ 	c #A9FFFF",
"( 	c #A0FFFF",
"_ 	c #6AFFFF",
": 	c #FFFFAE",
"< 	c #FFFFC5",
"[ 	c #FFFFBA",
"} 	c #59FFFF",
"| 	c #84FFFF",
"1 	c #97FFFF",
"2 	c #B6FFFF",
"3 	c #6DFFFF",
"4 	c #FFFF91",
"5 	c #FFFF9D",
"6 	c #FFFFB4",
"7 	c #FFFFCD",
"8 	c #FFFFCC",
"9 	c #FFFFB0",
"0 	c #64FFFF",
"a 	c #7BFFFF",
"b 	c #AFFFFF",
"c 	c #8CFFFF",
"d 	c #FFFF93",
"e 	c #FFFF9F",
"f 	c #FFFFC3",
"g 	c #FFFFB7",
"h 	c #5AFFFF",
"i 	c #77FFFF",
"j 	c #A7FFFF",
"k 	c #C4FFFF",
"l 	c #ACFFFF",
"m 	c #7AFFFF",
"n 	c #FFFF94",
"o 	c #FFFFB1",
"p 	c #FFFFCB",
"q 	c #FFFFBF",
"r 	c #FFFF98",
"s 	c #85FFFF",
"t 	c #A8FFFF",
"u 	c #87FFFF",
"v 	c #65FFFF",
"w 	c #FFFFB8",
"x 	c #FFFFBB",
"y 	c #FFFFA9",
"z 	c #FFFF9B",
"A 	c #FFFF9E",
"B 	c #63FFFF",
"C 	c #6FFFFF",
"D 	c #B4FFFF",
"E 	c #9BFFFF",
"F 	c #FFFFA7",
"G 	c #FFFFBE",
"H 	c #F2FFA7",
"I 	c #F8FF9D",
"J 	c #BFFFD5",
"K 	c #A1FFFF",
"L 	c #93FFFF",
"M 	c #74FFFF",
"N 	c #FFFFA5",
"O 	c #FEFFA5",
"P 	c #F0FFA8",
"Q 	c #E7FFB3",
"R 	c #FBFF99",
"S 	c #B7FFFF",
"T 	c #ABFFFF",
"U 	c #8EFFFF",
"V 	c #55FFFF",
"W 	c #FFFFA3",
"X 	c #FFFFAF",
"Y 	c #FFFFD8",
"Z 	c #FDFF9F",
"` 	c #FEFF95",
" .	c #5BFFFF",
"..	c #A2FFFF",
"+.	c #CEFFFF",
"@.	c #B9FFFF",
"#.	c #75FFFF",
"$.	c #57FFFF",
"%.	c #FFFFC7",
"&.	c #FFFFCF",
"*.	c #CDFFCB",
"=.	c #79FFFF",
"-.	c #AAFFFF",
";.	c #D6FFFF",
">.	c #6BFFFF",
",.	c #FFFF97",
"'.	c #FFFFB2",
").	c #FFFFC4",
"!.	c #FFFFBC",
"~.	c #69FFFF",
"{.	c #8AFFFF",
"].	c #C3FFFF",
"^.	c #B3FFFF",
"/.	c #92FFFF",
"(.	c #FFFFC9",
"_.	c #FFFFD1",
":.	c #FAFF9D",
"<.	c #C3FFD2",
"[.	c #5DFFFF",
"}.	c #80FFFF",
"|.	c #99FFFF",
"1.	c #86FFFF",
"2.	c #72FFFF",
"3.	c #81FFF4",
"4.	c #A8FFE3",
"5.	c #F9FFA1",
"6.	c #FFFFD5",
"7.	c #F7FFB6",
"8.	c #F0FFAA",
"9.	c #D2FFFF",
"0.	c #78FFFF",
"a.	c #5CFFFF",
"b.	c #EDFFAB",
"c.	c #F4FFA7",
"d.	c #FCFFB4",
"e.	c #DCFFBF",
"f.	c #6EFFFF",
"g.	c #B0FFFF",
"h.	c #C0FFFF",
"i.	c #91FFFF",
"j.	c #FEFF93",
"k.	c #E0FFB9",
"l.	c #9FFFFF",
"m.	c #FFFFB5",
"n.	c #FFFFA1",
"o.	c #9EFFFF",
"p.	c #FFFFCE",
"q.	c #7FFFFF",
"r.	c #A3FFFF",
"s.	c #FFFFAD",
"t.	c #FFFFA0",
"u.	c #BDFFFF",
"v.	c #C8FFFF",
"w.	c #61FFFF",
"x.	c #FFFF95",
"y.	c #FFFFC6",
"z.	c #F9FF9C",
"A.	c #C4FFD3",
"B.	c #C8FFDB",
"C.	c #BEFFEF",
"D.	c #BEFFFF",
"E.	c #BCFFFF",
"F.	c #FFFFAA",
"G.	c #FFFFB6",
"H.	c #E3FFC6",
"I.	c #BEFFED",
"J.	c #D2FFCA",
"K.	c #BEFFD6",
"L.	c #66FFFF",
"M.	c #AEFFFF",
"N.	c #D9FFC0",
"O.	c #DFFFC1",
"P.	c #FFFFD2",
"Q.	c #FEFFBA",
"R.	c #FCFFB3",
"S.	c #FEFFA0",
"T.	c #BAFFD8",
"U.	c #A4FFFF",
"V.	c #FFFFB9",
"W.	c #FFFF96",
"X.	c #94FFFF",
"Y.	c #B4FFFA",
"Z.	c #CFFFD6",
"`.	c #F8FFB1",
" +	c #FFFFD0",
".+	c #FDFFAD",
"++	c #EEFFAB",
"@+	c #5EFFFF",
"#+	c #CDFFFF",
"$+	c #B8FFFF",
"%+	c #76FFFF",
"&+	c #E5FFB5",
"*+	c #DDFFC0",
"=+	c #9AFFFF",
"-+	c #CDFFCC",
";+	c #E2FFBD",
">+	c #FEFFAF",
",+	c #B5FFFF",
"'+	c #A5FFFF",
")+	c #F2FFB0",
"!+	c #B6FFDB",
"~+	c #9FFFE8",
"{+	c #B8FFF1",
"]+	c #F0FFB0",
"^+	c #AAFFF2",
"/+	c #F7FFA1",
"(+	c #FEFFB2",
"_+	c #FFFFC0",
":+	c #8BFFFF",
"<+	c #67FFFF",
"[+	c #FFFFA4",
"}+	c #83FFFF",
"|+	c #66FFFE",
"1+	c #FBFF98",
"2+	c #B3FFDD",
"3+	c #E9FFB3",
"4+	c #96FFFF",
"5+	c #ADFFFF",
"6+	c #6CFFFF",
"7+	c #88FFFF",
"8+	c #FEFF92",
"9+	c #FFFF9A",
"0+	c #FFFFD9",
"a+	c #D8FFFF",
"b+	c #FEFF94",
"c+	c #D4FFFF",
"d+	c #EAFFAF",
"e+	c #B9FFD8",
"f+	c #85FFFC",
"g+	c #D4FFD3",
"h+	c #E2FFC4",
"i+	c #B9FFF4",
"j+	c #70FFFF",
"k+	c #A6FFFF",
"l+	c #C7FFFF",
"m+	c #BBFFFF",
"n+	c #9CFFFF",
"                                                                                                                                ",
"                                                                                                                                ",
"                                                                            . + @ # $                   % & * = -               ",
"                                                                    ; ; > , ' ) ! ~               { ] ^ / ( _                   ",
"                                                              ;   ; ~ : < [ $ ~           - - } | 1 2 ^ 3                       ",
"                                                            4   5 6 7 8 9 ;           -   0 a ( b c %                           ",
"                                                          ; d e f ' g >             - h i j k l m                               ",
"                                                          n o p q r               - { s b t u v                                 ",
"                                                      r w x y z A ;             B C 1 D E }                                     ",
"                                  ;             4 F G # [ H   I J -   -       3 K L M } =                                       ",
"                                              N 9 8 ' O P Q R             c S T U V   -                                         ",
"                                              W X p Y ) Z `          .u ..+.@.#.$.- }                                           ",
"                                                  W x %.&.@ y n   ; *.  =.-.;.@.| >.                                            ",
"                                                  ;   ,.'.).&.!.W A z     ~.{.( ].^./.0   -                                     ",
"                                                4           W + (._.X :.<.h   [.}.|.@.-.c 1.2.                                  ",
"                              4 ; ;       ; ;             3.4.5.).6.q 7.8.            C ^.9.1 0.a.                              ",
"                                                    b.*.c.d.q ).(.: e.                f.g.h.i.m [.                              ",
"                                                ; j.k.5 '.&.8 .             -   % l.@.l j a                                     ",
"                                            ; ;   5 x f m.n.> d       - - - B i o.@.b >.                                        ",
"                                          ; ; e q p.) >     ;       - }   q./ r.]   V -                                         ",
"                                        n $ x &.Y &.s.t.      ;   $.{ | u.v.E w.    -                                           ",
"                                    x.: x < + W W ! w y.9 z d z.A.B.C.D.v.E.|.1.}     -                                         ",
"                                A F.) f F.r ;       d , G.< 6 H.I...J.K.  L.{.M.E }.{                                           ",
"                            z , # @ o e               N.O.o P.&.Q.R.S.T.      C ] j U.m     -                                   ",
"                        z X y.V., W.    ;          .| X.Y.Z.`.[ (. +[ .+++      @+] h.#+$+r.%+                                  ",
"          ; ; ;   d 5 G.# q e                 &+*+=+/ {.>.      -+;+>+# [ W         3 {.o.,+'+i.0                               ",
"                  r @ 6 )+!+~+    -        .a {+]+^+w.                /+(+q _+$             i =+t :+<+                          ",
"              [+F.[+5                     _ =+}+|+                    1+2+3+F.) G 9 W.        } | 4+5+/.6+                      ",
"          ,.5 t.~                   { }.7+f.                              I 8+5 # Y y.o ~     }     M ^ T ..>.                  ",
"      ; 9+>                       ~.%                                       A ) 0+' s.t.n           $.%+D a+@./.L.              ",
"                              - %                                   ; ; ,.'.) q o t.      b+        i D c+j 3 @+}               ",
"                                                                  W 9 o # 8 !.z           d+e+} 3 U.,+L * L.    } -             ",
"                                                            ; ;   + 7 _+.   d         -   f+g+h+i+M.c =           - -           ",
"                                                                                      a.{.K T 1.0 $.-                 -         ",
"                                                                                  a.7+..j o.j+  -                       -       ",
"                                                                            [.:+/ @.K c @+                              - -     ",
"                                                                  -     =.k+2 h.b =+* @+  -                                     ",
"                                                            -         >./ k -.j+    } }                                         ",
"                                                        -   }     =.L h.l+]         - -                                         ",
"                                                                    6+4+m+|.}.a.      -                                         ",
"                                                                        C c 5+=+] } - }                                         ",
"                                                      -                     0.7+'+n+=.a.%                                       ",
"                                                  -                             % U r.$+(  .                                    ",
"                                                                                    [.{.( / 1.=                                 ",
"                                                                                                                                ",
"                                                                                                                                ",
"                                                                                                                                ",
"                                                                                                                                ",
"                                                                                                                                ",
"                                                                                                                                ",
"                                                                                                                                ",
"                                                                                                                                ",
"                                                                                                                                ",
"                                                                                                                                ",
"                                                                                                                                ",
"                                                                                                                                ",
"                                                                                                                                ",
"                                                                                                                                ",
"                                                                                                                                ",
"                                                                                                                                ",
"                                                                                                                                ",
"                                                                                                                                ",
"                                                                                                                                ",
"                                                                                                                                "};
