/* XPM */
static char * zoomright4_xpm[] = {
"64 64 158 2",
"  	c #657381",
". 	c #576168",
"+ 	c #4D4E55",
"@ 	c #434046",
"# 	c #39383B",
"$ 	c #4E5057",
"% 	c #213038",
"& 	c #4D4F56",
"* 	c #5B6970",
"= 	c #5B6971",
"- 	c #505B62",
"; 	c #636D7B",
"> 	c #525960",
", 	c #49494F",
"' 	c #3F3D42",
") 	c #383738",
"! 	c #3F3D41",
"~ 	c #494A50",
"{ 	c #383839",
"] 	c #494950",
"^ 	c #57626A",
"/ 	c #5A676F",
"( 	c #505C62",
"_ 	c #5E6371",
": 	c #3F3F42",
"< 	c #353536",
"[ 	c #403F43",
"} 	c #3F3F43",
"| 	c #51575E",
"1 	c #57636A",
"2 	c #515D63",
"3 	c #5B5C6B",
"4 	c #444046",
"5 	c #3A383B",
"6 	c #3C3B3E",
"7 	c #413E42",
"8 	c #343434",
"9 	c #4D4D54",
"0 	c #545A62",
"a 	c #576169",
"b 	c #50575E",
"c 	c #5A5C6A",
"d 	c #434045",
"e 	c #437DA0",
"f 	c #4D92BC",
"g 	c #4E4F57",
"h 	c #4B4C53",
"i 	c #575B68",
"j 	c #3B3A3C",
"k 	c #464247",
"l 	c #525763",
"m 	c #403D41",
"n 	c #39383A",
"o 	c #3E3B3F",
"p 	c #4E5460",
"q 	c #433F44",
"r 	c #3A393B",
"s 	c #9A2890",
"t 	c #FFFFFF",
"u 	c #555D69",
"v 	c #3C4143",
"w 	c #353838",
"x 	c #606C79",
"y 	c #4B545A",
"z 	c #3C4042",
"A 	c #657481",
"B 	c #546168",
"C 	c #475054",
"D 	c #414448",
"E 	c #667481",
"F 	c #59666E",
"G 	c #546067",
"H 	c #4D555B",
"I 	c #636E7B",
"J 	c #566067",
"K 	c #4F575D",
"L 	c #4D4F55",
"M 	c #48494F",
"N 	c #525966",
"O 	c #403D42",
"P 	c #3F535D",
"Q 	c #393738",
"R 	c #35515A",
"S 	c #3A3739",
"T 	c #3D5660",
"U 	c #443F44",
"V 	c #4C606C",
"W 	c #4E4E55",
"X 	c #5E6C7A",
"Y 	c #454247",
"Z 	c #413F43",
"` 	c #4A474E",
" .	c #576269",
"..	c #433F45",
"+.	c #50565D",
"@.	c #353636",
"#.	c #D8B78F",
"$.	c #FFD7A8",
"%.	c #3C3A3D",
"&.	c #404649",
"*.	c #3F4246",
"=.	c #3B3C3F",
"-.	c #3F3E41",
";.	c #525E64",
">.	c #4B4C52",
",.	c #4A474F",
"'.	c #49464D",
").	c #454147",
"!.	c #515662",
"~.	c #3E3C3F",
"{.	c #423F44",
"].	c #3F3B3F",
"^.	c #49444B",
"/.	c #373637",
"(.	c #535A62",
"_.	c #556067",
":.	c #4A4D53",
"<.	c #545E65",
"[.	c #44484D",
"}.	c #4A464E",
"|.	c #4C4B52",
"1.	c #525E65",
"2.	c #333434",
"3.	c #3F4649",
"4.	c #313131",
"5.	c #4F575E",
"6.	c #313130",
"7.	c #3D3B3F",
"8.	c #57636B",
"9.	c #403E42",
"0.	c #4E575D",
"a.	c #3E4245",
"b.	c #51585F",
"c.	c #576068",
"d.	c #48494E",
"e.	c #423F43",
"f.	c #4E545F",
"g.	c #48434A",
"h.	c #3F4245",
"i.	c #5A606A",
"j.	c #424045",
"k.	c #6C747A",
"l.	c #6C7A80",
"m.	c #3F4447",
"n.	c #47494E",
"o.	c #5B747D",
"p.	c #3F4548",
"q.	c #56707C",
"r.	c #404548",
"s.	c #424246",
"t.	c #52575E",
"u.	c #60727F",
"v.	c #535E65",
"w.	c #414447",
"x.	c #343435",
"y.	c #58636B",
"z.	c #63707D",
"A.	c #5B656B",
"  . + @ # # @ $ . % % % % % % % % % % % % % % % % % % % % % % % % % % % % % % % % % % % % % % % % % % % % % % # @ & . * * = * - ",
"; > , ' ) ) ! ~ > % % % % % % % % % % % % % % % % % % % % % % % % % % % % % % % % % % % % % % % % % % % % % % { ' ] > ^ / = = ( ",
"_ ~ : { < < { [ ~ % % % % % % % % % % % % % % % % % % % % % % % % % % % % % % % % % % % % % % % % % % % % % % < { } ~ | 1 = * 2 ",
"3 4 { < ) # 5 6 7 % % % % % % % % % % % % % % % % % % % % % % % % % % % % % % % % % % % % % % % % % % % % % % 8 8 5 4 9 0 a a b ",
"c d { { % % % % % % % % % e e e e e e e e e e e e e % % % % f f f f f f f f f f f f f f f f f f f f f f f f f % % % % % 9 g g h ",
"i 7 j } % % % % % % % % % e e e e e e e e e e e e e % % % % f f f f f f f f f f f f f f f f f f f f f f f f f % % % % % 4 4 4 k ",
"l 6 m ~ % % % % % % % % % e e e e e e e e e e e e e % % % % f f f f f f f f f f f f f f f f f f f f f f f f f % % % % % 5 n # o ",
"p 5 q g % % % % % % % % % e e e e e e e e e e e e e % % % % f f f f f f f f f f f f f f f f f f f f f f f f f % % % % % 8 8 8 r ",
"% % % % s s s s s % % % % e e e e t t t t % % % % % t t t t e e e e f f f f f f f f f f f f f f f f f f f f f f f f f f % % % % ",
"% % % % s s s s s % % % % e e e e t t t t % % % % % t t t t e e e e f f f f f f f f f f f f f f f f f f f f f f f f f f % % % % ",
"% % % % s s s s s % % % % e e e e t t t t % % % % % t t t t e e e e f f f f f f f f f f f f f f f f f f f f f f f f f f % % % % ",
"% % % % s s s s s % % % % e e e e t t t t % % % % % t t t t e e e e f f f f % % % % % f f f f f f f f f f f f % % % % % % % % % ",
"% % % % s s s s s % % % % e e e e t t t t % % % % % t t t t e e e e f f f f % % % % % f f f f f f f f f f f f % % % % % % % % % ",
"% % % % s s s s s % % % % e e e e t t t t % % % % % t t t t e e e e f f f f % % % % % f f f f f f f f f f f f % % % % % % % % % ",
"% % % % s s s s s % % % % e e e e t t t t % % % % % t t t t e e e e f f f f % % % % % f f f f f f f f f f f f % % % % % % % % % ",
"% % % % % % % % % % % % % e e e e t t t t % % % % % t t t t e e e e f f f f f f f f f f f f f f f f f f f f f f f f f f % % % % ",
"% % % % % % % % % % % % % e e e e t t t t % % % % % t t t t e e e e f f f f f f f f f f f f f f f f f f f f f f f f f f % % % % ",
"% % % % % % % % % % % % % e e e e t t t t % % % % % t t t t e e e e f f f f f f f f f f f f f f f f f f f f f f f f f f % % % % ",
"% % % % % % % % % % % % % e e e e t t t t % % % % % t t t t e e e e f f f f f f f f f f f f f f f f f f f f f f f f f f % % % % ",
"u v w n % % % % % s s s s % % % % e e e e e e e e e e e e e e e e e f f f f f f f f f f f f f f f f f f f f f f f f f f % % % % ",
"x y z # % % % % % s s s s % % % % e e e e e e e e e e e e e e e e e f f f f f f f f f f f f f f f f f f f f f f f f f f % % % % ",
"A B C D % % % % % s s s s % % % % e e e e e e e e e e e e e e e e e f f f f f f f f f f f f f f f f f f f f f f f f f f % % % % ",
"E F G H % % % % % s s s s % % % % e e e e e e e e e e e e e e e e e f f f f f f f f f f f f f f f f f f f f f f f f f f % % % % ",
"I a J K % % % % % s s s s % % % % e e e e e e e e e e e e e e e e e f f f f f f f f f f f f f f f f f f f f f f f f f f % % % % ",
"_ $ L M % % % % % s s s s % % % % e e e e e e e e e e e e e e e e e f f f f f f f f f f f f f f f f f f f f f f f f f f % % % % ",
"N 4 q O % % % % % s s s s % % % % e e e e e e e e e e e e e e e e e f f f f f f f f f f f f f f f f f f f f f f f f f f % % % % ",
"P 5 Q { % % % % % % % % % % % % % e e e e e e e e e e e e e e e e e e e e e f f f f f % % % % % % % % % % % % % % % % % % % % % ",
"R 5 S { % % % % % % % % % % % % % e e e e e e e e e e e e e e e e e e e e e f f f f f % % % % % % % % % % % % % % % % % % % % % ",
"T 4 U O % % % % % % % % % % % % % e e e e e e e e e e e e e e e e e e e e e f f f f f % % % % % % % % % % % % % % % % % % % % % ",
"V g W ~ % % % % % % % % % % % % % e e e e e e e e e e e e e e e e e e e e e f f f f f % % % % % % % % % % % % % % % % % % % % % ",
"X a J > ~ ' { # @ $ a a $ % % % % % % % % e e e e e e e e e f f f f f f f f f f f f f f f f f % % % % 0 9 Y o 6 Z ] > ^ / = = ( ",
"  = * a g 4 5 5 4 9 0 0 9 % % % % % % % % e e e e e e e e e f f f f f f f f f f f f f f f f f % % % % 0 9 4 5 # @ & . * * = * - ",
"E = * a g 4 5 5 @ ` 9 9 ` % % % % % % % % e e e e e e e e e f f f f f f f f f f f f f f f f f % % % % 9 ` @ 5 # 4 g a * = = * - ",
"A /  .> ] ! ) { ' 4 4 4 @ % % % % % % % % e e e e e e e e e f f f f f f f f f f f f f f f f f % % % % ....! { # 4 g a * = = * ( ",
"  ^ +.~ : { < @.{ 5 5 # 5 6 Z Z 6 % % % % e e e e e #.#.#.#.$.$.$.$.$.$.$.$.$.$.$.$.$.$.$.$.$.% % % % 5 5 { @.# 4 & . * * = * 2 ",
"I > M 7 %.5 5 { @.@.{ # 5 } ] ] } % % % % e e e e e #.#.#.#.$.$.$.$.$.$.$.$.$.$.$.$.$.$.$.$.$.% % % % &.&.*.=.6 Z ~ > . a a . b ",
"_ ] -.6 7 4 4 ' { { ! ..4 ~ > > ~ % % % % e e e e e #.#.#.#.$.$.$.$.$.$.$.$.$.$.$.$.$.$.$.$.$.% % % % ;.;.K M 7 6 } ] & g g & >.",
"i 7 j } ~ 9 ,.4 5 # ..'.9 | ^ ^ | % % % % e e e e e #.#.#.#.$.$.$.$.$.$.$.$.$.$.$.$.$.$.$.$.$.% % % % a . 0 9 4 5 { ! @ 4 @ @ ).",
"!.%.m ~ > 0 9 4 5 % % % % % % % % % % % % e e e e e #.#.#.#.$.$.$.$.$.$.$.$.$.$.$.$.$.$.$.$.$.% % % % $ $ 9 ` 4 5 < ) # 5 n # o ",
"p 5 q 9 0 > ~ 7 6 % % % % % % % % % % % % e e e e e #.#.#.#.$.$.$.$.$.$.$.$.$.$.$.$.$.$.$.$.$.% % % % @ 4 4 @ ' { < ) # 5 # 5 ~.",
"p 5 {.,.9 ~ } 6 7 % % % % % % % % % % % % e e e e e #.#.#.#.$.$.$.$.$.$.$.$.$.$.$.$.$.$.$.$.$.% % % % # # 5 5 { @.{ ' @ 4 @ @ ).",
"p { ].4 4 ! { # 4 % % % % f f f f f f f f e e e e e #.#.#.#.$.$.$.$.$.$.$.$.$.$.$.$.$.$.$.$.$.% % % % { @.@.{ # 5 : ] g g 9 ` ^.",
"p @./.r 5 ) < # 4 % % % % f f f f f f f f e e e e e #.#.#.#.$.$.$.$.$.$.$.$.$.$.$.$.$.$.$.$.$.% % % % ! { { ! d 4 ~ > a a (.9 ^.",
"l 5 ) # # # # %.7 % % % % f f f f f f f f e e e e e #.#.#.#.$.$.$.$.$.$.$.$.$.$.$.$.$.$.$.$.$.% % % % ..# 5 4 ` 9 | ^ * * _.:.4 ",
"i 4 {.@ @ 4 4 7 6 % % % % f f f f f f f f e e e e e #.#.#.#.$.$.$.$.$.$.$.$.$.$.$.$.$.$.$.$.$.% % % % 4 5 5 4 9 0 ^ / = = <.[.r ",
"c }.|.& g g & ] : % % % % % % % % e e e e e e e e e e e e e f f f f #.#.#.#.#.#.#.#.#.f f f f % % % % ~ } 6 7 ] > ^ / = = 1.&.2.",
"3 9 > . a a . > ] % % % % % % % % e e e e e e e e e e e e e f f f f #.#.#.#.#.#.#.#.#.f f f f % % % % > ] 7 6 : ~ | 1 = * ;.3.4.",
"_ |  .* * * * ^ | % % % % % % % % e e e e e e e e e e e e e f f f f #.#.#.#.#.#.#.#.#.f f f f % % % % > ] 7 %.%.7 ] > a a 5.*.6.",
"; ^ F * = = * / ^ % % % % % % % % e e e e e e e e e e e e e f f f f #.#.#.#.#.#.#.#.#.f f f f % % % % ~ } 7.7 7 6 : ] $ g M =.6.",
"I ^ F * * * * = * 8.| M =.% % % % % % % % e e e e e f f f f f f f f f f f f f f f f f f f f f f f f f % % % % ] } 6 7 4 4 9.{ 4.",
"_ |  .* * * * * * / ^ 0.a.% % % % % % % % e e e e e f f f f f f f f f f f f f f f f f f f f f f f f f % % % % > ~ 7 %.5 # { < 2.",
"i ] b.^ / / 1 . c.a . 0.*.% % % % % % % % e e e e e f f f f f f f f f f f f f f f f f f f f f f f f f % % % % ^ | ~ : { < 8 8 @.",
"!.: d.| ^ ^ | & & $ $ M =.% % % % % % % % e e e e e f f f f f f f f f f f f f f f f f f f f f f f f f % % % % / 1 > ] ' ) 8 8 { ",
"p 5 {.9 0 > ~ @ ..4 @ ! { % % % % e e e e e e e e e f f f f % % % % % % % % % % % % % e e e e f f f f % % % % * * . & 4 # 8 8 r ",
"p # e.` 9 ] : # n 5 # ) < % % % % e e e e e e e e e f f f f % % % % % % % % % % % % % e e e e f f f f % % % % = * a g 4 5 8 8 r ",
"f.5 {.g.Y 7 6 # # # # # 5 % % % % e e e e e e e e e f f f f % % % % % % % % % % % % % e e e e f f f f % % % % * * . & 4 # 8 2.5 ",
"p r {.).o 6 7 @ 4 @ @ 4 4 % % % % % % % % % % % % % % % % % 0 a a 0 9 @ 5 h.0.^ / * * % % % % % % % % % % % % * * . & 4 # 8 8 r ",
"i.D j.7 6 : ] & g g & 9 }.% % % % % % % % % % % % % % % % % > a a > ] ! ) a.K c.a 1 / % % % % % % % % % % % % = * a g 4 # < ) o ",
"k.H *.6 7 ] > . a a . 0 9 % % % % % % % % % % % % % % % % % ~ $ $ ~ } { < =.M & $ | ^ % % % % % % % % % % % % * * . & @ # { ' ).",
"l.;.m.=.n.| 1 * * * * 1 | % % % % % % % % % % % % % % % % % Z 4 4 7 6 # # %.7 ....] > % % % % % % % % % % % % a . > ] 7 %.} ] >.",
"o.;.p.a.0.^ / * = = * / ^ > ] ' ) { ! 4 4 ! { { ' 4 4 4 @ 7 6 # # 6 7 4 4 Z 6 n # } ] ] } { < < { : ] & g & & g & ] } 6 7 ~ > b ",
"q.;.r.h.0.^ / * * * * / ^ > ] 7 6 } ] 9 ` @ 5 =.M & $ $ & M =.< { } ~ g g :.[.&.3.D s.O { 8 8 < { 6 e.4 4 4 4 4 4 7 6 : ] t.^ 2 ",
"u.;.p.=.n.| 1 * * * * 1 | ~ } 6 Z ~ > 0 9 @ 5 *.K . a a . K a.) ! ] > . a _.v.1.;.H w.{ x.8 8 { O 7 6 # # # # # # %.7 ] > y./ ( ",
"z.;.p.n ..& c.* * * * c.& ..n # 4 $ a a $ ..# &.;.* = = * ;.&.5 ..g a * = * = = = 1.&.8 2.8 8 r 4 4 r 8 2.8 8 2.8 # 4 g a = = A."};
