/* XPM */
static char * zoomright5_xpm[] = {
"64 64 153 2",
"  	c #657381",
". 	c #576168",
"+ 	c #4D4E55",
"@ 	c #434046",
"# 	c #39383B",
"$ 	c #4E5057",
"% 	c #4D4F56",
"& 	c #5B6970",
"* 	c #5B6971",
"= 	c #525D64",
"- 	c #404649",
"; 	c #525E64",
"> 	c #433F45",
", 	c #566068",
"' 	c #49444B",
") 	c #49434A",
"! 	c #3A393B",
"~ 	c #505B62",
"{ 	c #636D7B",
"] 	c #525960",
"^ 	c #49494F",
"/ 	c #3F3D42",
"( 	c #383738",
"_ 	c #3F3D41",
": 	c #494A50",
"< 	c #413E42",
"[ 	c #3C3A3D",
"} 	c #3F3F42",
"| 	c #494950",
"1 	c #51575E",
"2 	c #57626A",
"3 	c #3F4245",
"4 	c #4E575D",
"5 	c #57636B",
"6 	c #5A676F",
"7 	c #3B3C3F",
"8 	c #47494E",
"9 	c #57636A",
"0 	c #434045",
"a 	c #4D4D54",
"b 	c #4A464E",
"c 	c #3A383B",
"d 	c #383839",
"e 	c #505C62",
"f 	c #5E6371",
"g 	c #353536",
"h 	c #403F43",
"i 	c #3C3B3E",
"j 	c #52575E",
"k 	c #3E4245",
"l 	c #4E565C",
"m 	c #48494F",
"n 	c #4E4F57",
"o 	c #5A676E",
"p 	c #535A61",
"q 	c #4D4C54",
"r 	c #444046",
"s 	c #3F3F43",
"t 	c #515D63",
"u 	c #5B5C6B",
"v 	c #4F575D",
"w 	c #576169",
"x 	c #576068",
"y 	c #545A62",
"z 	c #343434",
"A 	c #50575E",
"B 	c #5A5C6A",
"C 	c #413F43",
"D 	c #213038",
"E 	c #333434",
"F 	c #4B4C53",
"G 	c #575B68",
"H 	c #3B3A3C",
"I 	c #403D42",
"J 	c #464247",
"K 	c #525763",
"L 	c #403D41",
"M 	c #353636",
"N 	c #39383A",
"O 	c #3E3B3F",
"P 	c #4E5460",
"Q 	c #433F44",
"R 	c #423F44",
"S 	c #437DA0",
"T 	c #4D92BC",
"U 	c #3F3C3F",
"V 	c #373637",
"W 	c #9A2890",
"X 	c #FFFFFF",
"Y 	c #636E7B",
"Z 	c #566067",
"` 	c #4D4F55",
" .	c #525966",
"..	c #3F535D",
"+.	c #393738",
"@.	c #35515A",
"#.	c #3A3739",
"$.	c #3D5660",
"%.	c #443F44",
"&.	c #4C606C",
"*.	c #4E4E55",
"=.	c #5E6C7A",
"-.	c #667481",
";.	c #657481",
">.	c #576269",
",.	c #50565D",
"'.	c #3F4246",
").	c #3F3E41",
"!.	c #4B4C52",
"~.	c #4A474F",
"{.	c #49464D",
"].	c #454147",
"^.	c #515662",
"/.	c #D8B78F",
"(.	c #FFD7A8",
"_.	c #4A474E",
":.	c #3E3C3F",
"<.	c #3F3B3F",
"[.	c #535A62",
"}.	c #556067",
"|.	c #4A4D53",
"1.	c #545E65",
"2.	c #44484D",
"3.	c #4C4B52",
"4.	c #525E65",
"5.	c #3F4649",
"6.	c #313131",
"7.	c #4F575E",
"8.	c #313130",
"9.	c #59666E",
"0.	c #3D3B3F",
"a.	c #403E42",
"b.	c #51585F",
"c.	c #48494E",
"d.	c #423F43",
"e.	c #4E545F",
"f.	c #48434A",
"g.	c #454247",
"h.	c #5A606A",
"i.	c #414448",
"j.	c #424045",
"k.	c #6C747A",
"l.	c #4D555B",
"m.	c #6C7A80",
"n.	c #3F4447",
"o.	c #5B747D",
"p.	c #3F4548",
"q.	c #56707C",
"r.	c #404548",
"s.	c #60727F",
"t.	c #58636B",
"u.	c #63707D",
"v.	c #5B656B",
"  . + @ # # @ $ . . $ @ # # @ % . & & * & = - - = * * ; - # > % . & & & & & & & & * & ; - # > $ . , $ ' ) @ ! # @ % . & & * & ~ ",
"{ ] ^ / ( ( _ : ] ] : < [ } | 1 2 & & * & ; - 3 4 5 6 ; - 7 8 1 9 & & & & & & * & 6 2 4 3 # 0 $ . 2 1 a b @ c d / | ] 2 6 * * e ",
"f : } d g g d h : : h i < | ] 2 6 & & * & ; - 7 8 j 9 ; - k l 2 6 & & & & & & & & 9 1 m 7 # @ n . o 2 p q r c g d s : 1 9 * & t ",
"u r d g ( # c i < _ d 7 m 1 9 & & & & 6 2 v 3 c @ $ w ; - 3 4 2 6 * * 6 2 . x w . y a r c c r n w * * w n r # z z c r a y w w A ",
"B 0 d d / r r C i D D D D D D D D D D D D D D D D D D D D D D D D D D D D D D D D D D D D D D D D D D D D D D z E # @ b a n n F ",
"G < H s | n n : s D D D D D D D D D D D D D D D D D D D D D D D D D D D D D D D D D D D D D D D D D D D D D D E E d I r r r r J ",
"K i L : ] w w ] | D D D D D D D D D D D D D D D D D D D D D D D D D D D D D D D D D D D D D D D D D D D D D D z z M d c c N # O ",
"P c Q n w * * w n D D D D D D D D D D D D D D D D D D D D D D D D D D D D D D D D D D D D D D D D D D D D D D c # d g z z z z ! ",
"P # R n D D D D D D D D D S S S S S S S S S S S S S D D D D T T T T T T T T T T T T T T T T T T T T T T T T T D D D D D E E z c ",
"P ( U : D D D D D D D D D S S S S S S S S S S S S S D D D D T T T T T T T T T T T T T T T T T T T T T T T T T D D D D D g z z ! ",
"P g V s D D D D D D D D D S S S S S S S S S S S S S D D D D T T T T T T T T T T T T T T T T T T T T T T T T T D D D D D d z z ! ",
"D D D D W W W W W D D D D S S S S X X X X D D D D D X X X X S S S S T T T T T T T T T T T T T T T T T T T T T T T T T T D D D D ",
"D D D D W W W W W D D D D S S S S X X X X D D D D D X X X X S S S S T T T T T T T T T T T T T T T T T T T T T T T T T T D D D D ",
"D D D D W W W W W D D D D S S S S X X X X D D D D D X X X X S S S S T T T T T T T T T T T T T T T T T T T T T T T T T T D D D D ",
"D D D D W W W W W D D D D S S S S X X X X D D D D D X X X X S S S S T T T T T T T T T T T T T T T T T T T T T T T T T T D D D D ",
"D D D D W W W W W D D D D S S S S X X X X D D D D D X X X X S S S S T T T T D D D D D T T T T T T T T T T T T D D D D D D D D D ",
"D D D D W W W W W D D D D S S S S X X X X D D D D D X X X X S S S S T T T T D D D D D T T T T T T T T T T T T D D D D D D D D D ",
"D D D D W W W W W D D D D S S S S X X X X D D D D D X X X X S S S S T T T T D D D D D T T T T T T T T T T T T D D D D D D D D D ",
"D D D D W W W W W D D D D S S S S X X X X D D D D D X X X X S S S S T T T T D D D D D T T T T T T T T T T T T D D D D D D D D D ",
"D D D D D D D D D D D D D S S S S X X X X D D D D D X X X X S S S S T T T T T T T T T T T T T T T T T T T T T T T T T T D D D D ",
"D D D D D D D D D D D D D S S S S X X X X D D D D D X X X X S S S S T T T T T T T T T T T T T T T T T T T T T T T T T T D D D D ",
"D D D D D D D D D D D D D S S S S X X X X D D D D D X X X X S S S S T T T T T T T T T T T T T T T T T T T T T T T T T T D D D D ",
"D D D D D D D D D D D D D S S S S X X X X D D D D D X X X X S S S S T T T T T T T T T T T T T T T T T T T T T T T T T T D D D D ",
"Y w Z v D D D D D W W W W D D D D S S S S S S S S S S S S S S S S S T T T T T T T T T T T T T T T T T T T T T T T T T T D D D D ",
"f $ ` m D D D D D W W W W D D D D S S S S S S S S S S S S S S S S S T T T T T T T T T T T T T T T T T T T T T T T T T T D D D D ",
" .r Q I D D D D D W W W W D D D D S S S S S S S S S S S S S S S S S T T T T T T T T T T T T T T T T T T T T T T T T T T D D D D ",
"..c +.d D D D D D W W W W D D D D S S S S S S S S S S S S S S S S S T T T T T T T T T T T T T T T T T T T T T T T T T T D D D D ",
"@.c #.d D D D D D W W W W D D D D S S S S S S S S S S S S S S S S S T T T T T T T T T T T T T T T T T T T T T T T T T T D D D D ",
"$.r %.I D D D D D W W W W D D D D S S S S S S S S S S S S S S S S S T T T T T T T T T T T T T T T T T T T T T T T T T T D D D D ",
"&.n *.: D D D D D W W W W D D D D S S S S S S S S S S S S S S S S S T T T T T T T T T T T T T T T T T T T T T T T T T T D D D D ",
"=.w Z ] D D D D D D D D D D D D D S S S S S S S S S S S S S S S S S S S S S T T T T T D D D D D D D D D D D D D D D D D D D D D ",
"  * & w D D D D D D D D D D D D D S S S S S S S S S S S S S S S S S S S S S T T T T T D D D D D D D D D D D D D D D D D D D D D ",
"-.* & w D D D D D D D D D D D D D S S S S S S S S S S S S S S S S S S S S S T T T T T D D D D D D D D D D D D D D D D D D D D D ",
";.6 >.] D D D D D D D D D D D D D S S S S S S S S S S S S S S S S S S S S S T T T T T D D D D D D D D D D D D D D D D D D D D D ",
"  2 ,.: } d g M d c c # c D D D D D D D D S S S S S S S S S T T T T T T T T T T T T T T T T T D D D D c c d M # r % . & & * & t ",
"Y ] m < [ c c d M M d # c D D D D D D D D S S S S S S S S S T T T T T T T T T T T T T T T T T D D D D - - '.7 i C : ] . w w . A ",
"f | ).i < r r / d d _ > r D D D D D D D D S S S S S S S S S T T T T T T T T T T T T T T T T T D D D D ; ; v m < i s | % n n % !.",
"G < H s : a ~.r c # > {.a D D D D D D D D S S S S S S S S S T T T T T T T T T T T T T T T T T D D D D w . y a r c d _ @ r @ @ ].",
"^.[ L : ] y a r c c r a y 9 6 6 9 D D D D S S S S S /./././.(.(.(.(.(.(.(.(.(.(.(.(.(.(.(.(.(.D D D D $ $ a _.r c g ( # c N # O ",
"P c Q a y ] : < i } | 1 2 & & & & D D D D S S S S S /./././.(.(.(.(.(.(.(.(.(.(.(.(.(.(.(.(.(.D D D D @ r r @ / d g ( # c # c :.",
"P c R ~.a : s i < | ] 2 6 & & & & D D D D S S S S S /./././.(.(.(.(.(.(.(.(.(.(.(.(.(.(.(.(.(.D D D D # # c c d M d / @ r @ @ ].",
"P d <.r r _ d # r n w & * & & * & D D D D S S S S S /./././.(.(.(.(.(.(.(.(.(.(.(.(.(.(.(.(.(.D D D D d M M d # c } | n n a _.' ",
"P M V ! c ( g # r n w & * & & & & D D D D S S S S S /./././.(.(.(.(.(.(.(.(.(.(.(.(.(.(.(.(.(.D D D D _ d d _ 0 r : ] w w [.a ' ",
"K c ( # # # # [ < | ] 9 6 6 9 w x D D D D S S S S S /./././.(.(.(.(.(.(.(.(.(.(.(.(.(.(.(.(.(.D D D D > # c r _.a 1 2 & & }.|.r ",
"G r R @ @ r r < i } | 1 2 2 1 n % D D D D S S S S S /./././.(.(.(.(.(.(.(.(.(.(.(.(.(.(.(.(.(.D D D D r c c r a y 2 6 * * 1.2.! ",
"B b 3.% n n % | } D D D D D D D D T T T T S S S S S /./././.(.(.(.(.(.(.(.(.(.(.(.(.(.(.(.(.(.D D D D : s i < | ] 2 6 * * 4.- E ",
"u a ] . w w . ] | D D D D D D D D T T T T S S S S S /./././.(.(.(.(.(.(.(.(.(.(.(.(.(.(.(.(.(.D D D D ] | < i } : 1 9 * & ; 5.6.",
"f 1 >.& & & & 2 1 D D D D D D D D T T T T S S S S S /./././.(.(.(.(.(.(.(.(.(.(.(.(.(.(.(.(.(.D D D D ] | < [ [ < | ] w w 7.'.8.",
"{ 2 9.& * * & 6 2 D D D D D D D D T T T T S S S S S /./././.(.(.(.(.(.(.(.(.(.(.(.(.(.(.(.(.(.D D D D : s 0.< < i } | $ n m 7 8.",
"Y 2 9.& & & & * & D D D D T T T T S S S S S S S S S T T T T D D D D /././././././././.T T T T D D D D D D D D | s i < r r a.d 6.",
"f 1 >.& & & & & & D D D D T T T T S S S S S S S S S T T T T D D D D /././././././././.T T T T D D D D D D D D ] : < [ c # d g E ",
"G | b.2 6 6 9 . x D D D D T T T T S S S S S S S S S T T T T D D D D /././././././././.T T T T D D D D D D D D 2 1 : } d g z z M ",
"^.} c.1 2 2 1 % % D D D D T T T T S S S S S S S S S T T T T D D D D /././././././././.T T T T D D D D D D D D 6 9 ] | / ( z z d ",
"P c R a y ] : @ > D D D D D D D D D D D D S S S S S S S S S D D D D T T T T T T T T T T T T T T T T T D D D D & & . % r # z z ! ",
"P # d._.a | } # N D D D D D D D D D D D D S S S S S S S S S D D D D T T T T T T T T T T T T T T T T T D D D D * & w n r c z z ! ",
"e.c R f.g.< i # # D D D D D D D D D D D D S S S S S S S S S D D D D T T T T T T T T T T T T T T T T T D D D D & & . % r # z E c ",
"P ! R ].O i < @ r @ @ r r < i } | D D D D D D D D D D D D D D D D D D D D D D D D D D S S S S T T T T D D D D & & . % r # z z ! ",
"h.i.j.< i } | % n n % a b 0 # d / D D D D D D D D D D D D D D D D D D D D D D D D D D S S S S T T T T D D D D * & w n r # g ( O ",
"k.l.'.i < | ] . w w . y a r # g ( D D D D D D D D D D D D D D D D D D D D D D D D D D S S S S T T T T D D D D & & . % @ # d / ].",
"m.; n.7 8 1 9 & & & & 9 1 : s d g D D D D D D D D D D D D D D D D D D D D D D D D D D S S S S T T T T D D D D w . ] | < [ s | !.",
"o.; p.k 4 2 6 & * * & 6 2 ] | / ( d _ r r _ d d / r r r @ < i # # i < r r C D D D D D D D D D D D D D % n % % n % | s i < : ] A ",
"q.; r.3 4 2 6 & & & & 6 2 ] | < i s | a _.@ c 7 m % $ $ % m 7 g d s : n n |.D D D D D D D D D D D D D r r r r r r < i } | j 2 t ",
"s.; p.7 8 1 9 & & & & 9 1 : s i C : ] y a @ c '.v . w w . v k ( _ | ] . w }.D D D D D D D D D D D D D # # # # # # [ < | ] t.6 e ",
"u.; p.N > % x & & & & x % > N # r $ w w $ > # - ; & * * & ; - c > n w & * & D D D D D D D D D D D D D z E z z E z # r n w * * v."};
