/* XPM */
static char * zoomleft1_xpm[] = {
"64 64 138 2",
"  	c #657381",
". 	c #576168",
"+ 	c #4D4E55",
"@ 	c #434046",
"# 	c #39383B",
"$ 	c #4E5057",
"% 	c #213038",
"& 	c #4D4F56",
"* 	c #5B6970",
"= 	c #5B6971",
"- 	c #505B62",
"; 	c #636D7B",
"> 	c #525960",
", 	c #49494F",
"' 	c #3F3D42",
") 	c #383738",
"! 	c #3F3D41",
"~ 	c #494A50",
"{ 	c #383839",
"] 	c #494950",
"^ 	c #57626A",
"/ 	c #5A676F",
"( 	c #505C62",
"_ 	c #5E6371",
": 	c #3F3F42",
"< 	c #353536",
"[ 	c #403F43",
"} 	c #3F3F43",
"| 	c #51575E",
"1 	c #57636A",
"2 	c #515D63",
"3 	c #5B5C6B",
"4 	c #444046",
"5 	c #3A383B",
"6 	c #3C3B3E",
"7 	c #413E42",
"8 	c #343434",
"9 	c #4D4D54",
"0 	c #545A62",
"a 	c #576169",
"b 	c #50575E",
"c 	c #5A5C6A",
"d 	c #434045",
"e 	c #4D92BC",
"f 	c #437DA0",
"g 	c #4E4F57",
"h 	c #4B4C53",
"i 	c #575B68",
"j 	c #3B3A3C",
"k 	c #464247",
"l 	c #525763",
"m 	c #403D41",
"n 	c #39383A",
"o 	c #3E3B3F",
"p 	c #4E5460",
"q 	c #433F44",
"r 	c #3A393B",
"s 	c #FFFFFF",
"t 	c #9A2890",
"u 	c #48494F",
"v 	c #3B3C3F",
"w 	c #4E575D",
"x 	c #3E4245",
"y 	c #4F575D",
"z 	c #3F4245",
"A 	c #454147",
"B 	c #4B4C52",
"C 	c #5E6C7A",
"D 	c #566067",
"E 	c #454247",
"F 	c #413F43",
"G 	c #667481",
"H 	c #4A474E",
"I 	c #657481",
"J 	c #576269",
"K 	c #433F45",
"L 	c #50565D",
"M 	c #353636",
"N 	c #FFD7A8",
"O 	c #D8B78F",
"P 	c #636E7B",
"Q 	c #3C3A3D",
"R 	c #3F4246",
"S 	c #404649",
"T 	c #3F3E41",
"U 	c #525E64",
"V 	c #4A474F",
"W 	c #49464D",
"X 	c #515662",
"Y 	c #3E3C3F",
"Z 	c #423F44",
"` 	c #3F3B3F",
" .	c #49444B",
"..	c #373637",
"+.	c #535A62",
"@.	c #556067",
"#.	c #4A4D53",
"$.	c #545E65",
"%.	c #44484D",
"&.	c #4A464E",
"*.	c #4C4B52",
"=.	c #525E65",
"-.	c #333434",
";.	c #3F4649",
">.	c #313131",
",.	c #4F575E",
"'.	c #313130",
").	c #59666E",
"!.	c #57636B",
"~.	c #403E42",
"{.	c #51585F",
"].	c #576068",
"^.	c #48494E",
"/.	c #423F43",
"(.	c #4E545F",
"_.	c #48434A",
":.	c #47494E",
"<.	c #5A606A",
"[.	c #414448",
"}.	c #424045",
"|.	c #6C747A",
"1.	c #4D555B",
"2.	c #6C7A80",
"3.	c #3F4447",
"4.	c #403D42",
"5.	c #5B747D",
"6.	c #3F4548",
"7.	c #56707C",
"8.	c #404548",
"9.	c #424246",
"0.	c #52575E",
"a.	c #60727F",
"b.	c #535E65",
"c.	c #414447",
"d.	c #343435",
"e.	c #58636B",
"f.	c #63707D",
"g.	c #5B656B",
"  . + @ # # @ $ . % % % % % % % % % % % % % % % % % % % % % % % % % % % % % % % % % % % % % % % % % % % % % % # @ & . * * = * - ",
"; > , ' ) ) ! ~ > % % % % % % % % % % % % % % % % % % % % % % % % % % % % % % % % % % % % % % % % % % % % % % { ' ] > ^ / = = ( ",
"_ ~ : { < < { [ ~ % % % % % % % % % % % % % % % % % % % % % % % % % % % % % % % % % % % % % % % % % % % % % % < { } ~ | 1 = * 2 ",
"3 4 { < ) # 5 6 7 % % % % % % % % % % % % % % % % % % % % % % % % % % % % % % % % % % % % % % % % % % % % % % 8 8 5 4 9 0 a a b ",
"c d { { % % % % % e e e e e e e e e e e e e e e e e e e e e e e e e % % % % f f f f f f f f f f f f f % % % % % % % % % 9 g g h ",
"i 7 j } % % % % % e e e e e e e e e e e e e e e e e e e e e e e e e % % % % f f f f f f f f f f f f f % % % % % % % % % 4 4 4 k ",
"l 6 m ~ % % % % % e e e e e e e e e e e e e e e e e e e e e e e e e % % % % f f f f f f f f f f f f f % % % % % % % % % 5 n # o ",
"p 5 q g % % % % % e e e e e e e e e e e e e e e e e e e e e e e e e % % % % f f f f f f f f f f f f f % % % % % % % % % 8 8 8 r ",
"% % % % e e e e e e e e e e e e e e e e e e e e e e e e e e f f f f s s s s % % % % % s s s s f f f f % % % % t t t t t % % % % ",
"% % % % e e e e e e e e e e e e e e e e e e e e e e e e e e f f f f s s s s % % % % % s s s s f f f f % % % % t t t t t % % % % ",
"% % % % e e e e e e e e e e e e e e e e e e e e e e e e e e f f f f s s s s % % % % % s s s s f f f f % % % % t t t t t % % % % ",
"% % % % % % % % % e e e e e e e e e e e e % % % % % e e e e f f f f s s s s % % % % % s s s s f f f f % % % % t t t t t % % % % ",
"% % % % % % % % % e e e e e e e e e e e e % % % % % e e e e f f f f s s s s % % % % % s s s s f f f f % % % % t t t t t % % % % ",
"% % % % % % % % % e e e e e e e e e e e e % % % % % e e e e f f f f s s s s % % % % % s s s s f f f f % % % % t t t t t % % % % ",
"% % % % % % % % % e e e e e e e e e e e e % % % % % e e e e f f f f s s s s % % % % % s s s s f f f f % % % % t t t t t % % % % ",
"% % % % e e e e e e e e e e e e e e e e e e e e e e e e e e f f f f s s s s % % % % % s s s s f f f f % % % % % % % % % % % % % ",
"% % % % e e e e e e e e e e e e e e e e e e e e e e e e e e f f f f s s s s % % % % % s s s s f f f f % % % % % % % % % % % % % ",
"% % % % e e e e e e e e e e e e e e e e e e e e e e e e e e f f f f s s s s % % % % % s s s s f f f f % % % % % % % % % % % % % ",
"% % % % e e e e e e e e e e e e e e e e e e e e e e e e e e f f f f s s s s % % % % % s s s s f f f f % % % % % % % % % % % % % ",
"% % % % e e e e e e e e e e e e e e e e e e e e e e e e e e f f f f f f f f f f f f f f f f f % % % % t t t t % % % % % | u v r ",
"% % % % e e e e e e e e e e e e e e e e e e e e e e e e e e f f f f f f f f f f f f f f f f f % % % % t t t t % % % % % ^ w x r ",
"% % % % e e e e e e e e e e e e e e e e e e e e e e e e e e f f f f f f f f f f f f f f f f f % % % % t t t t % % % % % ^ y z r ",
"% % % % e e e e e e e e e e e e e e e e e e e e e e e e e e f f f f f f f f f f f f f f f f f % % % % t t t t % % % % % | u v r ",
"% % % % e e e e e e e e e e e e e e e e e e e e e e e e e e f f f f f f f f f f f f f f f f f % % % % t t t t % % % % % ] ! ) 5 ",
"% % % % e e e e e e e e e e e e e e e e e e e e e e e e e e f f f f f f f f f f f f f f f f f % % % % t t t t % % % % % : ) < r ",
"% % % % e e e e e e e e e e e e e e e e e e e e e e e e e e f f f f f f f f f f f f f f f f f % % % % t t t t % % % % % 6 n # o ",
"% % % % % % % % % % % % % % % % % % % % % e e e e e f f f f f f f f f f f f f f f f f f f f f % % % % % % % % % % % % % 7 @ 4 A ",
"% % % % % % % % % % % % % % % % % % % % % e e e e e f f f f f f f f f f f f f f f f f f f f f % % % % % % % % % % % % % ] g g B ",
"% % % % % % % % % % % % % % % % % % % % % e e e e e f f f f f f f f f f f f f f f f f f f f f % % % % % % % % % % % % % > a a b ",
"% % % % % % % % % % % % % % % % % % % % % e e e e e f f f f f f f f f f f f f f f f f f f f f % % % % % % % % % % % % % ^ = * 2 ",
"C a D > ~ ' { # @ $ a a $ % % % % e e e e e e e e e e e e e e e e e f f f f f f f f f % % % % % % % % 0 9 E o 6 F ] > ^ / = = ( ",
"  = * a g 4 5 5 4 9 0 0 9 % % % % e e e e e e e e e e e e e e e e e f f f f f f f f f % % % % % % % % 0 9 4 5 # @ & . * * = * - ",
"G = * a g 4 5 5 @ H 9 9 H % % % % e e e e e e e e e e e e e e e e e f f f f f f f f f % % % % % % % % 9 H @ 5 # 4 g a * = = * - ",
"I / J > ] ! ) { ' 4 4 4 @ % % % % e e e e e e e e e e e e e e e e e f f f f f f f f f % % % % % % % % K K ! { # 4 g a * = = * ( ",
"  ^ L ~ : { < M { 5 5 # 5 % % % % N N N N N N N N N N N N N N N N N O O O O f f f f f % % % % M { 5 5 5 5 { M # 4 & . * * = * 2 ",
"P > u 7 Q 5 5 { M M { # 5 % % % % N N N N N N N N N N N N N N N N N O O O O f f f f f % % % % v R S S S S R v 6 F ~ > . a a . b ",
"_ ] T 6 7 4 4 ' { { ! K 4 % % % % N N N N N N N N N N N N N N N N N O O O O f f f f f % % % % u y U U U U y u 7 6 } ] & g g & B ",
"i 7 j } ~ 9 V 4 5 # K W 9 % % % % N N N N N N N N N N N N N N N N N O O O O f f f f f % % % % 9 0 . a a . 0 9 4 5 { ! @ 4 @ @ A ",
"X Q m ~ > 0 9 4 5 5 4 9 0 % % % % N N N N N N N N N N N N N N N N N O O O O f f f f f % % % % % % % % % % % % 4 5 < ) # 5 n # o ",
"p 5 q 9 0 > ~ 7 6 : ] | ^ % % % % N N N N N N N N N N N N N N N N N O O O O f f f f f % % % % % % % % % % % % ' { < ) # 5 # 5 Y ",
"p 5 Z V 9 ~ } 6 7 ] > ^ / % % % % N N N N N N N N N N N N N N N N N O O O O f f f f f % % % % % % % % % % % % { M { ' @ 4 @ @ A ",
"p { ` 4 4 ! { # 4 g a * = % % % % N N N N N N N N N N N N N N N N N O O O O f f f f f e e e e e e e e % % % % # 5 : ] g g 9 H  .",
"p M ..r 5 ) < # 4 g a * = % % % % N N N N N N N N N N N N N N N N N O O O O f f f f f e e e e e e e e % % % % d 4 ~ > a a +.9  .",
"l 5 ) # # # # Q 7 ] > 1 / % % % % N N N N N N N N N N N N N N N N N O O O O f f f f f e e e e e e e e % % % % H 9 | ^ * * @.#.4 ",
"i 4 Z @ @ 4 4 7 6 : ] | ^ % % % % N N N N N N N N N N N N N N N N N O O O O f f f f f e e e e e e e e % % % % 9 0 ^ / = = $.%.r ",
"c &.*.& g g & ] : Q 7 ~ > % % % % e e e e O O O O O O O O O % % % % f f f f f f f f f f f f f % % % % % % % % ] > ^ / = = =.S -.",
"3 9 > . a a . > ] 7 Q } ] % % % % e e e e O O O O O O O O O % % % % f f f f f f f f f f f f f % % % % % % % % : ~ | 1 = * U ;.>.",
"_ | J * * * * ^ | ] : 6 7 % % % % e e e e O O O O O O O O O % % % % f f f f f f f f f f f f f % % % % % % % % Q 7 ] > a a ,.R '.",
"; ^ ).* = = * / ^ > ] 7 Q % % % % e e e e O O O O O O O O O % % % % f f f f f f f f f f f f f % % % % % % % % 7 6 : ] $ g u v '.",
"P ^ ).* * * * = * !.| u v % % % % e e e e e e e e e % % % % e e e e e e e e f f f f f % % % % % % % % 7 Q } ] ] } 6 7 4 4 ~.{ >.",
"_ | J * * * * * * / ^ w x % % % % e e e e e e e e e % % % % e e e e e e e e f f f f f % % % % % % % % Q 7 ~ > > ~ 7 Q 5 # { < -.",
"i ] {.^ / / 1 . ].a . w R % % % % e e e e e e e e e % % % % e e e e e e e e f f f f f % % % % % % % % : ] | ^ ^ | ~ : { < 8 8 M ",
"X : ^.| ^ ^ | & & $ $ u v % % % % e e e e e e e e e % % % % e e e e e e e e f f f f f % % % % % % % % ] > 1 / / 1 > ] ' ) 8 8 { ",
"p 5 Z 9 0 > ~ @ K 4 @ ! { x y ^ / % % % % % % % % % % % % % e e e e f f f f % % % % % 1 | u v < ) : ] | ^ * * * * . & 4 # 8 8 r ",
"p # /.H 9 ] : # n 5 # ) < v u | 1 % % % % % % % % % % % % % e e e e f f f f % % % % % / ^ y x ) ! ] > ^ / * * = * a g 4 5 8 8 r ",
"(.5 Z _.E 7 6 # # # # # 5 6 F ~ > % % % % % % % % % % % % % e e e e f f f f % % % % % = * U S v :.| 1 * * * * * * . & 4 # 8 -.5 ",
"p r Z A o 6 7 @ 4 @ @ 4 4 7 6 : ] & g & & % % % % % % % % % % % % % % % % % w ^ / * * = * U S z w ^ / * * * * * * . & 4 # 8 8 r ",
"<.[.}.7 6 : ] & g g & 9 &.d # { ' 4 4 @ @ % % % % % % % % % % % % % % % % % y ].a 1 / / 1 w z z w ^ / * = * * = * a g 4 # < ) o ",
"|.1.R 6 7 ] > . a a . 0 9 4 # < ) # 5 # # % % % % % % % % % % % % % % % % % u & $ | ^ 1 | :.v v u | 1 * * * * * * . & @ # { ' A ",
"2.U 3.v :.| 1 * * * * 1 | ~ } { < < { 5 r % % % % % % % % % % % % % % % % % 7 K K ] > > ~ 4.{ { ! ] > . a . . a . > ] 7 Q } ] B ",
"5.U 6.x w ^ / * = = * / ^ > ] ' ) { ! 4 4 ! { { ' 4 4 4 @ 7 6 # # 6 7 4 4 F 6 n # } ] ] } { < < { : ] & g & & g & ] } 6 7 ~ > b ",
"7.U 8.z w ^ / * * * * / ^ > ] 7 6 } ] 9 H @ 5 v u & $ $ & u v < { } ~ g g #.%.S ;.[.9.4.{ 8 8 < { 6 /.4 4 4 4 4 4 7 6 : ] 0.^ 2 ",
"a.U 6.v :.| 1 * * * * 1 | ~ } 6 F ~ > 0 9 @ 5 R y . a a . y x ) ! ] > . a @.b.=.U 1.c.{ d.8 8 { 4.7 6 # # # # # # Q 7 ] > e./ ( ",
"f.U 6.n K & ].* * * * ].& K n # 4 $ a a $ K # S U * = = * U S 5 K g a * = * = = = =.S 8 -.8 8 r 4 4 r 8 -.8 8 -.8 # 4 g a = = g."};
