/* XPM */
static char * zoomleft2_xpm[] = {
"64 64 139 2",
"  	c #657381",
". 	c #576168",
"+ 	c #4D4E55",
"@ 	c #434046",
"# 	c #39383B",
"$ 	c #4E5057",
"% 	c #4D4F56",
"& 	c #5B6970",
"* 	c #5B6971",
"= 	c #525D64",
"- 	c #404649",
"; 	c #525E64",
"> 	c #433F45",
", 	c #566068",
"' 	c #49444B",
") 	c #49434A",
"! 	c #3A393B",
"~ 	c #505B62",
"{ 	c #636D7B",
"] 	c #525960",
"^ 	c #49494F",
"/ 	c #3F3D42",
"( 	c #383738",
"_ 	c #3F3D41",
": 	c #494A50",
"< 	c #413E42",
"[ 	c #3C3A3D",
"} 	c #3F3F42",
"| 	c #494950",
"1 	c #51575E",
"2 	c #57626A",
"3 	c #3F4245",
"4 	c #4E575D",
"5 	c #57636B",
"6 	c #5A676F",
"7 	c #3B3C3F",
"8 	c #47494E",
"9 	c #57636A",
"0 	c #434045",
"a 	c #4D4D54",
"b 	c #4A464E",
"c 	c #3A383B",
"d 	c #383839",
"e 	c #505C62",
"f 	c #5E6371",
"g 	c #353536",
"h 	c #403F43",
"i 	c #3C3B3E",
"j 	c #52575E",
"k 	c #3E4245",
"l 	c #4E565C",
"m 	c #48494F",
"n 	c #4E4F57",
"o 	c #5A676E",
"p 	c #535A61",
"q 	c #4D4C54",
"r 	c #444046",
"s 	c #3F3F43",
"t 	c #515D63",
"u 	c #5B5C6B",
"v 	c #4F575D",
"w 	c #576169",
"x 	c #576068",
"y 	c #545A62",
"z 	c #343434",
"A 	c #50575E",
"B 	c #5A5C6A",
"C 	c #413F43",
"D 	c #213038",
"E 	c #333434",
"F 	c #4B4C53",
"G 	c #575B68",
"H 	c #3B3A3C",
"I 	c #403D42",
"J 	c #464247",
"K 	c #525763",
"L 	c #403D41",
"M 	c #353636",
"N 	c #39383A",
"O 	c #3E3B3F",
"P 	c #4E5460",
"Q 	c #433F44",
"R 	c #423F44",
"S 	c #4D92BC",
"T 	c #437DA0",
"U 	c #3F3C3F",
"V 	c #373637",
"W 	c #FFFFFF",
"X 	c #9A2890",
"Y 	c #454147",
"Z 	c #4B4C52",
"` 	c #50565D",
" .	c #636E7B",
"..	c #3F4246",
"+.	c #3F3E41",
"@.	c #4A474F",
"#.	c #49464D",
"$.	c #515662",
"%.	c #FFD7A8",
"&.	c #D8B78F",
"*.	c #4A474E",
"=.	c #3E3C3F",
"-.	c #3F3B3F",
";.	c #535A62",
">.	c #556067",
",.	c #4A4D53",
"'.	c #545E65",
").	c #44484D",
"!.	c #4C4B52",
"~.	c #525E65",
"{.	c #3F4649",
"].	c #313131",
"^.	c #576269",
"/.	c #4F575E",
"(.	c #313130",
"_.	c #59666E",
":.	c #403E42",
"<.	c #51585F",
"[.	c #48494E",
"}.	c #423F43",
"|.	c #4E545F",
"1.	c #48434A",
"2.	c #454247",
"3.	c #5A606A",
"4.	c #414448",
"5.	c #424045",
"6.	c #6C747A",
"7.	c #4D555B",
"8.	c #6C7A80",
"9.	c #3F4447",
"0.	c #5B747D",
"a.	c #3F4548",
"b.	c #56707C",
"c.	c #404548",
"d.	c #60727F",
"e.	c #343435",
"f.	c #58636B",
"g.	c #63707D",
"h.	c #5B656B",
"  . + @ # # @ $ . . $ @ # # @ % . & & * & = - - = * * ; - # > % . & & & & & & & & * & ; - # > $ . , $ ' ) @ ! # @ % . & & * & ~ ",
"{ ] ^ / ( ( _ : ] ] : < [ } | 1 2 & & * & ; - 3 4 5 6 ; - 7 8 1 9 & & & & & & * & 6 2 4 3 # 0 $ . 2 1 a b @ c d / | ] 2 6 * * e ",
"f : } d g g d h : : h i < | ] 2 6 & & * & ; - 7 8 j 9 ; - k l 2 6 & & & & & & & & 9 1 m 7 # @ n . o 2 p q r c g d s : 1 9 * & t ",
"u r d g ( # c i < _ d 7 m 1 9 & & & & 6 2 v 3 c @ $ w ; - 3 4 2 6 * * 6 2 . x w . y a r c c r n w * * w n r # z z c r a y w w A ",
"B 0 d d / r r C i D D D D D D D D D D D D D D D D D D D D D D D D D D D D D D D D D D D D D D D D D D D D D D z E # @ b a n n F ",
"G < H s | n n : s D D D D D D D D D D D D D D D D D D D D D D D D D D D D D D D D D D D D D D D D D D D D D D E E d I r r r r J ",
"K i L : ] w w ] | D D D D D D D D D D D D D D D D D D D D D D D D D D D D D D D D D D D D D D D D D D D D D D z z M d c c N # O ",
"P c Q n w * * w n D D D D D D D D D D D D D D D D D D D D D D D D D D D D D D D D D D D D D D D D D D D D D D c # d g z z z z ! ",
"P # R n D D D D D S S S S S S S S S S S S S S S S S S S S S S S S S D D D D T T T T T T T T T T T T T D D D D D D D D D E E z c ",
"P ( U : D D D D D S S S S S S S S S S S S S S S S S S S S S S S S S D D D D T T T T T T T T T T T T T D D D D D D D D D g z z ! ",
"P g V s D D D D D S S S S S S S S S S S S S S S S S S S S S S S S S D D D D T T T T T T T T T T T T T D D D D D D D D D d z z ! ",
"D D D D S S S S S S S S S S S S S S S S S S S S S S S S S S T T T T W W W W D D D D D W W W W T T T T D D D D X X X X X D D D D ",
"D D D D S S S S S S S S S S S S S S S S S S S S S S S S S S T T T T W W W W D D D D D W W W W T T T T D D D D X X X X X D D D D ",
"D D D D S S S S S S S S S S S S S S S S S S S S S S S S S S T T T T W W W W D D D D D W W W W T T T T D D D D X X X X X D D D D ",
"D D D D S S S S S S S S S S S S S S S S S S S S S S S S S S T T T T W W W W D D D D D W W W W T T T T D D D D X X X X X D D D D ",
"D D D D D D D D D S S S S S S S S S S S S D D D D D S S S S T T T T W W W W D D D D D W W W W T T T T D D D D X X X X X D D D D ",
"D D D D D D D D D S S S S S S S S S S S S D D D D D S S S S T T T T W W W W D D D D D W W W W T T T T D D D D X X X X X D D D D ",
"D D D D D D D D D S S S S S S S S S S S S D D D D D S S S S T T T T W W W W D D D D D W W W W T T T T D D D D X X X X X D D D D ",
"D D D D D D D D D S S S S S S S S S S S S D D D D D S S S S T T T T W W W W D D D D D W W W W T T T T D D D D X X X X X D D D D ",
"D D D D S S S S S S S S S S S S S S S S S S S S S S S S S S T T T T W W W W D D D D D W W W W T T T T D D D D D D D D D D D D D ",
"D D D D S S S S S S S S S S S S S S S S S S S S S S S S S S T T T T W W W W D D D D D W W W W T T T T D D D D D D D D D D D D D ",
"D D D D S S S S S S S S S S S S S S S S S S S S S S S S S S T T T T W W W W D D D D D W W W W T T T T D D D D D D D D D D D D D ",
"D D D D S S S S S S S S S S S S S S S S S S S S S S S S S S T T T T W W W W D D D D D W W W W T T T T D D D D D D D D D D D D D ",
"D D D D S S S S S S S S S S S S S S S S S S S S S S S S S S T T T T T T T T T T T T T T T T T D D D D X X X X D D D D D | _ ( c ",
"D D D D S S S S S S S S S S S S S S S S S S S S S S S S S S T T T T T T T T T T T T T T T T T D D D D X X X X D D D D D } ( g ! ",
"D D D D S S S S S S S S S S S S S S S S S S S S S S S S S S T T T T T T T T T T T T T T T T T D D D D X X X X D D D D D i N # O ",
"D D D D S S S S S S S S S S S S S S S S S S S S S S S S S S T T T T T T T T T T T T T T T T T D D D D X X X X D D D D D < @ r Y ",
"D D D D S S S S S S S S S S S S S S S S S S S S S S S S S S T T T T T T T T T T T T T T T T T D D D D X X X X D D D D D | n n Z ",
"D D D D S S S S S S S S S S S S S S S S S S S S S S S S S S T T T T T T T T T T T T T T T T T D D D D X X X X D D D D D ] w w A ",
"D D D D S S S S S S S S S S S S S S S S S S S S S S S S S S T T T T T T T T T T T T T T T T T D D D D X X X X D D D D D 2 * & t ",
"D D D D D D D D D D D D D D D D D D D D D S S S S S T T T T T T T T T T T T T T T T T T T T T D D D D D D D D D D D D D 6 * * e ",
"D D D D D D D D D D D D D D D D D D D D D S S S S S T T T T T T T T T T T T T T T T T T T T T D D D D D D D D D D D D D & * & ~ ",
"D D D D D D D D D D D D D D D D D D D D D S S S S S T T T T T T T T T T T T T T T T T T T T T D D D D D D D D D D D D D * * & ~ ",
"D D D D D D D D D D D D D D D D D D D D D S S S S S T T T T T T T T T T T T T T T T T T T T T D D D D D D D D D D D D D * * & e ",
"  2 ` : } d g M d c c # c D D D D S S S S S S S S S S S S S S S S S T T T T T T T T T D D D D D D D D c c d M # r % . & & * & t ",
" .] m < [ c c d M M d # c D D D D S S S S S S S S S S S S S S S S S T T T T T T T T T D D D D D D D D - - ..7 i C : ] . w w . A ",
"f | +.i < r r / d d _ > r D D D D S S S S S S S S S S S S S S S S S T T T T T T T T T D D D D D D D D ; ; v m < i s | % n n % Z ",
"G < H s : a @.r c # > #.a D D D D S S S S S S S S S S S S S S S S S T T T T T T T T T D D D D D D D D w . y a r c d _ @ r @ @ Y ",
"$.[ L : ] y a r c c r a y D D D D %.%.%.%.%.%.%.%.%.%.%.%.%.%.%.%.%.&.&.&.&.T T T T T D D D D *.a $ $ $ $ a *.r c g ( # c N # O ",
"P c Q a y ] : < i } | 1 2 D D D D %.%.%.%.%.%.%.%.%.%.%.%.%.%.%.%.%.&.&.&.&.T T T T T D D D D @ r @ @ @ r r @ / d g ( # c # c =.",
"P c R @.a : s i < | ] 2 6 D D D D %.%.%.%.%.%.%.%.%.%.%.%.%.%.%.%.%.&.&.&.&.T T T T T D D D D c c # # # # c c d M d / @ r @ @ Y ",
"P d -.r r _ d # r n w & * D D D D %.%.%.%.%.%.%.%.%.%.%.%.%.%.%.%.%.&.&.&.&.T T T T T D D D D # # c c d M M d # c } | n n a *.' ",
"P M V ! c ( g # r n w & * D D D D %.%.%.%.%.%.%.%.%.%.%.%.%.%.%.%.%.&.&.&.&.T T T T T D D D D @ @ r @ _ d d _ 0 r : ] w w ;.a ' ",
"K c ( # # # # [ < | ] 9 6 D D D D %.%.%.%.%.%.%.%.%.%.%.%.%.%.%.%.%.&.&.&.&.T T T T T D D D D n % a b > # c r *.a 1 2 & & >.,.r ",
"G r R @ @ r r < i } | 1 2 D D D D %.%.%.%.%.%.%.%.%.%.%.%.%.%.%.%.%.&.&.&.&.T T T T T D D D D w . y a r c c r a y 2 6 * * '.).! ",
"B b !.% n n % | } [ < : ] D D D D %.%.%.%.%.%.%.%.%.%.%.%.%.D D D D &.&.&.&.T T T T T S S S S D D D D D D D D | ] 2 6 * * ~.- E ",
"u a ] . w w . ] | < [ s | D D D D %.%.%.%.%.%.%.%.%.%.%.%.%.D D D D &.&.&.&.T T T T T S S S S D D D D D D D D } : 1 9 * & ; {.].",
"f 1 ^.& & & & 2 1 | } i < D D D D %.%.%.%.%.%.%.%.%.%.%.%.%.D D D D &.&.&.&.T T T T T S S S S D D D D D D D D [ < | ] w w /...(.",
"{ 2 _.& * * & 6 2 ] | < [ D D D D %.%.%.%.%.%.%.%.%.%.%.%.%.D D D D &.&.&.&.T T T T T S S S S D D D D D D D D < i } | $ n m 7 (.",
" .2 _.& & & & * & 5 1 m 7 D D D D S S S S &.&.&.&.&.D D D D S S S S S S S S T T T T T T T T T S S S S D D D D | s i < r r :.d ].",
"f 1 ^.& & & & & & 6 2 4 k D D D D S S S S &.&.&.&.&.D D D D S S S S S S S S T T T T T T T T T S S S S D D D D ] : < [ c # d g E ",
"G | <.2 6 6 9 . x w . 4 ..D D D D S S S S &.&.&.&.&.D D D D S S S S S S S S T T T T T T T T T S S S S D D D D 2 1 : } d g z z M ",
"$.} [.1 2 2 1 % % $ $ m 7 D D D D S S S S &.&.&.&.&.D D D D S S S S S S S S T T T T T T T T T S S S S D D D D 6 9 ] | / ( z z d ",
"P c R a y ] : @ > r @ _ d D D D D S S S S T T T T T D D D D S S S S S S S S T T T T T D D D D D D D D D D D D & & . % r # z z ! ",
"P # }.*.a | } # N c # ( g D D D D S S S S T T T T T D D D D S S S S S S S S T T T T T D D D D D D D D D D D D * & w n r c z z ! ",
"|.c R 1.2.< i # # # # # c D D D D S S S S T T T T T D D D D S S S S S S S S T T T T T D D D D D D D D D D D D & & . % r # z E c ",
"P ! R Y O i < @ r @ @ r r < i } | D D D D D D D D D D D D D S S S S T T T T D D D D D * & ; - 3 4 2 6 & & & & & & . % r # z z ! ",
"3.4.5.< i } | % n n % a b 0 # d / D D D D D D D D D D D D D S S S S T T T T D D D D D 6 9 4 3 3 4 2 6 & * & & * & w n r # g ( O ",
"6.7...i < | ] . w w . y a r # g ( D D D D D D D D D D D D D S S S S T T T T D D D D D 9 1 8 7 7 m 1 9 & & & & & & . % @ # d / Y ",
"8.; 9.7 8 1 9 & & & & 9 1 : s d g D D D D D D D D D D D D D S S S S T T T T D D D D D ] : I d d _ | ] . w . . w . ] | < [ s | Z ",
"0.; a.k 4 2 6 & * * & 6 2 ] | / ( d _ r r _ d d / r D D D D D D D D D D D D D D D D D | s d g g d } | % n % % n % | s i < : ] A ",
"b.; c.3 4 2 6 & & & & 6 2 ] | < i s | a *.@ c 7 m % D D D D D D D D D D D D D D D D D I d z z g d i }.r r r r r r < i } | j 2 t ",
"d.; a.7 8 1 9 & & & & 9 1 : s i C : ] y a @ c ..v . D D D D D D D D D D D D D D D D D d e.z z d I < i # # # # # # [ < | ] f.6 e ",
"g.; a.N > % x & & & & x % > N # r $ w w $ > # - ; & D D D D D D D D D D D D D D D D D z E z z ! r r ! z E z z E z # r n w * * h."};
